<?xml version="1.0" encoding="UTF-8"?>
<svg width="136px" height="119px" viewBox="0 0 136 119" version="1.1" xmlns="http://www.w3.org/2000/svg" xmlns:xlink="http://www.w3.org/1999/xlink">
    <title>Group 9</title>
    <g id="Tokens" stroke="none" stroke-width="1" fill="none" fill-rule="evenodd">
        <g id="Token-overview--Copy" transform="translate(-1118.000000, -906.000000)">
            <g id="Providers-Copy-2" transform="translate(988.000000, 795.000000)">
                <g id="Group-9" transform="translate(133.000000, 114.000000)">
                    <path d="M118.587786,0 L11.4122137,0 C5.12722646,0 0,5.14096186 0,11.4427861 L0,88.5572139 C0,94.8590381 5.12722646,100 11.4122137,100 L76.0814249,100 L76.0814249,80.4311774 C72.7735369,76.2852405 70.6234097,70.8126036 70.6234097,65.0082919 C70.6234097,51.4096186 81.5394402,40.4643449 95.1017812,40.4643449 C108.664122,40.4643449 119.580153,51.5754561 119.580153,65.0082919 C119.580153,70.8126036 117.59542,76.119403 114.287532,80.4311774 L114.287532,100 L118.587786,100 C124.872774,100 130,94.8590381 130,88.5572139 L130,11.4427861 C130,5.14096186 124.872774,0 118.587786,0" id="Combined-Shape" stroke="#555D72" stroke-width="6"></path>
                    <path d="M82,83 L82,114.194521 C82,114.833309 82.3398471,115.469975 82.6796941,115.680075 C83.1894647,115.89442 83.6992353,115.89442 84.2107052,115.680075 L93.2166525,108.252303 C94.2344945,107.405537 95.7655055,107.405537 96.7833475,108.252303 L105.789295,115.680075 C106.129142,116.106642 106.810535,116.106642 107.318607,115.680075 C107.828377,115.469975 108,114.833309 108,114.194521 L108,83 C104.261682,85.9689866 99.6720476,87.6667631 94.9158879,87.6667631 C90.1580289,87.6667631 85.7383178,85.9689866 82,83" id="Fill-1" fill="#555D72"></path>
                    <path d="M94.9991743,47 C85.0904629,47 77,55.0181818 77,65 C77,74.8181818 85.0904629,83 94.9991743,83 C104.907886,83 113,74.9834545 113,65 C113,55.0181818 104.907886,47 94.9991743,47" id="Fill-7" fill="#555D72"></path>
                    <rect id="Rectangle-Copy" fill="#555D72" x="13" y="23" width="50" height="8"></rect>
                    <rect id="Rectangle-Copy-3" fill="#555D72" x="13" y="39" width="39" height="8"></rect>
                </g>
            </g>
        </g>
    </g>
</svg>