<?xml version="1.0" encoding="UTF-8"?>
<svg width="149px" height="135px" viewBox="0 0 149 135" version="1.1" xmlns="http://www.w3.org/2000/svg" xmlns:xlink="http://www.w3.org/1999/xlink">
    <title>Group 4</title>
    <g id="Tokens" stroke="none" stroke-width="1" fill="none" fill-rule="evenodd">
        <g id="Token-overview--Copy" transform="translate(-682.000000, -560.000000)">
            <g id="Info-Copy" transform="translate(571.000000, 446.000000)">
                <g id="Group-4" transform="translate(114.000000, 117.000000)">
                    <path d="M121.956017,23.5840492 L121.956392,71.57673 C104.887308,72.1382488 91.2159277,86.1270082 91.1646186,103.320641 L9.37795679,103.320089 L9.37795679,23.5840492 L121.956017,23.5840492 Z M121.956017,2.0895566e-14 C127.13465,2.0895566e-14 131.355263,4.20420579 131.355263,9.38886007 L131.355263,9.38886007 L131.356332,72.6601562 C128.700091,71.9422274 125.906288,71.5592105 123.023026,71.5592105 C105.428034,71.5592105 91.1644737,85.8227704 91.1644737,103.417763 C91.1644737,106.657808 91.6481465,109.784885 92.5472285,112.73073 L9.37795679,112.730263 C4.19932345,112.730263 1.39303773e-14,108.504743 1.39303773e-14,103.320089 L1.39303773e-14,103.320089 L1.39303773e-14,9.38886007 C1.39303773e-14,4.20420579 4.19932345,2.0895566e-14 9.37795679,2.0895566e-14 L9.37795679,2.0895566e-14 Z" id="Fill-1" stroke="#555D72" stroke-width="6"></path>
                    <path d="M16.4247302,7.05496637 C19.0007411,7.05496637 21.103064,9.13841942 21.103064,11.7600535 C21.103064,14.3390593 19.0007411,16.4438264 16.4247302,16.4438264 C13.8274301,16.4438264 11.7251072,14.3390593 11.7251072,11.7600535 C11.7251072,9.15973352 13.8274301,7.05496637 16.4247302,7.05496637 L16.4247302,7.05496637 Z" id="Path" fill="#555D72"></path>
                    <path d="M30.4969878,7.05496637 C33.0783209,7.05496637 35.1753215,9.13841942 35.1753215,11.7600535 C35.1753215,14.3390593 33.0783209,16.4438264 30.4969878,16.4438264 C27.8996876,16.4438264 25.802687,14.3390593 25.802687,11.7600535 C25.802687,9.15973352 27.8996876,7.05496637 30.4969878,7.05496637 L30.4969878,7.05496637 Z" id="Path" fill="#555D72"></path>
                    <path d="M105,98 L105,103.283019 C105,107.423145 113.378261,112 125.5,112 C137.621739,112 146,107.423145 146,103.283019 L146,98 C142.523913,101.699874 134.680435,104.251572 125.5,104.251572 C116.319565,104.251572 108.476087,101.699874 105,98 M105,108 L105,110.1 L105,113.3375 C105,117.45175 113.378261,122 125.5,122 C137.621739,122 146,117.45175 146,113.3375 L146,108.0875 C142.523913,111.76425 134.680435,114.3 125.5,114.3 C116.319565,114.3 108.476087,111.675 105,108 M105,118.086957 L105,121.478261 L105,123.391304 C105,127.48 113.378261,132 125.5,132 C137.621739,132 146,127.48 146,123.391304 L146,121.393043 L146,118 C142.523913,121.652174 134.680435,124.173913 125.5,124.173913 C116.319565,124.173913 108.476087,121.73913 105,118.086957 M105,94.5 C105,90.4646465 113.378261,86 125.5,86 C137.621739,86 146,90.4646465 146,94.5 C146,98.5370707 137.621739,103 125.5,103 C113.378261,103 105,98.5370707 105,94.5" id="Fill-1-Copy-4" fill="#555D72"></path>
                    <path d="M23,38 L54,52.0431241 L54,57.9405846 L23,72 L23,65.211947 L46.9839223,55.073311 L46.9839223,54.926689 L23,44.7663313 L23,38 Z M85,52 L85,58 L68,58 L68,52 L85,52 Z" id="Combined-Shape" fill="#555D72"></path>
                </g>
            </g>
        </g>
    </g>
</svg>