<?xml version="1.0" encoding="UTF-8"?>
<svg width="134px" height="115px" viewBox="0 0 134 115" version="1.1" xmlns="http://www.w3.org/2000/svg" xmlns:xlink="http://www.w3.org/1999/xlink">
    <title>command line</title>
    <g id="Tokens" stroke="none" stroke-width="1" fill="none" fill-rule="evenodd">
        <g id="Token-overview--Copy" transform="translate(-1529.000000, -209.000000)" fill="#555D72">
            <g id="Nodes" transform="translate(1405.000000, 97.000000)">
                <g id="command-line" transform="translate(124.000000, 112.000000)">
                    <path d="M124.411507,0 C129.694408,0 134,4.28885423 134,9.57789752 L134,9.57789752 L134,105.400359 C134,110.689403 129.694408,115 124.411507,115 L124.411507,115 L9.56677472,115 C4.28387358,115 0,110.689403 0,105.400359 L0,105.400359 L0,9.57789752 C0,4.28885423 4.28387358,0 9.56677472,0 L9.56677472,0 Z M124.411507,24.0588958 L9.56677472,24.0588958 L9.56677472,105.400359 L124.411507,105.400359 L124.411507,24.0588958 Z M23,30 L54,44.0431241 L54,49.9405846 L23,64 L23,57.211947 L46.9839223,47.073311 L46.9839223,46.926689 L23,36.7663313 L23,30 Z M85,44 L85,50 L68,50 L68,44 L85,44 Z M16.7554295,7.19701267 C14.1058347,7.19701267 11.9611831,9.34415769 11.9611831,11.996833 C11.9611831,14.6277652 14.1058347,16.7749102 16.7554295,16.7749102 C19.3833063,16.7749102 21.5279579,14.6277652 21.5279579,11.996833 C21.5279579,9.32241445 19.3833063,7.19701267 16.7554295,7.19701267 Z M31.1110211,7.19701267 C28.4614263,7.19701267 26.3222042,9.34415769 26.3222042,11.996833 C26.3222042,14.6277652 28.4614263,16.7749102 31.1110211,16.7749102 C33.7443274,16.7749102 35.8835494,14.6277652 35.8835494,11.996833 C35.8835494,9.32241445 33.7443274,7.19701267 31.1110211,7.19701267 Z" id="Combined-Shape"></path>
                </g>
            </g>
        </g>
    </g>
</svg>