<?xml version="1.0" encoding="UTF-8" standalone="no"?>
<svg
   xmlns:dc="http://purl.org/dc/elements/1.1/"
   xmlns:cc="http://creativecommons.org/ns#"
   xmlns:rdf="http://www.w3.org/1999/02/22-rdf-syntax-ns#"
   xmlns:svg="http://www.w3.org/2000/svg"
   xmlns="http://www.w3.org/2000/svg"
   xmlns:sodipodi="http://sodipodi.sourceforge.net/DTD/sodipodi-0.dtd"
   xmlns:inkscape="http://www.inkscape.org/namespaces/inkscape"
   width="109px"
   height="110px"
   viewBox="0 0 109 110"
   version="1.1"
   id="svg12"
   sodipodi:docname="onepanel-rest.svg"
   inkscape:version="1.0.2 (394de47547, 2021-03-26)"
   inkscape:export-filename="/home/agnieszka/Pictures/onepanel-rest4.png"
   inkscape:export-xdpi="96"
   inkscape:export-ydpi="96">
  <path
     d="m 17.724295,78.112835 c 3.595347,0 6.511914,2.910382 6.511914,6.500546 0,3.580328 -2.916567,6.491803 -6.511914,6.491803 -3.586589,0 -6.503156,-2.911475 -6.503156,-6.491803 0,-3.590164 2.916567,-6.500546 6.503156,-6.500546 z M 5.7044051,97.14125 33.503468,96.860304 33.518921,83.527786 c 0.0039,-3.399997 -0.379489,-5.778161 4.03149,-8.387997 1.823949,-1.079782 4.745435,-3.206433 2.623732,-3.194477 L 5.4033331,72.14125 c -3.0884024,0.0174 -2.4567476,2.55847 -2.4567476,3.961749 v 17.010929 c 0,1.412022 -0.4817152,4.027322 2.7578196,4.027322 z"
     id="Stroke-5-3"
     stroke="#555d72"
     stroke-width="4.5"
     style="fill:none;fill-rule:evenodd"
     sodipodi:nodetypes="sssssscscsssss" />
  <metadata
     id="metadata18">
    <rdf:RDF>
      <cc:Work
         rdf:about="">
        <dc:format>image/svg+xml</dc:format>
        <dc:type
           rdf:resource="http://purl.org/dc/dcmitype/StillImage" />
        <dc:title>Group 15</dc:title>
      </cc:Work>
    </rdf:RDF>
  </metadata>
  <defs
     id="defs16" />
  <sodipodi:namedview
     pagecolor="#ffffff"
     bordercolor="#666666"
     borderopacity="1"
     objecttolerance="10"
     gridtolerance="10"
     guidetolerance="10"
     inkscape:pageopacity="0"
     inkscape:pageshadow="2"
     inkscape:window-width="1920"
     inkscape:window-height="1043"
     id="namedview14"
     showgrid="false"
     inkscape:zoom="8"
     inkscape:cx="43.215763"
     inkscape:cy="55"
     inkscape:window-x="1920"
     inkscape:window-y="0"
     inkscape:window-maximized="1"
     inkscape:current-layer="svg12"
     inkscape:document-rotation="0"
     showguides="true"
     inkscape:guide-bbox="true">
    <sodipodi:guide
       position="-46.125,75.125"
       orientation="1,0"
       id="guide895" />
  </sodipodi:namedview>
  <title
     id="title2">Group 15</title>
  <path
     d="m 17.751723,9.8066606 c 3.589025,0 6.500463,2.9632394 6.500463,6.6085924 0,3.656479 -2.911438,6.620832 -6.500463,6.620832 -3.580282,0 -6.49172,-2.964353 -6.49172,-6.620832 0,-3.645353 2.911438,-6.6085924 6.49172,-6.6085924 z M 7.1824599,31 H 85.763963 C 87.869947,31 88,28.398402 88,26.969638 V 9.647538 C 88,5.9087152 86.241553,3 82.567283,3 H 9.2512857 C 5.5759232,3 3,5.9087152 3,9.647538 v 17.3221 C 3,28.398402 3.5726702,31 7.1824599,31 Z"
     id="Stroke-3"
     stroke="#555d72"
     stroke-width="4.5"
     style="fill:none;fill-rule:evenodd" />
  <path
     d="m 17.830951,44.971585 c 3.595347,0 6.511914,2.910382 6.511914,6.500546 0,3.580328 -2.916567,6.491803 -6.511914,6.491803 -3.586589,0 -6.503156,-2.911475 -6.503156,-6.491803 0,-3.590164 2.916567,-6.500546 6.503156,-6.500546 z M 5.8110612,64 51.481005,63.83023 51.480771,51.953492 c -6.7e-5,-3.4 2.097409,-6.551552 6.508388,-9.161388 C 59.813108,41.712322 60.564218,39 58.442482,39 H 5.5099892 C 2.4215378,39 3.0532416,41.55847 3.0532416,42.961749 V 59.972678 C 3.0532416,61.3847 2.5715264,64 5.8110612,64 Z"
     id="Stroke-5"
     stroke="#555d72"
     stroke-width="4.5"
     style="fill:none;fill-rule:evenodd"
     sodipodi:nodetypes="sssssscscsssss" />
  <style
     type="text/css"
     id="style2">
	.st0{fill:#1E1E1C;}
	.st1{fill:#595959;}
	.st2{fill:#E84040;}
</style>
  <g
     id="g857"
     transform="matrix(1.2377068,0,0,1.2377068,15.677977,67.445622)"
     style="fill:#555d72;fill-opacity:1">
    <path
       style="fill:#555d72;fill-opacity:1"
       inkscape:connector-curvature="0"
       id="path22"
       d="M 45.4,-0.79999847 23.2,21.400002 c -0.8,0.8 -1.2,1.8 -1.2,3 0,1.2 0.4,2.2 1.2,2.9 l 3.5,3.5 c 0.8,0.8 1.8,1.2 3,1.2 1.2,0 2.1,-0.4 2.9,-1.2 L 54.9,8.5000015 c -2.1,-0.8 -4,-2.1 -5.7,-3.7 -1.7,-1.6 -2.9,-3.5 -3.8,-5.59999997 z M 33.2,23.700002 c -0.4,0.4 -0.9,0.6 -1.5,0.6 -0.6,0 -1.1,-0.2 -1.5,-0.6 -0.4,-0.4 -0.6,-0.9 -0.6,-1.5 0,-0.6 0.2,-1.1 0.6,-1.5 0.4,-0.4 0.9,-0.6 1.5,-0.6 0.6,0 1.1,0.2 1.5,0.6 0.4,0.4 0.6,0.9 0.6,1.5 0,0.6 -0.2,1.1 -0.6,1.5 z m 0,0"
       class="st1" />
    <path
       style="fill:#555d72;fill-opacity:1"
       inkscape:connector-curvature="0"
       id="path24"
       d="m 75.2,-6.4999985 c -0.2,-0.2 -0.4,-0.3 -0.8,-0.3 -0.2,0 -1,0.4 -2.3,1.2 -1.3,0.8 -2.8,1.7 -4.4,2.6 -1.6,1 -2.5,1.5 -2.6,1.6 l -6.3,-3.5 v -7.2999995 l 9.6,-5.5 c 0.3,-0.2 0.5,-0.5 0.5,-0.9 0,-0.4 -0.2,-0.7 -0.5,-0.9 -1,-0.7 -2.1,-1.2 -3.5,-1.5 -1.4,-0.4 -2.7,-0.5 -4,-0.5 -4,0 -7.5,1.4 -10.3,4.3 -2.9,2.9 -4.3,6.3 -4.3,10.2999995 0,4 1.4,7.50000003 4.3,10.3 2.9,2.9 6.3,4.3 10.3,4.3 3.1,0 5.9,-0.9 8.4,-2.7 2.6,-1.8 4.3,-4.19999997 5.4,-7.1 0.5,-1.5 0.7,-2.6 0.7,-3.5 0.1,-0.4 0,-0.6 -0.2,-0.9 z m 0,0"
       class="st2" />
  </g>
</svg>
