<?xml version="1.0" encoding="UTF-8"?>
<svg width="109px" height="110px" viewBox="0 0 109 110" version="1.1" xmlns="http://www.w3.org/2000/svg" xmlns:xlink="http://www.w3.org/1999/xlink">
    <title>Group 15</title>
    <g id="Tokens" stroke="none" stroke-width="1" fill="none" fill-rule="evenodd">
        <g id="Token-overview--Copy" transform="translate(-1132.000000, -202.000000)">
            <g id="Providers" transform="translate(988.000000, 94.000000)">
                <g id="Group-15" transform="translate(147.000000, 111.000000)">
                    <path d="M14.9786132,87.2483831 C11.3432645,87.2483831 8.38704688,84.3370352 8.38704688,80.7568641 C8.38704688,77.1745073 11.3432645,74.2555094 14.9786132,74.2555094 C18.6228395,74.2555094 21.5790571,77.1745073 21.5790571,80.7568641 C21.5790571,84.3370352 18.6228395,87.2483831 14.9786132,87.2483831 Z M33,69 L3.02501849,69 C0.0466070348,69 0,68.9901662 0,70.3922906 L0,87.4046604 C0,91.0766307 2.6155424,94 6.34743426,94 L33,94 L33,69 Z" id="Stroke-1" stroke="#555D72" stroke-width="4.5"></path>
                    <path d="M14.7517229,6.80666057 C18.3407478,6.80666057 21.2521858,9.76990025 21.2521858,13.4152526 C21.2521858,17.0717323 18.3407478,20.0360847 14.7517229,20.0360847 C11.1714411,20.0360847 8.26000309,17.0717323 8.26000309,13.4152526 C8.26000309,9.76990025 11.1714411,6.80666057 14.7517229,6.80666057 Z M4.18245988,28 L82.7639632,28 C84.869947,28 85,25.3984024 85,23.969638 L85,6.64753805 C85,2.90871518 83.2415527,0 79.567283,0 L6.25128574,0 C2.57592316,0 0,2.90871518 0,6.64753805 L0,23.969638 C0,25.3984024 0.572670232,28 4.18245988,28 Z" id="Stroke-3" stroke="#555D72" stroke-width="4.5"></path>
                    <path d="M14.8309507,41.9715847 C18.4262979,41.9715847 21.3428646,44.8819672 21.3428646,48.4721311 C21.3428646,52.052459 18.4262979,54.9639344 14.8309507,54.9639344 C11.244362,54.9639344 8.32779527,52.052459 8.32779527,48.4721311 C8.32779527,44.8819672 11.244362,41.9715847 14.8309507,41.9715847 Z M2.8110612,61 L32.6106215,61 L32.6106215,49.1836066 C32.6106215,45.7836066 35.5687909,42.4885246 39.9797696,39.8786885 C41.8037186,38.7989071 41.0220261,36 38.9002896,36 L2.50998919,36 C-0.578462251,36 0.0532415703,38.5584699 0.0532415703,39.9617486 L0.0532415703,56.9726776 C0.0532415703,58.3846995 -0.428473649,61 2.8110612,61 Z" id="Stroke-5" stroke="#555D72" stroke-width="4.5"></path>
                    <path d="M48,59 L48,66.5471698 C48,72.4616352 59.8521739,79 77,79 C94.1478261,79 106,72.4616352 106,66.5471698 L106,59 C101.082609,64.2855346 89.9869565,67.9308176 77,67.9308176 C64.0130435,67.9308176 52.9173913,64.2855346 48,59 M48,73 L48,76 L48,80.625 C48,86.5025 59.8521739,93 77,93 C94.1478261,93 106,86.5025 106,80.625 L106,73.125 C101.082609,78.3775 89.9869565,82 77,82 C64.0130435,82 52.9173913,78.25 48,73 M48,87.1242236 L48,91.9689441 L48,94.7018634 C48,100.542857 59.8521739,107 77,107 C94.1478261,107 106,100.542857 106,94.7018634 L106,91.847205 L106,87 C101.082609,92.2173913 89.9869565,95.8198758 77,95.8198758 C64.0130435,95.8198758 52.9173913,92.3416149 48,87.1242236 M48,54 C48,48.3030303 59.8521739,42 77,42 C94.1478261,42 106,48.3030303 106,54 C106,59.6993939 94.1478261,66 77,66 C59.8521739,66 48,59.6993939 48,54" id="Fill-1" fill="#555D72"></path>
                </g>
            </g>
        </g>
    </g>
</svg>