<?xml version="1.0" encoding="UTF-8"?>
<svg width="120px" height="114px" viewBox="0 0 120 114" version="1.1" xmlns="http://www.w3.org/2000/svg" xmlns:xlink="http://www.w3.org/1999/xlink">
    <title>Group 15</title>
    <g id="Tokens" stroke="none" stroke-width="1" fill="none" fill-rule="evenodd">
        <g id="Token-overview--Copy" transform="translate(-689.000000, -202.000000)">
            <g id="Group-15" transform="translate(692.000000, 205.000000)">
                <path d="M14.9786132,87.2483831 C11.3432645,87.2483831 8.38704688,84.3370352 8.38704688,80.7568641 C8.38704688,77.1745073 11.3432645,74.2555094 14.9786132,74.2555094 C18.6228395,74.2555094 21.5790571,77.1745073 21.5790571,80.7568641 C21.5790571,84.3370352 18.6228395,87.2483831 14.9786132,87.2483831 Z M33,69 L3.02501849,69 C0.0466070348,69 0,68.9901662 0,70.3922906 L0,87.4046604 C0,91.0766307 2.6155424,94 6.34743426,94 L33,94 L33,69 Z" id="Stroke-1" stroke="#555D72" stroke-width="4.5"></path>
                <path d="M14.7517229,6.80666057 C18.3407478,6.80666057 21.2521858,9.76990025 21.2521858,13.4152526 C21.2521858,17.0717323 18.3407478,20.0360847 14.7517229,20.0360847 C11.1714411,20.0360847 8.26000309,17.0717323 8.26000309,13.4152526 C8.26000309,9.76990025 11.1714411,6.80666057 14.7517229,6.80666057 Z M4.18245988,28 L82.7639632,28 C84.869947,28 85,25.3984024 85,23.969638 L85,6.64753805 C85,2.90871518 83.2415527,0 79.567283,0 L6.25128574,0 C2.57592316,0 0,2.90871518 0,6.64753805 L0,23.969638 C0,25.3984024 0.572670232,28 4.18245988,28 Z" id="Stroke-3" stroke="#555D72" stroke-width="4.5"></path>
                <path d="M14.8309507,41.9715847 C18.4262979,41.9715847 21.3428646,44.8819672 21.3428646,48.4721311 C21.3428646,52.052459 18.4262979,54.9639344 14.8309507,54.9639344 C11.244362,54.9639344 8.32779527,52.052459 8.32779527,48.4721311 C8.32779527,44.8819672 11.244362,41.9715847 14.8309507,41.9715847 Z M2.8110612,61 L32.6106215,61 L32.6106215,49.1836066 C32.6106215,45.7836066 35.5687909,42.4885246 39.9797696,39.8786885 C41.8037186,38.7989071 41.0220261,36 38.9002896,36 L2.50998919,36 C-0.578462251,36 0.0532415703,38.5584699 0.0532415703,39.9617486 L0.0532415703,56.9726776 C0.0532415703,58.3846995 -0.428473649,61 2.8110612,61 Z" id="Stroke-5" stroke="#555D72" stroke-width="4.5"></path>
                <path d="M85.8868736,88 L87.6992241,96.7058563 C91.1932105,96.8216134 94,99.9623337 94,103.845751 C94,107.794456 91.0881345,111 87.5037827,111 C83.9043,111 81,107.794456 81,103.845751 C81,101.082862 82.4311348,98.7172508 84.5112189,97.5226381 L84.5112189,97.5226381 L82.6992887,88.8079842 C83.8063692,88.6667606 84.8697381,88.3861655 85.8868736,88 L85.8868736,88 Z M63.9467889,80 C64.1853546,81.1329556 64.54509,82.2098112 65,83.238456 L65,83.238456 L54.9227993,86.7661773 C54.9383123,86.9138778 54.9668228,87.0620167 54.9668228,87.2180446 C54.9668228,90.9635914 52.063784,94 48.4802669,94 C44.897169,94 42,90.9635914 42,87.2180446 C42,83.4724979 44.897169,80.4457315 48.4802669,80.4457315 C50.748528,80.4457315 52.7497129,81.6702877 53.9060649,83.5198322 L53.9060649,83.5198322 Z M78.9987553,64 C85.0792094,64 90,69.1522707 90,75.4991325 C90,81.8555371 85.0792094,87 78.9987553,87 C72.9282589,87 68,81.8555371 68,75.4991325 C68,69.1522707 72.9282589,64 78.9987553,64 Z M110.181454,73 C113.946966,73 117,75.912148 117,79.504834 C117,83.0895334 113.946966,86 110.181454,86 C106.785179,86 103.991228,83.6204288 103.473062,80.5145019 L103.473062,80.5145019 L95,79.7208911 C95.2211897,78.7246742 95.3375125,77.6918873 95.3375125,76.6364018 L95.3375125,76.6364018 L95.3295814,76.458596 L103.810575,77.2593527 C104.776407,74.7818411 107.254877,73 110.181454,73 Z M59.6759212,48 C63.3629073,48 66.3501167,51.0665902 66.3501167,54.8515527 C66.3501167,56.0429346 66.0196427,57.1470665 65.4984773,58.1240882 L65.4984773,58.1240882 L70,62.4927835 C69.1388692,63.2337432 68.3773982,64.0774541 67.6953101,65 L67.6953101,65 L63.2019846,60.6392768 C62.1794995,61.3018445 60.9736575,61.6973479 59.6759212,61.6973479 C55.9885037,61.6973479 53,58.6285431 53,54.8515527 C53,51.0665902 55.9885037,48 59.6759212,48 Z M97.4680323,40 C101.075705,40 104,42.9734493 104,46.6361515 C104,50.3057246 101.075705,53.2813212 97.4680323,53.2813212 C96.8374178,53.2813212 96.2426816,53.1580716 95.6656735,52.9914485 L95.6656735,52.9914485 L89.8187709,63 C88.94545,62.3266365 88.0062818,61.7529034 87,61.2873894 L87,61.2873894 L92.831707,51.3080399 C91.6675605,50.1081818 90.9440844,48.4561223 90.9440844,46.6361515 C90.9440844,42.9657194 93.8607821,40 97.4680323,40 Z" id="Combined-Shape" fill="#555D72"></path>
            </g>
        </g>
    </g>
</svg>