<?xml version="1.0" encoding="UTF-8"?>
<svg width="135px" height="134px" viewBox="0 0 135 134" version="1.1" xmlns="http://www.w3.org/2000/svg" xmlns:xlink="http://www.w3.org/1999/xlink">
    <title>Group 2</title>
    <g id="Tokens" stroke="none" stroke-width="1" fill="none" fill-rule="evenodd">
        <g id="Token-overview--Copy" transform="translate(-1117.000000, -557.000000)">
            <g id="Providers-Copy" transform="translate(988.000000, 446.000000)">
                <g id="Group-2" transform="translate(132.000000, 114.000000)">
                    <path d="M59.375,0 L95,36 L95.000441,87.869555 C80.6667188,91.2552141 70,104.131934 70,119.5 L70.004,120 L11.815625,120 C5.38485577,120 0.162891272,114.764876 0.00373751707,108.303748 L-6.39488462e-14,108 L0.059375,12 C0.059375,5.4 5.34375,0 11.875,0 L11.875,0 L59.375,0 Z" id="Combined-Shape" stroke="#555D72" stroke-width="6"></path>
                    <polygon id="Path" fill="#555D72" points="71 88 23 88 23 76 71 76"></polygon>
                    <polygon id="Path" fill="#555D72" points="71 64 23 64 23 52 71 52"></polygon>
                    <polygon id="Path" fill="#555D72" points="57 38 57 0 95 38"></polygon>
                    <path d="M106,95 C94.1818182,95 84.0890909,102.448921 80,112.963636 C84.0890909,123.478352 94.1818182,130.927273 106,130.927273 C117.818182,130.927273 127.910909,123.478352 132,112.963636 C127.910909,102.448921 117.818182,95 106,95 L106,95 Z M105.054545,125.254545 C98.5309091,125.254545 93.2363636,119.96 93.2363636,113.436364 C93.2363636,106.912727 98.5309091,101.618182 105.054545,101.618182 C111.578182,101.618182 116.872727,106.912727 116.872727,113.436364 C116.872727,119.96 111.578182,125.254545 105.054545,125.254545 L105.054545,125.254545 Z M104.581818,107.290909 C100.919758,107.290909 97.9636364,110.24703 97.9636364,113.909091 C97.9636364,117.571152 100.919758,120.527273 104.581818,120.527273 C108.243879,120.527273 111.2,117.571152 111.2,113.909091 C111.2,110.24703 108.243879,107.290909 104.581818,107.290909 L104.581818,107.290909 Z" id="Shape" fill="#555D72"></path>
                </g>
            </g>
        </g>
    </g>
</svg>