<?xml version="1.0" encoding="UTF-8"?>
<svg width="137px" height="159px" viewBox="0 0 137 159" version="1.1" xmlns="http://www.w3.org/2000/svg" xmlns:xlink="http://www.w3.org/1999/xlink">
    <title>Group 3</title>
    <g id="Tokens" stroke="none" stroke-width="1" fill="none" fill-rule="evenodd">
        <g id="Token-overview--Copy" transform="translate(-1535.000000, -555.000000)">
            <g id="Nodes-Copy" transform="translate(1405.000000, 449.000000)">
                <g id="Group-3" transform="translate(133.000000, 109.000000)">
                    <path d="M100.050235,98 C100.270135,98 100.599984,98.1133984 100.819883,98.1133984 C101.039783,98.1133984 101.259682,98.1133984 101.480681,98.2267967 L101.64497,98.2445152 L101.64497,98.2445152 L101.974373,98.3224766 C102.029331,98.3331077 102.084306,98.3401951 102.13928,98.3401951 L102.304377,98.3579136 L102.304377,98.3579136 L102.634982,98.435875 C102.69006,98.4465061 102.745104,98.4535935 102.800078,98.4535935 C103.018878,98.5669918 103.238778,98.5669918 103.349827,98.6803902 C103.568627,98.7937886 103.679676,98.7937886 103.899576,98.9071869 C104.118376,99.0205853 104.229425,99.1339837 104.449325,99.1339837 L104.548486,99.201314 L104.548486,99.201314 L104.788863,99.2934501 C104.82659,99.3111686 104.860812,99.3324308 104.888024,99.3607804 C105.107924,99.4741788 105.217873,99.5875771 105.328923,99.7009755 L105.410749,99.7683058 L105.410749,99.7683058 L105.575227,99.860442 C105.602698,99.8781605 105.630185,99.8994227 105.657672,99.9277722 C105.878671,100.041171 105.987522,100.154569 106.097471,100.267967 C106.207421,100.381366 106.207421,100.381366 106.317371,100.494764 C106.53727,100.608162 106.64722,100.834959 106.75717,100.948358 L106.86712,101.061756 C107.087019,101.288553 107.196969,101.401951 107.306919,101.628748 C109.176064,104.010113 109.395964,106.958471 109.176064,108.319251 L109.176064,108.43265 C109.176064,108.659447 109.066115,108.772845 109.066115,108.999642 C108.955065,109.680032 108.846215,110.47382 108.846215,111.154211 L108.846215,113.30878 C108.846215,113.422178 108.846215,113.422178 108.956165,113.535576 C109.066115,113.98917 109.176064,114.442763 109.286014,114.896357 L109.286014,116.257137 C109.286014,116.483934 109.176064,116.710731 109.176064,116.937527 C108.736265,119.092096 108.186517,120.22608 107.636768,121.019869 C107.526818,121.133267 107.526818,121.246665 107.416868,121.246665 C107.306919,121.927056 107.196969,122.494047 106.978169,123.174438 C106.978169,123.287836 106.978169,123.401234 106.86712,123.514633 C106.75717,123.741429 106.75717,123.854828 106.64722,124.081625 C106.64722,124.195023 106.53727,124.42182 106.53727,124.535218 C106.427321,124.875413 106.317371,125.10221 106.207421,125.329007 C106.097471,125.555803 106.097471,125.669202 105.987522,125.895998 L105.987522,126.009397 C105.987522,126.236193 105.877572,126.349592 105.877572,126.576389 L105.877572,126.916584 C105.877572,127.029982 105.877572,127.256779 105.767622,127.483576 L105.767883,128.832092 C105.769577,129.469811 105.782282,129.653264 105.877572,129.751543 L106.097471,129.751543 C106.317371,129.864941 106.53727,129.864941 106.75717,129.97834 C108.186517,130.431933 109.835763,130.998925 111.376159,131.565917 C111.376159,131.565917 111.485009,131.565917 111.594959,131.679315 C111.814858,131.792713 111.925908,131.792713 112.144708,131.906112 L112.227187,131.92383 L112.227187,131.92383 L112.392558,132.001792 C112.4202,132.012423 112.447894,132.01951 112.475656,132.01951 L112.557483,132.037229 L112.557483,132.037229 L112.721961,132.11519 C112.749431,132.125821 112.776919,132.132909 112.804406,132.132909 C112.914356,132.246307 113.134255,132.246307 113.244205,132.359705 L113.354155,132.359705 C113.575154,132.473104 113.793954,132.473104 114.013853,132.586502 L114.124903,132.586502 C114.873436,132.844126 115.560177,133.101749 116.183216,133.359372 C108.260575,134.690467 102.406357,139.405885 102.406357,145.018534 C102.406357,145.108341 102.407856,145.197918 102.410838,145.287256 L80.2603797,145.287119 C78.7199837,145.287119 78.1702349,144.153136 78.1702349,143.245949 L78.1702349,137.462632 C78.5011837,136.101851 79.2697324,134.514274 81.0300279,133.833884 C82.8991737,133.040096 86.8573647,131.565917 90.2647074,130.431933 C90.7056059,130.318535 91.1454049,130.205136 91.4752542,129.97834 L91.5852039,129.97834 L91.8497705,129.893291 L91.8497705,129.893291 L92.4201348,129.723193 C92.5129049,129.694844 92.6022391,129.666494 92.6847014,129.638145 C93.0145507,129.524746 93.0145507,129.524746 93.0145507,128.277364 C93.0145507,128.050567 93.0145507,127.710372 92.9046009,127.483576 L92.8874213,127.380808 L92.8874213,127.380808 L92.8118308,127.132749 C92.801523,127.093769 92.7946512,127.058332 92.7946512,127.029982 C92.7946512,126.916584 92.7946512,126.803185 92.6847014,126.803185 C92.6847014,126.689787 92.5747517,126.576389 92.5747517,126.349592 C92.4637024,126.009397 92.2438029,125.669202 92.1349527,125.329007 C92.0250029,125.10221 91.9139537,124.762015 91.8051034,124.42182 L91.787752,124.336771 L91.787752,124.336771 L91.7114056,124.166673 C91.7009947,124.138324 91.6940542,124.109974 91.6940542,124.081625 C91.5852039,123.854828 91.5852039,123.628031 91.4752542,123.401234 L91.4579027,123.316186 L91.4579027,123.316186 L91.3815564,123.146088 C91.3711455,123.117738 91.3642049,123.089389 91.3642049,123.061039 L91.2995407,122.890942 L91.2995407,122.890942 L91.2102065,122.550747 C91.1928895,122.494047 91.1720677,122.437348 91.1443054,122.380649 C91.0354552,122.153852 91.0354552,121.927056 91.0354552,121.58686 C91.0354552,121.473462 91.0354552,121.360064 90.9244059,121.246665 C90.7056059,121.019869 90.4857064,120.679673 90.2647074,120.22608 C90.2647074,120.22608 90.1547577,120.112682 90.1547577,119.999283 L90.137578,119.914235 L90.137578,119.914235 L90.0619876,119.744137 C90.0516798,119.715787 90.0448079,119.687438 90.0448079,119.659088 C89.9348582,119.54569 89.9348582,119.318893 89.8249084,119.092096 C89.7149587,118.8653 89.7149587,118.751901 89.6050089,118.525105 C89.4950592,118.298308 89.4950592,118.071511 89.3862089,117.844714 C89.2751597,117.617918 89.2751597,117.277722 89.1652099,116.937527 C89.1652099,116.710731 89.0552602,116.483934 89.0552602,116.257137 L89.0552602,116.143739 C89.0552602,116.03034 89.0552602,115.803544 88.9453104,115.690145 L88.9453104,114.102568 C88.9453104,113.98917 88.9453104,113.875771 89.0552602,113.762373 C89.0552602,113.648975 89.0552602,113.648975 89.1652099,113.535576 L89.1652099,113.422178 C89.1652099,113.422178 89.1652099,113.30878 89.2751597,113.195381 L89.2743629,112.616363 C89.269981,111.904384 89.2414981,110.848907 89.0563597,109.79343 C89.0563597,109.566633 89.0563597,109.339837 88.9453104,109.226438 L88.9453104,108.999642 C88.9453104,108.772845 88.8364602,108.546048 88.8364602,108.319251 L88.8364602,108.205853 C88.8364602,107.979056 88.8364602,107.865658 88.7254109,107.638861 C88.7254109,106.731674 88.8364602,105.370894 89.2751597,104.123512 C89.6050089,103.216325 90.0448079,102.422536 90.5945567,101.515349 L90.7423016,101.345252 L90.7423016,101.345252 L90.9965604,101.005057 C91.0412275,100.948358 91.0893305,100.891658 91.1443054,100.834959 C91.2542552,100.721561 91.3642049,100.608162 91.4741547,100.494764 C91.5852039,100.381366 91.6940542,100.267967 91.6940542,100.267967 L91.8417991,100.1652 L91.8417991,100.1652 L92.0960579,99.9171411 C92.140725,99.8781605 92.188828,99.8427235 92.2438029,99.8143739 L92.3537527,99.7009755 C92.5736522,99.5875771 92.7935517,99.3607804 93.1234009,99.247382 L93.2344502,99.247382 C93.4532502,99.1339837 93.7841989,98.9071869 94.1129487,98.7937886 L94.2228984,98.7937886 C94.5538472,98.6803902 94.7726472,98.5669918 95.1035959,98.4535935 C95.2124462,98.4535935 95.2124462,98.4535935 95.3223959,98.3401951 L95.5704013,98.2728648 L95.5704013,98.2728648 L96.0651752,98.1807286 C96.1475001,98.1630102 96.2297562,98.141748 96.3119437,98.1133984 L96.5329426,98.1133984 C96.8839023,98.0226797 97.2355655,98.0045359 97.5873695,98.0009072 L100.050235,98 Z" id="Combined-Shape" fill="#555D72"></path>
                    <path d="M120.5,137 C114.363636,137 109.123182,140.867709 107,146.327273 C109.123182,151.786836 114.363636,155.654545 120.5,155.654545 C126.636364,155.654545 131.876818,151.786836 134,146.327273 C131.876818,140.867709 126.636364,137 120.5,137 L120.5,137 Z M120.009091,152.709091 C116.621818,152.709091 113.872727,149.96 113.872727,146.572727 C113.872727,143.185455 116.621818,140.436364 120.009091,140.436364 C123.396364,140.436364 126.145455,143.185455 126.145455,146.572727 C126.145455,149.96 123.396364,152.709091 120.009091,152.709091 L120.009091,152.709091 Z M119.763636,143.381818 C117.862182,143.381818 116.327273,144.916727 116.327273,146.818182 C116.327273,148.719636 117.862182,150.254545 119.763636,150.254545 C121.665091,150.254545 123.2,148.719636 123.2,146.818182 C123.2,144.916727 121.665091,143.381818 119.763636,143.381818 L119.763636,143.381818 Z" id="Shape" fill="#555D72"></path>
                    <g id="Group-2">
                        <path d="M59.375,0 L95,36 L95.000441,87.869555 C80.6667188,91.2552141 70,104.131934 70,119.5 L70.004,120 L11.815625,120 C5.38485577,120 0.162891272,114.764876 0.00373751707,108.303748 L-6.39488462e-14,108 L0.059375,12 C0.059375,5.4 5.34375,0 11.875,0 L11.875,0 L59.375,0 Z" id="Combined-Shape" stroke="#555D72" stroke-width="6"></path>
                        <polygon id="Path" fill="#555D72" points="71 88 23 88 23 76 71 76"></polygon>
                        <polygon id="Path" fill="#555D72" points="71 64 23 64 23 52 71 52"></polygon>
                        <polygon id="Path" fill="#555D72" points="57 38 57 0 95 38"></polygon>
                    </g>
                </g>
            </g>
        </g>
    </g>
</svg>