<?xml version="1.0" encoding="UTF-8"?>
<svg width="239px" height="143px" viewBox="0 0 239 143" version="1.1" xmlns="http://www.w3.org/2000/svg" xmlns:xlink="http://www.w3.org/1999/xlink">
    <title>Group</title>
    <g id="Tokens" stroke="none" stroke-width="1" fill="none" fill-rule="evenodd">
        <g id="Token-overview--Copy" transform="translate(-647.000000, -907.000000)">
            <g id="Info-Copy-2" transform="translate(571.000000, 795.000000)">
                <g id="Group" transform="translate(79.000000, 115.000000)">
                    <rect id="Rectangle" fill="#555D72" x="74" y="14" width="113" height="7"></rect>
                    <rect id="Rectangle-Copy" fill="#555D72" x="123" y="65" width="113" height="7"></rect>
                    <path d="M0,43 L0,122 L36,122" id="Path-2" stroke="#555D72" stroke-width="2" opacity="0.471144903" stroke-dasharray="6"></path>
                    <line x1="0" y1="70.5" x2="36" y2="70.5" id="Path-2-Copy" stroke="#555D72" stroke-width="2" opacity="0.471144903" stroke-dasharray="6"></line>
                    <rect id="Rectangle-Copy-2" fill="#B6B6B6" x="123" y="119" width="113" height="7"></rect>
                    <path d="M35,8.18181818 L35,6.69397548 C35,5.05866518 33.6873548,3.71829008 32.0830107,3.71829008 L13.1251613,3.71829008 L13.1251613,2.9756854 C13.1251613,1.33905843 11.8125161,0 10.208172,0 L2.91698934,0 C1.3113545,0 0,1.33905843 0,2.9756854 L0,6.69397548 L0,8.18181818 L35,8.18181818 Z M35,9.09090909 L35,27.0127982 C35,28.6557592 33.6873548,30 32.0830107,30 L2.91698934,30 C1.3113545,30 0,28.6557592 0,27.0127982 L0,11.3313104 L0,9.09090909 L35,9.09090909 Z" id="Fill-1" stroke="#555D72" stroke-width="6"></path>
                    <path d="M92,62.1818182 L92,60.6939755 C92,59.0586652 90.6873548,57.7182901 89.0830107,57.7182901 L70.1251613,57.7182901 L70.1251613,56.9756854 C70.1251613,55.3390584 68.8125161,54 67.208172,54 L59.9169893,54 C58.3113545,54 57,55.3390584 57,56.9756854 L57,60.6939755 L57,62.1818182 L92,62.1818182 Z M92,63.0909091 L92,81.0127982 C92,82.6557592 90.6873548,84 89.0830107,84 L59.9169893,84 C58.3113545,84 57,82.6557592 57,81.0127982 L57,65.3313104 L57,63.0909091 L92,63.0909091 Z" id="Fill-1-Copy-2" stroke="#555D72" stroke-width="6"></path>
                    <path d="M92,115.181818 L92,113.693975 C92,112.058665 90.6873548,110.71829 89.0830107,110.71829 L70.1251613,110.71829 L70.1251613,109.975685 C70.1251613,108.339058 68.8125161,107 67.208172,107 L59.9169893,107 C58.3113545,107 57,108.339058 57,109.975685 L57,113.693975 L57,115.181818 L92,115.181818 Z M92,116.090909 L92,134.012798 C92,135.655759 90.6873548,137 89.0830107,137 L59.9169893,137 C58.3113545,137 57,135.655759 57,134.012798 L57,118.33131 L57,116.090909 L92,116.090909 Z" id="Fill-1-Copy-3" stroke="#B6B6B6" stroke-width="6"></path>
                </g>
            </g>
        </g>
    </g>
</svg>