<?xml version="1.0" encoding="UTF-8" standalone="no"?>
<svg
   xmlns:dc="http://purl.org/dc/elements/1.1/"
   xmlns:cc="http://creativecommons.org/ns#"
   xmlns:rdf="http://www.w3.org/1999/02/22-rdf-syntax-ns#"
   xmlns:svg="http://www.w3.org/2000/svg"
   xmlns="http://www.w3.org/2000/svg"
   xmlns:sodipodi="http://sodipodi.sourceforge.net/DTD/sodipodi-0.dtd"
   xmlns:inkscape="http://www.inkscape.org/namespaces/inkscape"
   width="394px"
   height="244px"
   viewBox="0 0 394 244"
   version="1.1"
   id="svg28"
   sodipodi:docname="atm-inventory-new.svg"
   inkscape:version="0.92.3 (2405546, 2018-03-11)">
  <metadata
     id="metadata34">
    <rdf:RDF>
      <cc:Work
         rdf:about="">
        <dc:format>image/svg+xml</dc:format>
        <dc:type
           rdf:resource="http://purl.org/dc/dcmitype/StillImage" />
        <dc:title>Group</dc:title>
      </cc:Work>
    </rdf:RDF>
  </metadata>
  <defs
     id="defs32" />
  <sodipodi:namedview
     pagecolor="#ffffff"
     bordercolor="#666666"
     borderopacity="1"
     objecttolerance="10"
     gridtolerance="10"
     guidetolerance="10"
     inkscape:pageopacity="0"
     inkscape:pageshadow="2"
     inkscape:window-width="2560"
     inkscape:window-height="1414"
     id="namedview30"
     showgrid="false"
     inkscape:zoom="1.9344262"
     inkscape:cx="149.30331"
     inkscape:cy="70.340163"
     inkscape:window-x="0"
     inkscape:window-y="0"
     inkscape:window-maximized="1"
     inkscape:current-layer="svg28" />
  <!-- Generator: Sketch 53.1 (72631) - https://sketchapp.com -->
  <title
     id="title2">Group</title>
  <desc
     id="desc4">Created with Sketch.</desc>
  <g
     id="g1611">
    <path
       d="m 330.24583,23.188498 h 0.0123 z m -4.74737,-4.259056 c -0.37485,0 -0.75094,0.08385 -1.10114,0.250315 -0.62024,0.294706 -1.08881,0.813832 -1.31816,1.461199 -0.23059,0.647366 -0.19483,1.345289 0.0999,1.965528 0.29471,0.620239 0.81384,1.088809 1.46121,1.319395 1.33666,0.473502 2.80773,-0.226887 3.28493,-1.562312 0.47474,-1.336657 -0.22565,-2.810187 -1.56231,-3.284923 -0.28238,-0.09988 -0.57339,-0.149202 -0.8644,-0.149202 z M 325.49353,29 c -0.82986,0 -1.67576,-0.139338 -2.50316,-0.434044 -1.88661,-0.670795 -3.40084,-2.035814 -4.2603,-3.843508 -0.85946,-1.81016 -0.96427,-3.844741 -0.29224,-5.732585 0.66957,-1.886612 2.03459,-3.398367 3.84352,-4.259056 1.80893,-0.859456 3.84352,-0.965501 5.73014,-0.293473 3.89654,1.384748 5.93975,5.680796 4.555,9.57486 v 0.0012 C 331.47521,27.081329 328.57747,29 325.49353,29 Z"
       id="Fill-11"
       inkscape:connector-curvature="0"
       style="fill:#303e51;fill-rule:evenodd;stroke:none;stroke-width:1" />
    <g
       transform="translate(124,42)"
       id="g12"
       style="fill:#303e51;fill-rule:evenodd;stroke:none;stroke-width:1">
      <path
         d="M 6,143.99854 H 144 V 36 H 6 Z M 6,30 H 144 V 6 H 6 Z M 0,150 H 150 V 0 H 0 Z"
         id="path7"
         inkscape:connector-curvature="0" />
      <polygon
         id="Fill-13"
         points="132,15 39,15 39,21 132,21 " />
      <polygon
         id="Fill-14"
         points="21,15 15,15 15,21 21,21 " />
      <polygon
         id="Fill-15"
         points="33,15 27,15 27,21 33,21 " />
    </g>
    <path
       d="m 7.4993832,166.92764 c -1.4174686,0 -2.5721688,1.15451 -2.5721688,2.57174 0,1.41847 1.1547002,2.57298 2.5721688,2.57298 1.4187022,0 2.5734028,-1.15451 2.5734028,-2.57298 0,-1.41723 -1.1547006,-2.57174 -2.5734028,-2.57174 m 0,10.07236 C 3.362941,177 0,173.63514 0,169.49938 0,165.36485 3.362941,162 7.4993832,162 11.635825,162 15,165.36485 15,169.49938 15,173.63514 11.635825,177 7.4993832,177"
       id="Fill-12"
       inkscape:connector-curvature="0"
       style="fill:#303e51;fill-rule:evenodd;stroke:none;stroke-width:1" />
    <path
       d="m 40.015744,101.89372 4.369825,1.32737 -1.019229,-4.394047 z M 47.621858,109 c -0.234565,0 -0.470322,-0.034 -0.700124,-0.10328 l -12.242653,-3.71686 c -0.812049,-0.24646 -1.430016,-0.90252 -1.619335,-1.71818 -0.18932,-0.81567 0.07859,-1.67124 0.700124,-2.24045 l 9.388574,-8.594432 c 0.621539,-0.570381 1.507411,-0.769896 2.318269,-0.522262 0.81324,0.24646 1.428826,0.902515 1.618145,1.718183 l 2.855269,12.310121 c 0.18932,0.81802 -0.07739,1.67124 -0.700124,2.24045 C 48.793495,108.78171 48.21363,109 47.621858,109 Z"
       id="path15"
       inkscape:connector-curvature="0"
       style="fill:#303e51;fill-rule:evenodd;stroke:none;stroke-width:1" />
    <path
       d="m 384.3079,136.23967 3.77226,2.81249 0.54887,-4.67603 z M 390.01714,146 c -0.51824,0 -1.03281,-0.16551 -1.46162,-0.4855 l -10.57066,-7.88207 c -0.70079,-0.52229 -1.07079,-1.37927 -0.96788,-2.24852 0.10169,-0.86924 0.65914,-1.61834 1.46162,-1.96408 l 12.10701,-5.22038 c 0.80003,-0.34574 1.7287,-0.23662 2.42949,0.28566 0.70202,0.52351 1.07079,1.3805 0.96787,2.24974 l -1.53512,13.10123 c -0.10169,0.86924 -0.66036,1.61834 -1.46284,1.96408 C 390.67382,145.93379 390.34548,146 390.01714,146 Z"
       id="path17"
       inkscape:connector-curvature="0"
       style="fill:#303e51;fill-rule:evenodd;stroke:none;stroke-width:1" />
    <path
       d="M 85.483185,18 C 84.457919,18 83.49437,17.388219 83.120286,16.401082 L 78.153917,3.2709441 c -0.477366,-1.2637788 0.192709,-2.66161329 1.497594,-3.12349581 1.302365,-0.45822646 2.749577,0.18645917 3.228203,1.45023801 l 4.966369,13.1301377 c 0.477366,1.263779 -0.19271,2.661614 -1.497594,3.123496 C 86.062573,17.951252 85.771619,18 85.483185,18"
       id="path19"
       inkscape:connector-curvature="0"
       style="fill:#303e51;fill-rule:evenodd;stroke:none;stroke-width:1" />
    <path
       d="M 76.435114,14 C 75.44313,14 74.51086,13.367646 74.14892,12.347313 73.687051,11.043555 74.335374,9.5974546 75.597899,9.1200399 L 88.72889,4.1519028 c 1.261306,-0.4723761 2.66032,0.1927295 3.12219,1.4990069 0.461869,1.303758 -0.186454,2.7498588 -1.448979,3.2272736 L 77.272329,13.84632 C 76.995695,13.949613 76.714186,14 76.435114,14"
       id="Fill-16"
       inkscape:connector-curvature="0"
       style="fill:#303e51;fill-rule:evenodd;stroke:none;stroke-width:1" />
    <path
       d="m 196.53068,244 c -0.70996,0 -1.41497,-0.28769 -1.9023,-0.84435 l -9.05877,-10.32866 c -0.87199,-0.99288 -0.72604,-2.46522 0.32282,-3.28852 1.05133,-0.82447 2.60854,-0.68648 3.47929,0.30639 l 9.05878,10.32867 c 0.87199,0.99287 0.72604,2.46522 -0.32406,3.28852 C 197.64509,243.82458 197.08603,244 196.53068,244"
       id="Fill-17"
       inkscape:connector-curvature="0"
       style="fill:#303e51;fill-rule:evenodd;stroke:none;stroke-width:1" />
    <path
       d="m 186.49282,244 c -0.716,0 -1.42701,-0.30426 -1.91848,-0.89299 -0.8794,-1.05007 -0.73221,-2.60724 0.32682,-3.47797 l 11.01686,-9.05977 c 1.05903,-0.87073 2.63073,-0.72726 3.50764,0.32529 0.8794,1.05006 0.73221,2.60723 -0.32682,3.47796 l -11.01686,9.05854 C 187.6167,243.81448 187.05289,244 186.49282,244"
       id="Fill-18"
       inkscape:connector-curvature="0"
       style="fill:#303e51;fill-rule:evenodd;stroke:none;stroke-width:1" />
    <g
       id="g1593">
      <path
         style="fill:#303e51;fill-opacity:1;fill-rule:evenodd;stroke:none;stroke-width:2.39143991"
         inkscape:connector-curvature="0"
         id="Combined-Shape"
         d="m 232.15006,129.65899 c 0.96396,0 1.74473,0.78077 1.74473,1.74474 0,8.13049 -3.48184,16.85255 -9.31363,23.33317 -6.58312,7.31481 -15.59143,11.34298 -25.36197,11.34298 -6.1164,0 -12.23008,-1.72784 -17.67966,-4.99813 -3.00804,-1.81289 -5.7511,-4.03253 -8.15121,-6.59784 v 0 l 0.21591,6.54277 v 0 l 0.001,0.0376 c 0.0218,0.96342 -0.74261,1.76219 -1.70549,1.78345 -0.96342,0.0217 -1.76218,-0.74206 -1.78399,-1.70603 v 0 l -0.37353,-11.3408 c -0.26934,-0.65155 -0.12049,-1.40016 0.3773,-1.89904 0.49834,-0.49834 1.24749,-0.64883 1.89904,-0.38057 v 0 l 11.34353,0.37402 c 0.96343,0.0322 1.71803,0.83857 1.6864,1.80145 -0.0316,0.96288 -0.83802,1.71802 -1.80089,1.68694 v 0 l -8.19864,-0.27043 c 2.37611,2.74796 5.17315,5.10173 8.28587,6.97514 4.90763,2.94534 10.40029,4.50088 15.88422,4.50088 8.7695,0 16.85473,-3.61815 22.7683,-10.18764 5.2713,-5.85687 8.41782,-13.70711 8.41782,-20.99794 0,-0.96397 0.78078,-1.74474 1.74475,-1.74474 z M 198.78082,96.728126 c 6.1164,0 12.23008,1.728382 17.67966,4.998134 3.00805,1.8118 5.7511,4.03253 8.15121,6.5973 v 0 l -0.2159,-6.54278 v 0 l -0.001,-0.0376 c -0.0218,-0.96288 0.74261,-1.76164 1.70548,-1.78345 0.96342,-0.02126 1.76219,0.74206 1.784,1.70548 v 0 l 0.37348,11.34081 c 0.26935,0.65155 0.12051,1.4007 -0.3773,1.89958 -0.49834,0.49889 -1.24749,0.64883 -1.89904,0.38058 v 0 l -11.34349,-0.37458 c -0.96342,-0.0311 -1.71802,-0.83802 -1.6864,-1.80089 0.0316,-0.96343 0.83802,-1.71857 1.8009,-1.6864 v 0 l 8.19864,0.27043 c -2.37613,-2.74851 -5.17317,-5.10227 -8.28589,-6.97514 -4.90762,-2.94534 -10.40028,-4.50198 -15.88422,-4.50198 -8.76949,0 -16.85472,3.61925 -22.7683,10.18874 -5.27129,5.85632 -8.41782,13.70602 -8.41782,20.99739 0,0.96342 -0.78077,1.74474 -1.74474,1.74474 -0.96397,0 -1.74474,-0.78132 -1.74474,-1.74474 0,-8.12994 3.48184,-16.852 9.31364,-23.33207 6.58311,-7.31482 15.59142,-11.343534 25.36196,-11.343534 z"
         sodipodi:nodetypes="sscscccccccccccccccccccscssscccccccccccccccccccscssscs" />
      <path
         style="fill:#303e51;fill-opacity:1;fill-rule:evenodd;stroke:none;stroke-width:3.04340649"
         inkscape:connector-curvature="0"
         id="Combined-Shape-7"
         d="m 201.57557,113.14357 1.48649,4.45658 c 0.98199,0.28843 1.93023,0.68103 2.8283,1.17106 l 4.19999,-2.10096 3.64341,3.64341 -2.10096,4.20096 c 0.49003,0.89614 0.88166,1.84341 1.17106,2.82829 l 4.45658,1.48553 v 5.15113 l -4.45658,1.48553 c -0.2894,0.98488 -0.68103,1.93215 -1.17106,2.82829 l 2.10096,4.20096 -3.64341,3.64244 -4.19999,-2.1 c -0.89807,0.49004 -1.84631,0.88264 -2.8283,1.17106 l -1.48649,4.45659 h -5.15113 l -1.48649,-4.45659 c -0.98296,-0.28842 -1.93022,-0.68102 -2.82829,-1.17106 l -4.2,2.1 -3.64341,-3.64244 2.10097,-4.20096 c -0.49004,-0.89614 -0.88167,-1.84341 -1.17107,-2.82829 l -4.45658,-1.48553 v -5.15113 l 4.45658,-1.48553 c 0.2894,-0.98488 0.68103,-1.93215 1.17107,-2.82829 l -2.10097,-4.20096 3.64341,-3.64341 4.2,2.10096 c 0.89807,-0.49003 1.84533,-0.88263 2.82829,-1.17106 l 1.48649,-4.45658 z m -2.57556,9.73889 c -4.69878,0 -8.52154,3.82277 -8.52154,8.52154 0,4.69878 3.82276,8.52154 8.52154,8.52154 4.69877,0 8.52153,-3.82277 8.52153,-8.52154 0,-4.69877 -3.82276,-8.52154 -8.52153,-8.52154 z"
         sodipodi:nodetypes="cccccccccccccccccccccccccccccccccsssss" />
    </g>
  </g>
</svg>
