<?xml version="1.0" encoding="UTF-8" standalone="no"?>
<!-- Created with Inkscape (http://www.inkscape.org/) -->

<svg
   width="180"
   height="180"
   viewBox="0 0 47.624999 47.625002"
   version="1.1"
   id="svg1045"
   inkscape:version="1.1.2 (0a00cf5339, 2022-02-04)"
   sodipodi:docname="cart-checked.svg"
   xmlns:inkscape="http://www.inkscape.org/namespaces/inkscape"
   xmlns:sodipodi="http://sodipodi.sourceforge.net/DTD/sodipodi-0.dtd"
   xmlns="http://www.w3.org/2000/svg"
   xmlns:svg="http://www.w3.org/2000/svg">
  <sodipodi:namedview
     id="namedview1047"
     pagecolor="#ffffff"
     bordercolor="#666666"
     borderopacity="1.0"
     inkscape:pageshadow="2"
     inkscape:pageopacity="0.0"
     inkscape:pagecheckerboard="0"
     inkscape:document-units="mm"
     showgrid="false"
     units="px"
     inkscape:zoom="1.4039843"
     inkscape:cx="-29.558736"
     inkscape:cy="-16.738079"
     inkscape:window-width="1280"
     inkscape:window-height="1376"
     inkscape:window-x="0"
     inkscape:window-y="27"
     inkscape:window-maximized="0"
     inkscape:current-layer="layer1" />
  <defs
     id="defs1042" />
  <g
     inkscape:label="Warstwa 1"
     inkscape:groupmode="layer"
     id="layer1">
    <g
       id="g837"
       transform="matrix(1.8078533,0,0,1.8078533,-6.0470528,-7.1755953)">
      <path
         style="color:#000000;fill:#4d4d4d;stroke-linecap:round;stroke-linejoin:round;-inkscape-stroke:none"
         d="m 5.8324219,8.7011719 a 0.92768502,0.92768502 0 0 0 -1.0742188,0.7519531 0.92768502,0.92768502 0 0 0 0.75,1.076172 l 3.2480469,0.576172 2.935547,9.734375 A 0.92777779,0.92777779 0 0 0 12.588281,21.5 l 10.570313,-0.105469 a 0.92777779,0.92777779 0 0 0 0.875,-0.648437 l 1.871093,-5.896485 a 0.92768502,0.92768502 0 0 0 -0.603515,-1.164062 0.92768502,0.92768502 0 0 0 -1.164063,0.603516 l -1.669922,5.255859 -9.201171,0.0918 -2.898438,-9.613281 A 0.92777779,0.92777779 0 0 0 9.641016,9.3789063 Z"
         id="path1340" />
      <path
         style="color:#000000;fill:#008000;stroke-linecap:round;stroke-linejoin:round;-inkscape-stroke:none"
         d="m 24.553125,7.5722656 a 0.92768502,0.92768502 0 0 0 -0.65625,0.265625 l -6.023438,5.9355474 -2.849609,-2.712891 a 0.92768502,0.92768502 0 0 0 -1.310547,0.03125 0.92768502,0.92768502 0 0 0 0.03125,1.3125 l 3.5,3.332031 a 0.92777779,0.92777779 0 0 0 1.291016,-0.01172 l 6.662109,-6.5644527 a 0.92768502,0.92768502 0 0 0 0.0098,-1.3125001 0.92768502,0.92768502 0 0 0 -0.654297,-0.2753906 z"
         id="path1342" />
      <path
         id="circle1800"
         style="fill:#4d4d4d;stroke-width:2.73732"
         d="m 15.970595,24.405239 a 1.8898103,1.8898103 0 0 1 -1.889811,1.88981 1.8898103,1.8898103 0 0 1 -1.88981,-1.88981 1.8898103,1.8898103 0 0 1 1.88981,-1.88981 1.8898103,1.8898103 0 0 1 1.889811,1.88981 z" />
      <path
         id="circle1954"
         style="fill:#4d4d4d;stroke-width:2.73732"
         d="m 23.578637,24.405239 a 1.8898103,1.8898103 0 0 1 -1.88981,1.88981 1.8898103,1.8898103 0 0 1 -1.88981,-1.88981 1.8898103,1.8898103 0 0 1 1.88981,-1.88981 1.8898103,1.8898103 0 0 1 1.88981,1.88981 z" />
    </g>
  </g>
</svg>
