<?xml version="1.0" encoding="UTF-8"?>
<svg width="322px" height="170px" viewBox="0 0 322 170" version="1.1" xmlns="http://www.w3.org/2000/svg" xmlns:xlink="http://www.w3.org/1999/xlink">
    <!-- Generator: Sketch 52.3 (67297) - http://www.bohemiancoding.com/sketch -->
    <title>Page 1</title>
    <desc>Created with Sketch.</desc>
    <defs>
        <polygon id="path-1" points="0 253 371 253 371 0 0 0"></polygon>
    </defs>
    <g id="ZONE-" stroke="none" stroke-width="1" fill="none" fill-rule="evenodd">
        <g id="Client-token-Copy-2" transform="translate(-1047.000000, -408.000000)">
            <g id="Page-1" transform="translate(1033.000000, 362.000000)">
                <mask id="mask-2" fill="white">
                    <use xlink:href="#path-1"></use>
                </mask>
                <g id="Clip-12"></g>
                <path d="M104.44,209.558436 L252.56,209.558436 L252.56,93.64 L104.44,93.64 L104.44,209.558436 Z M104.44,87.2 L252.56,87.2 L252.56,61.44 L104.44,61.44 L104.44,87.2 Z M98,216 L259,216 L259,55 L98,55 L98,216 Z" id="Fill-11" fill="#303E51" mask="url(#mask-2)"></path>
                <path d="M194.128695,122.647005 L209.479035,131.500913 L209.479035,149.213679 L194.128695,158.067587 L178.779212,149.213635 L178.779212,131.500957 L194.128695,122.647005 Z M183.779212,134.389024 L183.779212,146.325568 L194.128771,152.295443 L204.479035,146.325524 L204.479035,134.389068 L194.128771,128.419149 L183.779212,134.389024 Z M156.231984,122.485289 L171.582324,131.339197 L171.582324,149.051963 L156.231984,157.905871 L140.882501,149.051919 L140.882501,131.339241 L156.231984,122.485289 Z M145.882501,134.227308 L145.882501,146.163852 L156.23206,152.133727 L166.582324,146.163808 L166.582324,134.227352 L156.23206,128.257433 L145.882501,134.227308 Z M160.155177,163.786915 L175.505089,154.932985 L190.855,163.786915 L190.855,181.498777 L175.505089,190.353643 L160.155177,181.498777 L160.155177,163.786915 Z M165.155177,178.610818 L175.505089,184.581347 L185.855,178.610818 L185.855,166.675026 L175.505089,160.705129 L165.155177,166.675026 L165.155177,178.610818 Z" fill="#303E51" fill-rule="nonzero" mask="url(#mask-2)" transform="translate(175.180768, 156.419466) rotate(58.000000) translate(-175.180768, -156.419466) "></path>
                <polygon id="Page-1-Copy" stroke="#303E51" stroke-width="3" mask="url(#mask-2)" transform="translate(328.737885, 80.419756) rotate(58.000000) translate(-328.737885, -80.419756) " points="328.737733 74.4197561 323.737885 77.4196767 323.737885 83.4198354 328.737733 86.4197561 333.737885 83.4198354 333.737885 77.4196767"></polygon>
                <polygon id="Page-1-Copy-4" stroke="#303E51" stroke-width="3" mask="url(#mask-2)" transform="translate(288.737885, 143.419756) rotate(58.000000) translate(-288.737885, -143.419756) " points="288.737733 137.419756 283.737885 140.419677 283.737885 146.419835 288.737733 149.419756 293.737885 146.419835 293.737885 140.419677"></polygon>
                <polygon id="Page-1-Copy-2" stroke="#303E51" stroke-width="3" mask="url(#mask-2)" transform="translate(20.737885, 133.419756) rotate(58.000000) translate(-20.737885, -133.419756) " points="20.737733 127.419756 15.7378849 130.419677 15.7378849 136.419835 20.737733 139.419756 25.7378849 136.419835 25.7378849 130.419677"></polygon>
                <polygon id="Page-1-Copy-3" stroke="#303E51" stroke-width="3" mask="url(#mask-2)" transform="translate(61.737885, 122.419756) rotate(58.000000) translate(-61.737885, -122.419756) " points="61.737733 116.419756 56.7378849 119.419677 56.7378849 125.419835 61.737733 128.419756 66.7378849 125.419835 66.7378849 119.419677"></polygon>
                <polygon id="Fill-13" fill="#303E51" mask="url(#mask-2)" points="130 75 205 75 205 70 130 70"></polygon>
                <polygon id="Fill-14" fill="#303E51" mask="url(#mask-2)" points="111 75 116 75 116 70 111 70"></polygon>
                <polygon id="Fill-15" fill="#303E51" mask="url(#mask-2)" points="120 75 125 75 125 70 120 70"></polygon>
                <path d="M53.0004112,49.2848182 C52.2950595,49.2848182 51.6324565,49.7237834 51.3825417,50.425799 C51.0660377,51.31606 51.5338059,52.2983886 52.4249494,52.614871 C52.8557236,52.767769 53.3218476,52.7447521 53.735358,52.5474644 C54.1480462,52.3509987 54.4604397,52.0057451 54.6141702,51.5741781 L54.6141702,51.5733561 C54.7670786,51.1417892 54.7432381,50.6765189 54.5475811,50.2630366 C54.351102,49.8495544 54.0050029,49.5380042 53.5725845,49.3842841 C53.3835042,49.3168775 53.1903135,49.2848182 53.0004112,49.2848182 M53.0020553,56 C52.4381029,56 51.8716841,55.9038222 51.3249955,55.7090006 C48.728019,54.7858583 47.3658189,51.9218978 48.2890239,49.3259198 C49.2122289,46.7274757 52.0780282,45.3645462 54.6725385,46.2901546 C55.9303334,46.7373401 56.9398576,47.6473299 57.5128531,48.8532513 C58.0866706,50.0583506 58.155726,51.4155259 57.7085101,52.6740573 C57.2621162,53.9317668 56.3512425,54.9395783 55.1452392,55.5133569 C54.4637281,55.8372376 53.735358,56 53.0020553,56" id="Fill-20" fill="#303E51" mask="url(#mask-2)"></path>
                <path d="M317,179.285092 C316.054276,179.285092 315.284539,180.054765 315.284539,180.999589 C315.284539,181.945235 316.054276,182.714908 317,182.714908 C317.945724,182.714908 318.715461,181.945235 318.715461,180.999589 C318.715461,180.054765 317.945724,179.285092 317,179.285092 M317,186 C314.242599,186 312,183.756763 312,180.999589 C312,178.243237 314.242599,176 317,176 C319.757401,176 322,178.243237 322,180.999589 C322,183.756763 319.757401,186 317,186" id="Fill-21" fill="#303E51" mask="url(#mask-2)"></path>
                <path d="M49.5392812,165.983741 L52.3673871,166.920717 L51.7071619,163.819004 L49.5392812,165.983741 Z M54.4613101,171 C54.3095431,171 54.1570056,170.975975 54.0083201,170.927096 L46.0863882,168.303398 C45.5609815,168.129424 45.1611485,167.666321 45.0386563,167.090549 C44.9161641,166.514777 45.0895021,165.910838 45.4916463,165.50904 L51.5669507,159.442308 C51.9690948,159.04051 52.5407251,158.898845 53.0669022,159.073648 C53.5930793,159.247622 53.9913715,159.710725 54.1138637,160.286497 L55.9612616,168.976099 C56.0837538,169.553528 55.9111862,170.15581 55.5082717,170.557608 C55.219375,170.845908 54.8441945,171 54.4613101,171 L54.4613101,171 Z" id="Fill-22" fill="#303E51" mask="url(#mask-2)"></path>
                <path d="M19.7286418,77.4931151 L22.1695173,79.3681049 L22.5246691,76.2507505 L19.7286418,77.4931151 Z M23.4228542,84 C23.0875212,84 22.7545664,83.8896584 22.4771041,83.6763313 L15.637262,78.4216192 C15.1838093,78.0734302 14.944399,77.5021059 15.0109899,76.9226082 C15.0767881,76.3431105 15.4374891,75.8437126 15.95674,75.6132212 L23.7906899,72.1329655 C24.3075626,71.9024742 24.9092594,71.9752179 25.3627121,72.3234069 C25.8169575,72.6724133 26.0555751,73.2437376 25.9889841,73.8232353 L24.9956691,82.5573858 C24.9298709,83.1368835 24.5683771,83.6362814 24.0491262,83.8667727 C23.8477679,83.9558634 23.635311,84 23.4228542,84 L23.4228542,84 Z" id="Fill-23" fill="#303E51" mask="url(#mask-2)"></path>
                <path d="M284.728642,104.493115 L287.169517,106.368105 L287.524669,103.25075 L284.728642,104.493115 Z M288.422854,111 C288.087521,111 287.754566,110.889658 287.477104,110.676331 L280.637262,105.421619 C280.183809,105.07343 279.944399,104.502106 280.01099,103.922608 C280.076788,103.34311 280.437489,102.843713 280.95674,102.613221 L288.79069,99.1329655 C289.307563,98.9024742 289.909259,98.9752179 290.362712,99.3234069 C290.816957,99.6724133 291.055575,100.243738 290.988984,100.823235 L289.995669,109.557386 C289.929871,110.136884 289.568377,110.636281 289.049126,110.866773 C288.847768,110.955863 288.635311,111 288.422854,111 L288.422854,111 Z" id="Fill-23-Copy" fill="#303E51" mask="url(#mask-2)"></path>
                <path d="M62.4899108,84 C61.8747511,84 61.2966219,83.592146 61.0721717,82.9340548 L58.0923501,74.1806294 C57.8059305,73.3381102 58.2079759,72.4062205 58.9909065,72.0982989 C59.7723256,71.7928146 60.640653,72.222605 60.9278283,73.0651242 L63.9076499,81.8185496 C64.1940695,82.6610688 63.7920241,83.5929584 63.0090935,83.9008801 C62.8375441,83.9675017 62.6629717,84 62.4899108,84" id="Fill-24" fill="#303E51" mask="url(#mask-2)"></path>
                <path d="M323.489911,128 C322.874751,128 322.296622,127.592146 322.072172,126.934055 L319.09235,118.180629 C318.80593,117.33811 319.207976,116.406221 319.990906,116.098299 C320.772326,115.792815 321.640653,116.222605 321.927828,117.065124 L324.90765,125.81855 C325.19407,126.661069 324.792024,127.592958 324.009094,127.90088 C323.837544,127.967502 323.662972,128 323.489911,128" id="Fill-24-Copy" fill="#303E51" mask="url(#mask-2)"></path>
                <path d="M56.6234094,81 C55.9620868,81 55.3405736,80.6205875 55.0992802,80.0083881 C54.7913671,79.2261332 55.2235829,78.3584728 56.0652661,78.0720239 L64.8192598,75.0911417 C65.6593182,74.807716 66.5928067,75.2067794 66.9007198,75.9905458 C67.2086329,76.7728007 66.7764171,77.6404611 65.9347339,77.92691 L57.1815527,80.9077922 C56.9971298,80.9697679 56.8094572,81 56.6234094,81" id="Fill-25" fill="#303E51" mask="url(#mask-2)"></path>
                <path d="M317.623409,125 C316.962087,125 316.340574,124.620588 316.09928,124.008388 C315.791367,123.226133 316.223583,122.358473 317.065266,122.072024 L325.81926,119.091142 C326.659318,118.807716 327.592807,119.206779 327.90072,119.990546 C328.208633,120.772801 327.776417,121.640461 326.934734,121.92691 L318.181553,124.907792 C317.99713,124.969768 317.809457,125 317.623409,125" id="Fill-25-Copy" fill="#303E51" mask="url(#mask-2)"></path>
            </g>
        </g>
    </g>
</svg>