<?xml version="1.0" encoding="UTF-8"?>
<svg width="338px" height="170px" viewBox="0 0 338 170" version="1.1" xmlns="http://www.w3.org/2000/svg" xmlns:xlink="http://www.w3.org/1999/xlink">
    <!-- Generator: Sketch 53.1 (72631) - https://sketchapp.com -->
    <title>Page 1 Copy 5</title>
    <desc>Created with Sketch.</desc>
    <g id="Empty-screen-first-screen" stroke="none" stroke-width="1" fill="none" fill-rule="evenodd">
        <g id="Creat-new-cluster" transform="translate(-1299.000000, -408.000000)">
            <g id="Page-1-Copy-5" transform="translate(1298.000000, 408.000000)">
                <path d="M91.44,163.558436 L239.56,163.558436 L239.56,47.64 L91.44,47.64 L91.44,163.558436 Z M91.44,41.2 L239.56,41.2 L239.56,15.44 L91.44,15.44 L91.44,41.2 Z M85,170 L246,170 L246,9 L85,9 L85,170 Z" id="Fill-11" fill="#303E51"></path>
                <polygon id="Page-1-Copy" stroke="#303E51" stroke-width="3" transform="translate(331.737885, 20.419756) rotate(58.000000) translate(-331.737885, -20.419756) " points="331.737733 14.4197561 326.737885 17.4196767 326.737885 23.4198354 331.737733 26.4197561 336.737885 23.4198354 336.737885 17.4196767"></polygon>
                <polygon id="Page-1-Copy-4" stroke="#303E51" stroke-width="3" transform="translate(275.737885, 97.419756) rotate(58.000000) translate(-275.737885, -97.419756) " points="275.737733 91.4197561 270.737885 94.4196767 270.737885 100.419835 275.737733 103.419756 280.737885 100.419835 280.737885 94.4196767"></polygon>
                <polygon id="Page-1-Copy-2" stroke="#303E51" stroke-width="3" transform="translate(7.737885, 87.419756) rotate(58.000000) translate(-7.737885, -87.419756) " points="7.73773296 81.4197561 2.7378849 84.4196767 2.7378849 90.4198354 7.73773296 93.4197561 12.7378849 90.4198354 12.7378849 84.4196767"></polygon>
                <polygon id="Page-1-Copy-3" stroke="#303E51" stroke-width="3" transform="translate(48.737885, 76.419756) rotate(58.000000) translate(-48.737885, -76.419756) " points="48.737733 70.4197561 43.7378849 73.4196767 43.7378849 79.4198354 48.737733 82.4197561 53.7378849 79.4198354 53.7378849 73.4196767"></polygon>
                <polygon id="Fill-13" fill="#303E51" points="117 29 192 29 192 24 117 24"></polygon>
                <polygon id="Fill-14" fill="#303E51" points="98 29 103 29 103 24 98 24"></polygon>
                <polygon id="Fill-15" fill="#303E51" points="107 29 112 29 112 24 107 24"></polygon>
                <path d="M40.0004112,3.2848182 C39.2950595,3.2848182 38.6324565,3.72378345 38.3825417,4.42579903 C38.0660377,5.31606 38.5338059,6.29838859 39.4249494,6.61487102 C39.8557236,6.76776903 40.3218476,6.74475212 40.735358,6.54746437 C41.1480462,6.35099865 41.4604397,6.00574509 41.6141702,5.57417814 L41.6141702,5.57335611 C41.7670786,5.14178915 41.7432381,4.67651887 41.5475811,4.26303663 C41.351102,3.84955439 41.0050029,3.53800415 40.5725845,3.38428411 C40.3835042,3.31687746 40.1903135,3.2848182 40.0004112,3.2848182 M40.0020553,10 C39.4381029,10 38.8716841,9.90382222 38.3249955,9.70900057 C35.728019,8.7858583 34.3658189,5.9218978 35.2890239,3.32591982 C36.2122289,0.727475743 39.0780282,-0.635453798 41.6725385,0.290154563 C42.9303334,0.73734013 43.9398576,1.64732988 44.5128531,2.85325125 C45.0866706,4.05835059 45.155726,5.41552591 44.7085101,6.67405735 C44.2621162,7.93176675 43.3512425,8.93957834 42.1452392,9.51335688 C41.4637281,9.83723761 40.735358,10 40.0020553,10" id="Fill-20" fill="#303E51"></path>
                <path d="M304,133.285092 C303.054276,133.285092 302.284539,134.054765 302.284539,134.999589 C302.284539,135.945235 303.054276,136.714908 304,136.714908 C304.945724,136.714908 305.715461,135.945235 305.715461,134.999589 C305.715461,134.054765 304.945724,133.285092 304,133.285092 M304,140 C301.242599,140 299,137.756763 299,134.999589 C299,132.243237 301.242599,130 304,130 C306.757401,130 309,132.243237 309,134.999589 C309,137.756763 306.757401,140 304,140" id="Fill-21" fill="#303E51"></path>
                <path d="M50.5392812,116.983741 L53.3673871,117.920717 L52.7071619,114.819004 L50.5392812,116.983741 Z M55.4613101,122 C55.3095431,122 55.1570056,121.975975 55.0083201,121.927096 L47.0863882,119.303398 C46.5609815,119.129424 46.1611485,118.666321 46.0386563,118.090549 C45.9161641,117.514777 46.0895021,116.910838 46.4916463,116.50904 L52.5669507,110.442308 C52.9690948,110.04051 53.5407251,109.898845 54.0669022,110.073648 C54.5930793,110.247622 54.9913715,110.710725 55.1138637,111.286497 L56.9612616,119.976099 C57.0837538,120.553528 56.9111862,121.15581 56.5082717,121.557608 C56.219375,121.845908 55.8441945,122 55.4613101,122 L55.4613101,122 Z" id="Fill-22" fill="#303E51"></path>
                <path d="M6.72864183,31.4931151 L9.16951734,33.3681049 L9.52466908,30.2507505 L6.72864183,31.4931151 Z M10.4228542,38 C10.0875212,38 9.75456642,37.8896584 9.47710412,37.6763313 L2.63726199,32.4216192 C2.18380931,32.0734302 1.94439899,31.5021059 2.01098994,30.9226082 C2.07678814,30.3431105 2.43748913,29.8437126 2.95674001,29.6132212 L10.7906899,26.1329655 C11.3075626,25.9024742 11.9092594,25.9752179 12.3627121,26.3234069 C12.8169575,26.6724133 13.0555751,27.2437376 12.9889841,27.8232353 L11.9956691,36.5573858 C11.9298709,37.1368835 11.5683771,37.6362814 11.0491262,37.8667727 C10.8477679,37.9558634 10.635311,38 10.4228542,38 L10.4228542,38 Z" id="Fill-23" fill="#303E51"></path>
                <path d="M271.728642,58.4931151 L274.169517,60.3681049 L274.524669,57.2507505 L271.728642,58.4931151 Z M275.422854,65 C275.087521,65 274.754566,64.8896584 274.477104,64.6763313 L267.637262,59.4216192 C267.183809,59.0734302 266.944399,58.5021059 267.01099,57.9226082 C267.076788,57.3431105 267.437489,56.8437126 267.95674,56.6132212 L275.79069,53.1329655 C276.307563,52.9024742 276.909259,52.9752179 277.362712,53.3234069 C277.816957,53.6724133 278.055575,54.2437376 277.988984,54.8232353 L276.995669,63.5573858 C276.929871,64.1368835 276.568377,64.6362814 276.049126,64.8667727 C275.847768,64.9558634 275.635311,65 275.422854,65 L275.422854,65 Z" id="Fill-23-Copy" fill="#303E51"></path>
                <path d="M49.4899108,38 C48.8747511,38 48.2966219,37.592146 48.0721717,36.9340548 L45.0923501,28.1806294 C44.8059305,27.3381102 45.2079759,26.4062205 45.9909065,26.0982989 C46.7723256,25.7928146 47.640653,26.222605 47.9278283,27.0651242 L50.9076499,35.8185496 C51.1940695,36.6610688 50.7920241,37.5929584 50.0090935,37.9008801 C49.8375441,37.9675017 49.6629717,38 49.4899108,38" id="Fill-24" fill="#303E51"></path>
                <path d="M310.489911,82 C309.874751,82 309.296622,81.592146 309.072172,80.9340548 L306.09235,72.1806294 C305.80593,71.3381102 306.207976,70.4062205 306.990906,70.0982989 C307.772326,69.7928146 308.640653,70.222605 308.927828,71.0651242 L311.90765,79.8185496 C312.19407,80.6610688 311.792024,81.5929584 311.009094,81.9008801 C310.837544,81.9675017 310.662972,82 310.489911,82" id="Fill-24-Copy" fill="#303E51"></path>
                <path d="M43.6234094,35 C42.9620868,35 42.3405736,34.6205875 42.0992802,34.0083881 C41.7913671,33.2261332 42.2235829,32.3584728 43.0652661,32.0720239 L51.8192598,29.0911417 C52.6593182,28.807716 53.5928067,29.2067794 53.9007198,29.9905458 C54.2086329,30.7728007 53.7764171,31.6404611 52.9347339,31.92691 L44.1815527,34.9077922 C43.9971298,34.9697679 43.8094572,35 43.6234094,35" id="Fill-25" fill="#303E51"></path>
                <path d="M304.623409,79 C303.962087,79 303.340574,78.6205875 303.09928,78.0083881 C302.791367,77.2261332 303.223583,76.3584728 304.065266,76.0720239 L312.81926,73.0911417 C313.659318,72.807716 314.592807,73.2067794 314.90072,73.9905458 C315.208633,74.7728007 314.776417,75.6404611 313.934734,75.92691 L305.181553,78.9077922 C304.99713,78.9697679 304.809457,79 304.623409,79" id="Fill-25-Copy" fill="#303E51"></path>
                <g id="Group-7" transform="translate(137.000000, 74.000000)" stroke="#303E51" stroke-width="3">
                    <path d="M9.92256203,4.6907443 C12.2504608,4.6907443 14.1388658,6.57844051 14.1388658,8.90137722 C14.1388658,11.2299848 12.2504608,13.1183899 9.92256203,13.1183899 C7.60033418,13.1183899 5.71192911,11.2299848 5.71192911,8.90137722 C5.71192911,6.57844051 7.60033418,4.6907443 9.92256203,4.6907443 Z M3.06646076,18.1917063 L54.0363848,18.1917063 C55.4016506,18.1917063 55.4867139,16.5343899 55.4867139,15.6242127 L55.4867139,4.58937722 C55.4867139,2.20760506 54.346157,0.354643038 51.9629671,0.354643038 L4.40904304,0.354643038 C2.0251443,0.354643038 0.354359494,2.20760506 0.354359494,4.58937722 L0.354359494,15.6242127 C0.354359494,16.5343899 0.725093671,18.1917063 3.06646076,18.1917063 Z" id="Stroke-1"></path>
                    <path d="M9.92256203,26.1145331 C12.2504608,26.1145331 14.1388658,28.0022293 14.1388658,30.3244572 C14.1388658,32.6530648 12.2504608,34.5414698 9.92256203,34.5414698 C7.60033418,34.5414698 5.71192911,32.6530648 5.71192911,30.3244572 C5.71192911,28.0022293 7.60033418,26.1145331 9.92256203,26.1145331 Z M3.06646076,39.6147863 L54.0363848,39.6147863 C55.4016506,39.6147863 55.4867139,37.9581787 55.4867139,37.0472926 L55.4867139,26.013166 C55.4867139,23.6313939 54.346157,21.777723 51.9629671,21.777723 L4.40904304,21.777723 C2.0251443,21.777723 0.354359494,23.6313939 0.354359494,26.013166 L0.354359494,37.0472926 C0.354359494,37.9581787 0.725093671,39.6147863 3.06646076,39.6147863 Z" id="Stroke-3"></path>
                    <path d="M9.92256203,47.3361013 C12.2504608,47.3361013 14.1388658,49.2237975 14.1388658,51.5460253 C14.1388658,53.8753418 12.2504608,55.7637468 9.92256203,55.7637468 C7.60033418,55.7637468 5.71192911,53.8753418 5.71192911,51.5460253 C5.71192911,49.2237975 7.60033418,47.3361013 9.92256203,47.3361013 Z M3.06646076,60.8370633 L54.0363848,60.8370633 C55.4016506,60.8370633 55.4867139,59.1797468 55.4867139,58.2695696 L55.4867139,47.2347342 C55.4867139,44.852962 54.346157,43 51.9629671,43 L4.40904304,43 C2.0251443,43 0.354359494,44.852962 0.354359494,47.2347342 L0.354359494,58.2695696 C0.354359494,59.1797468 0.725093671,60.8370633 3.06646076,60.8370633 Z" id="Stroke-5"></path>
                </g>
            </g>
        </g>
    </g>
</svg>