<?xml version="1.0" encoding="UTF-8" standalone="no"?>
<svg
   xmlns:dc="http://purl.org/dc/elements/1.1/"
   xmlns:cc="http://creativecommons.org/ns#"
   xmlns:rdf="http://www.w3.org/1999/02/22-rdf-syntax-ns#"
   xmlns:svg="http://www.w3.org/2000/svg"
   xmlns="http://www.w3.org/2000/svg"
   xmlns:sodipodi="http://sodipodi.sourceforge.net/DTD/sodipodi-0.dtd"
   xmlns:inkscape="http://www.inkscape.org/namespaces/inkscape"
   width="458.28357"
   height="119"
   viewBox="0 0 458.28357 119"
   version="1.1"
   id="svg2"
   inkscape:version="0.91 r13725"
   sodipodi:docname="cluster-deregister-provider.svg">
  <metadata
     id="metadata47">
    <rdf:RDF>
      <cc:Work
         rdf:about="">
        <dc:format>image/svg+xml</dc:format>
        <dc:type
           rdf:resource="http://purl.org/dc/dcmitype/StillImage" />
        <dc:title>Page 1</dc:title>
      </cc:Work>
    </rdf:RDF>
  </metadata>
  <defs
     id="defs45" />
  <sodipodi:namedview
     pagecolor="#ffffff"
     bordercolor="#666666"
     borderopacity="1"
     objecttolerance="10"
     gridtolerance="10"
     guidetolerance="10"
     inkscape:pageopacity="0"
     inkscape:pageshadow="2"
     inkscape:window-width="1954"
     inkscape:window-height="840"
     id="namedview43"
     showgrid="false"
     fit-margin-top="0"
     fit-margin-left="0"
     fit-margin-right="0"
     fit-margin-bottom="0"
     inkscape:zoom="0.70171674"
     inkscape:cx="225.28358"
     inkscape:cy="77"
     inkscape:window-x="0"
     inkscape:window-y="0"
     inkscape:window-maximized="0"
     inkscape:current-layer="svg2" />
  <!-- Generator: Sketch 53.2 (72643) - https://sketchapp.com -->
  <title
     id="title4">Page 1</title>
  <desc
     id="desc6">Created with Sketch.</desc>
  <rect
     style="fill:#34495e;fill-rule:evenodd;stroke:none;stroke-width:1"
     height="4"
     width="72"
     y="55"
     x="242.28357"
     id="Rectangle-2" />
  <rect
     style="fill:#34495e;fill-rule:evenodd;stroke:none;stroke-width:1"
     height="4"
     width="72"
     y="55"
     x="128.28357"
     id="Rectangle-2-Copy" />
  <path
     style="fill:#34495e;fill-rule:evenodd;stroke:none;stroke-width:1"
     inkscape:connector-curvature="0"
     id="Fill-1"
     d="m 307.28333,68.10175 c -0.512,0 -1.023,-0.195 -1.414,-0.586 -0.781,-0.781 -0.781,-2.047 0,-2.828 l 7.637,-7.637 -7.637,-7.636 c -0.781,-0.781 -0.781,-2.048 0,-2.829 0.781,-0.781 2.047,-0.781 2.828,0 l 10.465,10.465 -10.465,10.465 c -0.391,0.391 -0.902,0.586 -1.414,0.586" />
  <polygon
     style="fill:#ef3f3f;fill-rule:evenodd;stroke:none;stroke-width:1"
     points="248.963,130 257,138.037 236.537,158.5 257,178.963 248.963,187 228.5,166.537 208.037,187 200,178.963 220.463,158.5 200,138.037 208.037,130 228.5,150.463 "
     id="Shape"
     transform="translate(-7.7164236,-102)" />
  <g
     style="fill:none;fill-rule:evenodd;stroke:#303e51;stroke-width:4.5"
     transform="translate(2.2835764,6)"
     id="Group-15">
    <path
       inkscape:connector-curvature="0"
       id="Stroke-1"
       d="m 14.978613,87.248383 c -3.635348,0 -6.5915661,-2.911348 -6.5915661,-6.491519 0,-3.582357 2.9562181,-6.501355 6.5915661,-6.501355 3.644227,0 6.600444,2.918998 6.600444,6.501355 0,3.580171 -2.956217,6.491519 -6.600444,6.491519 z M 33,69 l -29.9749815,2e-6 C 0.04660703,69.000002 0,68.990166 0,70.392291 L 0,87.40466 C 0,91.076631 2.6155424,94 6.3474343,94 L 33,94 33,69 Z" />
    <path
       inkscape:connector-curvature="0"
       id="Stroke-3"
       d="m 14.751723,6.8066606 c 3.589025,0 6.500463,2.9632396 6.500463,6.6085924 0,3.656479 -2.911438,6.620832 -6.500463,6.620832 -3.580282,0 -6.4917199,-2.964353 -6.4917199,-6.620832 0,-3.6453528 2.9114379,-6.6085924 6.4917199,-6.6085924 z M 4.1824599,28 82.763963,28 C 84.869947,28 85,25.398402 85,23.969638 l 0,-17.3221 C 85,2.9087152 83.241553,0 79.567283,0 L 6.2512857,0 C 2.5759232,0 0,2.9087152 0,6.647538 l 0,17.3221 C 0,25.398402 0.57267023,28 4.1824599,28 Z" />
    <path
       inkscape:connector-curvature="0"
       id="Stroke-5"
       d="m 14.830951,41.971585 c 3.595347,0 6.511914,2.910382 6.511914,6.500546 0,3.580328 -2.916567,6.491803 -6.511914,6.491803 -3.586589,0 -6.5031557,-2.911475 -6.5031557,-6.491803 0,-3.590164 2.9165667,-6.500546 6.5031557,-6.500546 z M 2.8110612,61 l 29.7995598,0 0,-11.816393 c 0,-3.4 2.95817,-6.695082 7.369149,-9.304918 C 41.803719,38.798907 41.022026,36 38.90029,36 L 2.5099892,36 c -3.08845145,0 -2.45674763,2.55847 -2.45674763,3.961749 l 0,17.010929 C 0.05324157,58.3847 -0.42847365,61 2.8110612,61 Z" />
    <path
       inkscape:connector-curvature="0"
       id="Stroke-7"
       d="M 72,66 C 89.147068,66 101,59.433693 101,53.498362 101,47.566307 89.147068,41 72,41 54.852932,41 43,47.566307 43,53.498362 43,59.433693 54.852932,66 72,66" />
    <path
       inkscape:connector-curvature="0"
       id="Stroke-9"
       d="m 43,93 0,2.727078 C 43,101.55321 54.853155,108 72.000545,108 89.146845,108 101,101.55321 101,95.727078" />
    <path
       inkscape:connector-curvature="0"
       id="Stroke-11"
       d="M 43,81 C 43,87.173552 54.853155,94 72.000545,94 89.146845,94 101,87.173552 101,81" />
    <path
       inkscape:connector-curvature="0"
       id="Stroke-13"
       d="M 43,67 C 43,73.173552 54.853155,80 72.000545,80 89.146845,80 101,73.173552 101,67" />
  </g>
  <path
     style="fill:#303e51;fill-rule:evenodd;stroke:none;stroke-width:1"
     inkscape:connector-curvature="0"
     id="path33"
     d="m 344.8617,114.35156 108.77344,0 0,-85.53125 -108.77344,0 0,85.53125 z m 0,-90.17968 108.77344,0 0,-18.59375 -108.77344,0 0,18.59375 z M 339.28358,119 l 119,0 0,-119 -119,0 0,119 z m 30.67969,-102.26562 0,-5.57813 74.375,0 0,5.57813 -74.375,0 z m -19.52344,0 0,-5.57813 5.57812,0 0,5.57813 -5.57812,0 z m 10.22656,0 0,-5.57813 4.64844,0 0,5.57813 -4.64844,0 z" />
  <g
     style="fill:#303e51;fill-rule:evenodd;stroke:none;stroke-width:1"
     transform="translate(371.28358,43)"
     id="zone">
    <path
       inkscape:connector-curvature="0"
       id="path36"
       d="m 20.140845,17.538235 -3.281972,-3.18513 c 0.379972,-0.712327 0.620914,-1.517328 0.620914,-2.385941 0,-2.7595423 -2.177916,-4.995333 -4.866025,-4.995333 -2.6884238,0 -4.8672831,2.2357907 -4.8672831,4.995333 0,2.753729 2.1788593,4.991134 4.8672831,4.991134 0.946154,0 1.82531,-0.288353 2.570784,-0.771419 l 3.275995,3.179318 c 0.497297,-0.67261 1.05247,-1.287743 1.680304,-1.827962" />
    <path
       inkscape:connector-curvature="0"
       id="Fill-3"
       d="m 34.590322,17.042253 4.262862,-7.4160113 c 0.420685,0.1234623 0.854295,0.2147862 1.314064,0.2147862 2.630283,0 4.762329,-2.2048204 4.762329,-4.9238551 C 44.929577,2.2032295 42.797531,0 40.167248,0 c -2.629975,0 -4.756482,2.1975018 -4.756482,4.9171728 0,1.3485394 0.527472,2.5726618 1.376228,3.4617177 l -4.251783,7.3943745 c 0.733661,0.34493 1.41839,0.770048 2.055111,1.268988" />
    <path
       inkscape:connector-curvature="0"
       id="Fill-5"
       d="m 49.958117,24.014084 c -2.164018,0 -3.996689,1.3803 -4.710861,3.299499 l -6.271157,-0.620304 c 0,0.04559 0.0059,0.09182 0.0059,0.137736 0,0.81763 -0.08601,1.617676 -0.249569,2.389394 l 6.265293,0.614768 c 0.38315,2.406 2.4491,4.24933 4.96043,4.24933 C 52.742475,34.084507 55,31.82992 55,29.05304 55,26.269974 52.742475,24.014084 49.958117,24.014084" />
    <path
       inkscape:connector-curvature="0"
       id="Fill-8"
       d="m 33.851512,42.859208 -1.403934,-6.450757 c -0.787922,0.286136 -1.611658,0.494048 -2.469256,0.59869 l 1.403608,6.457275 c -1.611333,0.88517 -2.719958,2.638011 -2.719958,4.685222 0,2.925862 2.24981,5.301066 5.038141,5.301066 2.776611,0 5.032281,-2.375204 5.032281,-5.301066 0,-2.877486 -2.174273,-5.204658 -4.880882,-5.29043" />
    <path
       inkscape:connector-curvature="0"
       id="Fill-10"
       d="M 16.261858,29.43662 8.8220076,32.16325 C 7.9651884,30.730505 6.4823753,29.781905 4.8016674,29.781905 2.1467082,29.781905 0,32.126583 0,35.028063 c 0,2.90148 2.1467082,5.253627 4.8016674,5.253627 2.6552699,0 4.8063275,-2.352147 4.8063275,-5.253627 0,-0.120867 -0.021125,-0.235622 -0.03262,-0.350038 L 17.042253,31.945283 C 16.70518,31.148445 16.438628,30.314261 16.261858,29.43662" />
    <path
       inkscape:connector-curvature="0"
       id="Fill-13"
       d="m 35.633803,27.112033 c 0,4.70989 -3.638613,8.52177 -8.134723,8.52177 -4.488748,0 -8.132883,-3.81188 -8.132883,-8.52177 0,-4.702818 3.644135,-8.520484 8.132883,-8.520484 4.49611,0 8.134723,3.817666 8.134723,8.520484" />
  </g>
</svg>
