<svg xmlns="http://www.w3.org/2000/svg" viewBox="0 0 137.04 137.04"><defs><style>.cls-1{fill:#fff;}</style></defs><title>Zasób 3</title><g id="Warstwa_2" data-name="Warstwa 2"><g id="Warstwa_1-2" data-name="Warstwa 1"><path class="cls-1" d="M136.6,60.91c-.22-1.93-2.46-3.38-4.4-3.38a15.13,15.13,0,0,1-10.36-26.33,3.81,3.81,0,0,0,.42-5.17,67.81,67.81,0,0,0-10.85-11,3.81,3.81,0,0,0-5.21.42,15.8,15.8,0,0,1-17.09,3.84A15.22,15.22,0,0,1,79.86,4.46a3.8,3.8,0,0,0-3.36-4,68.35,68.35,0,0,0-15.42,0,3.82,3.82,0,0,0-3.39,3.92A15.25,15.25,0,0,1,48.3,19a15.84,15.84,0,0,1-17-3.86,3.82,3.82,0,0,0-5.17-.43,68.09,68.09,0,0,0-11.08,11,3.81,3.81,0,0,0,.41,5.21,15.18,15.18,0,0,1,3.83,17.1C17,53.55,11.11,57.18,4.42,57.18a3.73,3.73,0,0,0-4,3.37,68.78,68.78,0,0,0,0,15.58C.65,78.06,3,79.5,4.92,79.5A15,15,0,0,1,19,88.89a15.24,15.24,0,0,1-3.83,16.95,3.8,3.8,0,0,0-.42,5.16,68,68,0,0,0,10.84,11,3.81,3.81,0,0,0,5.21-.41,15.77,15.77,0,0,1,17.08-3.84,15.2,15.2,0,0,1,9.27,14.87,3.8,3.8,0,0,0,3.36,4,68.53,68.53,0,0,0,15.42,0,3.81,3.81,0,0,0,3.39-3.92,15.24,15.24,0,0,1,9.38-14.61,15.82,15.82,0,0,1,17,3.86,3.83,3.83,0,0,0,5.17.43,68.19,68.19,0,0,0,11.08-11,3.81,3.81,0,0,0-.41-5.21,15.18,15.18,0,0,1-3.84-17.09,15.34,15.34,0,0,1,14-9.29l.85,0a3.81,3.81,0,0,0,4-3.36,68.36,68.36,0,0,0,0-15.58ZM68.52,108a39.5,39.5,0,1,1,33.91-19.25l-17.3-17.3A24.23,24.23,0,0,0,56.45,38.66a2.74,2.74,0,0,0-1.9,1.91,2.68,2.68,0,0,0,.76,2.62s8.54,8.61,11.4,11.46A1.77,1.77,0,0,1,67,55.92l0,.19a54.89,54.89,0,0,1-1.3,8.36l-.18.18-.19.19a53.53,53.53,0,0,1-8.49,1.32v0l-.15,0H56.5a1.83,1.83,0,0,1-1.31-.56C52.21,62.65,44,54.5,44,54.5a2.78,2.78,0,0,0-2-.89,2.71,2.71,0,0,0-2.55,2.06A24.23,24.23,0,0,0,72.29,84.32l17.48,17.49A39.31,39.31,0,0,1,68.52,108Zm0,0"/></g></g></svg>