<?xml version="1.0" encoding="UTF-8" standalone="no"?>
<svg width="294px" height="262px" viewBox="0 0 294 262" version="1.1" xmlns="http://www.w3.org/2000/svg" xmlns:xlink="http://www.w3.org/1999/xlink">
    <!-- Generator: Sketch 48.2 (47327) - http://www.bohemiancoding.com/sketch -->
    <title>Page 1</title>
    <desc>Created with Sketch.</desc>
    <defs>
        <polygon id="path-1" points="30.0547154 0.209028692 30.0547154 17.2171342 0.561709615 17.2171342 0.561709615 0.209028692 30.0547154 0.209028692"></polygon>
        <polygon id="path-3" points="0 266.869198 293.523946 266.869198 293.523946 0.558616034 0 0.558616034"></polygon>
    </defs>
    <g id="First-screen--REQUEST-SUPPORT" stroke="none" stroke-width="1" fill="none" fill-rule="evenodd" transform="translate(-1091.000000, -394.000000)">
        <g id="Page-1" transform="translate(1091.000000, 393.000000)">
            <g id="Group-32" transform="translate(0.000000, 0.572186)">
                <path d="M126.761492,208.226501 C134.289023,208.226501 140.345423,198.010839 140.345423,189.54905 C140.345423,189.454062 140.337508,189.366991 140.337508,189.274265 C139.450985,186.135159 137.703946,181.90483 134.344431,178.56105 C130.801731,182.386552 124.287369,186.79894 113.281592,186.317219 C113.209223,187.313455 113.178692,188.387716 113.178692,189.54905 C113.178692,198.010839 119.235092,208.226501 126.761492,208.226501 Z M141.570046,198.967497 C138.795138,205.774923 133.283769,211.388223 126.761492,211.388223 C120.255046,211.388223 114.751592,205.799801 111.968769,199.014991 C109.906246,198.690451 107.944362,197.093759 107.636792,193.328189 C107.334877,189.740155 108.528969,188.268982 110.047592,187.692273 C110.299754,181.097438 111.8964,177.034468 114.252923,174.526349 C115.716138,172.62321 118.175562,170.772088 119.757508,169.806383 C132.201623,162.216442 138.573508,173.033691 138.573508,173.033691 C138.573508,173.033691 147.105162,175.5011 144.013638,188.102754 C145.119531,188.878484 145.879408,190.388105 145.634031,193.337235 C145.341162,196.927531 143.5308,198.5491 141.570046,198.967497 Z" id="Fill-1" fill="#303E51"></path>
                <path d="M122.452583,221.018695 L123.323275,217.4137 C123.423914,217.002088 123.63876,216.647016 123.930498,216.36997 C123.835514,216.306645 123.748445,216.24332 123.662506,216.17321 L115.881683,209.728771 L111.146022,210.835826 C103.128868,212.71748 97.4761523,219.492113 97.4761523,227.264113 C97.4761523,227.264113 95.9801446,241.06894 98.1161677,241.06894 L121.44846,241.06894 L124.507191,223.643286 C123.133306,223.628586 122.129183,222.362088 122.452583,221.018695" id="Fill-3" fill="#303E51"></path>
                <path d="M142.08432,210.835939 L137.418766,209.728884 L129.640205,216.173323 C129.553135,216.243433 129.475112,216.306758 129.386912,216.370083 C129.678651,216.647129 129.893497,217.002201 129.995266,217.413813 L130.864828,221.018808 C131.188228,222.362201 130.185235,223.628699 128.809089,223.652446 L131.868951,241.076969 L151.912966,241.076969 C154.054643,241.076969 155.676166,239.472361 155.676166,237.465188 L155.676166,227.264226 C155.682951,219.492226 150.109389,212.717593 142.08432,210.835939" id="Fill-5" fill="#303E51"></path>
                <path d="M186.960593,176.734127 L129.700701,176.734127 C127.466301,176.734127 125.648024,178.541148 125.648024,180.763173 L125.648024,222.729485 C125.648024,224.951511 127.466301,226.758532 129.700701,226.758532 L150.467278,226.758532 L150.467278,232.619477 L149.156716,232.619477 C145.278178,232.619477 142.12107,235.757451 142.12107,239.613485 C142.12107,240.489857 142.836847,241.202262 143.717716,241.202262 L172.943578,241.202262 C173.824447,241.202262 174.541355,240.489857 174.541355,239.613485 C174.541355,235.757451 171.385378,232.619477 167.504578,232.619477 L166.196278,232.619477 L166.196278,226.758532 L186.960593,226.758532 C189.194993,226.758532 191.012139,224.951511 191.012139,222.729485 L191.012139,180.763173 C191.012139,178.541148 189.194993,176.734127 186.960593,176.734127" id="Fill-7" fill="#FFFFFF"></path>
                <g id="Group-11" transform="translate(263.469231, 141.350211)">
                    <mask id="mask-2" fill="white">
                        <use xlink:href="#path-1"></use>
                    </mask>
                    <g id="Clip-10"></g>
                    <path d="M15.3089192,17.2171342 C14.7299654,17.2171342 14.1521423,16.9966278 13.7100115,16.5544844 L1.22405769,4.06930295 C0.340926923,3.18614684 0.340926923,1.7545519 1.22405769,0.871395781 C2.10718846,-0.0117603376 3.53874231,-0.0117603376 4.42187308,0.871395781 L15.3089192,11.7576236 L26.1948346,0.871395781 C27.0779654,-0.0117603376 28.5095192,-0.0117603376 29.39265,0.871395781 C30.2757808,1.7545519 30.2757808,3.18614684 29.39265,4.06930295 L16.9078269,16.5544844 C16.4656962,16.9966278 15.8878731,17.2171342 15.3089192,17.2171342" id="Fill-9" fill="#EF3F3F" mask="url(#mask-2)"></path>
                </g>
                <path d="M261.772512,78.0772203 L243.247119,78.0772203 L243.247119,82.600427 L261.772512,82.600427 C269.901612,82.600427 276.516612,89.2156169 276.516612,97.3449502 L276.516612,113.697473 L276.516612,184.947026 L276.516612,201.299549 C276.516612,209.428883 269.901612,216.044073 261.772512,216.044073 L243.247119,216.044073 L243.247119,220.567279 L261.772512,220.567279 C272.397219,220.567279 281.039688,211.923431 281.039688,201.299549 L281.039688,184.947026 L281.039688,113.697473 L281.039688,97.3449502 C281.039688,86.7221992 272.397219,78.0772203 261.772512,78.0772203" id="Fill-12" fill="#EF3F3F"></path>
                <mask id="mask-4" fill="white">
                    <use xlink:href="#path-3"></use>
                </mask>
                <g id="Clip-15"></g>
                <path d="M161.771238,86.2801688 L209.681931,86.2801688 L209.681931,51.598481 L161.771238,51.598481 L161.771238,86.2801688 Z M211.471938,89.8591561 L159.982362,89.8591561 C158.994069,89.8591561 158.192354,89.0574177 158.192354,88.069097 L158.192354,49.8084219 C158.192354,48.8201013 158.994069,48.0194937 159.982362,48.0194937 L211.471938,48.0194937 C212.460231,48.0194937 213.260815,48.8201013 213.260815,49.8084219 L213.260815,88.069097 C213.260815,89.0574177 212.460231,89.8591561 211.471938,89.8591561 Z" id="Fill-14" fill="#303E51" mask="url(#mask-4)"></path>
                <path d="M164.548408,86.2799426 L206.904762,86.2799426 L190.859146,71.4223392 L186.994177,75.2975966 C186.324762,75.9692928 185.253923,76.0020861 184.542669,75.3756219 L180.333946,71.6632 L164.548408,86.2799426 Z M211.471938,89.85893 L159.982362,89.85893 C159.246231,89.85893 158.585862,89.4088709 158.315608,88.7213435 C158.047615,88.0372084 158.225146,87.2558245 158.766785,86.7560101 L179.088969,67.9383392 C179.761777,67.3152675 180.798692,67.3005671 181.488462,67.9100692 L185.647431,71.5783899 L189.542931,67.6737316 C190.221392,66.9907274 191.319369,66.9715038 192.024969,67.6239764 L212.686385,86.7560101 C213.228023,87.2558245 213.405554,88.0372084 213.138692,88.7213435 C212.868438,89.4088709 212.208069,89.85893 211.471938,89.85893 Z" id="Fill-16" fill="#303E51" mask="url(#mask-4)"></path>
                <path d="M164.548408,51.5983679 L185.726585,71.2087308 L206.904762,51.5983679 L164.548408,51.5983679 Z M185.726585,75.4367983 C185.290108,75.4367983 184.853631,75.2773553 184.511008,74.9607308 L158.766785,51.1223004 C158.225146,50.6213553 158.047615,49.8411021 158.315608,49.1558363 C158.585862,48.4694397 159.246231,48.0193806 159.982362,48.0193806 L211.471938,48.0193806 C212.208069,48.0193806 212.868438,48.4694397 213.138692,49.1558363 C213.405554,49.8411021 213.228023,50.6213553 212.686385,51.1223004 L186.942162,74.9607308 C186.599538,75.2773553 186.161931,75.4367983 185.726585,75.4367983 Z" id="Fill-17" fill="#303E51" mask="url(#mask-4)"></path>
                <path d="M165.729948,63.5181485 L147.316502,63.5181485 C146.32821,63.5181485 145.526495,62.7164101 145.526495,61.7280895 C145.526495,60.7397688 146.32821,59.9391612 147.316502,59.9391612 L165.729948,59.9391612 C166.718241,59.9391612 167.518825,60.7397688 167.518825,61.7280895 C167.518825,62.7164101 166.718241,63.5181485 165.729948,63.5181485" id="Fill-18" fill="#303E51" mask="url(#mask-4)"></path>
                <path d="M165.729948,70.7281401 L150.559548,70.7281401 C149.571256,70.7281401 148.769541,69.9275325 148.769541,68.9392118 C148.769541,67.9508911 149.571256,67.1491527 150.559548,67.1491527 L165.729948,67.1491527 C166.718241,67.1491527 167.518825,67.9508911 167.518825,68.9392118 C167.518825,69.9275325 166.718241,70.7281401 165.729948,70.7281401" id="Fill-19" fill="#303E51" mask="url(#mask-4)"></path>
                <path d="M165.729948,77.9391494 L147.316502,77.9391494 C146.32821,77.9391494 145.526495,77.137411 145.526495,76.1490903 C145.526495,75.1619004 146.32821,74.360162 147.316502,74.360162 L165.729948,74.360162 C166.718241,74.360162 167.518825,75.1619004 167.518825,76.1490903 C167.518825,77.137411 166.718241,77.9391494 165.729948,77.9391494" id="Fill-20" fill="#303E51" mask="url(#mask-4)"></path>
                <polygon id="Fill-21" fill="#EF3F3F" mask="url(#mask-4)" points="79.6728692 78.5206076 133.5789 78.5206076 133.5789 73.9974008 79.6728692 73.9974008"></polygon>
                <path d="M100.051479,88.7558329 C99.4725254,88.7558329 98.8947023,88.5353266 98.4525715,88.0931831 C97.5694408,87.210027 97.5694408,85.7784321 98.4525715,84.8952759 L107.088256,76.2593435 L98.4525715,67.6245418 C97.5694408,66.7402549 97.5694408,65.3097907 98.4525715,64.4255038 C99.3357023,63.5423477 100.767256,63.5423477 101.650387,64.4255038 L113.483887,76.2593435 L101.650387,88.0931831 C101.208256,88.5353266 100.630433,88.7558329 100.051479,88.7558329" id="Fill-22" fill="#EF3F3F" mask="url(#mask-4)"></path>
                <path d="M96.6327115,8.98342785 L96.6440192,8.98342785 L96.6327115,8.98342785 Z M92.2803808,5.07763882 C91.9354962,5.07763882 91.5906115,5.15453333 91.2694731,5.30832236 C90.7006962,5.57745316 90.2710038,6.05352068 90.0606808,6.64719156 C89.8492269,7.24086245 89.8820192,7.8808962 90.1522731,8.44968945 C90.4225269,9.0184827 90.8985808,9.44818734 91.4922346,9.65964726 C92.7179885,10.0938751 94.0681269,9.45157975 94.5046038,8.22805232 C94.93995,7.00226329 94.2976731,5.65095527 93.07305,5.21559662 C92.8141038,5.12287089 92.5472423,5.07763882 92.2803808,5.07763882 Z M92.2747269,14.3128962 C91.5125885,14.3128962 90.7380115,14.1862464 89.9792654,13.9159848 C88.2491885,13.3008287 86.8606038,12.0490312 86.0724577,10.3901451 C85.2843115,8.73125907 85.1881962,6.86543629 85.8044654,5.1341789 C86.4184731,3.40405232 87.6702346,2.01655865 89.3302038,1.22838987 C90.9890423,0.437959494 92.8548115,0.345233755 94.5848885,0.95812827 C98.1569885,2.22914937 100.029542,6.16773165 98.7608192,9.73993418 L98.7608192,9.74106498 C97.7600885,12.5544996 95.1027808,14.3128962 92.2747269,14.3128962 Z" id="Fill-23" fill="#303E51" mask="url(#mask-4)"></path>
                <path d="M123.30507,107.443801 C122.004685,107.443801 120.946285,108.502231 120.946285,109.802653 C120.946285,111.103075 122.004685,112.161505 123.30507,112.161505 C124.605455,112.161505 125.663855,111.103075 125.663855,109.802653 C125.663855,108.502231 124.605455,107.443801 123.30507,107.443801 M123.30507,116.677927 C119.513601,116.677927 116.429993,113.5931 116.429993,109.802653 C116.429993,106.011075 119.513601,102.927379 123.30507,102.927379 C127.096539,102.927379 130.180147,106.011075 130.180147,109.802653 C130.180147,113.5931 127.096539,116.677927 123.30507,116.677927" id="Fill-24" fill="#303E51" mask="url(#mask-4)"></path>
                <path d="M174.282522,158.279104 L178.433575,159.558041 L177.464506,155.324319 L174.282522,158.279104 Z M181.507006,165.127239 C181.284245,165.127239 181.060352,165.094446 180.842114,165.027728 L169.214414,161.445349 C168.442098,161.20788 167.85636,160.575762 167.676568,159.789855 C167.496775,159.002817 167.751198,158.179593 168.34146,157.631154 L177.258706,149.351424 C177.850098,148.801855 178.69026,148.610749 179.460314,148.848218 C180.232629,149.085686 180.817237,149.717804 180.997029,150.503711 L183.708614,162.36469 C183.888406,163.152859 183.635114,163.974952 183.043722,164.523391 C182.619683,164.91691 182.068998,165.127239 181.507006,165.127239 Z" id="Fill-25" fill="#303E51" mask="url(#mask-4)"></path>
                <path d="M117.744884,40.5994301 L121.226522,43.1946199 L121.733107,38.8806115 L117.744884,40.5994301 Z M123.014268,49.6017423 C122.535953,49.6017423 122.06103,49.4490841 121.665261,49.1539448 L111.908984,41.8851516 C111.262184,41.4034301 110.920691,40.6129997 111.015676,39.8112613 C111.10953,39.0095229 111.62403,38.3174723 112.364684,37.999717 L123.538945,33.1847634 C124.276207,32.8647465 125.134461,32.9653879 125.781261,33.4482402 C126.429191,33.9299617 126.769553,34.7203921 126.674568,35.5221305 L125.257714,47.6070081 C125.163861,48.4076157 124.64823,49.0985356 123.907576,49.4185524 C123.620361,49.5418098 123.317314,49.6017423 123.014268,49.6017423 Z" id="Fill-26" fill="#303E51" mask="url(#mask-4)"></path>
                <path d="M156.604302,30.1241046 C155.683855,30.1241046 154.818817,29.5564422 154.482978,28.6404928 L150.024355,16.4572354 C149.595794,15.2857249 150.197363,13.9875646 151.36884,13.5601215 C152.539186,13.1349401 153.836178,13.7331342 154.267002,14.9046447 L158.725625,27.0879021 C159.154186,28.2605435 158.552617,29.557573 157.38114,29.9861468 C157.124455,30.0800034 156.863248,30.1241046 156.604302,30.1241046" id="Fill-27" fill="#303E51" mask="url(#mask-4)"></path>
                <path d="M148.283649,26.2624169 C147.363203,26.2624169 146.498165,25.6947544 146.162326,24.7788051 C145.733765,23.6072945 146.335334,22.310265 147.506811,21.8816911 L159.690849,17.4218093 C160.860065,16.9977586 162.159318,17.5948219 162.58788,18.7663325 C163.016442,19.937843 162.414872,21.2360034 161.243395,21.6645772 L149.060488,26.1244591 C148.803803,26.2171848 148.542595,26.2624169 148.283649,26.2624169" id="Fill-28" fill="#303E51" mask="url(#mask-4)"></path>
                <path d="M105.729637,151.450079 C105.080575,151.450079 104.436037,151.171902 103.990514,150.633641 L95.70876,140.647531 C94.9115677,139.68748 95.0449985,138.263801 96.0038908,137.467716 C96.9650446,136.66937 98.3886831,136.803936 99.1847446,137.762856 L107.466498,147.750096 C108.263691,148.710147 108.13026,150.133826 107.170237,150.929911 C106.74846,151.280459 106.237352,151.450079 105.729637,151.450079" id="Fill-29" fill="#303E51" mask="url(#mask-4)"></path>
                <path d="M96.59517,150.598699 C95.9461085,150.598699 95.30157,150.320522 94.8560469,149.78226 C94.0588546,148.822209 94.1922854,147.39853 95.1523085,146.602446 L105.139262,138.319323 C106.099285,137.520977 107.524055,137.656673 108.318985,138.614462 C109.116178,139.575644 108.982747,140.999323 108.022724,141.795408 L98.03577,150.07853 C97.6139931,150.429078 97.1028854,150.598699 96.59517,150.598699" id="Fill-30" fill="#303E51" mask="url(#mask-4)"></path>
                <path d="M167.504465,235.858319 C169.036657,235.858319 170.387926,236.753914 171.001934,238.105222 L145.660265,238.105222 C146.275403,236.753914 147.625542,235.858319 149.156603,235.858319 L152.063811,235.858319 L164.599518,235.858319 L167.504465,235.858319 Z M159.269072,227.554842 C159.269072,228.071619 158.848426,228.492277 158.330534,228.492277 C157.814903,228.492277 157.394257,228.071619 157.394257,227.554842 L157.394257,226.771197 L159.269072,226.771197 L159.269072,227.554842 Z M163.002872,232.666066 L153.660457,232.666066 L153.660457,226.771197 L154.199834,226.771197 L154.199834,227.554842 C154.199834,229.833408 156.053165,231.686792 158.330534,231.686792 C160.609034,231.686792 162.462365,229.833408 162.462365,227.554842 L162.462365,226.771197 L163.002872,226.771197 L163.002872,232.666066 Z M164.599518,223.577813 L160.865718,223.577813 L155.79648,223.577813 L152.063811,223.577813 L129.700588,223.577813 C129.226795,223.577813 128.842334,223.191078 128.842334,222.717273 L128.842334,180.506707 C128.842334,180.032901 129.226795,179.647298 129.700588,179.647298 L186.96048,179.647298 C187.434272,179.647298 187.819865,180.032901 187.819865,180.506707 L187.819865,222.717273 C187.819865,223.191078 187.434272,223.577813 186.96048,223.577813 L164.599518,223.577813 Z M186.96048,176.453914 L129.700588,176.453914 C127.467318,176.453914 125.647911,178.271112 125.647911,180.506707 L125.647911,222.717273 C125.647911,224.951737 127.467318,226.771197 129.700588,226.771197 L150.467165,226.771197 L150.467165,232.666066 L149.156603,232.666066 C145.278065,232.666066 142.120957,235.822133 142.120957,239.700783 C142.120957,240.581678 142.837865,241.298606 143.717603,241.298606 L172.944595,241.298606 C173.824334,241.298606 174.541242,240.581678 174.541242,239.700783 C174.541242,235.822133 171.385265,232.666066 167.504465,232.666066 L166.196165,232.666066 L166.196165,226.771197 L186.96048,226.771197 C189.19488,226.771197 191.012026,224.951737 191.012026,222.717273 L191.012026,180.506707 C191.012026,178.271112 189.19488,176.453914 186.96048,176.453914 Z" id="Fill-31" fill="#303E51" mask="url(#mask-4)"></path>
            </g>
            <text id="USER" font-family="MyriadPro-Semibold, Myriad Pro" font-size="8.4571" font-weight="500" fill="#F53B3B">
                <tspan x="28.2150669" y="123.341689">USER</tspan>
            </text>
            <g id="Group-34" transform="translate(117.600000, 255.002565)" fill="#F53B3B" font-family="MyriadPro-Semibold, Myriad Pro" font-size="8.4571" font-weight="500">
                <text id="ADMIN">
                    <tspan x="0.322495385" y="6.48464222">ADMIN</tspan>
                </text>
                <text id="PROVIDER">
                    <tspan x="70.0560989" y="6.48464222">PR</tspan>
                    <tspan x="79.5957077" y="6.48464222" letter-spacing="-0.02452559">O</tspan>
                    <tspan x="85.4996092" y="6.48464222">VIDER</tspan>
                </text>
            </g>
            <text id="SEND-TOKEN" font-family="MyriadPro-Semibold, Myriad Pro" font-size="8.4571" font-weight="500" fill="#EF3F3F">
                <tspan x="162.400059" y="123.341689">SEND </tspan>
                <tspan x="184.050235" y="123.341689" letter-spacing="-0.2367988">T</tspan>
                <tspan x="188.016615" y="123.341689">OKEN</tspan>
            </text>
            <g id="Group-83" transform="translate(0.000000, 28.842228)">
                <path d="M220.615338,193.592344 C215.024815,193.592344 212.142485,195.747652 212.142485,196.669256 C212.142485,197.712986 215.359523,199.629695 220.615338,199.629695 C226.204731,199.629695 229.088192,197.474386 229.088192,196.552783 C229.088192,195.509053 225.871154,193.592344 220.615338,193.592344 M220.615338,201.746555 C214.677669,201.746555 210.025685,199.515484 210.025685,196.669256 C210.025685,193.803804 214.776046,191.475484 220.615338,191.475484 C226.553008,191.475484 231.203862,193.706555 231.203862,196.552783 C231.203862,199.417104 226.454631,201.746555 220.615338,201.746555" id="Fill-35" fill="#303E51"></path>
                <path d="M212.142258,210.630586 L212.142258,211.038805 C212.142258,212.083666 215.359297,214.000375 220.615112,214.000375 C226.205635,214.000375 229.087966,211.845067 229.087966,210.924594 L229.087966,210.630586 C226.953074,211.833759 223.876251,212.557472 220.615112,212.557472 C217.353974,212.557472 214.278282,211.833759 212.142258,210.630586 M220.615112,216.117235 C214.677443,216.117235 210.025458,213.887295 210.025458,211.038805 L210.025458,208.513725 C210.025458,208.078366 210.291189,207.68824 210.696005,207.528797 C211.099689,207.369354 211.561043,207.474518 211.857305,207.791143 C213.088712,209.109657 216.272958,210.440611 220.615112,210.440611 C224.957266,210.440611 228.141512,209.109657 229.37292,207.791143 C229.669182,207.474518 230.129405,207.369354 230.535351,207.528797 C230.939035,207.68824 231.203635,208.078366 231.203635,208.513725 L231.203635,210.924594 C231.203635,213.787784 226.454405,216.117235 220.615112,216.117235" id="Fill-37" fill="#303E51"></path>
                <path d="M212.142258,203.485728 L212.142258,203.91091 C212.142258,204.831382 215.024589,206.987821 220.615112,206.987821 C226.205635,206.987821 229.087966,204.831382 229.087966,203.91091 L229.087966,203.461981 C226.958728,204.642538 223.956535,205.314235 220.615112,205.314235 C217.273689,205.314235 214.239835,204.640277 212.142258,203.485728 M220.615112,209.104682 C214.77582,209.104682 210.025458,206.77523 210.025458,203.91091 L210.025458,201.384699 C210.025458,200.950471 210.291189,200.559214 210.696005,200.39977 C211.098558,200.240327 211.561043,200.345492 211.857305,200.662116 C213.271897,202.179652 216.791982,203.197374 220.615112,203.197374 C224.452943,203.197374 227.818112,202.215838 229.398928,200.636108 C229.700843,200.333053 230.157674,200.242589 230.551182,200.406555 C230.946951,200.570522 231.203635,200.957256 231.203635,201.384699 L231.203635,203.91091 C231.203635,206.77523 226.454405,209.104682 220.615112,209.104682" id="Fill-39" fill="#303E51"></path>
                <path d="M199.963308,205.017399 C199.125408,205.017399 198.443555,205.700403 198.443555,206.539458 C198.443555,207.378513 199.125408,208.059256 199.963308,208.059256 C200.802339,208.059256 201.486455,207.378513 201.486455,206.539458 C201.486455,205.700403 200.802339,205.017399 199.963308,205.017399 Z M199.963308,209.91377 C198.102062,209.91377 196.590224,208.399627 196.590224,206.539458 C196.590224,204.677028 198.102062,203.162884 199.963308,203.162884 C201.824555,203.162884 203.339785,204.677028 203.339785,206.539458 C203.339785,208.399627 201.824555,209.91377 199.963308,209.91377 Z M195.330547,202.894884 L195.330547,208.905095 C195.330547,209.823306 195.918547,210.46334 196.758708,210.46334 L205.726839,210.46334 L205.726839,202.894884 L195.52617,202.894884 C195.459455,202.898277 195.392739,202.894884 195.330547,202.894884 Z M207.579039,212.317855 L196.758708,212.317855 C194.888416,212.317855 193.477216,210.850074 193.477216,208.905095 L193.477216,202.49345 C193.477216,202.200572 193.477216,201.511914 194.152285,201.195289 C194.476816,201.0415 194.817178,201.04037 195.487724,201.04037 L195.503555,201.04037 L207.579039,201.04037 L207.579039,212.317855 Z" id="Fill-41" fill="#303E51"></path>
                <path d="M199.963308,179.862603 C199.125408,179.862603 198.443555,180.544476 198.443555,181.3824 C198.443555,182.222586 199.125408,182.90559 199.963308,182.90559 C200.802339,182.90559 201.486455,182.222586 201.486455,181.3824 C201.486455,180.544476 200.802339,179.862603 199.963308,179.862603 Z M199.963308,184.760105 C198.102062,184.760105 196.590224,183.24483 196.590224,181.3824 C196.590224,179.522231 198.102062,178.008088 199.963308,178.008088 C201.824555,178.008088 203.339785,179.522231 203.339785,181.3824 C203.339785,183.24483 201.824555,184.760105 199.963308,184.760105 Z M196.758708,176.64321 C195.918547,176.64321 195.330547,177.274197 195.330547,178.178839 L195.330547,184.590484 C195.330547,185.017927 195.487724,185.154754 195.979608,185.154754 L225.464416,185.154754 C225.487032,185.062029 225.513039,184.891278 225.513039,184.590484 L225.513039,178.178839 C225.513039,177.478873 225.318547,176.64321 224.392447,176.64321 L196.758708,176.64321 Z M225.596716,187.008138 L195.979608,187.008138 C194.131932,187.008138 193.477216,185.706586 193.477216,184.590484 L193.477216,178.178839 C193.477216,176.246299 194.888416,174.789826 196.758708,174.789826 L224.392447,174.789826 C226.171147,174.789826 227.36637,176.151311 227.36637,178.178839 L227.36637,184.590484 C227.36637,186.772932 226.129308,187.008138 225.596716,187.008138 Z" id="Fill-43" fill="#303E51"></path>
                <path d="M199.963308,192.650386 C199.125408,192.650386 198.443555,193.333391 198.443555,194.173576 C198.443555,195.0115 199.125408,195.692243 199.963308,195.692243 C200.802339,195.692243 201.486455,195.0115 201.486455,194.173576 C201.486455,193.333391 200.802339,192.650386 199.963308,192.650386 Z M199.963308,197.546758 C198.102062,197.546758 196.590224,196.032614 196.590224,194.173576 C196.590224,192.311146 198.102062,190.795872 199.963308,190.795872 C201.824555,190.795872 203.339785,192.311146 203.339785,194.173576 C203.339785,196.032614 201.824555,197.546758 199.963308,197.546758 Z M195.327155,197.961762 C195.355424,197.966285 195.392739,197.968547 195.441362,197.968547 L205.726839,197.968547 L205.726839,194.440446 C205.726839,192.81096 206.911885,191.44269 208.519839,190.400091 L195.327155,190.400091 L195.310193,190.400091 C195.310193,190.489424 195.315847,190.599112 195.32037,190.676007 C195.324893,190.780041 195.330547,190.87842 195.330547,190.965492 L195.324893,197.595382 C195.322632,197.694893 195.316978,197.857728 195.327155,197.961762 Z M207.579039,199.823062 L195.441362,199.823062 C194.818308,199.823062 194.326424,199.638741 193.974755,199.274623 C193.433116,198.714876 193.456862,197.975332 193.472693,197.533188 L193.477216,197.378268 L193.477216,190.965492 C193.477216,190.908952 193.472693,190.844496 193.46817,190.77891 C193.444424,190.348074 193.404847,189.624361 193.921608,189.079315 C194.256316,188.725374 194.728978,188.545576 195.327155,188.545576 L219.770993,188.545576 L213.192178,190.366167 C209.992101,191.251585 207.579039,193.003197 207.579039,194.440446 L207.579039,199.823062 Z" id="Fill-45" fill="#303E51"></path>
                <path d="M160.548764,173.507384 C160.548764,174.945764 159.382941,176.113882 157.942341,176.113882 C156.502872,176.113882 155.337048,174.945764 155.337048,173.507384 C155.337048,172.069004 156.502872,170.900886 157.942341,170.900886 C159.382941,170.900886 160.548764,172.069004 160.548764,173.507384" id="Fill-47" fill="#303E51"></path>
                <path d="M30.5025,36.9730312 C32.193,38.5278835 34.1334,39.5659595 36.2829923,39.5659595 C38.4337154,39.5659595 40.3729846,38.5278835 42.0634846,36.9730312 L43.9507385,37.5983646 C43.1558077,41.4928456 40.0326231,44.4080523 36.2829923,44.4080523 C32.5333615,44.4080523 29.4079154,41.4928456 28.6152462,37.5983646 L30.5025,36.9730312 Z M27.1294154,27.9978582 C26.9665846,27.5851156 26.5595077,27.3193772 26.1546923,27.3193772 C25.3043538,27.3193772 24.0740769,26.2813013 23.4702462,24.3566768 C23.1457154,23.3242549 23.0801308,22.2330312 23.2870615,21.3623139 C23.3877,20.9427865 23.6443846,20.204373 24.2357769,19.9759511 C24.2911846,19.953335 24.3884308,19.9408962 24.4845462,19.930719 C24.7061769,19.9058414 24.8995385,19.7961536 25.0578462,19.6389722 C26.1105923,20.3785165 26.8252385,21.5319342 27.0253846,21.8779595 C27.1723846,24.2571662 28.9443,26.1467359 31.1244231,26.1467359 C33.4006615,26.1467359 35.2517308,24.0909384 35.2517308,21.5658582 C35.2517308,21.3860608 35.2347692,21.1666852 35.1997154,20.9676641 C35.8974,20.6578245 36.6844154,20.6634785 37.3809692,20.9767105 C37.3402615,21.1587696 37.3131231,21.4086768 37.3131231,21.5658582 C37.3131231,24.0909384 39.1653231,26.1467359 41.4426923,26.1467359 C43.6228154,26.1467359 45.3936,24.2571662 45.5417308,21.8779595 C45.7407462,21.5319342 46.4542615,20.3785165 47.5092692,19.640103 C47.6653154,19.7961536 47.8586769,19.9069722 48.0803077,19.930719 C48.1413692,19.9375038 48.2680154,19.9510734 48.3324692,19.9759511 C48.9216,20.204373 49.1782846,20.9427865 49.2777923,21.3623139 C49.4858538,22.2330312 49.4191385,23.3242549 49.0946077,24.3566768 C48.4896462,26.2813013 47.2605,27.3193772 46.3886769,27.3193772 L46.3875462,27.3193772 C45.9488077,27.3442549 45.6016615,27.5783308 45.4377,27.9978582 C43.6691769,32.4995797 40.3345385,37.3100101 36.2829923,37.3100101 C32.2303154,37.3100101 28.8968077,32.4995797 27.1294154,27.9978582 Z M33.1982538,21.6076979 C33.3316846,21.7547021 33.5058231,21.8135038 33.6799615,21.829335 C33.5521846,23.2925924 32.4756923,24.4561873 31.1244231,24.4561873 C29.6883462,24.4561873 28.5202615,23.1591578 28.5202615,21.5658582 C28.5202615,19.9714278 29.6883462,18.6743983 31.1244231,18.6743983 C32.1195,18.6743983 32.9596615,19.3212169 33.3984,20.2349046 C33.3328154,20.2970987 33.2593154,20.3445924 33.1982538,20.4113097 C32.9008615,20.7415038 32.9008615,21.2775038 33.1982538,21.6076979 Z M39.3666,20.4113097 C39.3066692,20.3445924 39.2331692,20.2970987 39.1687154,20.2349046 C39.6063231,19.3212169 40.4453538,18.6743983 41.4426923,18.6743983 C42.8776385,18.6743983 44.0457231,19.9714278 44.0457231,21.5658582 C44.0457231,23.1591578 42.8776385,24.4561873 41.4426923,24.4561873 C40.0902923,24.4561873 39.0115385,23.2925924 38.8848923,21.829335 C39.0590308,21.8135038 39.2343,21.7558329 39.3666,21.6076979 C39.6651231,21.2775038 39.6651231,20.7415038 39.3666,20.4113097 Z M31.5439385,7.84018734 C31.1176385,13.8831916 40.1423077,13.0328287 40.1423077,13.0328287 C42.9160846,12.7489975 44.8135154,13.2205418 46.1184231,13.9295544 C46.6148308,15.1802211 46.9110923,16.5541451 47.0547,17.9913941 C46.2823846,18.4550228 45.6548077,19.0724405 45.1798846,19.651411 C44.5251692,18.0818582 43.1015308,16.982719 41.4426923,16.982719 C39.8924077,16.982719 38.5547077,17.9484236 37.8491077,19.3551409 C36.8461154,18.9480523 35.7187385,18.9469215 34.7180077,19.3551409 C34.0124077,17.9484236 32.6735769,16.982719 31.1244231,16.982719 C29.4644538,16.982719 28.0408154,18.0818582 27.3861,19.651411 C26.9100462,19.0701789 26.2824692,18.4550228 25.5101538,17.9913941 C25.9602,13.4806262 28.2929769,9.73314937 31.5439385,7.84018734 Z M54.0157154,38.6387021 C53.8223538,38.5335376 53.6176846,38.4442042 53.4062308,38.3729637 L44.1248769,35.3005755 L44.1248769,35.3017063 L43.7438077,35.1750565 C45.0916846,33.4833772 46.2179308,31.494297 47.0535692,29.5052169 C48.7112769,29.1456219 50.2796538,27.4335882 51.0146538,25.0984827 C51.4748769,23.6295713 51.5551615,22.0984658 51.2419385,20.7844743 C50.9660308,19.6265333 50.3791615,18.7354616 49.6091077,18.2005924 C49.6509462,17.8986684 49.5537,17.4248624 49.0686,17.3784996 C49.0278923,17.0392591 48.9871846,16.7022802 48.9283846,16.3709553 L49.2201231,13.9804405 C50.0229692,7.36072743 45.8741769,1.25439831 39.9138923,0.294347679 C37.5664154,-0.0833400844 35.2019769,0.836001688 33.5815846,2.75497215 L33.4741615,2.88162194 C31.2465462,1.75195105 28.6469077,2.01882025 26.6454462,3.58611139 C24.3974769,5.34450802 23.1185769,8.25858397 23.2554,11.3083561 L23.4951231,17.3739764 C23.2101692,17.3739764 22.8833769,17.7211325 22.9557462,18.2005924 C22.1868231,18.7354616 21.5988231,19.6276641 21.3229154,20.7844743 C21.0085615,22.0984658 21.0911077,23.6318329 21.5524615,25.0984827 C22.2784154,27.412103 23.8253077,29.1139595 25.5078923,29.4950397 C26.3435308,31.4863814 27.4720385,33.4811156 28.8221769,35.1761873 L28.4411077,35.3005755 L27.3940154,35.6488624 L19.1642769,38.3718329 C14.8990154,39.3284911 4.9245,44.6466515 6.77783077,73.6415376 L20.0926385,73.6415376 L27.1260231,73.6415376 L45.0973385,73.6415376 L59.6571231,73.6415376 L65.4432692,73.6415376 C67.1688231,46.6515629 58.6439538,40.1754616 54.0157154,38.6387021 Z" id="Fill-49" fill="#303E51"></path>
                <path d="M71.7546577,77.5526414 L1.13925,77.5526414 C0.509411538,77.5526414 0.000565384615,76.6694852 0.000565384615,75.581654 C0.000565384615,74.492692 0.509411538,73.6095359 1.13925,73.6095359 L71.7546577,73.6095359 C72.3856269,73.6095359 72.8944731,74.492692 72.8944731,75.581654 C72.8944731,76.6694852 72.3856269,77.5526414 71.7546577,77.5526414" id="Fill-51" fill="#303E51"></path>
                <path d="M55.3474223,73.1554059 L17.5458069,73.1554059 C15.1870223,73.1554059 13.25793,71.2262582 13.25793,68.8674059 L13.25793,45.4134481 C13.25793,43.0545958 15.1870223,41.1254481 17.5458069,41.1254481 L55.3474223,41.1254481 C57.7062069,41.1254481 59.63643,43.0545958 59.63643,45.4134481 L59.63643,68.8674059 C59.63643,71.2262582 57.7062069,73.1554059 55.3474223,73.1554059" id="Fill-53" fill="#FFFFFF"></path>
                <path d="M55.3474223,73.1554059 L17.5458069,73.1554059 C15.1870223,73.1554059 13.25793,71.2262582 13.25793,68.8674059 L13.25793,45.4134481 C13.25793,43.0545958 15.1870223,41.1254481 17.5458069,41.1254481 L55.3474223,41.1254481 C57.7062069,41.1254481 59.63643,43.0545958 59.63643,45.4134481 L59.63643,68.8674059 C59.63643,71.2262582 57.7062069,73.1554059 55.3474223,73.1554059 Z" id="Stroke-55" stroke="#303E51" stroke-width="3"></path>
                <path d="M39.1467785,58.6227949 C39.1467785,60.2319257 37.9379862,61.5357401 36.4465015,61.5357401 C34.9561477,61.5357401 33.7484862,60.2319257 33.7484862,58.6227949 C33.7484862,57.0136641 34.9561477,55.7098498 36.4465015,55.7098498 C37.9379862,55.7098498 39.1467785,57.0136641 39.1467785,58.6227949" id="Fill-57" fill="#303E51"></path>
                <path d="M206.030225,217.018937 L94.2955246,217.018937 C93.3015785,217.018937 92.49534,215.940152 92.49534,214.610329 C92.49534,213.279376 93.3015785,212.19946 94.2955246,212.19946 L206.030225,212.19946 C207.026432,212.19946 207.833802,213.279376 207.833802,214.610329 C207.833802,215.940152 207.026432,217.018937 206.030225,217.018937" id="Fill-59" fill="#303E51"></path>
                <path d="M224.538768,71.8942228 L182.113438,71.8942228 C177.449015,71.8942228 173.633799,68.0777671 173.633799,63.4132101 C173.633799,58.7486532 177.449015,54.9321975 182.113438,54.9321975 L224.538768,54.9321975 C229.203192,54.9321975 233.019538,58.7486532 233.019538,63.4132101 C233.019538,68.0777671 229.203192,71.8942228 224.538768,71.8942228" id="Fill-61" fill="#FFFFFF"></path>
                <path d="M181.135548,56.7697502 C177.309025,56.7697502 174.194887,59.8828473 174.194887,63.710611 C174.194887,67.5361131 177.309025,70.6492101 181.135548,70.6492101 L224.646418,70.6492101 C228.472941,70.6492101 231.585948,67.5361131 231.585948,63.710611 C231.585948,59.8828473 228.472941,56.7697502 224.646418,56.7697502 L181.135548,56.7697502 Z M224.646418,73.4287207 L181.135548,73.4287207 C175.776833,73.4287207 171.416587,69.0694802 171.416587,63.710611 C171.416587,58.350611 175.776833,53.9902397 181.135548,53.9902397 L224.646418,53.9902397 C230.006264,53.9902397 234.364248,58.350611 234.364248,63.710611 C234.364248,69.0694802 230.006264,73.4287207 224.646418,73.4287207 Z" id="Fill-63" fill="#303E51"></path>
                <path d="M186.140107,61.6319713 C186.140107,61.9746042 186.036076,62.2640895 185.830276,62.5038194 C185.623345,62.7412878 185.332738,62.9063848 184.959584,62.9957181 L184.959584,63.019465 C185.401715,63.0726127 185.735292,63.2083089 185.961445,63.4197688 C186.187599,63.6334903 186.301807,63.9195831 186.301807,64.2814397 C186.301807,64.8072624 186.110707,65.2166127 185.729638,65.5094903 C185.348568,65.8023679 184.803538,65.9471105 184.095676,65.9471105 C183.503153,65.9471105 182.978476,65.8487308 182.520515,65.6531021 L182.520515,64.6704354 C182.731968,64.7767308 182.964907,64.8638025 183.21933,64.9316506 C183.473753,64.9994987 183.723653,65.032292 183.973553,65.032292 C184.354622,65.032292 184.636184,64.9678363 184.818238,64.8377941 C184.999161,64.7088827 185.089622,64.5008152 185.089622,64.2135916 C185.089622,63.9580304 184.985592,63.7759713 184.776399,63.6685451 C184.567207,63.561119 184.23363,63.5079713 183.775668,63.5079713 L183.360676,63.5079713 L183.360676,62.6225536 L183.782453,62.6225536 C184.206492,62.6225536 184.515192,62.5671443 184.710815,62.4563257 C184.906438,62.3455072 185.003684,62.1555325 185.003684,61.8864017 C185.003684,61.4725283 184.745868,61.2667224 184.227976,61.2667224 C184.047053,61.2667224 183.864999,61.2961232 183.679553,61.3560557 C183.494107,61.4159882 183.288307,61.5188911 183.061022,61.6658954 L182.527299,60.869811 C183.024838,60.5113468 183.619622,60.3326802 184.310522,60.3326802 C184.874776,60.3326802 185.32143,60.4468911 185.648222,60.6753131 C185.976145,60.9048658 186.140107,61.2237519 186.140107,61.6319713" id="Fill-65" fill="#303E51"></path>
                <path d="M189.510365,63.937789 L189.069365,63.9524895 C188.738049,63.9615359 188.492672,64.0225992 188.329842,64.1322869 C188.168142,64.2419747 188.086726,64.4082025 188.086726,64.6321013 C188.086726,64.9532489 188.271042,65.1149536 188.639672,65.1149536 C188.904272,65.1149536 189.114595,65.0391899 189.274034,64.8865316 C189.432342,64.7350042 189.510365,64.5325907 189.510365,64.2815527 L189.510365,63.937789 Z M189.847334,65.8737215 L189.626834,65.3049283 L189.596303,65.3049283 C189.404072,65.5469198 189.207318,65.7142785 189.004911,65.8070042 C188.801372,65.9008608 188.536772,65.9472236 188.211111,65.9472236 C187.809688,65.9472236 187.494203,65.8341435 187.263526,65.6045907 C187.03398,65.375038 186.917511,65.0482363 186.917511,64.6241857 C186.917511,64.1820422 187.073557,63.8552405 187.383388,63.6437806 C187.693218,63.4345823 188.161357,63.3169789 188.785542,63.2954937 L189.510365,63.2728776 L189.510365,63.0896878 C189.510365,62.6656371 189.294388,62.4541772 188.861303,62.4541772 C188.527726,62.4541772 188.134218,62.5548186 187.684172,62.7572321 L187.306495,61.9871561 C187.788203,61.7361181 188.319665,61.6094684 188.905403,61.6094684 C189.466265,61.6094684 189.895957,61.7327257 190.193349,61.9769789 C190.493003,62.2201013 190.642265,62.592135 190.642265,63.0896878 L190.642265,65.8737215 L189.847334,65.8737215 Z" id="Fill-67" fill="#303E51"></path>
                <path d="M193.460255,65.0255072 C193.706762,65.0255072 193.896732,64.9418278 194.027901,64.7767308 C194.160201,64.6116338 194.226916,64.3752962 194.226916,64.0677181 C194.226916,63.8019797 194.164724,63.5916506 194.04147,63.4389924 C193.918216,63.2852034 193.731639,63.2094397 193.48287,63.2094397 C193.248801,63.2094397 193.048655,63.2852034 192.882432,63.4378616 C192.717339,63.5882582 192.634793,63.7657941 192.634793,63.9670768 C192.634793,64.2644776 192.712816,64.5143848 192.867732,64.7190599 C193.022647,64.9226042 193.220532,65.0255072 193.460255,65.0255072 M191.487062,63.5520726 C191.487062,62.4710262 191.715478,61.6670262 192.172308,61.1389418 C192.63027,60.6108574 193.314385,60.3462498 194.226916,60.3462498 C194.537878,60.3462498 194.780993,60.3654734 194.958524,60.4027899 L194.958524,61.3266549 C194.736893,61.2768996 194.517524,61.2508911 194.300416,61.2508911 C193.904647,61.2508911 193.581247,61.3108236 193.331347,61.4306886 C193.081447,61.5505536 192.893739,61.7269586 192.769355,61.9610346 C192.643839,62.1951105 192.57147,62.5275662 192.547724,62.9584017 L192.597478,62.9584017 C192.842855,62.5354819 193.238624,62.3228911 193.781393,62.3228911 C194.269885,62.3228911 194.652085,62.4766802 194.929124,62.7831274 C195.205032,63.0895747 195.342985,63.5124945 195.342985,64.0541485 C195.342985,64.6365114 195.179024,65.0978785 194.84997,65.437119 C194.520916,65.7774903 194.065216,65.9471105 193.48287,65.9471105 C193.079185,65.9471105 192.727516,65.8543848 192.426732,65.6666717 C192.125947,65.4800895 191.89527,65.2075662 191.732439,64.8491021 C191.568478,64.490638 191.487062,64.0586717 191.487062,63.5520726" id="Fill-69" fill="#303E51"></path>
                <polygon id="Fill-71" fill="#303E51" points="196.434065 65.8736084 198.48528 61.3888489 195.791788 61.3888489 195.791788 60.4186211 199.711034 60.4186211 199.711034 61.1423342 197.643988 65.8736084"></polygon>
                <path d="M202.080222,61.2741857 C201.841629,61.2741857 201.653922,61.3556034 201.51936,61.5207004 C201.384798,61.6846667 201.318083,61.9210042 201.318083,62.2308439 C201.318083,62.4943207 201.379145,62.703519 201.501268,62.857308 C201.623391,63.0122278 201.808837,63.0891224 202.056475,63.0891224 C202.291675,63.0891224 202.491822,63.0133586 202.659175,62.8595696 C202.826529,62.7069114 202.909075,62.5305063 202.909075,62.3314852 C202.909075,62.0352152 202.832183,61.7841772 202.676137,61.5806329 C202.521222,61.3759578 202.322206,61.2741857 202.080222,61.2741857 M204.056806,62.7419662 C204.056806,63.8184895 203.829522,64.6213586 203.376083,65.1528354 C202.923775,65.6820506 202.237398,65.947789 201.318083,65.947789 C200.994683,65.947789 200.749306,65.930827 200.581952,65.8957722 L200.581952,64.9696456 C200.791145,65.0205316 201.010514,65.0476709 201.24006,65.0476709 C201.625652,65.0476709 201.943398,64.99 202.192168,64.8780506 C202.440937,64.7638397 202.632037,64.5863038 202.763206,64.3431814 C202.895506,64.1000591 202.971268,63.7653418 202.992752,63.3401603 L202.947522,63.3401603 C202.802783,63.5742363 202.635429,63.7382025 202.44546,63.8331899 C202.256622,63.9281772 202.020291,63.9756709 201.736468,63.9756709 C201.260414,63.9756709 200.884998,63.8230127 200.611352,63.5165654 C200.337706,63.2123797 200.200883,62.7883291 200.200883,62.2444135 C200.200883,61.659789 200.367106,61.1972911 200.699552,60.8569198 C201.031998,60.5176793 201.485437,60.3469283 202.056475,60.3469283 C202.461291,60.3469283 202.814091,60.4419156 203.117137,60.6318903 C203.420183,60.8207342 203.651991,61.095519 203.813691,61.4551139 C203.976522,61.8158397 204.056806,62.2432827 204.056806,62.7419662" id="Fill-73" fill="#303E51"></path>
                <path d="M205.746402,63.063227 C205.746402,63.2893873 205.797286,63.4691848 205.901317,63.6014886 C206.004217,63.7337924 206.161394,63.7993789 206.373978,63.7993789 C206.587694,63.7993789 206.744871,63.7337924 206.844378,63.6014886 C206.943886,63.4691848 206.99364,63.2893873 206.99364,63.063227 C206.99364,62.5611511 206.786709,62.3089823 206.373978,62.3089823 C205.955594,62.3089823 205.746402,62.5611511 205.746402,63.063227 Z M205.331409,66.4635477 C205.331409,66.6207291 205.40604,66.7439865 205.557563,66.8333198 C205.707955,66.9226532 205.918278,66.9678852 206.190794,66.9678852 C206.599002,66.9678852 206.917878,66.9113451 207.150817,66.8005266 C207.381494,66.6874464 207.497963,66.5336574 207.497963,66.3391595 C207.497963,66.1831089 207.428986,66.0745519 207.292163,66.0146194 C207.15534,65.9558177 206.943886,65.9252861 206.657802,65.9252861 L206.066409,65.9252861 C205.858348,65.9252861 205.681948,65.9739105 205.541732,66.0722903 C205.401517,66.1718008 205.331409,66.3007122 205.331409,66.4635477 Z M208.555232,61.6960878 L208.555232,62.2750582 L207.901648,62.4435477 C208.021509,62.63013 208.080309,62.8393283 208.080309,63.0711426 C208.080309,63.5189401 207.925394,63.8683578 207.612171,64.1193958 C207.300078,64.369303 206.864732,64.4948219 206.309525,64.4948219 L206.104855,64.4835139 L205.936371,64.4642903 C205.818771,64.5536236 205.761102,64.6531342 205.761102,64.7639527 C205.761102,64.927919 205.970294,65.0104675 206.388678,65.0104675 L207.097671,65.0104675 C207.556763,65.0104675 207.90504,65.1088473 208.145894,65.3044759 C208.386748,65.5012354 208.506609,65.7907207 208.506609,66.1718008 C208.506609,66.6603072 208.303071,67.0391257 207.895994,67.3082565 C207.488917,67.5762565 206.903178,67.7108219 206.142171,67.7108219 C205.558694,67.7108219 205.113171,67.6101806 204.805602,67.4077671 C204.498032,67.2042228 204.345378,66.9192608 204.345378,66.552881 C204.345378,66.3007122 204.422271,66.0915139 204.580578,65.9218937 C204.736625,65.7522734 204.968432,65.6312776 205.271478,65.5589063 C205.155009,65.5091511 205.052109,65.4277333 204.96504,65.3146532 C204.877971,65.201573 204.833871,65.0805772 204.833871,64.9539274 C204.833871,64.7944844 204.879102,64.6621806 204.971825,64.5558852 C205.064548,64.4507207 205.197978,64.3466869 205.372117,64.243784 C205.153878,64.1499274 204.978609,63.9972692 204.850832,63.7892017 C204.723055,63.5788726 204.658602,63.3323578 204.658602,63.0485266 C204.658602,62.5928135 204.806732,62.2400034 205.104125,61.991227 C205.399255,61.7424506 205.822163,61.6180624 206.373978,61.6180624 C206.490448,61.6180624 206.628402,61.6271089 206.790102,61.6485941 C206.94954,61.6712101 207.05244,61.6859105 207.097671,61.6960878 L208.555232,61.6960878 Z" id="Fill-75" fill="#303E51"></path>
                <path d="M209.082397,65.3391916 C209.082397,65.1288624 209.138935,64.971681 209.249751,64.8642549 C209.362828,64.7568287 209.525658,64.703681 209.740505,64.703681 C209.947435,64.703681 210.105743,64.7579595 210.219951,64.8676473 C210.333028,64.9784658 210.389566,65.1345165 210.389566,65.3391916 C210.389566,65.5359511 210.331897,65.6908709 210.21882,65.8039511 C210.103482,65.918162 209.944043,65.9747021 209.740505,65.9747021 C209.530182,65.9747021 209.368482,65.9192928 209.253143,65.8073435 C209.140066,65.6965249 209.082397,65.5404743 209.082397,65.3391916" id="Fill-77" fill="#303E51"></path>
                <path d="M211.264442,65.3391916 C211.264442,65.1288624 211.320981,64.971681 211.431796,64.8642549 C211.544873,64.7568287 211.707704,64.703681 211.92255,64.703681 C212.129481,64.703681 212.287788,64.7579595 212.401996,64.8676473 C212.515073,64.9784658 212.571612,65.1345165 212.571612,65.3391916 C212.571612,65.5359511 212.513942,65.6908709 212.400865,65.8039511 C212.285527,65.918162 212.126088,65.9747021 211.92255,65.9747021 C211.712227,65.9747021 211.550527,65.9192928 211.435188,65.8073435 C211.322112,65.6965249 211.264442,65.5404743 211.264442,65.3391916" id="Fill-79" fill="#303E51"></path>
                <path d="M213.446375,65.3391916 C213.446375,65.1288624 213.502913,64.971681 213.613728,64.8642549 C213.726805,64.7568287 213.889636,64.703681 214.104482,64.703681 C214.311413,64.703681 214.469721,64.7579595 214.583928,64.8676473 C214.697005,64.9784658 214.753544,65.1345165 214.753544,65.3391916 C214.753544,65.5359511 214.695875,65.6908709 214.582798,65.8039511 C214.467459,65.918162 214.308021,65.9747021 214.104482,65.9747021 C213.894159,65.9747021 213.732459,65.9192928 213.617121,65.8073435 C213.504044,65.6965249 213.446375,65.5404743 213.446375,65.3391916" id="Fill-81" fill="#303E51"></path>
            </g>
        </g>
    </g>
</svg>