<?xml version="1.0" encoding="UTF-8"?>
<svg width="257px" height="264px" viewBox="0 0 257 264" version="1.1" xmlns="http://www.w3.org/2000/svg" xmlns:xlink="http://www.w3.org/1999/xlink">
    <!-- Generator: Sketch 50.2 (55047) - http://www.bohemiancoding.com/sketch -->
    <title>Page 1</title>
    <desc>Created with Sketch.</desc>
    <defs></defs>
    <g id="ZONE-" stroke="none" stroke-width="1" fill="none" fill-rule="evenodd">
        <g id="First-screen--Join-a-group" transform="translate(-1111.000000, -372.000000)">
            <g id="Page-1" transform="translate(1111.000000, 372.000000)">
                <g id="Group" transform="translate(69.000000, 160.000000)" fill="#303E51">
                    <path d="M77.5493,75.8126 C74.5823,75.8126 72.0453,77.5366 70.8493,80.0246 C70.3223,79.7856 69.7483,79.5936 69.1263,79.5936 C67.2113,79.5936 65.6803,80.9816 65.3453,82.8006 C63.0953,83.5666 61.4683,85.7196 61.4683,88.2086 C61.4683,91.3686 64.0533,93.9526 67.2113,93.9526 L84.9683,93.9526 C87.8403,93.9526 90.1853,91.6076 90.1853,88.6876 C90.1853,85.7676 87.8403,83.4226 84.9203,83.4226 L84.9203,83.1836 C84.9683,79.1156 81.6173,75.8126 77.5493,75.8126 M77.5493,76.7696 C81.0913,76.7696 84.0113,79.6896 84.0113,83.2316 L84.0113,83.2796 L84.0113,83.4226 L83.9633,84.3796 L84.9203,84.3796 C87.2653,84.3796 89.2283,86.3416 89.2283,88.6876 C89.2283,91.0326 87.3133,92.9956 84.9203,92.9956 L84.7293,92.9956 L67.2113,92.9956 C64.5793,92.9956 62.4253,90.8406 62.4253,88.2086 C62.4253,86.1506 63.7183,84.3326 65.6803,83.6626 L66.2063,83.4706 L66.3023,82.8966 C66.5413,81.5076 67.7373,80.5026 69.1263,80.5026 C69.5573,80.5026 69.9873,80.5986 70.4183,80.7906 L71.2793,81.2206 L71.7103,80.3596 C72.7633,78.2066 75.0613,76.7696 77.5493,76.7696" id="Fill-5"></path>
                    <path d="M69.1265,81.5031 C68.2175,81.5031 67.4435,82.1601 67.2875,83.0661 L67.0975,84.2111 L66.0225,84.6021 C64.4615,85.1351 63.4255,86.5821 63.4255,88.2091 C63.4255,90.2971 65.1235,91.9951 67.2115,91.9951 L84.9205,91.9951 C86.7445,91.9951 88.2285,90.5121 88.2285,88.6881 C88.2285,86.8951 86.7135,85.3801 84.9205,85.3801 L82.9125,85.3801 L83.0125,83.3731 L83.0115,83.2791 C83.0115,80.2201 80.5615,77.7701 77.5495,77.7701 C75.4475,77.7701 73.5085,78.9591 72.6085,80.7991 L71.7275,82.5631 L69.9715,81.6851 C69.7085,81.5681 69.4185,81.5031 69.1265,81.5031 M84.9685,94.9521 L67.2115,94.9521 C63.4935,94.9521 60.4685,91.9271 60.4685,88.2091 C60.4685,85.5241 62.0665,83.1171 64.4995,82.0571 C65.1235,80.0201 66.9865,78.5941 69.1265,78.5941 C69.5905,78.5941 70.0185,78.6751 70.3905,78.7831 C71.9205,76.3131 74.5875,74.8131 77.5495,74.8131 C79.8145,74.8131 81.9395,75.7001 83.5315,77.3131 C84.9335,78.7301 85.7595,80.5501 85.8995,82.4991 C88.8905,82.9711 91.1855,85.5661 91.1855,88.6881 C91.1855,92.1421 88.3965,94.9521 84.9685,94.9521" id="Fill-7"></path>
                    <path d="M25.1265,81.5031 C24.2175,81.5031 23.4435,82.1601 23.2875,83.0661 L23.0975,84.2111 L22.0225,84.6021 C20.4615,85.1351 19.4255,86.5821 19.4255,88.2091 C19.4255,90.2971 21.1235,91.9951 23.2115,91.9951 L40.9205,91.9951 C42.7445,91.9951 44.2285,90.5121 44.2285,88.6881 C44.2285,86.8951 42.7135,85.3801 40.9205,85.3801 L38.9125,85.3801 L39.0125,83.3731 L39.0115,83.2791 C39.0115,80.2201 36.5615,77.7701 33.5495,77.7701 C31.4475,77.7701 29.5085,78.9591 28.6085,80.7991 L27.7275,82.5631 L25.9715,81.6851 C25.7085,81.5681 25.4185,81.5031 25.1265,81.5031 M40.9685,94.9521 L23.2115,94.9521 C19.4935,94.9521 16.4685,91.9271 16.4685,88.2091 C16.4685,85.5241 18.0665,83.1171 20.4995,82.0571 C21.1235,80.0201 22.9865,78.5941 25.1265,78.5941 C25.5905,78.5941 26.0185,78.6751 26.3905,78.7831 C27.9205,76.3131 30.5875,74.8131 33.5495,74.8131 C35.8145,74.8131 37.9395,75.7001 39.5315,77.3131 C40.9335,78.7301 41.7595,80.5501 41.8995,82.4991 C44.8905,82.9711 47.1855,85.5661 47.1855,88.6881 C47.1855,92.1421 44.3965,94.9521 40.9685,94.9521" id="Fill-7"></path>
                    <path d="M47.0904,53.0802 C46.0964,52.1272 45.4664,50.8002 45.4214,49.3292 C45.2834,49.3192 45.1484,49.3092 45.0064,49.3092 L41.2804,49.3092 C38.1784,49.3092 35.6554,51.8312 35.6554,54.9342 L35.6554,59.4922 L35.6674,59.5642 L35.9824,59.6632 C38.3554,60.4032 40.4754,60.7462 42.3174,60.8522 L42.3174,59.4762 C42.3174,56.4552 44.3314,53.8982 47.0904,53.0802 M43.1454,49.0092 C44.0034,49.0092 44.8044,48.7572 45.4834,48.3302 C45.6974,46.9262 46.4504,45.6972 47.5254,44.8632 C47.5284,44.7802 47.5374,44.6982 47.5374,44.6142 C47.5374,42.1882 45.5704,40.2222 43.1454,40.2222 C40.7194,40.2222 38.7524,42.1882 38.7524,44.6142 C38.7524,47.0432 40.7194,49.0092 43.1454,49.0092 M67.2294,44.8872 L63.5284,44.8872 C63.4904,46.3682 62.8584,47.7012 61.8604,48.6582 C64.6154,49.4792 66.6314,52.0362 66.6314,55.0552 L66.6314,56.4592 C70.2834,56.3262 72.3904,55.2912 72.5274,55.2212 L72.8204,55.0732 L72.8534,55.0732 L72.8534,50.5122 C72.8534,47.4122 70.3294,44.8872 67.2294,44.8872 M60.9764,40.1282 C62.3604,40.9972 63.3324,42.4652 63.5084,44.1722 C64.0724,44.4362 64.6994,44.5882 65.3644,44.5882 C67.7904,44.5882 69.7574,42.6212 69.7574,40.1952 C69.7574,37.7692 67.7904,35.8032 65.3644,35.8032 C62.9614,35.8032 61.0114,37.7342 60.9764,40.1282 M59.9854,49.3092 L56.2854,49.3092 C56.2464,50.7892 55.6154,52.1222 54.6164,53.0802 C57.3724,53.9002 59.3884,56.4552 59.3884,59.4762 L59.3884,60.8812 C63.0404,60.7462 65.1474,59.7122 65.2844,59.6422 L65.5794,59.4922 L65.6104,59.4922 L65.6104,54.9322 C65.6104,51.8312 63.0884,49.3092 59.9854,49.3092 M52.7174,53.8432 L48.9884,53.8432 C45.8884,53.8432 43.3644,56.3672 43.3644,59.4682 L43.3644,64.0282 L43.3764,64.0992 L43.6914,64.1972 C46.6494,65.1212 49.2214,65.4322 51.3374,65.4322 C55.4714,65.4322 57.8684,64.2522 58.0174,64.1772 L58.3104,64.0282 L58.3404,64.0282 L58.3404,59.4682 C58.3404,56.3672 55.8184,53.8432 52.7174,53.8432 M50.8534,53.5442 C53.2794,53.5442 55.2454,51.5772 55.2454,49.1512 C55.2454,46.7252 53.2794,44.7582 50.8534,44.7582 C48.4274,44.7582 46.4584,46.7252 46.4584,49.1512 C46.4584,51.5772 48.4274,53.5442 50.8534,53.5442 M53.7334,44.5492 C55.1164,45.4182 56.0894,46.8872 56.2654,48.5932 C56.8294,48.8552 57.4564,49.0092 58.1214,49.0092 C60.5474,49.0092 62.5144,47.0402 62.5144,44.6142 C62.5144,42.1882 60.5474,40.2222 58.1214,40.2222 C55.7184,40.2222 53.7674,42.1532 53.7334,44.5492 M52.9254,44.1202 C52.9714,43.0832 53.3304,42.1212 53.9044,41.3272 C53.5004,41.2432 53.0844,41.1982 52.6554,41.1982 L48.6104,41.1982 C48.1834,41.1982 47.7674,41.2432 47.3654,41.3252 C47.9794,42.1752 48.3434,43.2122 48.3504,44.3342 C49.0944,43.9242 49.9464,43.6912 50.8534,43.6912 C51.5904,43.6912 52.2894,43.8462 52.9254,44.1202 M45.8634,36.1042 C45.8634,33.4712 47.9994,31.3362 50.6344,31.3362 C53.2674,31.3362 55.4024,33.4712 55.4024,36.1042 C55.4024,38.7372 53.2674,40.8722 50.6344,40.8722 C47.9994,40.8722 45.8634,38.7372 45.8634,36.1042" id="Fill-9"></path>
                    <path d="M4.909,99.441 L99.6,99.441 L99.6,25.336 L4.909,25.336 L4.909,99.441 Z M4.909,21.219 L99.6,21.219 L99.6,4.751 L4.909,4.751 L4.909,21.219 Z M0.792,103.559 L103.717,103.559 L103.717,0.634 L0.792,0.634 L0.792,103.559 Z" id="Fill-11"></path>
                    <polygon id="Fill-13" points="27.552 15.043 91.365 15.043 91.365 10.927 27.552 10.927"></polygon>
                    <polygon id="Fill-14" points="11.085 15.043 15.202 15.043 15.202 10.927 11.085 10.927"></polygon>
                    <polygon id="Fill-15" points="19.318 15.043 23.435 15.043 23.435 10.927 19.318 10.927"></polygon>
                    <path d="M45.8257,76.4855 C45.4417,76.4855 45.0577,76.3395 44.7647,76.0465 C44.1797,75.4605 44.1797,74.5105 44.7647,73.9245 L50.4827,68.2075 C51.0687,67.6215 52.0177,67.6215 52.6037,68.2075 C53.1897,68.7935 53.1897,69.7425 52.6037,70.3285 L46.8867,76.0465 C46.5937,76.3395 46.2097,76.4855 45.8257,76.4855" id="Fill-38"></path>
                    <path d="M61.8081,76.4855 C61.4241,76.4855 61.0401,76.3395 60.7471,76.0465 L55.0301,70.3285 C54.4441,69.7425 54.4441,68.7935 55.0301,68.2075 C55.6161,67.6215 56.5651,67.6215 57.1511,68.2075 L62.8691,73.9245 C63.4541,74.5105 63.4541,75.4605 62.8691,76.0465 C62.5761,76.3395 62.1921,76.4855 61.8081,76.4855" id="Fill-39"></path>
                </g>
                <path d="M180.3941,98.8424 C174.8931,98.8424 170.4171,103.3184 170.4171,108.8194 C170.4171,114.3204 174.8931,118.7954 180.3941,118.7954 L242.9461,118.7954 C248.4471,118.7954 252.9231,114.3204 252.9231,108.8194 C252.9231,103.3184 248.4471,98.8424 242.9461,98.8424 L180.3941,98.8424 Z M242.9461,122.7904 L180.3941,122.7904 C172.6901,122.7904 166.4231,116.5234 166.4231,108.8194 C166.4231,101.1144 172.6901,94.8474 180.3941,94.8474 L242.9461,94.8474 C250.6501,94.8474 256.9171,101.1144 256.9171,108.8194 C256.9171,116.5234 250.6501,122.7904 242.9461,122.7904 L242.9461,122.7904 Z" id="Fill-16" fill="#303E51"></path>
                <polygon id="Fill-17" fill="#EF3F3F" points="115.771 110.817 156.863 110.817 156.863 106.817 115.771 106.817"></polygon>
                <path d="M130.7915,118.9269 C130.2795,118.9269 129.7685,118.7319 129.3775,118.3409 C128.5965,117.5599 128.5965,116.2939 129.3775,115.5129 L137.0145,107.8759 L129.3775,100.2399 C128.5965,99.4589 128.5965,98.1919 129.3775,97.4109 C130.1585,96.6299 131.4245,96.6299 132.2055,97.4109 L142.6705,107.8759 L132.2055,118.3409 C131.8145,118.7319 131.3035,118.9269 130.7915,118.9269" id="Fill-18" fill="#EF3F3F"></path>
                <path d="M223.1333,190.6886 C222.6213,190.6886 222.1103,190.4936 221.7193,190.1026 L210.6773,179.0616 C209.8963,178.2806 209.8963,177.0146 210.6773,176.2336 C211.4583,175.4526 212.7243,175.4526 213.5053,176.2336 L223.1333,185.8606 L232.7603,176.2336 C233.5413,175.4526 234.8073,175.4526 235.5883,176.2336 C236.3693,177.0146 236.3693,178.2806 235.5883,179.0616 L224.5473,190.1026 C224.1563,190.4936 223.6453,190.6886 223.1333,190.6886" id="Fill-19" fill="#EF3F3F"></path>
                <path d="M168.4224,36.4542 C167.5644,36.4542 166.7584,36.9882 166.4544,37.8422 C166.0694,38.9252 166.6384,40.1202 167.7224,40.5052 C168.2464,40.6912 168.8134,40.6632 169.3164,40.4232 C169.8184,40.1842 170.1984,39.7642 170.3854,39.2392 L170.3854,39.2382 C170.5714,38.7132 170.5424,38.1472 170.3044,37.6442 C170.0654,37.1412 169.6444,36.7622 169.1184,36.5752 C168.8884,36.4932 168.6534,36.4542 168.4224,36.4542 M168.4244,44.6232 C167.7384,44.6232 167.0494,44.5062 166.3844,44.2692 C163.2254,43.1462 161.5684,39.6622 162.6914,36.5042 C163.8144,33.3432 167.3004,31.6852 170.4564,32.8112 C171.9864,33.3552 173.2144,34.4622 173.9114,35.9292 C174.6094,37.3952 174.6934,39.0462 174.1494,40.5772 C173.6064,42.1072 172.4984,43.3332 171.0314,44.0312 C170.2024,44.4252 169.3164,44.6232 168.4244,44.6232" id="Fill-20" fill="#303E51"></path>
                <path d="M135.3159,135.924 C134.1659,135.924 133.2299,136.86 133.2299,138.009 C133.2299,139.159 134.1659,140.095 135.3159,140.095 C136.4659,140.095 137.4019,139.159 137.4019,138.009 C137.4019,136.86 136.4659,135.924 135.3159,135.924 M135.3159,144.09 C131.9629,144.09 129.2359,141.362 129.2359,138.009 C129.2359,134.657 131.9629,131.929 135.3159,131.929 C138.6689,131.929 141.3959,134.657 141.3959,138.009 C141.3959,141.362 138.6689,144.09 135.3159,144.09" id="Fill-21" fill="#303E51"></path>
                <path d="M24.2554,176.965 L27.9264,178.096 L27.0694,174.352 L24.2554,176.965 Z M30.6444,183.02 C30.4474,183.02 30.2494,182.991 30.0564,182.932 L19.7734,179.765 C19.0914,179.555 18.5724,178.996 18.4134,178.301 C18.2544,177.606 18.4794,176.877 19.0014,176.392 L26.8874,169.069 C27.4094,168.584 28.1514,168.413 28.8344,168.624 C29.5174,168.834 30.0344,169.393 30.1934,170.088 L32.5914,180.577 C32.7504,181.274 32.5264,182.001 32.0034,182.486 C31.6284,182.834 31.1414,183.02 30.6444,183.02 L30.6444,183.02 Z" id="Fill-22" fill="#303E51"></path>
                <path d="M123.8677,9.7516 L126.9467,12.0456 L127.3947,8.2316 L123.8677,9.7516 Z M128.5277,17.7126 C128.1047,17.7126 127.6847,17.5776 127.3347,17.3166 L118.7067,10.8876 C118.1347,10.4616 117.8327,9.7626 117.9167,9.0536 C117.9997,8.3446 118.4547,7.7336 119.1097,7.4516 L128.9917,3.1936 C129.6437,2.9116 130.4027,3.0006 130.9747,3.4266 C131.5477,3.8536 131.8487,4.5526 131.7647,5.2616 L130.5117,15.9476 C130.4287,16.6566 129.9727,17.2676 129.3177,17.5496 C129.0637,17.6586 128.7957,17.7126 128.5277,17.7126 L128.5277,17.7126 Z" id="Fill-23" fill="#303E51"></path>
                <path d="M84.8042,14.7697 C83.9902,14.7697 83.2252,14.2677 82.9282,13.4577 L78.9852,2.6837 C78.6062,1.6467 79.1382,0.4997 80.1742,0.1207 C81.2082,-0.2553 82.3572,0.2737 82.7372,1.3107 L86.6802,12.0847 C87.0592,13.1217 86.5272,14.2687 85.4912,14.6477 C85.2642,14.7297 85.0332,14.7697 84.8042,14.7697" id="Fill-24" fill="#303E51"></path>
                <path d="M77.4449,11.3541 C76.6309,11.3541 75.8659,10.8521 75.5689,10.0421 C75.1899,9.0071 75.7219,7.8591 76.7579,7.4801 L87.5329,3.5361 C88.5669,3.1611 89.7159,3.6891 90.0949,4.7261 C90.4739,5.7611 89.9419,6.9091 88.9059,7.2881 L78.1319,11.2321 C77.9049,11.3141 77.6739,11.3541 77.4449,11.3541" id="Fill-25" fill="#303E51"></path>
                <path d="M10.0767,153.6017 C9.5027,153.6017 8.9327,153.3557 8.5387,152.8797 L1.2147,144.0477 C0.5097,143.1987 0.6277,141.9397 1.4757,141.2357 C2.3247,140.5307 3.5857,140.6487 4.2887,141.4977 L11.6127,150.3297 C12.3177,151.1787 12.1997,152.4377 11.3507,153.1417 C10.9777,153.4517 10.5257,153.6017 10.0767,153.6017" id="Fill-26" fill="#303E51"></path>
                <path d="M1.9986,152.8478 C1.4246,152.8478 0.8546,152.6018 0.4606,152.1258 C-0.2444,151.2768 -0.1264,150.0178 0.7226,149.3138 L9.5536,141.9888 C10.4016,141.2848 11.6616,141.4008 12.3656,142.2518 C13.0706,143.1008 12.9526,144.3598 12.1036,145.0638 L3.2726,152.3878 C2.8996,152.6978 2.4476,152.8478 1.9986,152.8478" id="Fill-27" fill="#303E51"></path>
                <path d="M208.0943,232.5167 L191.7113,232.5167 L191.7113,228.5167 L208.0943,228.5167 C215.2833,228.5167 221.1333,222.6667 221.1333,215.4777 L221.1333,138.0097 L225.1333,138.0097 L225.1333,215.4777 C225.1333,224.8727 217.4903,232.5167 208.0943,232.5167" id="Fill-28" fill="#EF3F3F"></path>
                <path d="M187.5903,105.8327 C187.5903,106.3237 187.4423,106.7407 187.1453,107.0837 C186.8483,107.4277 186.4303,107.6647 185.8933,107.7927 L185.8933,107.8257 C186.5283,107.9037 187.0063,108.0967 187.3323,108.4027 C187.6583,108.7087 187.8203,109.1217 187.8203,109.6407 C187.8203,110.3957 187.5473,110.9847 187.0003,111.4057 C186.4513,111.8257 185.6683,112.0367 184.6523,112.0367 C183.7993,112.0367 183.0453,111.8947 182.3853,111.6117 L182.3853,110.1997 C182.6903,110.3537 183.0263,110.4787 183.3913,110.5757 C183.7563,110.6717 184.1173,110.7207 184.4753,110.7207 C185.0243,110.7207 185.4283,110.6267 185.6903,110.4407 C185.9493,110.2547 186.0803,109.9557 186.0803,109.5437 C186.0803,109.1757 185.9303,108.9137 185.6293,108.7597 C185.3283,108.6057 184.8503,108.5287 184.1903,108.5287 L183.5943,108.5287 L183.5943,107.2557 L184.2013,107.2557 C184.8093,107.2557 185.2543,107.1767 185.5353,107.0167 C185.8173,106.8577 185.9573,106.5847 185.9573,106.1977 C185.9573,105.6037 185.5843,105.3067 184.8403,105.3067 C184.5823,105.3067 184.3203,105.3497 184.0533,105.4357 C183.7873,105.5207 183.4903,105.6697 183.1643,105.8807 L182.3973,104.7367 C183.1113,104.2217 183.9673,103.9637 184.9593,103.9637 C185.7723,103.9637 186.4123,104.1277 186.8833,104.4577 C187.3543,104.7877 187.5903,105.2457 187.5903,105.8327" id="Fill-29" fill="#303E51"></path>
                <path d="M192.4361,109.1466 L191.8011,109.1676 C191.3251,109.1826 190.9711,109.2686 190.7391,109.4256 C190.5061,109.5836 190.3891,109.8236 190.3891,110.1456 C190.3891,110.6076 190.6551,110.8386 191.1841,110.8386 C191.5631,110.8386 191.8681,110.7296 192.0941,110.5106 C192.3231,110.2926 192.4361,110.0026 192.4361,109.6406 L192.4361,109.1466 Z M192.9181,111.9286 L192.6021,111.1126 L192.5591,111.1126 C192.2841,111.4596 192.0001,111.7006 191.7071,111.8346 C191.4161,111.9686 191.0361,112.0366 190.5671,112.0366 C189.9911,112.0366 189.5361,111.8716 189.2061,111.5426 C188.8731,111.2126 188.7071,110.7436 188.7071,110.1346 C188.7071,109.4976 188.9301,109.0276 189.3771,108.7246 C189.8231,108.4226 190.4951,108.2546 191.3931,108.2226 L192.4361,108.1906 L192.4361,107.9276 C192.4361,107.3186 192.1241,107.0146 191.5001,107.0146 C191.0221,107.0146 190.4571,107.1596 189.8091,107.4496 L189.2661,106.3426 C189.9571,105.9806 190.7231,105.8006 191.5651,105.8006 C192.3721,105.8006 192.9891,105.9756 193.4181,106.3266 C193.8481,106.6776 194.0631,107.2106 194.0631,107.9276 L194.0631,111.9286 L192.9181,111.9286 Z" id="Fill-30" fill="#303E51"></path>
                <path d="M198.1138,110.7096 C198.4678,110.7096 198.7408,110.5906 198.9298,110.3526 C199.1198,110.1146 199.2158,109.7746 199.2158,109.3346 C199.2158,108.9516 199.1258,108.6496 198.9478,108.4296 C198.7718,108.2096 198.5048,108.0996 198.1448,108.0996 C197.8088,108.0996 197.5218,108.2086 197.2838,108.4266 C197.0458,108.6456 196.9268,108.8996 196.9268,109.1896 C196.9268,109.6156 197.0378,109.9756 197.2618,110.2696 C197.4848,110.5626 197.7698,110.7096 198.1138,110.7096 M195.2778,108.5936 C195.2778,107.0396 195.6058,105.8826 196.2618,105.1236 C196.9208,104.3646 197.9048,103.9846 199.2158,103.9846 C199.6628,103.9846 200.0118,104.0116 200.2678,104.0656 L200.2678,105.3926 C199.9478,105.3206 199.6338,105.2846 199.3228,105.2846 C198.7528,105.2846 198.2878,105.3706 197.9278,105.5426 C197.5688,105.7146 197.2998,105.9686 197.1198,106.3056 C196.9398,106.6416 196.8348,107.1196 196.8028,107.7396 L196.8738,107.7396 C197.2268,107.1306 197.7958,106.8266 198.5748,106.8266 C199.2778,106.8266 199.8268,107.0466 200.2248,107.4866 C200.6218,107.9276 200.8208,108.5366 200.8208,109.3136 C200.8208,110.1506 200.5848,110.8146 200.1118,111.3026 C199.6388,111.7926 198.9828,112.0366 198.1448,112.0366 C197.5648,112.0366 197.0588,111.9016 196.6278,111.6336 C196.1958,111.3646 195.8638,110.9726 195.6298,110.4576 C195.3948,109.9416 195.2778,109.3206 195.2778,108.5936" id="Fill-31" fill="#303E51"></path>
                <polygon id="Fill-32" fill="#303E51" points="202.3892 111.9288 205.3382 105.4838 201.4652 105.4838 201.4652 104.0868 207.1002 104.0868 207.1002 105.1288 204.1292 111.9288"></polygon>
                <path d="M210.5064,105.317 C210.1624,105.317 209.8934,105.435 209.6994,105.671 C209.5064,105.908 209.4104,106.248 209.4104,106.692 C209.4104,107.071 209.4964,107.372 209.6724,107.594 C209.8484,107.817 210.1154,107.927 210.4734,107.927 C210.8094,107.927 211.0984,107.817 211.3384,107.597 C211.5784,107.377 211.6974,107.124 211.6974,106.837 C211.6974,106.411 211.5864,106.051 211.3614,105.757 C211.1394,105.464 210.8524,105.317 210.5064,105.317 M213.3464,107.428 C213.3464,108.975 213.0204,110.129 212.3694,110.892 C211.7174,111.655 210.7314,112.036 209.4104,112.036 C208.9444,112.036 208.5924,112.011 208.3524,111.961 L208.3524,110.629 C208.6524,110.704 208.9674,110.742 209.2974,110.742 C209.8524,110.742 210.3094,110.66 210.6664,110.497 C211.0244,110.335 211.2994,110.078 211.4884,109.73 C211.6784,109.38 211.7874,108.9 211.8174,108.287 L211.7524,108.287 C211.5434,108.624 211.3034,108.86 211.0314,108.996 C210.7604,109.132 210.4204,109.2 210.0124,109.2 C209.3264,109.2 208.7874,108.981 208.3954,108.542 C208.0004,108.104 207.8034,107.494 207.8034,106.713 C207.8034,105.872 208.0434,105.207 208.5204,104.718 C208.9984,104.23 209.6494,103.985 210.4734,103.985 C211.0534,103.985 211.5614,104.121 211.9964,104.393 C212.4304,104.665 212.7644,105.06 212.9984,105.577 C213.2314,106.095 213.3464,106.712 213.3464,107.428" id="Fill-33" fill="#303E51"></path>
                <path d="M215.7759,107.8898 C215.7759,108.2158 215.8499,108.4728 215.9989,108.6628 C216.1469,108.8528 216.3739,108.9478 216.6779,108.9478 C216.9849,108.9478 217.2119,108.8528 217.3539,108.6628 C217.4969,108.4728 217.5689,108.2158 217.5689,107.8898 C217.5689,107.1668 217.2719,106.8048 216.6779,106.8048 C216.0769,106.8048 215.7759,107.1668 215.7759,107.8898 L215.7759,107.8898 Z M215.1779,112.7778 C215.1779,113.0028 215.2879,113.1808 215.5049,113.3088 C215.7209,113.4378 216.0239,113.5028 216.4149,113.5028 C217.0009,113.5028 217.4619,113.4218 217.7959,113.2608 C218.1279,113.0998 218.2939,112.8798 218.2939,112.5998 C218.2939,112.3748 218.1959,112.2188 217.9989,112.1328 C217.8009,112.0468 217.4969,112.0038 217.0869,112.0038 L216.2369,112.0038 C215.9359,112.0038 215.6839,112.0748 215.4829,112.2158 C215.2799,112.3578 215.1779,112.5448 215.1779,112.7778 L215.1779,112.7778 Z M219.8149,105.9238 L219.8149,106.7568 L218.8739,106.9978 C219.0459,107.2668 219.1309,107.5678 219.1309,107.9008 C219.1309,108.5448 218.9069,109.0468 218.4579,109.4078 C218.0079,109.7668 217.3849,109.9468 216.5869,109.9468 L216.2919,109.9308 L216.0489,109.9038 C215.8809,110.0328 215.7969,110.1758 215.7969,110.3338 C215.7969,110.5698 216.0979,110.6878 216.6999,110.6878 L217.7189,110.6878 C218.3779,110.6878 218.8799,110.8298 219.2249,111.1128 C219.5709,111.3948 219.7449,111.8108 219.7449,112.3588 C219.7449,113.0598 219.4519,113.6048 218.8659,113.9918 C218.2799,114.3778 217.4399,114.5708 216.3439,114.5708 C215.5059,114.5708 214.8659,114.4258 214.4239,114.1338 C213.9809,113.8418 213.7599,113.4328 213.7599,112.9068 C213.7599,112.5448 213.8739,112.2428 214.0999,111.9988 C214.3249,111.7548 214.6569,111.5818 215.0919,111.4778 C214.9239,111.4058 214.7779,111.2888 214.6529,111.1258 C214.5279,110.9628 214.4649,110.7898 214.4649,110.6078 C214.4649,110.3788 214.5299,110.1878 214.6629,110.0358 C214.7959,109.8838 214.9869,109.7338 215.2389,109.5868 C214.9219,109.4508 214.6719,109.2328 214.4889,108.9318 C214.3029,108.6308 214.2119,108.2768 214.2119,107.8688 C214.2119,107.2128 214.4239,106.7058 214.8519,106.3478 C215.2779,105.9908 215.8849,105.8108 216.6779,105.8108 C216.8459,105.8108 217.0459,105.8268 217.2759,105.8568 C217.5059,105.8878 217.6549,105.9098 217.7189,105.9238 L219.8149,105.9238 Z" id="Fill-34" fill="#303E51"></path>
                <path d="M220.5728,111.1608 C220.5728,110.8598 220.6528,110.6328 220.8128,110.4788 C220.9748,110.3248 221.2098,110.2478 221.5178,110.2478 C221.8148,110.2478 222.0438,110.3268 222.2078,110.4838 C222.3698,110.6418 222.4518,110.8678 222.4518,111.1608 C222.4518,111.4438 222.3698,111.6668 222.2058,111.8288 C222.0398,111.9928 221.8108,112.0738 221.5178,112.0738 C221.2178,112.0738 220.9828,111.9938 220.8188,111.8348 C220.6548,111.6758 220.5728,111.4508 220.5728,111.1608" id="Fill-35" fill="#303E51"></path>
                <path d="M223.7095,111.1608 C223.7095,110.8598 223.7895,110.6328 223.9495,110.4788 C224.1115,110.3248 224.3465,110.2478 224.6545,110.2478 C224.9515,110.2478 225.1805,110.3268 225.3445,110.4838 C225.5065,110.6418 225.5885,110.8678 225.5885,111.1608 C225.5885,111.4438 225.5065,111.6668 225.3425,111.8288 C225.1765,111.9928 224.9475,112.0738 224.6545,112.0738 C224.3545,112.0738 224.1195,111.9938 223.9555,111.8348 C223.7915,111.6758 223.7095,111.4508 223.7095,111.1608" id="Fill-36" fill="#303E51"></path>
                <path d="M226.8462,111.1608 C226.8462,110.8598 226.9262,110.6328 227.0862,110.4788 C227.2482,110.3248 227.4832,110.2478 227.7912,110.2478 C228.0882,110.2478 228.3172,110.3268 228.4812,110.4838 C228.6432,110.6418 228.7252,110.8678 228.7252,111.1608 C228.7252,111.4438 228.6432,111.6668 228.4792,111.8288 C228.3132,111.9928 228.0842,112.0738 227.7912,112.0738 C227.4912,112.0738 227.2562,111.9938 227.0922,111.8348 C226.9282,111.6758 226.8462,111.4508 226.8462,111.1608" id="Fill-37" fill="#303E51"></path>
                <path d="M33.7241,128.1989 L51.3701,111.8579 L56.0781,116.0089 C56.8691,116.7059 58.0671,116.6699 58.8131,115.9209 L63.1341,111.5879 L81.0741,128.1989 L33.7241,128.1989 Z M30.6231,118.8729 L35.0501,118.8729 C36.1541,118.8729 37.0471,117.9789 37.0471,116.8759 C37.0471,115.7719 36.1541,114.8789 35.0501,114.8789 L30.6231,114.8789 L30.6231,110.8139 L35.0501,110.8139 C36.1541,110.8139 37.0471,109.9199 37.0471,108.8169 C37.0471,107.7139 36.1541,106.8189 35.0501,106.8189 L30.6231,106.8189 L30.6231,102.7549 L35.0501,102.7549 C36.1541,102.7549 37.0471,101.8609 37.0471,100.7579 C37.0471,99.6549 36.1541,98.7599 35.0501,98.7599 L30.6231,98.7599 L30.6231,92.0099 L48.7751,108.8169 L30.6231,125.6239 L30.6231,118.8729 Z M87.9571,109.8099 C86.6721,109.8099 85.4101,109.7129 84.1741,109.5329 L84.1741,125.6239 L66.0221,108.8169 L71.3761,103.8589 C70.3461,103.0089 69.3851,102.0779 68.4951,101.0809 L61.6841,107.3889 C61.6781,107.3949 61.6711,107.3989 61.6651,107.4039 L61.6401,107.4299 L57.3991,111.3569 L33.7241,89.4349 L62.5161,89.4349 C62.2271,88.1369 62.0341,86.8029 61.9461,85.4399 L28.6261,85.4399 C28.4401,85.4399 28.2631,85.4729 28.0921,85.5209 C28.0521,85.5319 28.0141,85.5439 27.9751,85.5579 C27.8071,85.6159 27.6471,85.6879 27.5031,85.7859 C27.4981,85.7889 27.4951,85.7939 27.4901,85.7969 C27.3501,85.8939 27.2281,86.0129 27.1181,86.1419 C27.0911,86.1729 27.0651,86.2019 27.0401,86.2349 C26.9341,86.3759 26.8421,86.5269 26.7761,86.6929 C26.7731,86.6989 26.7691,86.7029 26.7671,86.7079 C26.7601,86.7239 26.7611,86.7409 26.7551,86.7579 C26.7021,86.9049 26.6681,87.0599 26.6511,87.2209 C26.6461,87.2639 26.6401,87.3049 26.6381,87.3479 C26.6361,87.3789 26.6291,87.4069 26.6291,87.4369 L26.6291,98.7599 L14.4701,98.7599 C13.3671,98.7599 12.4731,99.6549 12.4731,100.7579 C12.4731,101.8609 13.3671,102.7549 14.4701,102.7549 L26.6291,102.7549 L26.6291,106.8189 L18.0951,106.8189 C16.9921,106.8189 16.0981,107.7139 16.0981,108.8169 C16.0981,109.9199 16.9921,110.8139 18.0951,110.8139 L26.6291,110.8139 L26.6291,114.8789 L14.4701,114.8789 C13.3671,114.8789 12.4731,115.7719 12.4731,116.8759 C12.4731,117.9789 13.3671,118.8729 14.4701,118.8729 L26.6291,118.8729 L26.6291,130.1959 C26.6291,130.2269 26.6361,130.2549 26.6381,130.2849 C26.6401,130.3279 26.6461,130.3689 26.6511,130.4119 C26.6681,130.5739 26.7021,130.7299 26.7561,130.8779 C26.7611,130.8929 26.7601,130.9089 26.7671,130.9249 C26.7691,130.9299 26.7731,130.9339 26.7751,130.9399 C26.8421,131.1059 26.9341,131.2589 27.0411,131.3999 C27.0651,131.4309 27.0901,131.4609 27.1171,131.4909 C27.2281,131.6199 27.3501,131.7399 27.4911,131.8369 C27.4951,131.8399 27.4981,131.8449 27.5031,131.8469 C27.6471,131.9459 27.8071,132.0179 27.9751,132.0749 C28.0141,132.0889 28.0521,132.1009 28.0921,132.1119 C28.2631,132.1599 28.4401,132.1929 28.6261,132.1929 L86.1711,132.1929 C86.3571,132.1929 86.5341,132.1599 86.7041,132.1119 C86.7451,132.1009 86.7831,132.0889 86.8221,132.0749 C86.9901,132.0179 87.1501,131.9459 87.2931,131.8469 C87.2981,131.8449 87.3021,131.8399 87.3071,131.8369 C87.4481,131.7399 87.5701,131.6199 87.6801,131.4909 C87.7061,131.4609 87.7321,131.4309 87.7551,131.3999 C87.8631,131.2589 87.9541,131.1059 88.0221,130.9399 C88.0241,130.9339 88.0281,130.9299 88.0311,130.9249 C88.0371,130.9089 88.0361,130.8929 88.0401,130.8779 C88.0951,130.7299 88.1281,130.5739 88.1461,130.4119 C88.1511,130.3689 88.1571,130.3279 88.1591,130.2849 C88.1611,130.2549 88.1681,130.2269 88.1681,130.1959 L88.1681,109.8039 C88.0971,109.8049 88.0281,109.8099 87.9571,109.8099 L87.9571,109.8099 Z" id="Fill-40" fill="#303E51"></path>
                <polygon id="Fill-41" fill="#303E51" points="78.6324 86.7413 77.4424 86.7413 77.4424 82.1193 75.9184 82.1193 75.9184 81.1293 80.1554 81.1293 80.1554 82.1193 78.6324 82.1193"></polygon>
                <path d="M82.0171,83.9279 C82.0171,84.5539 82.1361,85.0269 82.3741,85.3439 C82.6131,85.6609 82.9681,85.8199 83.4421,85.8199 C84.3911,85.8199 84.8661,85.1889 84.8661,83.9279 C84.8661,82.6639 84.3931,82.0319 83.4491,82.0319 C82.9761,82.0319 82.6191,82.1909 82.3781,82.5099 C82.1381,82.8279 82.0171,83.3009 82.0171,83.9279 M86.1131,83.9279 C86.1131,84.8569 85.8821,85.5709 85.4221,86.0699 C84.9611,86.5689 84.3011,86.8179 83.4421,86.8179 C82.5811,86.8179 81.9211,86.5689 81.4601,86.0699 C81.0001,85.5709 80.7701,84.8539 80.7701,83.9199 C80.7701,82.9859 81.0001,82.2729 81.4621,81.7799 C81.9241,81.2869 82.5861,81.0409 83.4491,81.0409 C84.3121,81.0409 84.9711,81.2899 85.4281,81.7859 C85.8841,82.2819 86.1131,82.9959 86.1131,83.9279" id="Fill-42" fill="#303E51"></path>
                <polygon id="Fill-43" fill="#303E51" points="91.7896 86.7413 90.4386 86.7413 88.9696 84.3763 88.4666 84.7373 88.4666 86.7413 87.2756 86.7413 87.2756 81.1293 88.4666 81.1293 88.4666 83.6973 88.9346 83.0373 90.4546 81.1293 91.7746 81.1293 89.8166 83.6133"></polygon>
                <polygon id="Fill-44" fill="#303E51" points="95.7281 86.7413 92.4971 86.7413 92.4971 81.1293 95.7281 81.1293 95.7281 82.1043 93.6861 82.1043 93.6861 83.3363 95.5861 83.3363 95.5861 84.3113 93.6861 84.3113 93.6861 85.7583 95.7281 85.7583"></polygon>
                <path d="M101.8775,86.7413 L100.3645,86.7413 L97.9235,82.4953 L97.8895,82.4953 C97.9385,83.2453 97.9625,83.7803 97.9625,84.1003 L97.9625,86.7413 L96.8985,86.7413 L96.8985,81.1293 L98.3995,81.1293 L100.8375,85.3323 L100.8635,85.3323 C100.8255,84.6033 100.8065,84.0873 100.8065,83.7853 L100.8065,81.1293 L101.8775,81.1293 L101.8775,86.7413 Z" id="Fill-45" fill="#303E51"></path>
                <path d="M88.898,60.6574 C76.045,60.6574 65.626,71.0764 65.626,83.9294 C65.626,96.7824 76.045,107.2014 88.898,107.2014 C101.751,107.2014 112.17,96.7824 112.17,83.9294 C112.17,71.0764 101.751,60.6574 88.898,60.6574 M88.898,64.6524 C99.528,64.6524 108.175,73.3004 108.175,83.9294 C108.175,94.5594 99.528,103.2064 88.898,103.2064 C78.268,103.2064 69.621,94.5594 69.621,83.9294 C69.621,73.3004 78.268,64.6524 88.898,64.6524" id="Fill-46" fill="#303E51"></path>
                <path d="M58.7652,58.3458 C58.6632,58.0888 58.4102,57.9228 58.1582,57.9228 C57.6262,57.9228 56.8592,57.2748 56.4822,56.0738 C56.2802,55.4298 56.2382,54.7488 56.3682,54.2058 C56.4302,53.9438 56.5902,53.4828 56.9592,53.3408 C56.9942,53.3268 57.0542,53.3188 57.1152,53.3128 C57.2532,53.2968 57.3742,53.2278 57.4722,53.1298 C58.1292,53.5918 58.5762,54.3108 58.7002,54.5278 C58.7922,56.0118 59.8982,57.1908 61.2582,57.1908 C62.6792,57.1908 63.8342,55.9088 63.8342,54.3328 C63.8342,54.2208 63.8232,54.0838 63.8012,53.9588 C64.2382,53.7658 64.7282,53.7698 65.1622,53.9648 C65.1372,54.0778 65.1202,54.2348 65.1202,54.3328 C65.1202,55.9088 66.2762,57.1908 67.6972,57.1908 C69.0572,57.1908 70.1622,56.0118 70.2552,54.5278 C70.3792,54.3108 70.8262,53.5918 71.4832,53.1308 C71.5802,53.2278 71.7012,53.2978 71.8392,53.3128 C71.8772,53.3158 71.9562,53.3248 71.9962,53.3408 C72.3652,53.4828 72.5252,53.9438 72.5872,54.2058 C72.7162,54.7488 72.6752,55.4298 72.4732,56.0738 C72.0952,57.2748 71.3282,57.9228 70.7842,57.9228 C70.5092,57.9388 70.2922,58.0848 70.1902,58.3458 C69.0862,61.1558 67.0062,64.1578 64.4772,64.1578 C61.9492,64.1578 59.8692,61.1558 58.7652,58.3458 M62.5522,54.3588 C62.6362,54.4498 62.7442,54.4868 62.8532,54.4968 C62.7742,55.4108 62.1012,56.1358 61.2582,56.1358 C60.3622,56.1358 59.6332,55.3268 59.6332,54.3328 C59.6332,53.3378 60.3622,52.5288 61.2582,52.5288 C61.8792,52.5288 62.4042,52.9318 62.6772,53.5018 C62.6362,53.5408 62.5902,53.5708 62.5522,53.6128 C62.3672,53.8188 62.3672,54.1528 62.5522,54.3588 M66.4022,53.6128 C66.3652,53.5708 66.3192,53.5408 66.2782,53.5018 C66.5512,52.9318 67.0752,52.5288 67.6972,52.5288 C68.5932,52.5288 69.3222,53.3378 69.3222,54.3328 C69.3222,55.3268 68.5932,56.1358 67.6972,56.1358 C66.8532,56.1358 66.1802,55.4108 66.1012,54.4968 C66.2102,54.4868 66.3192,54.4508 66.4022,54.3588 C66.5872,54.1528 66.5872,53.8188 66.4022,53.6128 M61.5202,45.7678 C61.2542,49.5378 66.8862,49.0078 66.8862,49.0078 C68.6172,48.8308 69.8012,49.1248 70.6152,49.5668 C70.9242,50.3468 71.1102,51.2058 71.2002,52.1018 C70.7172,52.3908 70.3272,52.7768 70.0302,53.1378 C69.6202,52.1588 68.7332,51.4728 67.6972,51.4728 C66.7302,51.4728 65.8952,52.0748 65.4542,52.9528 C64.8282,52.6988 64.1252,52.6978 63.5002,52.9528 C63.0602,52.0748 62.2252,51.4728 61.2582,51.4728 C60.2222,51.4728 59.3332,52.1588 58.9252,53.1378 C58.6282,52.7758 58.2372,52.3908 57.7542,52.1018 C58.0362,49.2868 59.4922,46.9488 61.5202,45.7678 M64.4952,77.0538 C64.5752,73.9308 65.2032,70.9468 66.2882,68.1908 C65.7272,68.4398 65.1202,68.5868 64.4772,68.5868 C62.1372,68.5868 60.1872,66.7678 59.6932,64.3368 L60.8702,63.9478 C61.9252,64.9168 63.1352,65.5648 64.4772,65.5648 C65.8202,65.5648 67.0302,64.9168 68.0842,63.9478 L68.3652,64.0398 C68.6192,63.6298 68.8852,63.2288 69.1612,62.8348 L69.1332,62.8248 C69.9742,61.7698 70.6772,60.5278 71.1992,59.2868 C72.2332,59.0628 73.2122,57.9948 73.6702,56.5368 C73.9572,55.6208 74.0082,54.6648 73.8132,53.8448 C73.6402,53.1228 73.2742,52.5658 72.7942,52.2328 C72.8202,52.0438 72.7592,51.7478 72.4562,51.7198 C72.4312,51.5088 72.4062,51.2978 72.3692,51.0908 L72.5502,49.5988 C73.0522,45.4678 70.4622,41.6578 66.7442,41.0588 C65.2792,40.8238 63.8032,41.3968 62.7912,42.5948 L62.7252,42.6728 C61.3342,41.9678 59.7122,42.1348 58.4622,43.1128 C57.0602,44.2098 56.2622,46.0288 56.3482,47.9318 L56.4962,51.7168 C56.3202,51.7168 56.1162,51.9328 56.1612,52.2328 C55.6812,52.5658 55.3142,53.1238 55.1422,53.8448 C54.9462,54.6648 54.9962,55.6218 55.2852,56.5368 C55.7382,57.9808 56.7032,59.0428 57.7532,59.2808 C58.2752,60.5238 58.9792,61.7678 59.8212,62.8258 L59.5832,62.9038 L58.9302,63.1208 L53.7912,64.8208 C52.9562,65.0968 50.7742,66.1178 49.9222,67.1348 C47.0392,63.7778 45.2922,59.4188 45.2922,54.6578 C45.2922,44.0788 53.8992,35.4728 64.4772,35.4728 C74.3682,35.4728 82.5302,42.9968 83.5512,52.6208 C84.5782,52.3348 85.6292,52.1068 86.7032,51.9478 C85.3612,40.8718 75.9102,32.2608 64.4772,32.2608 C52.1272,32.2608 42.0802,42.3078 42.0802,54.6578 C42.0802,67.0068 52.1272,77.0538 64.4772,77.0538 L64.4952,77.0538" id="Fill-33" fill="#303E51"></path>
            </g>
        </g>
    </g>
</svg>