<?xml version="1.0" encoding="UTF-8" standalone="no"?>
<svg width="257px" height="264px" viewBox="0 0 257 264" version="1.1" xmlns="http://www.w3.org/2000/svg" xmlns:xlink="http://www.w3.org/1999/xlink">
    <!-- Generator: Sketch 48.2 (47327) - http://www.bohemiancoding.com/sketch -->
    <title>Page 1</title>
    <desc>Created with Sketch.</desc>
    <defs>
        <polygon id="path-1" points="0 263.559 256.917 263.559 256.917 0 0 0"></polygon>
    </defs>
    <g id="First-screen--Join-a-group" stroke="none" stroke-width="1" fill="none" fill-rule="evenodd" transform="translate(-1111.000000, -372.000000)">
        <g id="Page-1" transform="translate(1111.000000, 372.000000)">
            <path d="M104.0171,235.1271 C108.0851,235.1271 111.4351,238.4301 111.3871,242.4981 L111.3871,242.7371 C114.3071,242.7371 116.6521,245.0821 116.6521,248.0021 C116.6521,250.9211 114.3071,253.2671 111.4351,253.2671 L93.6791,253.2671 C90.5201,253.2671 87.9351,250.6821 87.9351,247.5231 C87.9351,245.0341 89.5631,242.8811 91.8121,242.1151 C92.1471,240.2961 93.6791,238.9081 95.5931,238.9081 C96.2151,238.9081 96.7891,239.1001 97.3161,239.3391 C98.5131,236.8511 101.0491,235.1271 104.0171,235.1271 Z M104.0171,236.0841 C101.5281,236.0841 99.2311,237.5211 98.1781,239.6741 L97.7461,240.5351 L96.8851,240.1051 C96.4551,239.9131 96.0241,239.8171 95.5931,239.8171 C94.2051,239.8171 93.0081,240.8221 92.7691,242.2111 L92.6731,242.7851 L92.1471,242.9771 C90.1851,243.6471 88.8931,245.4651 88.8931,247.5231 C88.8931,250.1551 91.0461,252.3101 93.6791,252.3101 L111.1961,252.3101 L111.3871,252.3101 C113.7811,252.3101 115.6951,250.3471 115.6951,248.0021 C115.6951,245.6561 113.7331,243.6941 111.3871,243.6941 L110.4301,243.6941 L110.4781,242.7371 L110.4781,242.5941 L110.4781,242.5461 C110.4781,239.0041 107.5591,236.0841 104.0171,236.0841 Z" id="Fill-1" fill="#303E51"></path>
            <path d="M95.5933,240.8175 C94.6843,240.8175 93.9103,241.4745 93.7543,242.3805 L93.5643,243.5255 L92.4893,243.9165 C90.9283,244.4495 89.8933,245.8965 89.8933,247.5235 C89.8933,249.6115 91.5913,251.3095 93.6793,251.3095 L111.3873,251.3095 C113.2113,251.3095 114.6953,249.8265 114.6953,248.0025 C114.6953,246.2095 113.1803,244.6945 111.3873,244.6945 L109.3793,244.6945 L109.4793,242.6875 L109.4783,242.5935 C109.4783,239.5345 107.0283,237.0845 104.0173,237.0845 C101.9153,237.0845 99.9763,238.2735 99.0763,240.1135 L98.1933,241.8765 L96.4383,240.9995 C96.1753,240.8825 95.8853,240.8175 95.5933,240.8175 M111.4353,254.2665 L93.6793,254.2665 C89.9603,254.2665 86.9353,251.2415 86.9353,247.5235 C86.9353,244.8385 88.5333,242.4315 90.9663,241.3715 C91.5903,239.3345 93.4533,237.9085 95.5933,237.9085 C96.0573,237.9085 96.4853,237.9895 96.8573,238.0975 C98.3883,235.6275 101.0563,234.1275 104.0173,234.1275 C106.2813,234.1275 108.4063,235.0145 109.9983,236.6265 C111.4003,238.0435 112.2263,239.8645 112.3663,241.8135 C115.3573,242.2855 117.6523,244.8805 117.6523,248.0025 C117.6523,251.4565 114.8633,254.2665 111.4353,254.2665" id="Fill-3" fill="#303E51"></path>
            <path d="M146.5493,235.8126 C143.5823,235.8126 141.0453,237.5366 139.8493,240.0246 C139.3223,239.7856 138.7483,239.5936 138.1263,239.5936 C136.2113,239.5936 134.6803,240.9816 134.3453,242.8006 C132.0953,243.5666 130.4683,245.7196 130.4683,248.2086 C130.4683,251.3686 133.0533,253.9526 136.2113,253.9526 L153.9683,253.9526 C156.8403,253.9526 159.1853,251.6076 159.1853,248.6876 C159.1853,245.7676 156.8403,243.4226 153.9203,243.4226 L153.9203,243.1836 C153.9683,239.1156 150.6173,235.8126 146.5493,235.8126 M146.5493,236.7696 C150.0913,236.7696 153.0113,239.6896 153.0113,243.2316 L153.0113,243.2796 L153.0113,243.4226 L152.9633,244.3796 L153.9203,244.3796 C156.2653,244.3796 158.2283,246.3416 158.2283,248.6876 C158.2283,251.0326 156.3133,252.9956 153.9203,252.9956 L153.7293,252.9956 L136.2113,252.9956 C133.5793,252.9956 131.4253,250.8406 131.4253,248.2086 C131.4253,246.1506 132.7183,244.3326 134.6803,243.6626 L135.2063,243.4706 L135.3023,242.8966 C135.5413,241.5076 136.7373,240.5026 138.1263,240.5026 C138.5573,240.5026 138.9873,240.5986 139.4183,240.7906 L140.2793,241.2206 L140.7103,240.3596 C141.7633,238.2066 144.0613,236.7696 146.5493,236.7696" id="Fill-5" fill="#303E51"></path>
            <path d="M138.1265,241.5031 C137.2175,241.5031 136.4435,242.1601 136.2875,243.0661 L136.0975,244.2111 L135.0225,244.6021 C133.4615,245.1351 132.4255,246.5821 132.4255,248.2091 C132.4255,250.2971 134.1235,251.9951 136.2115,251.9951 L153.9205,251.9951 C155.7445,251.9951 157.2285,250.5121 157.2285,248.6881 C157.2285,246.8951 155.7135,245.3801 153.9205,245.3801 L151.9125,245.3801 L152.0125,243.3731 L152.0115,243.2791 C152.0115,240.2201 149.5615,237.7701 146.5495,237.7701 C144.4475,237.7701 142.5085,238.9591 141.6085,240.7991 L140.7275,242.5631 L138.9715,241.6851 C138.7085,241.5681 138.4185,241.5031 138.1265,241.5031 M153.9685,254.9521 L136.2115,254.9521 C132.4935,254.9521 129.4685,251.9271 129.4685,248.2091 C129.4685,245.5241 131.0665,243.1171 133.4995,242.0571 C134.1235,240.0201 135.9865,238.5941 138.1265,238.5941 C138.5905,238.5941 139.0185,238.6751 139.3905,238.7831 C140.9205,236.3131 143.5875,234.8131 146.5495,234.8131 C148.8145,234.8131 150.9395,235.7001 152.5315,237.3131 C153.9335,238.7301 154.7595,240.5501 154.8995,242.4991 C157.8905,242.9711 160.1855,245.5661 160.1855,248.6881 C160.1855,252.1421 157.3965,254.9521 153.9685,254.9521" id="Fill-7" fill="#303E51"></path>
            <path d="M116.0904,213.0802 C115.0964,212.1272 114.4664,210.8002 114.4214,209.3292 C114.2834,209.3192 114.1484,209.3092 114.0064,209.3092 L110.2804,209.3092 C107.1784,209.3092 104.6554,211.8312 104.6554,214.9342 L104.6554,219.4922 L104.6674,219.5642 L104.9824,219.6632 C107.3554,220.4032 109.4754,220.7462 111.3174,220.8522 L111.3174,219.4762 C111.3174,216.4552 113.3314,213.8982 116.0904,213.0802 M112.1454,209.0092 C113.0034,209.0092 113.8044,208.7572 114.4834,208.3302 C114.6974,206.9262 115.4504,205.6972 116.5254,204.8632 C116.5284,204.7802 116.5374,204.6982 116.5374,204.6142 C116.5374,202.1882 114.5704,200.2222 112.1454,200.2222 C109.7194,200.2222 107.7524,202.1882 107.7524,204.6142 C107.7524,207.0432 109.7194,209.0092 112.1454,209.0092 M136.2294,204.8872 L132.5284,204.8872 C132.4904,206.3682 131.8584,207.7012 130.8604,208.6582 C133.6154,209.4792 135.6314,212.0362 135.6314,215.0552 L135.6314,216.4592 C139.2834,216.3262 141.3904,215.2912 141.5274,215.2212 L141.8204,215.0732 L141.8534,215.0732 L141.8534,210.5122 C141.8534,207.4122 139.3294,204.8872 136.2294,204.8872 M129.9764,200.1282 C131.3604,200.9972 132.3324,202.4652 132.5084,204.1722 C133.0724,204.4362 133.6994,204.5882 134.3644,204.5882 C136.7904,204.5882 138.7574,202.6212 138.7574,200.1952 C138.7574,197.7692 136.7904,195.8032 134.3644,195.8032 C131.9614,195.8032 130.0114,197.7342 129.9764,200.1282 M128.9854,209.3092 L125.2854,209.3092 C125.2464,210.7892 124.6154,212.1222 123.6164,213.0802 C126.3724,213.9002 128.3884,216.4552 128.3884,219.4762 L128.3884,220.8812 C132.0404,220.7462 134.1474,219.7122 134.2844,219.6422 L134.5794,219.4922 L134.6104,219.4922 L134.6104,214.9322 C134.6104,211.8312 132.0884,209.3092 128.9854,209.3092 M121.7174,213.8432 L117.9884,213.8432 C114.8884,213.8432 112.3644,216.3672 112.3644,219.4682 L112.3644,224.0282 L112.3764,224.0992 L112.6914,224.1972 C115.6494,225.1212 118.2214,225.4322 120.3374,225.4322 C124.4714,225.4322 126.8684,224.2522 127.0174,224.1772 L127.3104,224.0282 L127.3404,224.0282 L127.3404,219.4682 C127.3404,216.3672 124.8184,213.8432 121.7174,213.8432 M119.8534,213.5442 C122.2794,213.5442 124.2454,211.5772 124.2454,209.1512 C124.2454,206.7252 122.2794,204.7582 119.8534,204.7582 C117.4274,204.7582 115.4584,206.7252 115.4584,209.1512 C115.4584,211.5772 117.4274,213.5442 119.8534,213.5442 M122.7334,204.5492 C124.1164,205.4182 125.0894,206.8872 125.2654,208.5932 C125.8294,208.8552 126.4564,209.0092 127.1214,209.0092 C129.5474,209.0092 131.5144,207.0402 131.5144,204.6142 C131.5144,202.1882 129.5474,200.2222 127.1214,200.2222 C124.7184,200.2222 122.7674,202.1532 122.7334,204.5492 M121.9254,204.1202 C121.9714,203.0832 122.3304,202.1212 122.9044,201.3272 C122.5004,201.2432 122.0844,201.1982 121.6554,201.1982 L117.6104,201.1982 C117.1834,201.1982 116.7674,201.2432 116.3654,201.3252 C116.9794,202.1752 117.3434,203.2122 117.3504,204.3342 C118.0944,203.9242 118.9464,203.6912 119.8534,203.6912 C120.5904,203.6912 121.2894,203.8462 121.9254,204.1202 M114.8634,196.1042 C114.8634,193.4712 116.9994,191.3362 119.6344,191.3362 C122.2674,191.3362 124.4024,193.4712 124.4024,196.1042 C124.4024,198.7372 122.2674,200.8722 119.6344,200.8722 C116.9994,200.8722 114.8634,198.7372 114.8634,196.1042" id="Fill-9" fill="#303E51"></path>
            <mask id="mask-2" fill="white">
                <use xlink:href="#path-1"></use>
            </mask>
            <g id="Clip-12"></g>
            <path d="M73.909,259.441 L168.6,259.441 L168.6,185.336 L73.909,185.336 L73.909,259.441 Z M73.909,181.219 L168.6,181.219 L168.6,164.751 L73.909,164.751 L73.909,181.219 Z M69.792,263.559 L172.717,263.559 L172.717,160.634 L69.792,160.634 L69.792,263.559 Z" id="Fill-11" fill="#303E51" mask="url(#mask-2)"></path>
            <polygon id="Fill-13" fill="#303E51" mask="url(#mask-2)" points="96.552 175.043 160.365 175.043 160.365 170.927 96.552 170.927"></polygon>
            <polygon id="Fill-14" fill="#303E51" mask="url(#mask-2)" points="80.085 175.043 84.202 175.043 84.202 170.927 80.085 170.927"></polygon>
            <polygon id="Fill-15" fill="#303E51" mask="url(#mask-2)" points="88.318 175.043 92.435 175.043 92.435 170.927 88.318 170.927"></polygon>
            <path d="M180.3941,98.8424 C174.8931,98.8424 170.4171,103.3184 170.4171,108.8194 C170.4171,114.3204 174.8931,118.7954 180.3941,118.7954 L242.9461,118.7954 C248.4471,118.7954 252.9231,114.3204 252.9231,108.8194 C252.9231,103.3184 248.4471,98.8424 242.9461,98.8424 L180.3941,98.8424 Z M242.9461,122.7904 L180.3941,122.7904 C172.6901,122.7904 166.4231,116.5234 166.4231,108.8194 C166.4231,101.1144 172.6901,94.8474 180.3941,94.8474 L242.9461,94.8474 C250.6501,94.8474 256.9171,101.1144 256.9171,108.8194 C256.9171,116.5234 250.6501,122.7904 242.9461,122.7904 L242.9461,122.7904 Z" id="Fill-16" fill="#303E51" mask="url(#mask-2)"></path>
            <polygon id="Fill-17" fill="#EF3F3F" mask="url(#mask-2)" points="115.771 110.817 156.863 110.817 156.863 106.817 115.771 106.817"></polygon>
            <path d="M130.7915,118.9269 C130.2795,118.9269 129.7685,118.7319 129.3775,118.3409 C128.5965,117.5599 128.5965,116.2939 129.3775,115.5129 L137.0145,107.8759 L129.3775,100.2399 C128.5965,99.4589 128.5965,98.1919 129.3775,97.4109 C130.1585,96.6299 131.4245,96.6299 132.2055,97.4109 L142.6705,107.8759 L132.2055,118.3409 C131.8145,118.7319 131.3035,118.9269 130.7915,118.9269" id="Fill-18" fill="#EF3F3F" mask="url(#mask-2)"></path>
            <path d="M223.1333,190.6886 C222.6213,190.6886 222.1103,190.4936 221.7193,190.1026 L210.6773,179.0616 C209.8963,178.2806 209.8963,177.0146 210.6773,176.2336 C211.4583,175.4526 212.7243,175.4526 213.5053,176.2336 L223.1333,185.8606 L232.7603,176.2336 C233.5413,175.4526 234.8073,175.4526 235.5883,176.2336 C236.3693,177.0146 236.3693,178.2806 235.5883,179.0616 L224.5473,190.1026 C224.1563,190.4936 223.6453,190.6886 223.1333,190.6886" id="Fill-19" fill="#EF3F3F" mask="url(#mask-2)"></path>
            <path d="M168.4224,36.4542 C167.5644,36.4542 166.7584,36.9882 166.4544,37.8422 C166.0694,38.9252 166.6384,40.1202 167.7224,40.5052 C168.2464,40.6912 168.8134,40.6632 169.3164,40.4232 C169.8184,40.1842 170.1984,39.7642 170.3854,39.2392 L170.3854,39.2382 C170.5714,38.7132 170.5424,38.1472 170.3044,37.6442 C170.0654,37.1412 169.6444,36.7622 169.1184,36.5752 C168.8884,36.4932 168.6534,36.4542 168.4224,36.4542 M168.4244,44.6232 C167.7384,44.6232 167.0494,44.5062 166.3844,44.2692 C163.2254,43.1462 161.5684,39.6622 162.6914,36.5042 C163.8144,33.3432 167.3004,31.6852 170.4564,32.8112 C171.9864,33.3552 173.2144,34.4622 173.9114,35.9292 C174.6094,37.3952 174.6934,39.0462 174.1494,40.5772 C173.6064,42.1072 172.4984,43.3332 171.0314,44.0312 C170.2024,44.4252 169.3164,44.6232 168.4244,44.6232" id="Fill-20" fill="#303E51" mask="url(#mask-2)"></path>
            <path d="M135.3159,135.924 C134.1659,135.924 133.2299,136.86 133.2299,138.009 C133.2299,139.159 134.1659,140.095 135.3159,140.095 C136.4659,140.095 137.4019,139.159 137.4019,138.009 C137.4019,136.86 136.4659,135.924 135.3159,135.924 M135.3159,144.09 C131.9629,144.09 129.2359,141.362 129.2359,138.009 C129.2359,134.657 131.9629,131.929 135.3159,131.929 C138.6689,131.929 141.3959,134.657 141.3959,138.009 C141.3959,141.362 138.6689,144.09 135.3159,144.09" id="Fill-21" fill="#303E51" mask="url(#mask-2)"></path>
            <path d="M24.2554,176.965 L27.9264,178.096 L27.0694,174.352 L24.2554,176.965 Z M30.6444,183.02 C30.4474,183.02 30.2494,182.991 30.0564,182.932 L19.7734,179.765 C19.0914,179.555 18.5724,178.996 18.4134,178.301 C18.2544,177.606 18.4794,176.877 19.0014,176.392 L26.8874,169.069 C27.4094,168.584 28.1514,168.413 28.8344,168.624 C29.5174,168.834 30.0344,169.393 30.1934,170.088 L32.5914,180.577 C32.7504,181.274 32.5264,182.001 32.0034,182.486 C31.6284,182.834 31.1414,183.02 30.6444,183.02 L30.6444,183.02 Z" id="Fill-22" fill="#303E51" mask="url(#mask-2)"></path>
            <path d="M123.8677,9.7516 L126.9467,12.0456 L127.3947,8.2316 L123.8677,9.7516 Z M128.5277,17.7126 C128.1047,17.7126 127.6847,17.5776 127.3347,17.3166 L118.7067,10.8876 C118.1347,10.4616 117.8327,9.7626 117.9167,9.0536 C117.9997,8.3446 118.4547,7.7336 119.1097,7.4516 L128.9917,3.1936 C129.6437,2.9116 130.4027,3.0006 130.9747,3.4266 C131.5477,3.8536 131.8487,4.5526 131.7647,5.2616 L130.5117,15.9476 C130.4287,16.6566 129.9727,17.2676 129.3177,17.5496 C129.0637,17.6586 128.7957,17.7126 128.5277,17.7126 L128.5277,17.7126 Z" id="Fill-23" fill="#303E51" mask="url(#mask-2)"></path>
            <path d="M84.8042,14.7697 C83.9902,14.7697 83.2252,14.2677 82.9282,13.4577 L78.9852,2.6837 C78.6062,1.6467 79.1382,0.4997 80.1742,0.1207 C81.2082,-0.2553 82.3572,0.2737 82.7372,1.3107 L86.6802,12.0847 C87.0592,13.1217 86.5272,14.2687 85.4912,14.6477 C85.2642,14.7297 85.0332,14.7697 84.8042,14.7697" id="Fill-24" fill="#303E51" mask="url(#mask-2)"></path>
            <path d="M77.4449,11.3541 C76.6309,11.3541 75.8659,10.8521 75.5689,10.0421 C75.1899,9.0071 75.7219,7.8591 76.7579,7.4801 L87.5329,3.5361 C88.5669,3.1611 89.7159,3.6891 90.0949,4.7261 C90.4739,5.7611 89.9419,6.9091 88.9059,7.2881 L78.1319,11.2321 C77.9049,11.3141 77.6739,11.3541 77.4449,11.3541" id="Fill-25" fill="#303E51" mask="url(#mask-2)"></path>
            <path d="M10.0767,153.6017 C9.5027,153.6017 8.9327,153.3557 8.5387,152.8797 L1.2147,144.0477 C0.5097,143.1987 0.6277,141.9397 1.4757,141.2357 C2.3247,140.5307 3.5857,140.6487 4.2887,141.4977 L11.6127,150.3297 C12.3177,151.1787 12.1997,152.4377 11.3507,153.1417 C10.9777,153.4517 10.5257,153.6017 10.0767,153.6017" id="Fill-26" fill="#303E51" mask="url(#mask-2)"></path>
            <path d="M1.9986,152.8478 C1.4246,152.8478 0.8546,152.6018 0.4606,152.1258 C-0.2444,151.2768 -0.1264,150.0178 0.7226,149.3138 L9.5536,141.9888 C10.4016,141.2848 11.6616,141.4008 12.3656,142.2518 C13.0706,143.1008 12.9526,144.3598 12.1036,145.0638 L3.2726,152.3878 C2.8996,152.6978 2.4476,152.8478 1.9986,152.8478" id="Fill-27" fill="#303E51" mask="url(#mask-2)"></path>
            <path d="M208.0943,232.5167 L191.7113,232.5167 L191.7113,228.5167 L208.0943,228.5167 C215.2833,228.5167 221.1333,222.6667 221.1333,215.4777 L221.1333,138.0097 L225.1333,138.0097 L225.1333,215.4777 C225.1333,224.8727 217.4903,232.5167 208.0943,232.5167" id="Fill-28" fill="#EF3F3F" mask="url(#mask-2)"></path>
            <path d="M187.5903,105.8327 C187.5903,106.3237 187.4423,106.7407 187.1453,107.0837 C186.8483,107.4277 186.4303,107.6647 185.8933,107.7927 L185.8933,107.8257 C186.5283,107.9037 187.0063,108.0967 187.3323,108.4027 C187.6583,108.7087 187.8203,109.1217 187.8203,109.6407 C187.8203,110.3957 187.5473,110.9847 187.0003,111.4057 C186.4513,111.8257 185.6683,112.0367 184.6523,112.0367 C183.7993,112.0367 183.0453,111.8947 182.3853,111.6117 L182.3853,110.1997 C182.6903,110.3537 183.0263,110.4787 183.3913,110.5757 C183.7563,110.6717 184.1173,110.7207 184.4753,110.7207 C185.0243,110.7207 185.4283,110.6267 185.6903,110.4407 C185.9493,110.2547 186.0803,109.9557 186.0803,109.5437 C186.0803,109.1757 185.9303,108.9137 185.6293,108.7597 C185.3283,108.6057 184.8503,108.5287 184.1903,108.5287 L183.5943,108.5287 L183.5943,107.2557 L184.2013,107.2557 C184.8093,107.2557 185.2543,107.1767 185.5353,107.0167 C185.8173,106.8577 185.9573,106.5847 185.9573,106.1977 C185.9573,105.6037 185.5843,105.3067 184.8403,105.3067 C184.5823,105.3067 184.3203,105.3497 184.0533,105.4357 C183.7873,105.5207 183.4903,105.6697 183.1643,105.8807 L182.3973,104.7367 C183.1113,104.2217 183.9673,103.9637 184.9593,103.9637 C185.7723,103.9637 186.4123,104.1277 186.8833,104.4577 C187.3543,104.7877 187.5903,105.2457 187.5903,105.8327" id="Fill-29" fill="#303E51" mask="url(#mask-2)"></path>
            <path d="M192.4361,109.1466 L191.8011,109.1676 C191.3251,109.1826 190.9711,109.2686 190.7391,109.4256 C190.5061,109.5836 190.3891,109.8236 190.3891,110.1456 C190.3891,110.6076 190.6551,110.8386 191.1841,110.8386 C191.5631,110.8386 191.8681,110.7296 192.0941,110.5106 C192.3231,110.2926 192.4361,110.0026 192.4361,109.6406 L192.4361,109.1466 Z M192.9181,111.9286 L192.6021,111.1126 L192.5591,111.1126 C192.2841,111.4596 192.0001,111.7006 191.7071,111.8346 C191.4161,111.9686 191.0361,112.0366 190.5671,112.0366 C189.9911,112.0366 189.5361,111.8716 189.2061,111.5426 C188.8731,111.2126 188.7071,110.7436 188.7071,110.1346 C188.7071,109.4976 188.9301,109.0276 189.3771,108.7246 C189.8231,108.4226 190.4951,108.2546 191.3931,108.2226 L192.4361,108.1906 L192.4361,107.9276 C192.4361,107.3186 192.1241,107.0146 191.5001,107.0146 C191.0221,107.0146 190.4571,107.1596 189.8091,107.4496 L189.2661,106.3426 C189.9571,105.9806 190.7231,105.8006 191.5651,105.8006 C192.3721,105.8006 192.9891,105.9756 193.4181,106.3266 C193.8481,106.6776 194.0631,107.2106 194.0631,107.9276 L194.0631,111.9286 L192.9181,111.9286 Z" id="Fill-30" fill="#303E51" mask="url(#mask-2)"></path>
            <path d="M198.1138,110.7096 C198.4678,110.7096 198.7408,110.5906 198.9298,110.3526 C199.1198,110.1146 199.2158,109.7746 199.2158,109.3346 C199.2158,108.9516 199.1258,108.6496 198.9478,108.4296 C198.7718,108.2096 198.5048,108.0996 198.1448,108.0996 C197.8088,108.0996 197.5218,108.2086 197.2838,108.4266 C197.0458,108.6456 196.9268,108.8996 196.9268,109.1896 C196.9268,109.6156 197.0378,109.9756 197.2618,110.2696 C197.4848,110.5626 197.7698,110.7096 198.1138,110.7096 M195.2778,108.5936 C195.2778,107.0396 195.6058,105.8826 196.2618,105.1236 C196.9208,104.3646 197.9048,103.9846 199.2158,103.9846 C199.6628,103.9846 200.0118,104.0116 200.2678,104.0656 L200.2678,105.3926 C199.9478,105.3206 199.6338,105.2846 199.3228,105.2846 C198.7528,105.2846 198.2878,105.3706 197.9278,105.5426 C197.5688,105.7146 197.2998,105.9686 197.1198,106.3056 C196.9398,106.6416 196.8348,107.1196 196.8028,107.7396 L196.8738,107.7396 C197.2268,107.1306 197.7958,106.8266 198.5748,106.8266 C199.2778,106.8266 199.8268,107.0466 200.2248,107.4866 C200.6218,107.9276 200.8208,108.5366 200.8208,109.3136 C200.8208,110.1506 200.5848,110.8146 200.1118,111.3026 C199.6388,111.7926 198.9828,112.0366 198.1448,112.0366 C197.5648,112.0366 197.0588,111.9016 196.6278,111.6336 C196.1958,111.3646 195.8638,110.9726 195.6298,110.4576 C195.3948,109.9416 195.2778,109.3206 195.2778,108.5936" id="Fill-31" fill="#303E51" mask="url(#mask-2)"></path>
            <polygon id="Fill-32" fill="#303E51" mask="url(#mask-2)" points="202.3892 111.9288 205.3382 105.4838 201.4652 105.4838 201.4652 104.0868 207.1002 104.0868 207.1002 105.1288 204.1292 111.9288"></polygon>
            <path d="M210.5064,105.317 C210.1624,105.317 209.8934,105.435 209.6994,105.671 C209.5064,105.908 209.4104,106.248 209.4104,106.692 C209.4104,107.071 209.4964,107.372 209.6724,107.594 C209.8484,107.817 210.1154,107.927 210.4734,107.927 C210.8094,107.927 211.0984,107.817 211.3384,107.597 C211.5784,107.377 211.6974,107.124 211.6974,106.837 C211.6974,106.411 211.5864,106.051 211.3614,105.757 C211.1394,105.464 210.8524,105.317 210.5064,105.317 M213.3464,107.428 C213.3464,108.975 213.0204,110.129 212.3694,110.892 C211.7174,111.655 210.7314,112.036 209.4104,112.036 C208.9444,112.036 208.5924,112.011 208.3524,111.961 L208.3524,110.629 C208.6524,110.704 208.9674,110.742 209.2974,110.742 C209.8524,110.742 210.3094,110.66 210.6664,110.497 C211.0244,110.335 211.2994,110.078 211.4884,109.73 C211.6784,109.38 211.7874,108.9 211.8174,108.287 L211.7524,108.287 C211.5434,108.624 211.3034,108.86 211.0314,108.996 C210.7604,109.132 210.4204,109.2 210.0124,109.2 C209.3264,109.2 208.7874,108.981 208.3954,108.542 C208.0004,108.104 207.8034,107.494 207.8034,106.713 C207.8034,105.872 208.0434,105.207 208.5204,104.718 C208.9984,104.23 209.6494,103.985 210.4734,103.985 C211.0534,103.985 211.5614,104.121 211.9964,104.393 C212.4304,104.665 212.7644,105.06 212.9984,105.577 C213.2314,106.095 213.3464,106.712 213.3464,107.428" id="Fill-33" fill="#303E51" mask="url(#mask-2)"></path>
            <path d="M215.7759,107.8898 C215.7759,108.2158 215.8499,108.4728 215.9989,108.6628 C216.1469,108.8528 216.3739,108.9478 216.6779,108.9478 C216.9849,108.9478 217.2119,108.8528 217.3539,108.6628 C217.4969,108.4728 217.5689,108.2158 217.5689,107.8898 C217.5689,107.1668 217.2719,106.8048 216.6779,106.8048 C216.0769,106.8048 215.7759,107.1668 215.7759,107.8898 L215.7759,107.8898 Z M215.1779,112.7778 C215.1779,113.0028 215.2879,113.1808 215.5049,113.3088 C215.7209,113.4378 216.0239,113.5028 216.4149,113.5028 C217.0009,113.5028 217.4619,113.4218 217.7959,113.2608 C218.1279,113.0998 218.2939,112.8798 218.2939,112.5998 C218.2939,112.3748 218.1959,112.2188 217.9989,112.1328 C217.8009,112.0468 217.4969,112.0038 217.0869,112.0038 L216.2369,112.0038 C215.9359,112.0038 215.6839,112.0748 215.4829,112.2158 C215.2799,112.3578 215.1779,112.5448 215.1779,112.7778 L215.1779,112.7778 Z M219.8149,105.9238 L219.8149,106.7568 L218.8739,106.9978 C219.0459,107.2668 219.1309,107.5678 219.1309,107.9008 C219.1309,108.5448 218.9069,109.0468 218.4579,109.4078 C218.0079,109.7668 217.3849,109.9468 216.5869,109.9468 L216.2919,109.9308 L216.0489,109.9038 C215.8809,110.0328 215.7969,110.1758 215.7969,110.3338 C215.7969,110.5698 216.0979,110.6878 216.6999,110.6878 L217.7189,110.6878 C218.3779,110.6878 218.8799,110.8298 219.2249,111.1128 C219.5709,111.3948 219.7449,111.8108 219.7449,112.3588 C219.7449,113.0598 219.4519,113.6048 218.8659,113.9918 C218.2799,114.3778 217.4399,114.5708 216.3439,114.5708 C215.5059,114.5708 214.8659,114.4258 214.4239,114.1338 C213.9809,113.8418 213.7599,113.4328 213.7599,112.9068 C213.7599,112.5448 213.8739,112.2428 214.0999,111.9988 C214.3249,111.7548 214.6569,111.5818 215.0919,111.4778 C214.9239,111.4058 214.7779,111.2888 214.6529,111.1258 C214.5279,110.9628 214.4649,110.7898 214.4649,110.6078 C214.4649,110.3788 214.5299,110.1878 214.6629,110.0358 C214.7959,109.8838 214.9869,109.7338 215.2389,109.5868 C214.9219,109.4508 214.6719,109.2328 214.4889,108.9318 C214.3029,108.6308 214.2119,108.2768 214.2119,107.8688 C214.2119,107.2128 214.4239,106.7058 214.8519,106.3478 C215.2779,105.9908 215.8849,105.8108 216.6779,105.8108 C216.8459,105.8108 217.0459,105.8268 217.2759,105.8568 C217.5059,105.8878 217.6549,105.9098 217.7189,105.9238 L219.8149,105.9238 Z" id="Fill-34" fill="#303E51" mask="url(#mask-2)"></path>
            <path d="M220.5728,111.1608 C220.5728,110.8598 220.6528,110.6328 220.8128,110.4788 C220.9748,110.3248 221.2098,110.2478 221.5178,110.2478 C221.8148,110.2478 222.0438,110.3268 222.2078,110.4838 C222.3698,110.6418 222.4518,110.8678 222.4518,111.1608 C222.4518,111.4438 222.3698,111.6668 222.2058,111.8288 C222.0398,111.9928 221.8108,112.0738 221.5178,112.0738 C221.2178,112.0738 220.9828,111.9938 220.8188,111.8348 C220.6548,111.6758 220.5728,111.4508 220.5728,111.1608" id="Fill-35" fill="#303E51" mask="url(#mask-2)"></path>
            <path d="M223.7095,111.1608 C223.7095,110.8598 223.7895,110.6328 223.9495,110.4788 C224.1115,110.3248 224.3465,110.2478 224.6545,110.2478 C224.9515,110.2478 225.1805,110.3268 225.3445,110.4838 C225.5065,110.6418 225.5885,110.8678 225.5885,111.1608 C225.5885,111.4438 225.5065,111.6668 225.3425,111.8288 C225.1765,111.9928 224.9475,112.0738 224.6545,112.0738 C224.3545,112.0738 224.1195,111.9938 223.9555,111.8348 C223.7915,111.6758 223.7095,111.4508 223.7095,111.1608" id="Fill-36" fill="#303E51" mask="url(#mask-2)"></path>
            <path d="M226.8462,111.1608 C226.8462,110.8598 226.9262,110.6328 227.0862,110.4788 C227.2482,110.3248 227.4832,110.2478 227.7912,110.2478 C228.0882,110.2478 228.3172,110.3268 228.4812,110.4838 C228.6432,110.6418 228.7252,110.8678 228.7252,111.1608 C228.7252,111.4438 228.6432,111.6668 228.4792,111.8288 C228.3132,111.9928 228.0842,112.0738 227.7912,112.0738 C227.4912,112.0738 227.2562,111.9938 227.0922,111.8348 C226.9282,111.6758 226.8462,111.4508 226.8462,111.1608" id="Fill-37" fill="#303E51" mask="url(#mask-2)"></path>
            <path d="M114.8257,236.4855 C114.4417,236.4855 114.0577,236.3395 113.7647,236.0465 C113.1797,235.4605 113.1797,234.5105 113.7647,233.9245 L119.4827,228.2075 C120.0687,227.6215 121.0177,227.6215 121.6037,228.2075 C122.1897,228.7935 122.1897,229.7425 121.6037,230.3285 L115.8867,236.0465 C115.5937,236.3395 115.2097,236.4855 114.8257,236.4855" id="Fill-38" fill="#303E51" mask="url(#mask-2)"></path>
            <path d="M130.8081,236.4855 C130.4241,236.4855 130.0401,236.3395 129.7471,236.0465 L124.0301,230.3285 C123.4441,229.7425 123.4441,228.7935 124.0301,228.2075 C124.6161,227.6215 125.5651,227.6215 126.1511,228.2075 L131.8691,233.9245 C132.4541,234.5105 132.4541,235.4605 131.8691,236.0465 C131.5761,236.3395 131.1921,236.4855 130.8081,236.4855" id="Fill-39" fill="#303E51" mask="url(#mask-2)"></path>
            <path d="M33.7241,128.1989 L51.3701,111.8579 L56.0781,116.0089 C56.8691,116.7059 58.0671,116.6699 58.8131,115.9209 L63.1341,111.5879 L81.0741,128.1989 L33.7241,128.1989 Z M30.6231,118.8729 L35.0501,118.8729 C36.1541,118.8729 37.0471,117.9789 37.0471,116.8759 C37.0471,115.7719 36.1541,114.8789 35.0501,114.8789 L30.6231,114.8789 L30.6231,110.8139 L35.0501,110.8139 C36.1541,110.8139 37.0471,109.9199 37.0471,108.8169 C37.0471,107.7139 36.1541,106.8189 35.0501,106.8189 L30.6231,106.8189 L30.6231,102.7549 L35.0501,102.7549 C36.1541,102.7549 37.0471,101.8609 37.0471,100.7579 C37.0471,99.6549 36.1541,98.7599 35.0501,98.7599 L30.6231,98.7599 L30.6231,92.0099 L48.7751,108.8169 L30.6231,125.6239 L30.6231,118.8729 Z M87.9571,109.8099 C86.6721,109.8099 85.4101,109.7129 84.1741,109.5329 L84.1741,125.6239 L66.0221,108.8169 L71.3761,103.8589 C70.3461,103.0089 69.3851,102.0779 68.4951,101.0809 L61.6841,107.3889 C61.6781,107.3949 61.6711,107.3989 61.6651,107.4039 L61.6401,107.4299 L57.3991,111.3569 L33.7241,89.4349 L62.5161,89.4349 C62.2271,88.1369 62.0341,86.8029 61.9461,85.4399 L28.6261,85.4399 C28.4401,85.4399 28.2631,85.4729 28.0921,85.5209 C28.0521,85.5319 28.0141,85.5439 27.9751,85.5579 C27.8071,85.6159 27.6471,85.6879 27.5031,85.7859 C27.4981,85.7889 27.4951,85.7939 27.4901,85.7969 C27.3501,85.8939 27.2281,86.0129 27.1181,86.1419 C27.0911,86.1729 27.0651,86.2019 27.0401,86.2349 C26.9341,86.3759 26.8421,86.5269 26.7761,86.6929 C26.7731,86.6989 26.7691,86.7029 26.7671,86.7079 C26.7601,86.7239 26.7611,86.7409 26.7551,86.7579 C26.7021,86.9049 26.6681,87.0599 26.6511,87.2209 C26.6461,87.2639 26.6401,87.3049 26.6381,87.3479 C26.6361,87.3789 26.6291,87.4069 26.6291,87.4369 L26.6291,98.7599 L14.4701,98.7599 C13.3671,98.7599 12.4731,99.6549 12.4731,100.7579 C12.4731,101.8609 13.3671,102.7549 14.4701,102.7549 L26.6291,102.7549 L26.6291,106.8189 L18.0951,106.8189 C16.9921,106.8189 16.0981,107.7139 16.0981,108.8169 C16.0981,109.9199 16.9921,110.8139 18.0951,110.8139 L26.6291,110.8139 L26.6291,114.8789 L14.4701,114.8789 C13.3671,114.8789 12.4731,115.7719 12.4731,116.8759 C12.4731,117.9789 13.3671,118.8729 14.4701,118.8729 L26.6291,118.8729 L26.6291,130.1959 C26.6291,130.2269 26.6361,130.2549 26.6381,130.2849 C26.6401,130.3279 26.6461,130.3689 26.6511,130.4119 C26.6681,130.5739 26.7021,130.7299 26.7561,130.8779 C26.7611,130.8929 26.7601,130.9089 26.7671,130.9249 C26.7691,130.9299 26.7731,130.9339 26.7751,130.9399 C26.8421,131.1059 26.9341,131.2589 27.0411,131.3999 C27.0651,131.4309 27.0901,131.4609 27.1171,131.4909 C27.2281,131.6199 27.3501,131.7399 27.4911,131.8369 C27.4951,131.8399 27.4981,131.8449 27.5031,131.8469 C27.6471,131.9459 27.8071,132.0179 27.9751,132.0749 C28.0141,132.0889 28.0521,132.1009 28.0921,132.1119 C28.2631,132.1599 28.4401,132.1929 28.6261,132.1929 L86.1711,132.1929 C86.3571,132.1929 86.5341,132.1599 86.7041,132.1119 C86.7451,132.1009 86.7831,132.0889 86.8221,132.0749 C86.9901,132.0179 87.1501,131.9459 87.2931,131.8469 C87.2981,131.8449 87.3021,131.8399 87.3071,131.8369 C87.4481,131.7399 87.5701,131.6199 87.6801,131.4909 C87.7061,131.4609 87.7321,131.4309 87.7551,131.3999 C87.8631,131.2589 87.9541,131.1059 88.0221,130.9399 C88.0241,130.9339 88.0281,130.9299 88.0311,130.9249 C88.0371,130.9089 88.0361,130.8929 88.0401,130.8779 C88.0951,130.7299 88.1281,130.5739 88.1461,130.4119 C88.1511,130.3689 88.1571,130.3279 88.1591,130.2849 C88.1611,130.2549 88.1681,130.2269 88.1681,130.1959 L88.1681,109.8039 C88.0971,109.8049 88.0281,109.8099 87.9571,109.8099 L87.9571,109.8099 Z" id="Fill-40" fill="#303E51" mask="url(#mask-2)"></path>
            <polygon id="Fill-41" fill="#303E51" mask="url(#mask-2)" points="78.6324 86.7413 77.4424 86.7413 77.4424 82.1193 75.9184 82.1193 75.9184 81.1293 80.1554 81.1293 80.1554 82.1193 78.6324 82.1193"></polygon>
            <path d="M82.0171,83.9279 C82.0171,84.5539 82.1361,85.0269 82.3741,85.3439 C82.6131,85.6609 82.9681,85.8199 83.4421,85.8199 C84.3911,85.8199 84.8661,85.1889 84.8661,83.9279 C84.8661,82.6639 84.3931,82.0319 83.4491,82.0319 C82.9761,82.0319 82.6191,82.1909 82.3781,82.5099 C82.1381,82.8279 82.0171,83.3009 82.0171,83.9279 M86.1131,83.9279 C86.1131,84.8569 85.8821,85.5709 85.4221,86.0699 C84.9611,86.5689 84.3011,86.8179 83.4421,86.8179 C82.5811,86.8179 81.9211,86.5689 81.4601,86.0699 C81.0001,85.5709 80.7701,84.8539 80.7701,83.9199 C80.7701,82.9859 81.0001,82.2729 81.4621,81.7799 C81.9241,81.2869 82.5861,81.0409 83.4491,81.0409 C84.3121,81.0409 84.9711,81.2899 85.4281,81.7859 C85.8841,82.2819 86.1131,82.9959 86.1131,83.9279" id="Fill-42" fill="#303E51" mask="url(#mask-2)"></path>
            <polygon id="Fill-43" fill="#303E51" mask="url(#mask-2)" points="91.7896 86.7413 90.4386 86.7413 88.9696 84.3763 88.4666 84.7373 88.4666 86.7413 87.2756 86.7413 87.2756 81.1293 88.4666 81.1293 88.4666 83.6973 88.9346 83.0373 90.4546 81.1293 91.7746 81.1293 89.8166 83.6133"></polygon>
            <polygon id="Fill-44" fill="#303E51" mask="url(#mask-2)" points="95.7281 86.7413 92.4971 86.7413 92.4971 81.1293 95.7281 81.1293 95.7281 82.1043 93.6861 82.1043 93.6861 83.3363 95.5861 83.3363 95.5861 84.3113 93.6861 84.3113 93.6861 85.7583 95.7281 85.7583"></polygon>
            <path d="M101.8775,86.7413 L100.3645,86.7413 L97.9235,82.4953 L97.8895,82.4953 C97.9385,83.2453 97.9625,83.7803 97.9625,84.1003 L97.9625,86.7413 L96.8985,86.7413 L96.8985,81.1293 L98.3995,81.1293 L100.8375,85.3323 L100.8635,85.3323 C100.8255,84.6033 100.8065,84.0873 100.8065,83.7853 L100.8065,81.1293 L101.8775,81.1293 L101.8775,86.7413 Z" id="Fill-45" fill="#303E51" mask="url(#mask-2)"></path>
            <path d="M88.898,60.6574 C76.045,60.6574 65.626,71.0764 65.626,83.9294 C65.626,96.7824 76.045,107.2014 88.898,107.2014 C101.751,107.2014 112.17,96.7824 112.17,83.9294 C112.17,71.0764 101.751,60.6574 88.898,60.6574 M88.898,64.6524 C99.528,64.6524 108.175,73.3004 108.175,83.9294 C108.175,94.5594 99.528,103.2064 88.898,103.2064 C78.268,103.2064 69.621,94.5594 69.621,83.9294 C69.621,73.3004 78.268,64.6524 88.898,64.6524" id="Fill-46" fill="#303E51" mask="url(#mask-2)"></path>
            <path d="M70.5064,64.6032 C69.8334,64.3012 69.0944,64.1242 68.3104,64.1242 L64.7674,64.1242 C64.7304,65.5432 64.1244,66.8202 63.1674,67.7372 C64.3734,68.0962 65.4184,68.8132 66.2124,69.7502 C67.4204,67.8542 68.8634,66.1242 70.5064,64.6032" id="Fill-47" fill="#303E51" mask="url(#mask-2)"></path>
            <path d="M75.2476,59.8898 L71.7046,59.8898 C71.6676,61.3078 71.0616,62.5848 70.1046,63.5018 C70.4966,63.6188 70.8656,63.7818 71.2226,63.9678 C72.9656,62.4678 74.9046,61.1918 77.0036,60.1908 C76.4536,59.9968 75.8636,59.8898 75.2476,59.8898" id="Fill-48" fill="#303E51" mask="url(#mask-2)"></path>
            <path d="M73.4624,51.1886 C71.1604,51.1886 69.2924,53.0386 69.2584,55.3316 C70.5844,56.1636 71.5164,57.5696 71.6854,59.2046 C72.2254,59.4576 72.8254,59.6036 73.4624,59.6036 C75.7854,59.6036 77.6694,57.7196 77.6694,55.3966 C77.6694,53.0726 75.7854,51.1886 73.4624,51.1886" id="Fill-49" fill="#303E51" mask="url(#mask-2)"></path>
            <path d="M65.6597,70.6583 C64.6767,69.3373 63.1177,68.4673 61.3487,68.4673 L57.7777,68.4673 C54.8077,68.4673 52.3897,70.8863 52.3897,73.8553 L52.3897,75.1043 C52.0547,74.9463 51.7127,74.7963 51.3877,74.6203 L51.3877,73.8633 C51.3877,70.9703 53.3167,68.5203 55.9597,67.7373 C55.0067,66.8243 54.4037,65.5533 54.3607,64.1443 C54.2287,64.1353 54.0987,64.1243 53.9637,64.1243 L50.3947,64.1243 C47.5707,64.1243 45.2747,66.3133 45.0507,69.0803 C42.6857,65.8793 41.2697,61.9383 41.2697,57.6623 C41.2697,47.0333 49.9177,38.3853 60.5477,38.3853 C71.1777,38.3853 79.8247,47.0333 79.8247,57.6623 C79.8247,58.1373 79.7997,58.6053 79.7637,59.0703 C81.0677,58.6233 82.4187,58.2773 83.8057,58.0413 C83.8077,57.9143 83.8197,57.7903 83.8197,57.6623 C83.8197,44.8103 73.3997,34.3903 60.5477,34.3903 C47.6947,34.3903 37.2747,44.8103 37.2747,57.6623 C37.2747,70.5153 47.6947,80.9353 60.5477,80.9353 C61.1377,80.9353 61.7207,80.9083 62.2997,80.8653 C62.7037,77.1753 63.8797,73.7203 65.6597,70.6583" id="Fill-50" fill="#303E51" mask="url(#mask-2)"></path>
            <path d="M59.563,68.1808 C61.887,68.1808 63.771,66.2978 63.771,63.9738 C63.771,61.6498 61.887,59.7658 59.563,59.7658 C57.24,59.7658 55.354,61.6498 55.354,63.9738 C55.354,66.2978 57.24,68.1808 59.563,68.1808" id="Fill-51" fill="#303E51" mask="url(#mask-2)"></path>
            <path d="M59.353,46.9108 C56.83,46.9108 54.785,48.9548 54.785,51.4768 C54.785,53.9998 56.83,56.0438 59.353,56.0438 C61.875,56.0438 63.92,53.9998 63.92,51.4768 C63.92,48.9548 61.875,46.9108 59.353,46.9108" id="Fill-52" fill="#303E51" mask="url(#mask-2)"></path>
            <path d="M47.9722,59.6285 C47.9722,61.9545 49.8572,63.8375 52.1802,63.8375 C53.0022,63.8375 53.7692,63.5965 54.4192,63.1875 C54.6252,61.8425 55.3462,60.6655 56.3752,59.8665 C56.3792,59.7875 56.3872,59.7095 56.3872,59.6285 C56.3872,57.3055 54.5032,55.4215 52.1802,55.4215 C49.8572,55.4215 47.9722,57.3055 47.9722,59.6285" id="Fill-53" fill="#303E51" mask="url(#mask-2)"></path>
            <path d="M57.4146,56.3561 C57.0066,56.3561 56.6066,56.3991 56.2226,56.4781 C56.8106,57.2921 57.1596,58.2851 57.1656,59.3591 C57.8786,58.9671 58.6956,58.7451 59.5626,58.7451 C60.2686,58.7451 60.9386,58.8921 61.5476,59.1551 C61.5926,58.1611 61.9356,57.2401 62.4866,56.4801 C62.0996,56.3991 61.7006,56.3561 61.2906,56.3561 L57.4146,56.3561 Z" id="Fill-54" fill="#303E51" mask="url(#mask-2)"></path>
            <path d="M62.3218,59.566 C63.6468,60.399 64.5788,61.805 64.7478,63.439 C65.2878,63.691 65.8878,63.838 66.5248,63.838 C68.8478,63.838 70.7318,61.952 70.7318,59.628 C70.7318,57.305 68.8478,55.421 66.5248,55.421 C64.2218,55.421 62.3548,57.272 62.3218,59.566" id="Fill-55" fill="#303E51" mask="url(#mask-2)"></path>
        </g>
    </g>
</svg>