<?xml version="1.0" encoding="UTF-8" standalone="no"?>
<svg width="394px" height="244px" viewBox="0 0 394 244" version="1.1" xmlns="http://www.w3.org/2000/svg" xmlns:xlink="http://www.w3.org/1999/xlink">
    <!-- Generator: Sketch 48.2 (47327) - http://www.bohemiancoding.com/sketch -->
    <title>Group</title>
    <desc>Created with Sketch.</desc>
    <defs></defs>
    <g id="Client-token-Copy-2" stroke="none" stroke-width="1" fill="none" fill-rule="evenodd" transform="translate(-1048.000000, -375.000000)">
        <g id="Group" transform="translate(1048.000000, 375.000000)" fill="#303E51">
            <path d="M330.245832,23.1884976 L330.258163,23.1884976 L330.245832,23.1884976 Z M325.498464,18.9294419 C325.123607,18.9294419 324.747516,19.0132913 324.397321,19.179757 C323.77708,19.4744629 323.308509,19.9935893 323.079156,20.6409559 C322.848569,21.2883225 322.884329,21.9862453 323.179035,22.6064842 C323.473742,23.226723 323.99287,23.6952931 324.640238,23.9258789 C325.9769,24.3993814 327.447967,23.6989924 327.92517,22.3635675 C328.399907,21.0269097 327.699516,19.55338 326.362855,19.0786445 C326.080479,18.978765 325.789471,18.9294419 325.498464,18.9294419 L325.498464,18.9294419 Z M325.493531,29 C324.663667,29 323.817772,28.860662 322.990374,28.5659561 C321.103757,27.895161 319.589532,26.5301423 318.730073,24.7224481 C317.870614,22.9122878 317.765802,20.8777071 318.437832,18.9898628 C319.107396,17.1032515 320.472419,15.5914964 322.281351,14.7308071 C324.090283,13.8713508 326.12487,13.765306 328.011486,14.4373342 C331.908027,15.8220822 333.951245,20.1181303 332.566493,24.0121945 L332.566493,24.0134276 C331.475215,27.0813287 328.577471,29 325.493531,29 L325.493531,29 Z" id="Fill-11"></path>
            <g transform="translate(124.000000, 42.000000)">
                <path d="M112.519239,110 C108.179859,110 104.469374,112.566042 102.720166,116.269239 C101.949403,115.913506 101.1099,115.627729 100.200195,115.627729 C97.399415,115.627729 95.1602535,117.69366 94.6702998,120.401103 C91.3795661,121.541235 89,124.74581 89,128.450496 C89,133.153914 92.7806874,137 97.399415,137 L123.369885,137 C127.570324,137 131,133.509647 131,129.163451 C131,124.817255 127.570324,121.326902 123.299683,121.326902 L123.299683,120.971169 C123.369885,114.916262 118.468886,110 112.519239,110 M112.519239,111.424421 C117.699586,111.424421 121.970227,115.770617 121.970227,121.042613 L121.970227,121.114057 L121.970227,121.326902 L121.900024,122.751323 L123.299683,122.751323 C126.729359,122.751323 129.600341,125.67161 129.600341,129.163451 C129.600341,132.653804 126.799561,135.575579 123.299683,135.575579 L123.020336,135.575579 L97.399415,135.575579 C93.5499878,135.575579 90.3996587,132.368026 90.3996587,128.450496 C90.3996587,125.387321 92.2907337,122.681367 95.1602535,121.684123 L95.9295539,121.398346 L96.0699586,120.543991 C96.4195076,118.476571 98.1687154,116.980706 100.200195,116.980706 C100.830553,116.980706 101.459449,117.123594 102.089807,117.409372 L103.349062,118.049394 L103.97942,116.767861 C105.519483,113.563286 108.880419,111.424421 112.519239,111.424421" id="Fill-5"></path>
                <path d="M99.6838558,117.633547 C98.3521828,117.633547 97.218283,118.579622 96.9897451,119.884254 L96.7113976,121.533045 L95.1365368,122.096082 C92.8496924,122.863598 91.331966,124.947266 91.331966,127.290134 C91.331966,130.296837 93.8195136,132.741943 96.8784061,132.741943 L122.821858,132.741943 C125.493994,132.741943 127.668034,130.606435 127.668034,127.97989 C127.668034,125.397984 125.448579,123.216396 122.821858,123.216396 L119.880164,123.216396 L120.026663,120.326332 L120.025198,120.190973 C120.025198,115.786037 116.43598,112.258057 112.02344,112.258057 C108.944038,112.258057 106.103428,113.970207 104.78494,116.619792 L103.494287,119.159938 L100.92177,117.895625 C100.536478,117.727146 100.111632,117.633547 99.6838558,117.633547 M122.892177,137 L96.8784061,137 C91.4315851,137 87,132.644024 87,127.290134 C87,123.423755 89.3410489,119.957694 92.9053619,118.431302 C93.8195136,115.498039 96.5487841,113.44461 99.6838558,113.44461 C100.36361,113.44461 100.990624,113.561249 101.535599,113.716768 C103.777029,110.159988 107.684149,108 112.02344,108 C115.341635,108 118.454732,109.277273 120.786991,111.59998 C122.840902,113.640449 124.050982,116.261234 124.25608,119.067779 C128.637855,119.747455 132,123.484235 132,127.97989 C132,132.953622 127.914152,137 122.892177,137" id="Fill-7"></path>
                <path d="M35.6838558,117.633547 C34.3521828,117.633547 33.218283,118.579622 32.9897451,119.884254 L32.7113976,121.533045 L31.1365368,122.096082 C28.8496924,122.863598 27.331966,124.947266 27.331966,127.290134 C27.331966,130.296837 29.8195136,132.741943 32.8784061,132.741943 L58.8218576,132.741943 C61.4939936,132.741943 63.668034,130.606435 63.668034,127.97989 C63.668034,125.397984 61.448579,123.216396 58.8218576,123.216396 L55.8801641,123.216396 L56.0266628,120.326332 L56.0251978,120.190973 C56.0251978,115.786037 52.4359801,112.258057 48.0234398,112.258057 C44.9440375,112.258057 42.1034281,113.970207 40.7849399,116.619792 L39.4942866,119.159938 L36.9217697,117.895625 C36.5364782,117.727146 36.111632,117.633547 35.6838558,117.633547 M58.892177,137 L32.8784061,137 C27.4315851,137 23,132.644024 23,127.290134 C23,123.423755 25.3410489,119.957694 28.9053619,118.431302 C29.8195136,115.498039 32.5487841,113.44461 35.6838558,113.44461 C36.3636097,113.44461 36.9906241,113.561249 37.5355992,113.716768 C39.777029,110.159988 43.6841488,108 48.0234398,108 C51.3416349,108 54.4547319,109.277273 56.7869909,111.59998 C58.8409024,113.640449 60.0509815,116.261234 60.2560797,119.067779 C64.6378553,119.747455 68,123.484235 68,127.97989 C68,132.953622 63.9141518,137 58.892177,137" id="Fill-7"></path>
                <path d="M67.600086,76.8864383 C66.1571052,75.4889137 65.2425399,73.5429376 65.1772138,71.3857931 C64.9768805,71.3711286 64.7809022,71.3564641 64.5747621,71.3564641 L59.1657616,71.3564641 C54.6626163,71.3564641 51,75.0548451 51,79.6052323 L51,86.2893008 L51.0174203,86.394885 L51.4747029,86.5400634 C54.9195656,87.6252346 57.9971504,88.1282262 60.6711651,88.2836696 L60.6711651,86.2658376 C60.6711651,81.8356992 63.5948707,78.0859925 67.600086,76.8864383 M61.8731652,70.9165298 C63.1187161,70.9165298 64.2815205,70.546985 65.2672187,69.9208118 C65.5778805,67.8619193 66.6710038,66.0596551 68.2315716,64.8366377 C68.2359267,64.7149226 68.2489919,64.5946739 68.2489919,64.4714923 C68.2489919,60.9138902 65.3935158,58.0308541 61.8731652,58.0308541 C58.351363,58.0308541 55.4958869,60.9138902 55.4958869,64.4714923 C55.4958869,68.0334937 58.351363,70.9165298 61.8731652,70.9165298 M96.8356901,64.8718325 L91.4629819,64.8718325 C91.4078176,67.0436415 90.4903489,68.9984162 89.0415614,70.4018067 C93.0409699,71.6057602 95.9675789,75.3554669 95.9675789,79.7826725 L95.9675789,81.841565 C101.269154,81.6465275 104.327867,80.1287541 104.526749,80.0261028 L104.952094,79.8090685 L105,79.8090685 L105,73.1206007 C105,68.5746129 101.335932,64.8718325 96.8356901,64.8718325 M87.7582666,57.893008 C89.7674068,59.167351 91.1784505,61.3200962 91.4339481,63.8233224 C92.2527018,64.2104646 93.162912,64.4333646 94.1282865,64.4333646 C97.6500887,64.4333646 100.505565,61.548862 100.505565,57.99126 C100.505565,54.4336579 97.6500887,51.5506218 94.1282865,51.5506218 C90.6398731,51.5506218 87.8090758,54.3823322 87.7582666,57.893008 M86.3196408,71.3564641 L80.9483843,71.3564641 C80.8917684,73.5268067 79.9757514,75.4815814 78.5255121,76.8864383 C82.5263724,78.0889254 85.4529813,81.8356992 85.4529813,86.2658376 L85.4529813,88.3261966 C90.7545567,88.1282262 93.8132695,86.6119193 94.0121512,86.5092679 L94.4404,86.2893008 L94.4854024,86.2893008 L94.4854024,79.6022994 C94.4854024,75.0548451 90.8242379,71.3564641 86.3196408,71.3564641 M75.768751,78.0053379 L70.3553955,78.0053379 C65.8551535,78.0053379 62.1910855,81.7066518 62.1910855,86.2541061 L62.1910855,92.9411075 L62.2085058,93.0452252 L62.6657885,93.1889371 C66.9598903,94.5439348 70.6936394,95 73.7654175,95 C79.7667079,95 83.2464111,93.2695917 83.462713,93.1596082 L83.8880585,92.9411075 L83.9316092,92.9411075 L83.9316092,86.2541061 C83.9316092,81.7066518 80.2704446,78.0053379 75.768751,78.0053379 M73.0627991,77.56687 C76.5846013,77.56687 79.4386257,74.6823674 79.4386257,71.1247654 C79.4386257,67.5671633 76.5846013,64.6826607 73.0627991,64.6826607 C69.5409968,64.6826607 66.6826173,67.5671633 66.6826173,71.1247654 C66.6826173,74.6823674 69.5409968,77.56687 73.0627991,77.56687 M77.243669,64.3761732 C79.2513576,65.6505162 80.6638529,67.8047278 80.9193505,70.3064876 C81.7381042,70.6906969 82.6483144,70.9165298 83.6136889,70.9165298 C87.1354912,70.9165298 89.9909673,68.0290943 89.9909673,64.4714923 C89.9909673,60.9138902 87.1354912,58.0308541 83.6136889,58.0308541 C80.1252756,58.0308541 77.2930265,60.8625645 77.243669,64.3761732 M76.0707027,63.7470671 C76.1374805,62.2263609 76.6586376,60.8156382 77.4919082,59.6512787 C76.905425,59.5280971 76.3015216,59.462107 75.6787462,59.462107 L69.8066563,59.462107 C69.1867842,59.462107 68.5828808,59.5280971 67.999301,59.6483458 C68.8906393,60.8948264 69.4190548,62.4155326 69.4292166,64.0608869 C70.5092747,63.4596434 71.7461154,63.1179611 73.0627991,63.1179611 C74.1326953,63.1179611 75.1474273,63.3452604 76.0707027,63.7470671 M65.8188612,51.9920225 C65.8188612,48.1308658 68.9196731,45 72.7448788,45 C76.567181,45 79.6665412,48.1308658 79.6665412,51.9920225 C79.6665412,55.8531793 76.567181,58.984045 72.7448788,58.984045 C68.9196731,58.984045 65.8188612,55.8531793 65.8188612,51.9920225" id="Fill-9"></path>
                <path d="M6,143.998543 L144,143.998543 L144,36 L6,36 L6,143.998543 Z M6,30 L144,30 L144,6 L6,6 L6,30 Z M0,150 L150,150 L150,0 L0,0 L0,150 Z" id="Fill-11"></path>
                <polygon id="Fill-13" points="39 21 132 21 132 15 39 15"></polygon>
                <polygon id="Fill-14" points="15 21 21 21 21 15 15 15"></polygon>
                <polygon id="Fill-15" points="27 21 33 21 33 15 27 15"></polygon>
                <path d="M66.2365712,111 C65.6639135,111 65.0912558,110.782277 64.6543061,110.34534 C63.781898,109.471465 63.781898,108.054775 64.6543061,107.1809 L73.1815366,98.6554058 C74.0554361,97.7815314 75.470676,97.7815314 76.3445754,98.6554058 C77.2184749,99.5292802 77.2184749,100.944479 76.3445754,101.818354 L67.8188362,110.34534 C67.3818865,110.782277 66.8092288,111 66.2365712,111" id="Fill-38"></path>
                <path d="M89.7634288,111 C89.1907712,111 88.6181135,110.782277 88.1811638,110.34534 L79.6554246,101.818354 C78.7815251,100.944479 78.7815251,99.5292802 79.6554246,98.6554058 C80.529324,97.7815314 81.9445639,97.7815314 82.8184634,98.6554058 L91.3456939,107.1809 C92.218102,108.054775 92.218102,109.471465 91.3456939,110.34534 C90.9087442,110.782277 90.3360865,111 89.7634288,111" id="Fill-39"></path>
            </g>
            <path d="M7.49938317,166.927638 C6.08191463,166.927638 4.92721441,168.082148 4.92721441,169.499383 C4.92721441,170.917852 6.08191463,172.072362 7.49938317,172.072362 C8.91808537,172.072362 10.0727856,170.917852 10.0727856,169.499383 C10.0727856,168.082148 8.91808537,166.927638 7.49938317,166.927638 M7.49938317,177 C3.36294103,177 0,173.635145 0,169.499383 C0,165.364855 3.36294103,162 7.49938317,162 C11.6358253,162 15,165.364855 15,169.499383 C15,173.635145 11.6358253,177 7.49938317,177" id="Fill-12"></path>
            <path d="M40.0157442,101.893718 L44.3855686,103.221085 L43.3663398,98.8270434 L40.0157442,101.893718 Z M47.6218582,109 C47.3872927,109 47.1515365,108.965965 46.9217337,108.896721 L34.6790812,105.17986 C33.8670321,104.933399 33.2490651,104.277345 33.0597457,103.461677 C32.8704263,102.64601 33.1383311,101.790439 33.7598702,101.221233 L43.1484439,92.6267977 C43.769983,92.0564174 44.6558547,91.8569016 45.4667132,92.1045359 C46.279953,92.3509965 46.8955386,93.0070513 47.084858,93.8227187 L49.9401274,106.132841 C50.1294468,106.950856 49.8627327,107.804079 49.240003,108.373286 C48.793495,108.781706 48.2136301,109 47.6218582,109 L47.6218582,109 Z" id="Fill-13"></path>
            <path d="M384.307901,136.239673 L388.080163,139.052157 L388.629034,134.376126 L384.307901,136.239673 Z M390.017138,146 C389.498896,146 388.98433,145.834488 388.555525,145.514497 L377.984859,137.632429 C377.284069,137.110145 376.914071,136.253159 377.016984,135.383912 C377.118673,134.514666 377.67612,133.765569 378.478598,133.419832 L390.585612,128.199448 C391.38564,127.853711 392.31431,127.962827 393.0151,128.48511 C393.717116,129.00862 394.085889,129.865606 393.982975,130.734853 L392.447852,143.836079 C392.346164,144.705325 391.787492,145.454422 390.985013,145.800159 C390.673823,145.933795 390.345481,146 390.017138,146 L390.017138,146 Z" id="Fill-14"></path>
            <path d="M85.4831847,18 C84.4579185,18 83.4943698,17.3882189 83.1202861,16.4010821 L78.1539168,3.27094409 C77.6765508,2.00716526 78.3466265,0.609330815 79.6515108,0.147448291 C80.953876,-0.310778171 82.4010884,0.333907463 82.8797139,1.5976863 L87.8460832,14.7278243 C88.3234492,15.9916032 87.6533735,17.3894376 86.3484892,17.8513201 C86.0625734,17.9512525 85.7716195,18 85.4831847,18" id="Fill-15"></path>
            <path d="M76.4351141,14 C75.4431302,14 74.5108604,13.3676458 74.1489203,12.3473134 C73.6870507,11.0435554 74.3353743,9.59745464 75.5978992,9.12003985 L88.7288897,4.15190282 C89.9901959,3.67952671 91.38921,4.34463228 91.8510797,5.65090969 C92.3129493,6.95466775 91.6646257,8.40076849 90.4021008,8.87818328 L77.272329,13.8463203 C76.9956947,13.9496132 76.7141857,14 76.4351141,14" id="Fill-16"></path>
            <path d="M196.530678,244 C195.82072,244 195.115708,243.712313 194.628384,243.15565 L185.569606,232.826986 C184.697618,231.834115 184.843568,230.361766 185.892427,229.538466 C186.94376,228.713998 188.500969,228.851994 189.37172,229.844865 L198.430499,240.173529 C199.302486,241.1664 199.156537,242.638749 198.106441,243.462049 C197.645091,243.824581 197.086029,244 196.530678,244" id="Fill-17"></path>
            <path d="M186.492816,244 C185.776819,244 185.065812,243.69574 184.574344,243.107009 C183.694941,242.056941 183.842132,240.499773 184.901158,239.629045 L195.918022,230.56927 C196.977048,229.698543 198.548747,229.842015 199.425656,230.894556 C200.305059,231.944625 200.157868,233.501793 199.098842,234.372521 L188.081978,243.431059 C187.616705,243.814476 187.052889,244 186.492816,244" id="Fill-18"></path>
        </g>
    </g>
</svg>