<?xml version="1.0" encoding="UTF-8" standalone="no"?>
<svg width="515px" height="302px" viewBox="0 0 515 302" version="1.1" xmlns="http://www.w3.org/2000/svg" xmlns:xlink="http://www.w3.org/1999/xlink">
    <!-- Generator: Sketch 48.2 (47327) - http://www.bohemiancoding.com/sketch -->
    <title>Page 1</title>
    <desc>Created with Sketch.</desc>
    <defs>
        <polygon id="path-1" points="0 384 563 384 563 0 0 0"></polygon>
    </defs>
    <g id="No-providers-Copy" stroke="none" stroke-width="1" fill="none" fill-rule="evenodd" transform="translate(-974.000000, -353.000000)">
        <g id="Page-1" transform="translate(958.000000, 326.000000)">
            <mask id="mask-2" fill="white">
                <use xlink:href="#path-1"></use>
            </mask>
            <g id="Clip-12"></g>
            <path d="M158.550561,318.809842 L383.585997,318.809842 L383.585997,142.517765 L158.550561,142.517765 L158.550561,318.809842 Z M158.550561,132.723628 L383.585997,132.723628 L383.585997,93.5470826 L158.550561,93.5470826 L158.550561,132.723628 Z M148.766412,328.606357 L393.370147,328.606357 L393.370147,83.7529462 L148.766412,83.7529462 L148.766412,328.606357 Z" id="Fill-11" fill="#303E51" mask="url(#mask-2)"></path>
            <path d="M30.7965508,273.804319 C29.3365075,273.804319 28.0933023,274.784452 27.8427338,276.136052 L27.5375543,277.8442 L25.8108804,278.427507 C23.3035894,279.222653 21.6411639,281.381335 21.6411639,283.808546 C21.6411639,286.923492 24.3685055,289.456623 27.7222682,289.456623 L56.1650034,289.456623 C59.0947272,289.456623 61.4783402,287.244235 61.4783402,284.523133 C61.4783402,281.848278 59.0449347,279.588152 56.1650034,279.588152 L52.9397373,279.588152 L53.1003581,276.594045 L53.0987519,276.453813 C53.0987519,271.890298 49.1635417,268.235309 44.3272488,268.235309 C40.9509991,268.235309 37.8365614,270.009097 36.390974,272.754069 L34.9726921,275.384169 L32.1537967,274.075832 C31.7313639,273.901288 31.2655636,273.804319 30.7965508,273.804319 M56.2421014,293.867971 L27.7222682,293.867971 C21.7487799,293.867971 16.89,289.355178 16.89,283.808546 C16.89,279.802976 19.4567207,276.212136 23.3646253,274.630794 C24.3668993,271.591931 27.3592652,269.464579 30.7965508,269.464579 C31.5418314,269.464579 32.2292885,269.585417 32.826798,269.746535 C35.2859027,266.061709 39.5712663,263.823961 44.3272488,263.823961 C47.9637042,263.823961 51.3768967,265.147216 53.9339802,267.55205 C56.1858841,269.665976 57.5126121,272.382603 57.7374812,275.290184 C62.54165,275.994328 66.2278979,279.865633 66.2278979,284.523133 C66.2278979,289.675922 61.7481831,293.867971 56.2421014,293.867971" id="Fill-3-Copy" fill="#303E51" mask="url(#mask-2)"></path>
            <polygon id="Fill-13" fill="#303E51" mask="url(#mask-2)" points="196.621412 113.644958 310.596468 113.644958 310.596468 106.285954 196.621412 106.285954"></polygon>
            <polygon id="Fill-14" fill="#303E51" mask="url(#mask-2)" points="167.533079 113.644958 174.886366 113.644958 174.886366 106.285954 167.533079 106.285954"></polygon>
            <polygon id="Fill-15" fill="#303E51" mask="url(#mask-2)" points="181.608079 113.644958 188.961366 113.644958 188.961366 106.285954 181.608079 106.285954"></polygon>
            <path d="M79.4692981,74.2232664 C78.4511882,74.2232664 77.4947819,74.857562 77.134053,75.8719599 C76.6772088,77.1583684 77.3523889,78.5778127 78.6386723,79.0351233 C79.2604551,79.2560577 79.933262,79.2227987 80.5301259,78.9377221 C81.1258033,78.6538332 81.5767145,78.154949 81.7986102,77.5313438 L81.7986102,77.5301559 C82.0193194,76.9065507 81.9849077,76.2342448 81.7024949,75.6367716 C81.4188956,75.0392984 80.9193335,74.5891148 80.2951775,74.3669926 C80.0222576,74.2695914 79.7434046,74.2232664 79.4692981,74.2232664 M79.4716713,83.926564 C78.657658,83.926564 77.8400849,83.7875891 77.0509904,83.5060759 C73.3024948,82.1721546 71.3362848,78.0337914 72.668846,74.2826574 C74.0014071,70.5279599 78.1379236,68.5585551 81.8828594,69.8960399 C83.6983701,70.5422137 85.1555251,71.8571299 85.9825911,73.5996612 C86.8108437,75.3410046 86.9105188,77.3020946 86.2650039,79.1206463 C85.6206756,80.9380101 84.3059136,82.3942768 82.5651592,83.2233749 C81.5814609,83.6913758 80.5301259,83.926564 79.4716713,83.926564" id="Fill-20" fill="#303E51" mask="url(#mask-2)"></path>
            <path d="M503.592912,203.786904 C502.228312,203.786904 501.117647,204.898703 501.117647,206.263507 C501.117647,207.6295 502.228312,208.741299 503.592912,208.741299 C504.957511,208.741299 506.068177,207.6295 506.068177,206.263507 C506.068177,204.898703 504.957511,203.786904 503.592912,203.786904 M503.592912,213.486638 C499.614214,213.486638 496.378333,210.246266 496.378333,206.263507 C496.378333,202.281936 499.614214,199.041565 503.592912,199.041565 C507.571609,199.041565 510.80749,202.281936 510.80749,206.263507 C510.80749,210.246266 507.571609,213.486638 503.592912,213.486638" id="Fill-21" fill="#303E51" mask="url(#mask-2)"></path>
            <path d="M100.094992,210.202481 L104.451031,211.545904 L103.434108,207.098708 L100.094992,210.202481 Z M107.676233,217.394728 C107.442471,217.394728 107.207522,217.360281 106.978507,217.2902 L94.7766139,213.528375 C93.967347,213.278933 93.3514973,212.614942 93.1628266,211.789407 C92.9741559,210.963873 93.2411428,210.097952 93.8605523,209.52186 L103.218145,200.823458 C103.837555,200.247365 104.718018,200.044248 105.528472,200.294878 C106.338925,200.54432 106.952402,201.208311 107.141072,202.033846 L109.986559,214.492885 C110.17523,215.320795 109.90943,216.18434 109.288833,216.760432 C108.843855,217.173793 108.265977,217.394728 107.676233,217.394728 L107.676233,217.394728 Z" id="Fill-22" fill="#303E51" mask="url(#mask-2)"></path>
            <path d="M29.6024121,117.831365 L33.255979,120.556223 L33.7875795,116.02588 L29.6024121,117.831365 Z M35.1320067,127.287597 C34.6300714,127.287597 34.1316959,127.127241 33.716383,126.81722 L23.4783266,119.180728 C22.7995867,118.674717 22.441231,117.844431 22.5409061,117.002267 C22.6393945,116.160103 23.1793013,115.434346 23.9565298,115.09938 L35.682593,110.041645 C36.4562616,109.70668 37.3568973,109.812396 38.0356373,110.318407 C38.7155638,110.825606 39.0727329,111.655892 38.9730578,112.498056 L37.4862376,125.191095 C37.3877491,126.033259 36.8466557,126.759017 36.0694273,127.093982 C35.7680288,127.223454 35.4500178,127.287597 35.1320067,127.287597 L35.1320067,127.287597 Z" id="Fill-23" fill="#303E51" mask="url(#mask-2)"></path>
            <path d="M432.142956,158.203003 L435.796523,160.927861 L436.328124,156.397518 L432.142956,158.203003 Z M437.672551,167.659235 C437.170615,167.659235 436.67224,167.498879 436.256927,167.188858 L426.018871,159.552366 C425.340131,159.046355 424.981775,158.21607 425.08145,157.373905 C425.179939,156.531741 425.719845,155.805984 426.497074,155.471019 L438.223137,150.413283 C438.996806,150.078318 439.897441,150.184034 440.576181,150.690045 C441.256108,151.197244 441.613277,152.02753 441.513602,152.869694 L440.026782,165.562733 C439.928293,166.404897 439.3872,167.130655 438.609971,167.46562 C438.308573,167.595092 437.990562,167.659235 437.672551,167.659235 L437.672551,167.659235 Z" id="Fill-23-Copy" fill="#303E51" mask="url(#mask-2)"></path>
            <path d="M95.2532114,126.453617 C94.2873123,126.453617 93.3795569,125.857332 93.0271343,124.895198 L88.3483377,112.09763 C87.8986132,110.865862 88.5298888,109.503433 89.759215,109.053249 C90.986168,108.606629 92.3495809,109.234985 92.8004921,110.466754 L97.4792886,123.264322 C97.9290131,124.496091 97.2977375,125.85852 96.0684113,126.308703 C95.7990512,126.406104 95.5249447,126.453617 95.2532114,126.453617" id="Fill-24" fill="#303E51" mask="url(#mask-2)"></path>
            <path d="M464.018211,122.698116 C463.052312,122.698116 462.144557,122.101831 461.792134,121.139697 L457.113338,108.342129 C456.663613,107.11036 457.294889,105.747931 458.524215,105.297748 C459.751168,104.851128 461.114581,105.479484 461.565492,106.711253 L466.244289,119.508821 C466.694013,120.740589 466.062738,122.103018 464.833411,122.553202 C464.564051,122.650603 464.289945,122.698116 464.018211,122.698116" id="Fill-24-Copy" fill="#303E51" mask="url(#mask-2)"></path>
            <path d="M86.8210816,122.094648 C85.8551824,122.094648 84.9474271,121.498363 84.5950044,120.536229 C84.1452798,119.306836 84.7765555,117.943219 86.0058817,117.493035 L98.7915861,112.808275 C100.018539,112.362843 101.381952,112.990012 101.831677,114.22178 C102.281401,115.451174 101.650125,116.81479 100.420799,117.264974 L87.6362815,121.949734 C87.3669214,122.047135 87.0928149,122.094648 86.8210816,122.094648" id="Fill-25" fill="#303E51" mask="url(#mask-2)"></path>
            <path d="M455.586082,118.339147 C454.620182,118.339147 453.712427,117.742861 453.360004,116.780728 C452.91028,115.551334 453.541555,114.187718 454.770882,113.737534 L467.556586,109.052774 C468.783539,108.607342 470.146952,109.23451 470.596677,110.466279 C471.046401,111.695672 470.415125,113.059289 469.185799,113.509473 L456.401281,118.194233 C456.131921,118.291634 455.857815,118.339147 455.586082,118.339147" id="Fill-25-Copy" fill="#303E51" mask="url(#mask-2)"></path>
            <path d="M83.2704292,182.451097 C82.589316,182.451097 81.9129493,182.158893 81.4454256,181.593491 L72.7547064,171.102669 C71.9181476,170.09421 72.0581674,168.598746 73.0644112,167.762521 C74.0718417,166.925108 75.5681547,167.065271 76.4023404,168.073729 L85.0930595,178.564551 C85.9296184,179.57301 85.7895986,181.068475 84.7821682,181.9047 C84.3395633,182.272924 83.8032163,182.451097 83.2704292,182.451097" id="Fill-26" fill="#303E51" mask="url(#mask-2)"></path>
            <path d="M73.6848887,181.5556 C73.0037755,181.5556 72.3274088,181.263396 71.8598851,180.697994 C71.0233263,179.689535 71.163346,178.194071 72.1707765,177.357846 L82.6497144,168.657068 C83.6559582,167.820843 85.1510847,167.95863 85.9864569,168.969464 C86.8230158,169.977923 86.682996,171.473388 85.6755656,172.309613 L75.1966277,181.009203 C74.7540228,181.377427 74.2176758,181.5556 73.6848887,181.5556" id="Fill-27" fill="#303E51" mask="url(#mask-2)"></path>
            <path d="M486.826551,37.2077416 C485.366507,37.2077416 484.123302,38.1878754 483.872734,39.5394755 L483.567554,41.2476234 L481.84088,41.8309298 C479.333589,42.6260764 477.671164,44.7847577 477.671164,47.2119687 C477.671164,50.3269145 480.398505,52.8600457 483.752268,52.8600457 L512.195003,52.8600457 C515.124727,52.8600457 517.50834,50.6476584 517.50834,47.9265564 C517.50834,45.2517012 515.074935,42.9915753 512.195003,42.9915753 L508.969737,42.9915753 L509.130358,39.997468 L509.128752,39.8572357 C509.128752,35.2937209 505.193542,31.6387318 500.357249,31.6387318 C496.980999,31.6387318 493.866561,33.4125204 492.420974,36.1574917 L491.002692,38.787592 L488.183797,37.4792551 C487.761364,37.3047107 487.295564,37.2077416 486.826551,37.2077416 M512.272101,57.2713936 L483.752268,57.2713936 C477.77878,57.2713936 472.92,52.7586011 472.92,47.2119687 C472.92,43.2063991 475.486721,39.6155589 479.394625,38.0342167 C480.396899,34.9953544 483.389265,32.8680016 486.826551,32.8680016 C487.571831,32.8680016 488.259288,32.98884 488.856798,33.1499579 C491.315903,29.4651322 495.601266,27.2273839 500.357249,27.2273839 C503.993704,27.2273839 507.406897,28.5506391 509.96398,30.9554727 C512.215884,33.069399 513.542612,35.7860255 513.767481,38.6936066 C518.57165,39.3977514 522.257898,43.2690561 522.257898,47.9265564 C522.257898,53.079345 517.778183,57.2713936 512.272101,57.2713936" id="Fill-3" fill="#303E51" mask="url(#mask-2)"></path>
            <path d="M495.271551,273.804319 C493.811507,273.804319 492.568302,274.784452 492.317734,276.136052 L492.012554,277.8442 L490.28588,278.427507 C487.778589,279.222653 486.116164,281.381335 486.116164,283.808546 C486.116164,286.923492 488.843505,289.456623 492.197268,289.456623 L520.640003,289.456623 C523.569727,289.456623 525.95334,287.244235 525.95334,284.523133 C525.95334,281.848278 523.519935,279.588152 520.640003,279.588152 L517.414737,279.588152 L517.575358,276.594045 L517.573752,276.453813 C517.573752,271.890298 513.638542,268.235309 508.802249,268.235309 C505.425999,268.235309 502.311561,270.009097 500.865974,272.754069 L499.447692,275.384169 L496.628797,274.075832 C496.206364,273.901288 495.740564,273.804319 495.271551,273.804319 M520.717101,293.867971 L492.197268,293.867971 C486.22378,293.867971 481.365,289.355178 481.365,283.808546 C481.365,279.802976 483.931721,276.212136 487.839625,274.630794 C488.841899,271.591931 491.834265,269.464579 495.271551,269.464579 C496.016831,269.464579 496.704288,269.585417 497.301798,269.746535 C499.760903,266.061709 504.046266,263.823961 508.802249,263.823961 C512.438704,263.823961 515.851897,265.147216 518.40898,267.55205 C520.660884,269.665976 521.987612,272.382603 522.212481,275.290184 C527.01665,275.994328 530.702898,279.865633 530.702898,284.523133 C530.702898,289.675922 526.223183,293.867971 520.717101,293.867971" id="Fill-3-Copy-2" fill="#303E51" mask="url(#mask-2)"></path>
            <path d="M251.059685,232.962465 C248.272861,230.290591 246.506565,226.570154 246.380401,222.445991 C245.993498,222.417955 245.615006,222.389918 245.216888,222.389918 L234.770505,222.389918 C226.073597,222.389918 219,229.460712 219,238.160424 L219,250.939439 L219.033644,251.141302 L219.916792,251.418863 C226.569843,253.49356 232.513571,254.455211 237.677886,254.752397 L237.677886,250.894581 C237.677886,242.424768 243.324427,235.255847 251.059685,232.962465 M239.999304,221.548825 C242.404832,221.548825 244.650552,220.842306 246.554227,219.64515 C247.154207,215.708832 249.265352,212.263151 252.279271,209.924911 C252.287682,209.692209 252.312914,209.46231 252.312914,209.226803 C252.312914,202.42516 246.798144,196.913193 239.999304,196.913193 C233.19766,196.913193 227.68289,202.42516 227.68289,209.226803 C227.68289,216.036858 233.19766,221.548825 239.999304,221.548825 M307.522299,209.992199 L297.146008,209.992199 C297.039469,214.144397 295.267565,217.881657 292.469527,220.564745 C300.19357,222.866538 305.845719,230.035459 305.845719,238.499665 L305.845719,242.435983 C316.084632,242.063098 321.991913,239.161325 322.376013,238.96507 L323.197481,238.55013 L323.290001,238.55013 L323.290001,225.762704 C323.290001,217.071403 316.2136,209.992199 307.522299,209.992199 M289.991105,196.64965 C293.87135,199.086018 296.596493,203.201769 297.089935,207.987592 C298.671191,208.727755 300.429076,209.153909 302.293501,209.153909 C309.095144,209.153909 314.609915,203.639138 314.609915,196.837494 C314.609915,190.035851 309.095144,184.523884 302.293501,184.523884 C295.556341,184.523884 290.089232,189.937723 289.991105,196.64965 M287.212692,222.389918 L276.839204,222.389918 C276.729862,226.539314 274.960762,230.276573 272.15992,232.962465 C279.886767,235.261454 285.538916,242.424768 285.538916,250.894581 L285.538916,254.833703 C295.777829,254.455211 301.68511,251.556241 302.069209,251.359986 L302.896284,250.939439 L302.983197,250.939439 L302.983197,238.154816 C302.983197,229.460712 295.912404,222.389918 287.212692,222.389918 M266.835798,235.101647 L256.381004,235.101647 C247.689703,235.101647 240.613302,242.178048 240.613302,250.872152 L240.613302,263.656775 L240.646946,263.855834 L241.530094,264.130591 C249.823277,266.721159 257.034253,267.593093 262.966767,267.593093 C274.557037,267.593093 281.277375,264.284791 281.695118,264.074518 L282.516586,263.656775 L282.600695,263.656775 L282.600695,250.872152 C282.600695,242.178048 275.529902,235.101647 266.835798,235.101647 M261.609803,234.263357 C268.411446,234.263357 273.923413,228.748586 273.923413,221.946942 C273.923413,215.145299 268.411446,209.630528 261.609803,209.630528 C254.808159,209.630528 249.287781,215.145299 249.287781,221.946942 C249.287781,228.748586 254.808159,234.263357 261.609803,234.263357 M269.684301,209.044566 C273.561743,211.480934 276.28969,215.599489 276.783131,220.382508 C278.364387,221.117063 280.122273,221.548825 281.986697,221.548825 C288.788341,221.548825 294.303111,216.028447 294.303111,209.226803 C294.303111,202.42516 288.788341,196.913193 281.986697,196.913193 C275.249537,196.913193 269.779625,202.327032 269.684301,209.044566 M267.418956,207.841803 C267.547923,204.934422 268.554432,202.237315 270.163725,200.011221 C269.031052,199.775715 267.864735,199.649551 266.661971,199.649551 L255.321226,199.649551 C254.124069,199.649551 252.957753,199.775715 251.830687,200.005614 C253.552126,202.388712 254.572653,205.296093 254.592278,208.441783 C256.67819,207.292288 259.066896,206.639039 261.609803,206.639039 C263.676089,206.639039 265.635837,207.073604 267.418956,207.841803 M247.619612,185.367781 C247.619612,177.985783 253.608199,172 260.995804,172 C268.377802,172 274.363585,177.985783 274.363585,185.367781 C274.363585,192.749779 268.377802,198.735562 260.995804,198.735562 C253.608199,198.735562 247.619612,192.749779 247.619612,185.367781" id="Fill-9" fill="#303E51" mask="url(#mask-2)"></path>
        </g>
    </g>
</svg>