<?xml version="1.0" encoding="UTF-8"?>
<svg width="394px" height="244px" viewBox="0 0 394 244" version="1.1" xmlns="http://www.w3.org/2000/svg" xmlns:xlink="http://www.w3.org/1999/xlink">
    <!-- Generator: Sketch 53.1 (72631) - https://sketchapp.com -->
    <title>Group</title>
    <desc>Created with Sketch.</desc>
    <g id="Empty-screen-first-screen" stroke="none" stroke-width="1" fill="none" fill-rule="evenodd">
        <g id="Create-index" transform="translate(-1048.000000, -366.000000)" fill="#303E51">
            <g id="Group" transform="translate(1048.000000, 366.000000)">
                <path d="M330.245832,23.1884976 L330.258163,23.1884976 L330.245832,23.1884976 Z M325.498464,18.9294419 C325.123607,18.9294419 324.747516,19.0132913 324.397321,19.179757 C323.77708,19.4744629 323.308509,19.9935893 323.079156,20.6409559 C322.848569,21.2883225 322.884329,21.9862453 323.179035,22.6064842 C323.473742,23.226723 323.99287,23.6952931 324.640238,23.9258789 C325.9769,24.3993814 327.447967,23.6989924 327.92517,22.3635675 C328.399907,21.0269097 327.699516,19.55338 326.362855,19.0786445 C326.080479,18.978765 325.789471,18.9294419 325.498464,18.9294419 L325.498464,18.9294419 Z M325.493531,29 C324.663667,29 323.817772,28.860662 322.990374,28.5659561 C321.103757,27.895161 319.589532,26.5301423 318.730073,24.7224481 C317.870614,22.9122878 317.765802,20.8777071 318.437832,18.9898628 C319.107396,17.1032515 320.472419,15.5914964 322.281351,14.7308071 C324.090283,13.8713508 326.12487,13.765306 328.011486,14.4373342 C331.908027,15.8220822 333.951245,20.1181303 332.566493,24.0121945 L332.566493,24.0134276 C331.475215,27.0813287 328.577471,29 325.493531,29 L325.493531,29 Z" id="Fill-11"></path>
                <g transform="translate(124.000000, 42.000000)">
                    <path d="M6,143.998543 L144,143.998543 L144,36 L6,36 L6,143.998543 Z M6,30 L144,30 L144,6 L6,6 L6,30 Z M0,150 L150,150 L150,0 L0,0 L0,150 Z" id="Fill-11"></path>
                    <polygon id="Fill-13" points="39 21 132 21 132 15 39 15"></polygon>
                    <polygon id="Fill-14" points="15 21 21 21 21 15 15 15"></polygon>
                    <polygon id="Fill-15" points="27 21 33 21 33 15 27 15"></polygon>
                </g>
                <path d="M7.49938317,166.927638 C6.08191463,166.927638 4.92721441,168.082148 4.92721441,169.499383 C4.92721441,170.917852 6.08191463,172.072362 7.49938317,172.072362 C8.91808537,172.072362 10.0727856,170.917852 10.0727856,169.499383 C10.0727856,168.082148 8.91808537,166.927638 7.49938317,166.927638 M7.49938317,177 C3.36294103,177 0,173.635145 0,169.499383 C0,165.364855 3.36294103,162 7.49938317,162 C11.6358253,162 15,165.364855 15,169.499383 C15,173.635145 11.6358253,177 7.49938317,177" id="Fill-12"></path>
                <path d="M40.0157442,101.893718 L44.3855686,103.221085 L43.3663398,98.8270434 L40.0157442,101.893718 Z M47.6218582,109 C47.3872927,109 47.1515365,108.965965 46.9217337,108.896721 L34.6790812,105.17986 C33.8670321,104.933399 33.2490651,104.277345 33.0597457,103.461677 C32.8704263,102.64601 33.1383311,101.790439 33.7598702,101.221233 L43.1484439,92.6267977 C43.769983,92.0564174 44.6558547,91.8569016 45.4667132,92.1045359 C46.279953,92.3509965 46.8955386,93.0070513 47.084858,93.8227187 L49.9401274,106.132841 C50.1294468,106.950856 49.8627327,107.804079 49.240003,108.373286 C48.793495,108.781706 48.2136301,109 47.6218582,109 L47.6218582,109 Z" id="Fill-13"></path>
                <path d="M384.307901,136.239673 L388.080163,139.052157 L388.629034,134.376126 L384.307901,136.239673 Z M390.017138,146 C389.498896,146 388.98433,145.834488 388.555525,145.514497 L377.984859,137.632429 C377.284069,137.110145 376.914071,136.253159 377.016984,135.383912 C377.118673,134.514666 377.67612,133.765569 378.478598,133.419832 L390.585612,128.199448 C391.38564,127.853711 392.31431,127.962827 393.0151,128.48511 C393.717116,129.00862 394.085889,129.865606 393.982975,130.734853 L392.447852,143.836079 C392.346164,144.705325 391.787492,145.454422 390.985013,145.800159 C390.673823,145.933795 390.345481,146 390.017138,146 L390.017138,146 Z" id="Fill-14"></path>
                <path d="M85.4831847,18 C84.4579185,18 83.4943698,17.3882189 83.1202861,16.4010821 L78.1539168,3.27094409 C77.6765508,2.00716526 78.3466265,0.609330815 79.6515108,0.147448291 C80.953876,-0.310778171 82.4010884,0.333907463 82.8797139,1.5976863 L87.8460832,14.7278243 C88.3234492,15.9916032 87.6533735,17.3894376 86.3484892,17.8513201 C86.0625734,17.9512525 85.7716195,18 85.4831847,18" id="Fill-15"></path>
                <path d="M76.4351141,14 C75.4431302,14 74.5108604,13.3676458 74.1489203,12.3473134 C73.6870507,11.0435554 74.3353743,9.59745464 75.5978992,9.12003985 L88.7288897,4.15190282 C89.9901959,3.67952671 91.38921,4.34463228 91.8510797,5.65090969 C92.3129493,6.95466775 91.6646257,8.40076849 90.4021008,8.87818328 L77.272329,13.8463203 C76.9956947,13.9496132 76.7141857,14 76.4351141,14" id="Fill-16"></path>
                <path d="M196.530678,244 C195.82072,244 195.115708,243.712313 194.628384,243.15565 L185.569606,232.826986 C184.697618,231.834115 184.843568,230.361766 185.892427,229.538466 C186.94376,228.713998 188.500969,228.851994 189.37172,229.844865 L198.430499,240.173529 C199.302486,241.1664 199.156537,242.638749 198.106441,243.462049 C197.645091,243.824581 197.086029,244 196.530678,244" id="Fill-17"></path>
                <path d="M186.492816,244 C185.776819,244 185.065812,243.69574 184.574344,243.107009 C183.694941,242.056941 183.842132,240.499773 184.901158,239.629045 L195.918022,230.56927 C196.977048,229.698543 198.548747,229.842015 199.425656,230.894556 C200.305059,231.944625 200.157868,233.501793 199.098842,234.372521 L188.081978,243.431059 C187.616705,243.814476 187.052889,244 186.492816,244" id="Fill-18"></path>
                <path d="M172,146.607477 L176.40625,151 L182,145.392523 L177.59375,141 L172,146.607477 L172,146.607477 Z M195,158 L201,158 L201,149 L195,149 L195,158 L195,158 Z M174,123 L165,123 L165,129 L174,129 L174,123 L174,123 Z M207,110.82875 L207,97 L189,97 L189,110.82875 C183.63,113.81875 180,119.3675 180,125.75 C180,135.26625 188.07,143 198,143 C207.93,143 216,135.26625 216,125.75 C216,119.3675 212.37,113.81875 207,110.82875 L207,110.82875 Z M221,123 L221,129 L230,129 L230,123 L221,123 L221,123 Z M213,145.375 L218.59375,151 L223,146.59375 L217.375,141 L213,145.375 L213,145.375 Z" id="Shape" fill-rule="nonzero"></path>
            </g>
        </g>
    </g>
</svg>