<?xml version="1.0" encoding="UTF-8" standalone="no"?>
<svg
   xmlns:dc="http://purl.org/dc/elements/1.1/"
   xmlns:cc="http://creativecommons.org/ns#"
   xmlns:rdf="http://www.w3.org/1999/02/22-rdf-syntax-ns#"
   xmlns:svg="http://www.w3.org/2000/svg"
   xmlns="http://www.w3.org/2000/svg"
   xmlns:sodipodi="http://sodipodi.sourceforge.net/DTD/sodipodi-0.dtd"
   xmlns:inkscape="http://www.inkscape.org/namespaces/inkscape"
   width="394px"
   height="244px"
   viewBox="0 0 394 244"
   version="1.1"
   id="svg35"
   sodipodi:docname="harvester-space-new.svg"
   inkscape:version="0.92.3 (2405546, 2018-03-11)">
  <metadata
     id="metadata39">
    <rdf:RDF>
      <cc:Work
         rdf:about="">
        <dc:format>image/svg+xml</dc:format>
        <dc:type
           rdf:resource="http://purl.org/dc/dcmitype/StillImage" />
        <dc:title>Group</dc:title>
      </cc:Work>
    </rdf:RDF>
  </metadata>
  <sodipodi:namedview
     pagecolor="#ffffff"
     bordercolor="#666666"
     borderopacity="1"
     objecttolerance="10"
     gridtolerance="10"
     guidetolerance="10"
     inkscape:pageopacity="0"
     inkscape:pageshadow="2"
     inkscape:window-width="1920"
     inkscape:window-height="1052"
     id="namedview37"
     showgrid="false"
     inkscape:zoom="1.9344262"
     inkscape:cx="336.02606"
     inkscape:cy="124.43242"
     inkscape:window-x="0"
     inkscape:window-y="0"
     inkscape:window-maximized="1"
     inkscape:current-layer="svg35" />
  <!-- Generator: Sketch 48.2 (47327) - http://www.bohemiancoding.com/sketch -->
  <title
     id="title2">Group</title>
  <desc
     id="desc4">Created with Sketch.</desc>
  <defs
     id="defs6" />
  <path
     style="fill:#303e51;fill-rule:evenodd;stroke:none;stroke-width:1"
     d="m 330.24583,23.188498 h 0.0123 z m -4.74737,-4.259056 c -0.37485,0 -0.75094,0.08385 -1.10114,0.250315 -0.62024,0.294706 -1.08881,0.813832 -1.31816,1.461199 -0.23059,0.647366 -0.19483,1.345289 0.0999,1.965528 0.29471,0.620239 0.81384,1.088809 1.46121,1.319395 1.33666,0.473502 2.80773,-0.226887 3.28493,-1.562312 0.47474,-1.336657 -0.22565,-2.810187 -1.56231,-3.284923 -0.28238,-0.09988 -0.57339,-0.149202 -0.8644,-0.149202 z M 325.49353,29 c -0.82986,0 -1.67576,-0.139338 -2.50316,-0.434044 -1.88661,-0.670795 -3.40084,-2.035814 -4.2603,-3.843508 -0.85946,-1.81016 -0.96427,-3.844741 -0.29224,-5.732585 0.66957,-1.886612 2.03459,-3.398367 3.84352,-4.259056 1.80893,-0.859456 3.84352,-0.965501 5.73014,-0.293473 3.89654,1.384748 5.93975,5.680796 4.555,9.57486 v 0.0012 C 331.47521,27.081329 328.57747,29 325.49353,29 Z"
     id="Fill-11"
     inkscape:connector-curvature="0" />
  <path
     style="fill:#303e51;fill-rule:evenodd;stroke:none;stroke-width:1"
     inkscape:connector-curvature="0"
     id="Fill-5"
     d="m 236.51924,152 c -4.33938,0 -8.04987,2.56604 -9.79907,6.26924 -0.77077,-0.35573 -1.61027,-0.64151 -2.51998,-0.64151 -2.80078,0 -5.03994,2.06593 -5.52989,4.77337 -3.29073,1.14014 -5.6703,4.34471 -5.6703,8.0494 0,4.70341 3.78069,8.5495 8.39941,8.5495 h 25.97047 c 4.20044,0 7.63012,-3.49035 7.63012,-7.83655 0,-4.34619 -3.42968,-7.83655 -7.70032,-7.83655 v -0.35573 C 247.36988,156.91626 242.46889,152 236.51924,152 m 0,1.42442 c 5.18035,0 9.45099,4.3462 9.45099,9.61819 v 0.0714 0.21284 l -0.0702,1.42442 h 1.39966 c 3.42968,0 6.30066,2.92029 6.30066,6.41213 0,3.49035 -2.80078,6.41213 -6.30066,6.41213 h -0.27934 -25.62093 c -3.84942,0 -6.99975,-3.20755 -6.99975,-7.12508 0,-3.06318 1.89107,-5.76913 4.76059,-6.76638 l 0.7693,-0.28577 0.14041,-0.85436 c 0.34955,-2.06742 2.09875,-3.56328 4.13023,-3.56328 0.63036,0 1.25926,0.14288 1.88962,0.42866 l 1.25925,0.64002 0.63036,-1.28153 c 1.54006,-3.20457 4.901,-5.34344 8.53982,-5.34344" />
  <path
     style="fill:#303e51;fill-rule:evenodd;stroke:none;stroke-width:1"
     inkscape:connector-curvature="0"
     id="Fill-7"
     d="m 223.68386,159.63355 c -1.33168,0 -2.46558,0.94607 -2.69412,2.2507 l -0.27834,1.6488 -1.57486,0.56303 c -2.28685,0.76752 -3.80457,2.85119 -3.80457,5.19405 0,3.00671 2.48754,5.45181 5.54644,5.45181 h 25.94345 c 2.67213,0 4.84617,-2.13551 4.84617,-4.76205 0,-2.58191 -2.21945,-4.76349 -4.84617,-4.76349 h -2.9417 l 0.1465,-2.89007 -0.001,-0.13536 c 0,-4.40493 -3.58922,-7.93291 -8.00176,-7.93291 -3.0794,0 -5.92001,1.71215 -7.2385,4.36173 l -1.29065,2.54015 -2.57252,-1.26432 c -0.38529,-0.16847 -0.81014,-0.26207 -1.23791,-0.26207 M 246.89218,179 H 220.87841 C 215.43158,179 211,174.64402 211,169.29013 c 0,-3.86637 2.34105,-7.33244 5.90536,-8.85883 0.91415,-2.93326 3.64342,-4.98669 6.7785,-4.98669 0.67975,0 1.30676,0.11664 1.85174,0.27216 2.24143,-3.55678 6.14855,-5.71677 10.48784,-5.71677 3.31819,0 6.43129,1.27727 8.76355,3.59998 2.05391,2.04047 3.26399,4.66125 3.46909,7.4678 4.38177,0.67968 7.74392,4.41645 7.74392,8.91211 0,4.97373 -4.08585,9.02011 -9.10782,9.02011" />
  <path
     style="fill:#303e51;fill-rule:evenodd;stroke:none;stroke-width:1"
     inkscape:connector-curvature="0"
     id="path11"
     d="m 159.68386,159.63355 c -1.33168,0 -2.46558,0.94607 -2.69412,2.2507 l -0.27834,1.6488 -1.57486,0.56303 c -2.28685,0.76752 -3.80457,2.85119 -3.80457,5.19405 0,3.00671 2.48754,5.45181 5.54644,5.45181 h 25.94345 c 2.67213,0 4.84617,-2.13551 4.84617,-4.76205 0,-2.58191 -2.21945,-4.76349 -4.84617,-4.76349 h -2.9417 l 0.1465,-2.89007 -0.001,-0.13536 c 0,-4.40493 -3.58922,-7.93291 -8.00176,-7.93291 -3.0794,0 -5.92001,1.71215 -7.2385,4.36173 l -1.29065,2.54015 -2.57252,-1.26432 c -0.38529,-0.16847 -0.81013,-0.26207 -1.23791,-0.26207 M 182.89218,179 H 156.87841 C 151.43158,179 147,174.64402 147,169.29013 c 0,-3.86637 2.34105,-7.33244 5.90536,-8.85883 0.91415,-2.93326 3.64342,-4.98669 6.7785,-4.98669 0.67975,0 1.30676,0.11664 1.85174,0.27216 2.24143,-3.55678 6.14855,-5.71677 10.48784,-5.71677 3.31819,0 6.43129,1.27727 8.76355,3.59998 2.05391,2.04047 3.26399,4.66125 3.46909,7.4678 4.38177,0.67968 7.74392,4.41645 7.74392,8.91211 0,4.97373 -4.08585,9.02011 -9.10782,9.02011" />
  <path
     style="fill:#303e51;fill-rule:evenodd;stroke:none;stroke-width:1"
     inkscape:connector-curvature="0"
     id="path14"
     d="M 130,185.99854 H 268 V 78 H 130 Z M 130,72 H 268 V 48 H 130 Z m -6,120 H 274 V 42 H 124 Z" />
  <polygon
     style="fill:#303e51;fill-rule:evenodd;stroke:none;stroke-width:1"
     points="132,15 39,15 39,21 132,21 "
     id="Fill-13"
     transform="translate(124,42)" />
  <polygon
     style="fill:#303e51;fill-rule:evenodd;stroke:none;stroke-width:1"
     points="21,15 15,15 15,21 21,21 "
     id="Fill-14"
     transform="translate(124,42)" />
  <polygon
     style="fill:#303e51;fill-rule:evenodd;stroke:none;stroke-width:1"
     points="33,15 27,15 27,21 33,21 "
     id="Fill-15"
     transform="translate(124,42)" />
  <path
     style="fill:#303e51;fill-rule:evenodd;stroke:none;stroke-width:1"
     inkscape:connector-curvature="0"
     id="Fill-38"
     d="m 190.23657,153 c -0.57266,0 -1.14531,-0.21772 -1.58226,-0.65466 -0.87241,-0.87388 -0.87241,-2.29056 0,-3.16444 l 8.52723,-8.52549 c 0.8739,-0.87388 2.28914,-0.87388 3.16303,0 0.8739,0.87387 0.8739,2.28907 0,3.16294 l -8.52573,8.52699 C 191.38189,152.78228 190.80923,153 190.23657,153" />
  <path
     style="fill:#303e51;fill-rule:evenodd;stroke:none;stroke-width:1"
     inkscape:connector-curvature="0"
     id="Fill-39"
     d="m 213.76343,153 c -0.57266,0 -1.14532,-0.21772 -1.58227,-0.65466 l -8.52574,-8.52699 c -0.8739,-0.87387 -0.8739,-2.28907 0,-3.16294 0.8739,-0.87388 2.28914,-0.87388 3.16304,0 l 8.52723,8.52549 c 0.87241,0.87388 0.87241,2.29056 0,3.16444 -0.43695,0.43694 -1.0096,0.65466 -1.58226,0.65466" />
  <path
     style="fill:#303e51;fill-rule:evenodd;stroke:none;stroke-width:1"
     d="m 7.4993832,166.92764 c -1.4174686,0 -2.5721688,1.15451 -2.5721688,2.57174 0,1.41847 1.1547002,2.57298 2.5721688,2.57298 1.4187022,0 2.5734028,-1.15451 2.5734028,-2.57298 0,-1.41723 -1.1547006,-2.57174 -2.5734028,-2.57174 m 0,10.07236 C 3.362941,177 0,173.63514 0,169.49938 0,165.36485 3.362941,162 7.4993832,162 11.635825,162 15,165.36485 15,169.49938 15,173.63514 11.635825,177 7.4993832,177"
     id="Fill-12"
     inkscape:connector-curvature="0" />
  <path
     style="fill:#303e51;fill-rule:evenodd;stroke:none;stroke-width:1"
     d="m 40.015744,101.89372 4.369825,1.32737 -1.019229,-4.394047 z M 47.621858,109 c -0.234565,0 -0.470322,-0.034 -0.700124,-0.10328 l -12.242653,-3.71686 c -0.812049,-0.24646 -1.430016,-0.90252 -1.619335,-1.71818 -0.18932,-0.81567 0.07859,-1.67124 0.700124,-2.24045 l 9.388574,-8.594432 c 0.621539,-0.570381 1.507411,-0.769896 2.318269,-0.522262 0.81324,0.24646 1.428826,0.902515 1.618145,1.718183 l 2.855269,12.310121 c 0.18932,0.81802 -0.07739,1.67124 -0.700124,2.24045 C 48.793495,108.78171 48.21363,109 47.621858,109 Z"
     id="path24"
     inkscape:connector-curvature="0" />
  <path
     style="fill:#303e51;fill-rule:evenodd;stroke:none;stroke-width:1"
     d="m 384.3079,136.23967 3.77226,2.81249 0.54887,-4.67603 z M 390.01714,146 c -0.51824,0 -1.03281,-0.16551 -1.46162,-0.4855 l -10.57066,-7.88207 c -0.70079,-0.52229 -1.07079,-1.37927 -0.96788,-2.24852 0.10169,-0.86924 0.65914,-1.61834 1.46162,-1.96408 l 12.10701,-5.22038 c 0.80003,-0.34574 1.7287,-0.23662 2.42949,0.28566 0.70202,0.52351 1.07079,1.3805 0.96787,2.24974 l -1.53512,13.10123 c -0.10169,0.86924 -0.66036,1.61834 -1.46284,1.96408 C 390.67382,145.93379 390.34548,146 390.01714,146 Z"
     id="path26"
     inkscape:connector-curvature="0" />
  <path
     style="fill:#303e51;fill-rule:evenodd;stroke:none;stroke-width:1"
     d="M 85.483185,18 C 84.457919,18 83.49437,17.388219 83.120286,16.401082 L 78.153917,3.2709441 c -0.477366,-1.2637788 0.192709,-2.66161329 1.497594,-3.12349581 1.302365,-0.45822646 2.749577,0.18645917 3.228203,1.45023801 l 4.966369,13.1301377 c 0.477366,1.263779 -0.19271,2.661614 -1.497594,3.123496 C 86.062573,17.951252 85.771619,18 85.483185,18"
     id="path28"
     inkscape:connector-curvature="0" />
  <path
     style="fill:#303e51;fill-rule:evenodd;stroke:none;stroke-width:1"
     d="M 76.435114,14 C 75.44313,14 74.51086,13.367646 74.14892,12.347313 73.687051,11.043555 74.335374,9.5974546 75.597899,9.1200399 L 88.72889,4.1519028 c 1.261306,-0.4723761 2.66032,0.1927295 3.12219,1.4990069 0.461869,1.303758 -0.186454,2.7498588 -1.448979,3.2272736 L 77.272329,13.84632 C 76.995695,13.949613 76.714186,14 76.435114,14"
     id="Fill-16"
     inkscape:connector-curvature="0" />
  <path
     style="fill:#303e51;fill-rule:evenodd;stroke:none;stroke-width:1"
     d="m 196.53068,244 c -0.70996,0 -1.41497,-0.28769 -1.9023,-0.84435 l -9.05877,-10.32866 c -0.87199,-0.99288 -0.72604,-2.46522 0.32282,-3.28852 1.05133,-0.82447 2.60854,-0.68648 3.47929,0.30639 l 9.05878,10.32867 c 0.87199,0.99287 0.72604,2.46522 -0.32406,3.28852 C 197.64509,243.82458 197.08603,244 196.53068,244"
     id="Fill-17"
     inkscape:connector-curvature="0" />
  <path
     style="fill:#303e51;fill-rule:evenodd;stroke:none;stroke-width:1"
     d="m 186.49282,244 c -0.716,0 -1.42701,-0.30426 -1.91848,-0.89299 -0.8794,-1.05007 -0.73221,-2.60724 0.32682,-3.47797 l 11.01686,-9.05977 c 1.05903,-0.87073 2.63073,-0.72726 3.50764,0.32529 0.8794,1.05006 0.73221,2.60723 -0.32682,3.47796 l -11.01686,9.05854 C 187.6167,243.81448 187.05289,244 186.49282,244"
     id="Fill-18"
     inkscape:connector-curvature="0" />
  <g
     id="Page-1"
     transform="matrix(1.7745506,0,0,1.7745506,176.79219,86.483395)"
     style="fill:#303e51;fill-opacity:1;fill-rule:evenodd;stroke:none;stroke-width:1">
    <g
       transform="translate(-27,-723)"
       id="First-screen--Join-a-group-Copy-4"
       style="fill:#303e51;fill-opacity:1">
      <g
         transform="translate(-11)"
         id="Menu-Fix"
         style="fill:#303e51;fill-opacity:1">
        <g
           transform="translate(29,655)"
           id="Cluster"
           style="fill:#303e51;fill-opacity:1">
          <path
             id="Shape"
             d="m 12.286396,89.960859 1.817184,1.817184 2.306921,-2.319809 -1.817184,-1.817184 z M 21.887828,95 h 2.577566 V 91.198091 H 21.887828 Z M 12.866348,79.599045 H 9 v 2.577566 h 3.866348 z m 14.176611,-5.4 V 68 h -7.732697 v 6.199045 c -2.306921,1.340334 -3.866348,3.827685 -3.866348,6.688783 0,4.265871 3.466826,7.732697 7.732697,7.732697 4.265871,0 7.732697,-3.466826 7.732697,-7.732697 0,-2.861098 -1.559427,-5.348449 -3.866349,-6.688783 z m 6.443915,5.4 v 2.577566 h 3.866348 v -2.577566 z m -3.557041,9.872077 2.306921,2.319809 1.817184,-1.817184 -2.319809,-2.306921 z"
             inkscape:connector-curvature="0"
             style="fill:#303e51;fill-opacity:1" />
        </g>
      </g>
    </g>
  </g>
</svg>
