<?xml version="1.0" encoding="UTF-8" standalone="no"?>
<svg
   width="472.33749"
   height="233.9095"
   viewBox="0 0 472.33749 233.9095"
   version="1.1"
   id="svg31"
   sodipodi:docname="error-providers-version.svg"
   inkscape:version="1.1.2 (0a00cf5339, 2022-02-04)"
   xmlns:inkscape="http://www.inkscape.org/namespaces/inkscape"
   xmlns:sodipodi="http://sodipodi.sourceforge.net/DTD/sodipodi-0.dtd"
   xmlns="http://www.w3.org/2000/svg"
   xmlns:svg="http://www.w3.org/2000/svg"
   xmlns:rdf="http://www.w3.org/1999/02/22-rdf-syntax-ns#"
   xmlns:cc="http://creativecommons.org/ns#"
   xmlns:dc="http://purl.org/dc/elements/1.1/">
  <defs
     id="defs35" />
  <sodipodi:namedview
     id="namedview33"
     pagecolor="#ffffff"
     bordercolor="#666666"
     borderopacity="1.0"
     inkscape:pageshadow="2"
     inkscape:pageopacity="0.0"
     inkscape:pagecheckerboard="0"
     showgrid="false"
     fit-margin-top="0"
     fit-margin-left="0"
     fit-margin-right="0"
     fit-margin-bottom="0"
     inkscape:zoom="2.6046065"
     inkscape:cx="205.02137"
     inkscape:cy="81.202284"
     inkscape:window-width="2560"
     inkscape:window-height="1376"
     inkscape:window-x="0"
     inkscape:window-y="27"
     inkscape:window-maximized="1"
     inkscape:current-layer="svg31"
     width="472.33749px"
     height="233.9095px" />
  <!-- Generator: Sketch 59 (86127) - https://sketch.com -->
  <title
     id="title2">Page 1</title>
  <desc
     id="desc4">Created with Sketch.</desc>
  <path
     d="m 42.796519,189.26875 c -1.460043,0 -2.703249,0.98013 -2.953817,2.33173 l -0.30518,1.70815 -1.726674,0.58331 c -2.507291,0.79514 -4.169716,2.95382 -4.169716,5.38104 0,3.11494 2.727342,5.64807 6.081104,5.64807 h 28.442732 c 2.92973,0 5.31334,-2.21239 5.31334,-4.93349 0,-2.67485 -2.4334,-4.93498 -5.31334,-4.93498 h -3.22526 l 0.16062,-2.99411 -0.002,-0.14023 c 0,-4.56351 -3.935212,-8.2185 -8.771505,-8.2185 -3.37625,0 -6.490688,1.77379 -7.936275,4.51876 l -1.418282,2.6301 -2.818895,-1.30834 c -0.422433,-0.17454 -0.888233,-0.27151 -1.357246,-0.27151 M 68.241678,209.3324 H 39.722236 c -5.973488,0 -10.832268,-4.51279 -10.832268,-10.05942 0,-4.00557 2.566721,-7.59641 6.474625,-9.17776 1.002274,-3.03886 3.99464,-5.16621 7.431926,-5.16621 0.74528,0 1.432738,0.12084 2.030247,0.28195 2.459105,-3.68482 6.744468,-5.92257 11.500451,-5.92257 3.636455,0 7.049648,1.32326 9.606731,3.72809 2.2519,2.11393 3.57863,4.83055 3.8035,7.73813 4.80417,0.70415 8.49042,4.57545 8.49042,9.23295 0,5.15279 -4.47972,9.34484 -9.9858,9.34484"
     id="Fill-3-Copy"
     style="fill:#303e51;fill-rule:evenodd;stroke:none;stroke-width:1" />
  <path
     d="m 7.2176002,113.21092 c -1.018111,0 -1.974517,0.6343 -2.335246,1.6487 -0.456844,1.28641 0.218336,2.70585 1.50462,3.16316 0.621782,0.22094 1.294589,0.18768 1.891453,-0.0974 0.595678,-0.28389 1.046589,-0.78277 1.268485,-1.40638 v -0.001 c 0.220709,-0.6236 0.186297,-1.29591 -0.09611,-1.89338 -0.2836,-0.59747 -0.783162,-1.04766 -1.407318,-1.26978 -0.27292,-0.0974 -0.551773,-0.14373 -0.825879,-0.14373 m 0.0024,9.7033 c -0.814013,0 -1.631587,-0.13897 -2.420681,-0.42049 -3.748496,-1.33392 -5.71470598,-5.47228 -4.38214498,-9.22341 1.33256098,-3.7547 5.46907798,-5.72411 9.21401398,-4.38662 1.8155098,0.64617 3.2726648,1.96109 4.0997308,3.70362 0.828253,1.74134 0.927928,3.70243 0.282413,5.52098 -0.644328,1.81737 -1.95909,3.27363 -3.699844,4.10273 -0.9836988,0.468 -2.0350338,0.70319 -3.0934878,0.70319"
     id="Fill-20"
     style="fill:#303e51;fill-rule:evenodd;stroke:none;stroke-width:1" />
  <path
     d="m 360.21455,224.20977 c -1.3646,0 -2.47527,1.1118 -2.47527,2.4766 0,1.36599 1.11067,2.47779 2.47527,2.47779 1.3646,0 2.47526,-1.1118 2.47526,-2.47779 0,-1.3648 -1.11066,-2.4766 -2.47526,-2.4766 m 0,9.69973 c -3.9787,0 -7.21458,-3.24037 -7.21458,-7.22313 0,-3.98157 3.23588,-7.22194 7.21458,-7.22194 3.9787,0 7.21458,3.24037 7.21458,7.22194 0,3.98276 -3.23588,7.22313 -7.21458,7.22313"
     id="Fill-21"
     style="fill:#303e51;fill-rule:evenodd;stroke:none;stroke-width:1" />
  <path
     d="m 360.21455,133.20977 c -1.3646,0 -2.47527,1.1118 -2.47527,2.4766 0,1.36599 1.11067,2.47779 2.47527,2.47779 1.3646,0 2.47526,-1.1118 2.47526,-2.47779 0,-1.3648 -1.11066,-2.4766 -2.47526,-2.4766 m 0,9.69973 c -3.9787,0 -7.21458,-3.24037 -7.21458,-7.22313 0,-3.98157 3.23588,-7.22194 7.21458,-7.22194 3.9787,0 7.21458,3.24037 7.21458,7.22194 0,3.98276 -3.23588,7.22313 -7.21458,7.22313"
     id="Fill-21-Copy"
     style="fill:#303e51;fill-rule:evenodd;stroke:none;stroke-width:1" />
  <path
     d="m 116.09496,125.66691 4.35604,1.34342 -1.01692,-4.44719 z m 7.58124,7.19225 c -0.23376,0 -0.46871,-0.0345 -0.69772,-0.10453 l -12.2019,-3.76183 c -0.80926,-0.24944 -1.42511,-0.91343 -1.61378,-1.73896 -0.18867,-0.82554 0.0783,-1.69146 0.69772,-2.26755 l 9.3576,-8.6984 c 0.6194,-0.57609 1.49987,-0.77921 2.31032,-0.52858 0.81046,0.24944 1.42393,0.91343 1.6126,1.73897 l 2.84549,12.45903 c 0.18867,0.82791 -0.0771,1.69146 -0.69773,2.26755 -0.44497,0.41336 -1.02285,0.6343 -1.6126,0.6343 z"
     id="Fill-22"
     style="fill:#303e51;fill-rule:evenodd;stroke:none;stroke-width:1" />
  <path
     d="m 41.60238,33.295793 3.653567,2.724858 0.5316,-4.530343 z m 5.529595,9.456231 c -0.501936,0 -1.000311,-0.160355 -1.415624,-0.470376 L 35.478295,34.645156 c -0.67874,-0.506011 -1.037096,-1.336297 -0.937421,-2.178461 0.09849,-0.842164 0.638395,-1.567921 1.415624,-1.902886 l 11.726063,-5.057736 c 0.773669,-0.334965 1.674304,-0.229249 2.353044,0.276762 0.679927,0.507199 1.037096,1.337485 0.937421,2.179649 l -1.48682,12.693039 c -0.09849,0.842164 -0.639582,1.567922 -1.416811,1.902887 -0.301398,0.129472 -0.619409,0.193614 -0.93742,0.193614 z"
     id="Fill-23"
     style="fill:#303e51;fill-rule:evenodd;stroke:none;stroke-width:1" />
  <path
     d="m 398.14293,73.667431 3.65356,2.724859 0.5316,-4.530344 z m 5.52959,9.456232 c -0.50194,0 -1.00031,-0.160356 -1.41562,-0.470377 l -10.23806,-7.636491 c -0.67874,-0.506012 -1.03709,-1.336297 -0.93742,-2.178461 0.0985,-0.842165 0.6384,-1.567922 1.41562,-1.902887 l 11.72607,-5.057736 c 0.77367,-0.334965 1.6743,-0.229249 2.35304,0.276762 0.67993,0.507199 1.0371,1.337485 0.93742,2.179649 l -1.48682,12.693039 c -0.0985,0.842164 -0.63958,1.567922 -1.41681,1.902887 -0.3014,0.129472 -0.61941,0.193615 -0.93742,0.193615 z"
     id="Fill-23-Copy"
     style="fill:#303e51;fill-rule:evenodd;stroke:none;stroke-width:1" />
  <path
     d="m 336.117,10.97858 3.89509,-2.3667717 -4.00132,-2.1899877 z m 10.83908,-1.5845798 c -0.18803,0.4653912 -0.5234,0.8674008 -0.96642,1.1363338 l -10.91568,6.631884 c -0.72343,0.439761 -1.6275,0.460996 -2.371,0.05309 -0.74394,-0.406808 -1.2146,-1.179268 -1.23402,-2.025374 L 331.17217,2.4230548 c -0.0207,-0.8428144 0.41465,-1.6382622 1.13807,-2.0780238 0.72498,-0.44042006 1.6286,-0.46055178 2.3721,-0.0526499 l 11.21181,6.1334516 c 0.74394,0.4068078 1.21416,1.1803622 1.23358,2.0264774 0.007,0.3279543 -0.0525,0.6468364 -0.17165,0.9416901 z"
     id="Fill-23-Copy-2"
     style="fill:#303e51;fill-rule:evenodd;stroke:none;stroke-width:1" />
  <path
     d="m 107.25318,41.918045 c -0.9659,0 -1.87365,-0.596285 -2.22608,-1.558419 l -4.67879,-12.797568 c -0.44973,-1.231768 0.18155,-2.594197 1.41087,-3.044381 1.22696,-0.44662 2.59037,0.181736 3.04128,1.413505 l 4.6788,12.797568 c 0.44972,1.231769 -0.18155,2.594198 -1.41088,3.044381 -0.26936,0.0974 -0.54347,0.144914 -0.8152,0.144914"
     id="Fill-24"
     style="fill:#303e51;fill-rule:evenodd;stroke:none;stroke-width:1" />
  <path
     d="m 430.01818,38.162544 c -0.9659,0 -1.87365,-0.596286 -2.22608,-1.558419 l -4.67879,-12.797568 c -0.44973,-1.231769 0.18155,-2.594198 1.41088,-3.044381 1.22695,-0.44662 2.59036,0.181736 3.04127,1.413505 l 4.6788,12.797567 c 0.44972,1.231769 -0.18155,2.594198 -1.41088,3.044382 -0.26936,0.0974 -0.54347,0.144914 -0.8152,0.144914"
     id="Fill-24-Copy"
     style="fill:#303e51;fill-rule:evenodd;stroke:none;stroke-width:1" />
  <path
     d="m 98.82105,37.559076 c -0.9659,0 -1.87365,-0.596285 -2.22608,-1.558419 -0.44972,-1.229393 0.18155,-2.59301 1.41088,-3.043194 l 12.78571,-4.68476 c 1.22695,-0.445432 2.59036,0.181737 3.04009,1.413505 0.44972,1.229394 -0.18155,2.59301 -1.41088,3.043194 l -12.78452,4.68476 c -0.26936,0.0974 -0.54346,0.144914 -0.8152,0.144914"
     id="Fill-25"
     style="fill:#303e51;fill-rule:evenodd;stroke:none;stroke-width:1" />
  <path
     d="m 421.58605,33.803575 c -0.9659,0 -1.87365,-0.596286 -2.22608,-1.558419 -0.44972,-1.229393 0.18156,-2.59301 1.41088,-3.043194 l 12.78571,-4.68476 c 1.22695,-0.445432 2.59036,0.181736 3.04009,1.413505 0.44972,1.229393 -0.18156,2.59301 -1.41088,3.043194 l -12.78452,4.68476 c -0.26936,0.0974 -0.54346,0.144914 -0.8152,0.144914"
     id="Fill-25-Copy"
     style="fill:#303e51;fill-rule:evenodd;stroke:none;stroke-width:1" />
  <path
     d="m 77.2704,97.915525 c -0.68111,0 -1.35748,-0.292204 -1.825,-0.857606 L 66.754678,86.567097 c -0.83656,-1.008459 -0.69654,-2.503923 0.3097,-3.340148 1.00743,-0.837413 2.50374,-0.69725 3.337932,0.311208 l 8.69072,10.490822 c 0.83656,1.008459 0.69654,2.503924 -0.31089,3.340149 -0.44261,0.368224 -0.97895,0.546397 -1.51174,0.546397"
     id="Fill-26"
     style="fill:#303e51;fill-rule:evenodd;stroke:none;stroke-width:1" />
  <path
     d="m 67.684858,97.020028 c -0.68111,0 -1.35748,-0.292204 -1.82501,-0.857606 -0.83655,-1.008459 -0.69653,-2.503924 0.3109,-3.340148 L 76.64968,84.121496 c 1.00625,-0.836225 2.50137,-0.698438 3.33675,0.312396 0.83656,1.008459 0.69654,2.503924 -0.31089,3.340149 l -10.478942,8.69959 c -0.44261,0.368224 -0.97895,0.546397 -1.51174,0.546397"
     id="Fill-27"
     style="fill:#303e51;fill-rule:evenodd;stroke:none;stroke-width:1" />
  <path
     d="m 436.90652,150.44479 c -1.46004,0 -2.70325,0.98013 -2.95382,2.33173 l -0.30518,1.70815 -1.72667,0.58331 c -2.50729,0.79514 -4.16972,2.95382 -4.16972,5.38103 0,3.11495 2.72734,5.64808 6.08111,5.64808 h 28.44273 c 2.92973,0 5.31334,-2.21239 5.31334,-4.93349 0,-2.67485 -2.4334,-4.93498 -5.31334,-4.93498 h -3.22526 l 0.16062,-2.99411 -0.002,-0.14023 c 0,-4.56351 -3.93521,-8.2185 -8.7715,-8.2185 -3.37625,0 -6.49069,1.77379 -7.93628,4.51876 l -1.41828,2.6301 -2.81889,-1.30834 c -0.42244,-0.17454 -0.88824,-0.27151 -1.35725,-0.27151 m 25.44555,20.06365 h -28.51983 c -5.97349,0 -10.83227,-4.51279 -10.83227,-10.05943 0,-4.00557 2.56672,-7.59641 6.47462,-9.17775 1.00228,-3.03886 3.99464,-5.16621 7.43193,-5.16621 0.74528,0 1.43274,0.12084 2.03025,0.28195 2.4591,-3.68482 6.74447,-5.92257 11.50045,-5.92257 3.63645,0 7.04965,1.32325 9.60673,3.72809 2.2519,2.11392 3.57863,4.83055 3.8035,7.73813 4.80417,0.70415 8.49042,4.57545 8.49042,9.23295 0,5.15279 -4.47972,9.34484 -9.9858,9.34484"
     id="Fill-3-Copy-2"
     style="fill:#303e51;fill-rule:evenodd;stroke:none;stroke-width:1" />
  <g
     id="g1120"
     transform="translate(4.6687769)">
    <path
       d="M 159.45309,176.25349 H 304.78903 V 61.97224 H 159.45309 Z m 0,-120.492187 H 304.78903 V 30.917553 H 159.45309 Z m -7.45312,126.703127 h 159 V 23.464428 h -159 z M 292.36716,38.370678 v 7.453125 h -99.375 v -7.453125 z m -118.00782,0 v 7.453125 h -7.45312 v -7.453125 z m 12.42188,0 v 7.453125 h -6.21094 v -7.453125 z"
       id="path21"
       style="fill:#303e51;fill-rule:evenodd;stroke:none;stroke-width:1" />
    <g
       id="g3522"
       transform="matrix(1.5754684,0,0,1.5754684,-146.40669,-77.70278)">
      <path
         d="m 255.76393,131.19759 v 4.28347 c 0,3.24829 -6.49657,6.84309 -15.89489,6.84309 -9.39834,0 -15.89491,-3.5948 -15.89491,-6.84309 v 0 -4.21505 c 2.69357,2.90177 8.77517,4.83676 15.89491,4.83676 7.11972,0 13.19987,-2.00343 15.89489,-4.90518 z m -31.7898,-7.53424 c 2.69357,2.90321 8.77517,4.97506 15.89491,4.97506 7.11972,0 13.19987,-2.00196 15.89489,-4.90663 v 0 4.14806 c 0,3.2483 -6.49657,6.84165 -15.89489,6.84165 -9.39834,0 -15.89491,-3.59335 -15.89491,-6.84165 v 0 z m 31.78983,-7.53308 v 4.14662 c 0,3.24827 -6.49657,6.84163 -15.89489,6.84163 -9.39834,0 -15.89491,-3.59336 -15.89491,-6.84163 v 0 -4.14662 c 2.69357,2.90322 8.77517,4.90664 15.89491,4.90664 7.11972,0 13.19987,-2.00342 15.89489,-4.90664 z m -15.89417,-10.29783 c 9.39832,0 15.89489,3.5948 15.89489,6.84163 0,3.24974 -6.49657,6.84309 -15.89489,6.84309 -9.39978,0 -15.8949,-3.59335 -15.8949,-6.84309 0,-3.24683 6.49512,-6.84163 15.8949,-6.84163 z"
         id="Combined-Shape"
         fill="#555d72"
         style="fill-rule:evenodd;stroke:none;stroke-width:1.72598"
         sodipodi:nodetypes="csssccsccsscssscccsssccscsssss" />
    </g>
  </g>
  <metadata
     id="metadata852">
    <rdf:RDF>
      <cc:Work
         rdf:about="">
        <dc:title>Page 1</dc:title>
      </cc:Work>
    </rdf:RDF>
  </metadata>
  <style
     type="text/css"
     id="style3">
	.st0{fill:#F5AA1C;}
</style>
  <g
     id="g5"
     transform="matrix(0.71150409,0,0,0.71150409,240.09606,123.62883)">
    <path
       class="st0"
       d="m 5.6,44.6 c -2.4,0 -3.4,-1.7 -2.3,-3.9 l 20.3,-39 c 1.1,-2.1 2.9,-2.1 4,0 l 20.3,39 c 1.1,2.1 0,3.9 -2.3,3.9 z"
       id="path7"
       inkscape:connector-curvature="0"
       style="fill:#f5aa1c" />
    <path
       d="m 22.6,13 c 0,-1.7 1.2,-2.7 2.9,-2.7 1.6,0 2.9,1.1 2.9,2.7 v 15.5 c 0,1.6 -1.3,2.7 -2.9,2.7 -1.6,0 -2.9,-1 -2.9,-2.7 z m -0.2,23.8 c 0,-1.7 1.4,-3.1 3.1,-3.1 1.7,0 3.1,1.4 3.1,3.1 0,1.7 -1.4,3.1 -3.1,3.1 -1.7,0 -3.1,-1.4 -3.1,-3.1"
       id="path9"
       inkscape:connector-curvature="0"
       style="fill:#4c4946;fill-opacity:1" />
  </g>
</svg>
