<?xml version="1.0" encoding="UTF-8" standalone="no"?>
<svg width="257px" height="264px" viewBox="0 0 257 264" version="1.1" xmlns="http://www.w3.org/2000/svg" xmlns:xlink="http://www.w3.org/1999/xlink">
    <!-- Generator: Sketch 48.2 (47327) - http://www.bohemiancoding.com/sketch -->
    <title>Page 1</title>
    <desc>Created with Sketch.</desc>
    <defs>
        <polygon id="path-1" points="0 263.559 256.917 263.559 256.917 0 0 0"></polygon>
    </defs>
    <g id="First-screen--Join-a-SPACE" stroke="none" stroke-width="1" fill="none" fill-rule="evenodd" transform="translate(-1111.000000, -366.000000)">
        <g id="Page-1" transform="translate(1111.000000, 366.000000)">
            <path d="M124.815,204.2052 C132.557,204.2052 138.933,210.4902 138.842,218.2322 L138.842,218.6882 C144.398,218.6882 148.862,223.1512 148.862,228.7072 C148.862,234.2642 144.398,238.7262 138.933,238.7262 L105.14,238.7262 C99.128,238.7262 94.211,233.8092 94.211,227.7972 C94.211,223.0602 97.307,218.9612 101.588,217.5042 C102.226,214.0432 105.14,211.4012 108.784,211.4012 C109.968,211.4012 111.061,211.7662 112.063,212.2212 C114.34,207.4842 119.168,204.2052 124.815,204.2052 Z M124.815,206.0272 C120.079,206.0272 115.707,208.7602 113.703,212.8582 L112.882,214.4982 L111.243,213.6792 C110.423,213.3142 109.604,213.1322 108.784,213.1322 C106.142,213.1322 103.866,215.0452 103.41,217.6862 L103.228,218.7792 L102.226,219.1432 C98.492,220.4192 96.032,223.8802 96.032,227.7972 C96.032,232.8072 100.13,236.9052 105.14,236.9052 L138.478,236.9052 L138.842,236.9052 C143.396,236.9052 147.04,233.1712 147.04,228.7072 C147.04,224.2442 143.305,220.5102 138.842,220.5102 L137.02,220.5102 L137.112,218.6882 L137.112,218.4152 L137.112,218.3242 C137.112,211.5832 131.555,206.0272 124.815,206.0272 Z" id="Fill-1" fill="#303E51"></path>
            <path d="M108.7837,214.132 C106.6137,214.132 104.7677,215.698 104.3947,217.857 L104.1187,219.52 L102.5677,220.083 C99.2497,221.217 97.0317,224.315 97.0317,227.797 C97.0317,232.268 100.6697,235.905 105.1397,235.905 L138.8427,235.905 C142.8107,235.905 146.0397,232.676 146.0397,228.707 C146.0397,224.806 142.7437,221.51 138.8427,221.51 L135.9687,221.51 L136.1127,218.638 L136.1117,218.415 C136.1117,212.095 131.0447,207.028 124.8147,207.028 C120.4717,207.028 116.4637,209.488 114.6007,213.298 L113.3297,215.84 L110.7957,214.573 C110.1487,214.287 109.4587,214.132 108.7837,214.132 M138.9327,239.727 L105.1397,239.727 C98.5617,239.727 93.2107,234.375 93.2107,227.797 C93.2107,222.905 96.2087,218.537 100.7287,216.754 C101.6747,213.04 104.9747,210.402 108.7837,210.402 C109.8497,210.402 110.8187,210.658 111.5977,210.946 C114.2747,206.148 119.2567,203.205 124.8147,203.205 C128.8827,203.205 132.6977,204.799 135.5577,207.694 C138.2457,210.413 139.7557,213.962 139.8397,217.734 C145.4507,218.238 149.8617,222.968 149.8617,228.707 C149.8617,234.783 144.9597,239.727 138.9327,239.727" id="Fill-3" fill="#303E51"></path>
            <path d="M180.395,98.8424 C174.894,98.8424 170.417,103.3184 170.417,108.8194 C170.417,114.3204 174.894,118.7954 180.395,118.7954 L242.947,118.7954 C248.448,118.7954 252.923,114.3204 252.923,108.8194 C252.923,103.3184 248.448,98.8424 242.947,98.8424 L180.395,98.8424 Z M242.947,122.7904 L180.395,122.7904 C172.691,122.7904 166.423,116.5234 166.423,108.8194 C166.423,101.1144 172.691,94.8474 180.395,94.8474 L242.947,94.8474 C250.651,94.8474 256.917,101.1144 256.917,108.8194 C256.917,116.5234 250.651,122.7904 242.947,122.7904 L242.947,122.7904 Z" id="Fill-5" fill="#303E51"></path>
            <mask id="mask-2" fill="white">
                <use xlink:href="#path-1"></use>
            </mask>
            <g id="Clip-8"></g>
            <polygon id="Fill-7" fill="#EF3F3F" mask="url(#mask-2)" points="114.77 108.876 155.863 108.876 155.863 104.876 114.77 104.876"></polygon>
            <path d="M131.7915,117.9269 C131.2795,117.9269 130.7685,117.7319 130.3775,117.3409 C129.5965,116.5599 129.5965,115.2939 130.3775,114.5129 L138.0145,106.8759 L130.3775,99.2399 C129.5965,98.4589 129.5965,97.1919 130.3775,96.4109 C131.1585,95.6299 132.4245,95.6299 133.2055,96.4109 L143.6705,106.8759 L133.2055,117.3409 C132.8145,117.7319 132.3035,117.9269 131.7915,117.9269" id="Fill-9" fill="#EF3F3F" mask="url(#mask-2)"></path>
            <path d="M223.1333,190.6886 C222.6213,190.6886 222.1103,190.4936 221.7193,190.1026 L210.6773,179.0616 C209.8963,178.2806 209.8963,177.0146 210.6773,176.2336 C211.4583,175.4526 212.7243,175.4526 213.5053,176.2336 L223.1333,185.8606 L232.7603,176.2336 C233.5413,175.4526 234.8073,175.4526 235.5883,176.2336 C236.3693,177.0146 236.3693,178.2806 235.5883,179.0616 L224.5473,190.1026 C224.1563,190.4936 223.6453,190.6886 223.1333,190.6886" id="Fill-10" fill="#EF3F3F" mask="url(#mask-2)"></path>
            <path d="M172.2681,39.9078 L172.2781,39.9078 L172.2681,39.9078 Z M168.4181,36.4538 C168.1141,36.4538 167.8091,36.5218 167.5251,36.6568 C167.0221,36.8958 166.6421,37.3168 166.4561,37.8418 C166.2691,38.3668 166.2981,38.9328 166.5371,39.4358 C166.7761,39.9388 167.1971,40.3188 167.7221,40.5058 C168.8061,40.8898 169.9991,40.3218 170.3861,39.2388 C170.7711,38.1548 170.2031,36.9598 169.1191,36.5748 C168.8901,36.4938 168.6541,36.4538 168.4181,36.4538 L168.4181,36.4538 Z M168.4141,44.6208 C167.7411,44.6208 167.0551,44.5078 166.3841,44.2688 C164.8541,43.7248 163.6261,42.6178 162.9291,41.1518 C162.2321,39.6838 162.1471,38.0338 162.6921,36.5028 C163.2351,34.9728 164.3421,33.7468 165.8091,33.0488 C167.2761,32.3518 168.9261,32.2658 170.4561,32.8108 C173.6161,33.9338 175.2731,37.4178 174.1501,40.5758 L174.1501,40.5768 C173.2651,43.0648 170.9151,44.6208 168.4141,44.6208 L168.4141,44.6208 Z" id="Fill-11" fill="#303E51" mask="url(#mask-2)"></path>
            <path d="M135.3159,135.924 C134.1669,135.924 133.2309,136.86 133.2309,138.009 C133.2309,139.159 134.1669,140.095 135.3159,140.095 C136.4659,140.095 137.4019,139.159 137.4019,138.009 C137.4019,136.86 136.4659,135.924 135.3159,135.924 M135.3159,144.09 C131.9629,144.09 129.2369,141.362 129.2369,138.009 C129.2369,134.657 131.9629,131.929 135.3159,131.929 C138.6689,131.929 141.3959,134.657 141.3959,138.009 C141.3959,141.362 138.6689,144.09 135.3159,144.09" id="Fill-12" fill="#303E51" mask="url(#mask-2)"></path>
            <path d="M24.2564,176.965 L27.9264,178.096 L27.0704,174.352 L24.2564,176.965 Z M30.6444,183.02 C30.4474,183.02 30.2494,182.991 30.0564,182.932 L19.7744,179.765 C19.0924,179.555 18.5734,178.996 18.4144,178.301 C18.2554,177.606 18.4804,176.877 19.0024,176.392 L26.8874,169.069 C27.4094,168.583 28.1534,168.413 28.8344,168.624 C29.5174,168.834 30.0344,169.393 30.1934,170.088 L32.5914,180.577 C32.7504,181.274 32.5264,182.001 32.0034,182.486 C31.6284,182.834 31.1414,183.02 30.6444,183.02 L30.6444,183.02 Z" id="Fill-13" fill="#303E51" mask="url(#mask-2)"></path>
            <path d="M123.8677,9.7516 L126.9467,12.0456 L127.3947,8.2316 L123.8677,9.7516 Z M128.5277,17.7126 C128.1047,17.7126 127.6847,17.5776 127.3347,17.3166 L118.7067,10.8876 C118.1347,10.4616 117.8327,9.7626 117.9167,9.0536 C117.9997,8.3446 118.4547,7.7336 119.1097,7.4516 L128.9917,3.1936 C129.6447,2.9116 130.4027,3.0006 130.9747,3.4266 C131.5477,3.8536 131.8487,4.5526 131.7647,5.2616 L130.5117,15.9476 C130.4287,16.6566 129.9727,17.2676 129.3177,17.5496 C129.0637,17.6586 128.7957,17.7126 128.5277,17.7126 L128.5277,17.7126 Z" id="Fill-14" fill="#303E51" mask="url(#mask-2)"></path>
            <path d="M84.8042,14.7697 C83.9902,14.7697 83.2252,14.2677 82.9282,13.4577 L78.9852,2.6837 C78.6062,1.6467 79.1382,0.4997 80.1742,0.1207 C81.2082,-0.2553 82.3572,0.2737 82.7372,1.3107 L86.6802,12.0847 C87.0592,13.1217 86.5272,14.2687 85.4912,14.6477 C85.2642,14.7297 85.0332,14.7697 84.8042,14.7697" id="Fill-15" fill="#303E51" mask="url(#mask-2)"></path>
            <path d="M77.4449,11.3541 C76.6309,11.3541 75.8659,10.8521 75.5689,10.0421 C75.1899,9.0071 75.7219,7.8591 76.7579,7.4801 L87.5329,3.5361 C88.5679,3.1611 89.7159,3.6891 90.0949,4.7261 C90.4739,5.7611 89.9419,6.9091 88.9059,7.2881 L78.1319,11.2321 C77.9049,11.3141 77.6739,11.3541 77.4449,11.3541" id="Fill-16" fill="#303E51" mask="url(#mask-2)"></path>
            <path d="M10.0767,153.6017 C9.5027,153.6017 8.9327,153.3557 8.5387,152.8797 L1.2147,144.0477 C0.5097,143.1987 0.6277,141.9397 1.4757,141.2357 C2.3257,140.5307 3.5847,140.6487 4.2887,141.4977 L11.6127,150.3297 C12.3177,151.1787 12.1997,152.4377 11.3507,153.1417 C10.9777,153.4517 10.5257,153.6017 10.0767,153.6017" id="Fill-17" fill="#303E51" mask="url(#mask-2)"></path>
            <path d="M1.9986,152.8478 C1.4246,152.8478 0.8546,152.6018 0.4606,152.1258 C-0.2444,151.2768 -0.1264,150.0178 0.7226,149.3138 L9.5546,141.9888 C10.4036,141.2848 11.6636,141.4008 12.3666,142.2518 C13.0716,143.1008 12.9536,144.3598 12.1046,145.0638 L3.2726,152.3878 C2.8996,152.6978 2.4476,152.8478 1.9986,152.8478" id="Fill-18" fill="#303E51" mask="url(#mask-2)"></path>
            <path d="M208.0943,232.5167 L191.7113,232.5167 L191.7113,228.5167 L208.0943,228.5167 C215.2833,228.5167 221.1333,222.6667 221.1333,215.4777 L221.1333,138.0097 L225.1333,138.0097 L225.1333,215.4777 C225.1333,224.8727 217.4903,232.5167 208.0943,232.5167" id="Fill-19" fill="#EF3F3F" mask="url(#mask-2)"></path>
            <path d="M74.023,259.441 L168.713,259.441 L168.713,185.336 L74.023,185.336 L74.023,259.441 Z M74.023,181.219 L168.713,181.219 L168.713,164.751 L74.023,164.751 L74.023,181.219 Z M69.906,263.559 L172.831,263.559 L172.831,160.634 L69.906,160.634 L69.906,263.559 Z" id="Fill-20" fill="#303E51" mask="url(#mask-2)"></path>
            <polygon id="Fill-21" fill="#303E51" mask="url(#mask-2)" points="96.667 175.043 160.48 175.043 160.48 170.927 96.667 170.927"></polygon>
            <polygon id="Fill-22" fill="#303E51" mask="url(#mask-2)" points="80.198 175.043 84.315 175.043 84.315 170.927 80.198 170.927"></polygon>
            <polygon id="Fill-23" fill="#303E51" mask="url(#mask-2)" points="88.432 175.043 92.549 175.043 92.549 170.927 88.432 170.927"></polygon>
            <path d="M187.5894,105.8327 C187.5894,106.3237 187.4414,106.7407 187.1444,107.0837 C186.8474,107.4277 186.4294,107.6647 185.8924,107.7927 L185.8924,107.8257 C186.5274,107.9037 187.0064,108.0967 187.3314,108.4027 C187.6574,108.7087 187.8204,109.1217 187.8204,109.6407 C187.8204,110.3957 187.5464,110.9847 186.9994,111.4057 C186.4504,111.8257 185.6684,112.0367 184.6514,112.0367 C183.7994,112.0367 183.0444,111.8947 182.3854,111.6117 L182.3854,110.1997 C182.6904,110.3537 183.0254,110.4787 183.3904,110.5757 C183.7554,110.6717 184.1164,110.7207 184.4744,110.7207 C185.0234,110.7207 185.4274,110.6267 185.6894,110.4407 C185.9494,110.2547 186.0804,109.9557 186.0804,109.5437 C186.0804,109.1757 185.9304,108.9137 185.6294,108.7597 C185.3284,108.6057 184.8494,108.5287 184.1904,108.5287 L183.5934,108.5287 L183.5934,107.2557 L184.2004,107.2557 C184.8094,107.2557 185.2544,107.1767 185.5354,107.0167 C185.8174,106.8577 185.9564,106.5847 185.9564,106.1977 C185.9564,105.6037 185.5844,105.3067 184.8394,105.3067 C184.5814,105.3067 184.3194,105.3497 184.0534,105.4357 C183.7864,105.5207 183.4894,105.6697 183.1634,105.8807 L182.3964,104.7367 C183.1114,104.2217 183.9664,103.9637 184.9584,103.9637 C185.7714,103.9637 186.4124,104.1277 186.8834,104.4577 C187.3544,104.7877 187.5894,105.2457 187.5894,105.8327" id="Fill-24" fill="#303E51" mask="url(#mask-2)"></path>
            <path d="M192.4351,109.1466 L191.8011,109.1676 C191.3251,109.1826 190.9701,109.2686 190.7381,109.4256 C190.5051,109.5836 190.3881,109.8236 190.3881,110.1456 C190.3881,110.6076 190.6541,110.8386 191.1831,110.8386 C191.5631,110.8386 191.8671,110.7296 192.0941,110.5106 C192.3221,110.2926 192.4351,110.0026 192.4351,109.6406 L192.4351,109.1466 Z M192.9181,111.9286 L192.6011,111.1126 L192.5581,111.1126 C192.2831,111.4596 191.9991,111.7006 191.7071,111.8346 C191.4151,111.9686 191.0351,112.0366 190.5661,112.0366 C189.9901,112.0366 189.5361,111.8716 189.2051,111.5426 C188.8731,111.2126 188.7071,110.7436 188.7071,110.1346 C188.7071,109.4976 188.9301,109.0276 189.3761,108.7246 C189.8221,108.4226 190.4951,108.2546 191.3931,108.2226 L192.4351,108.1906 L192.4351,107.9276 C192.4351,107.3186 192.1231,107.0146 191.5001,107.0146 C191.0211,107.0146 190.4561,107.1596 189.8081,107.4496 L189.2661,106.3426 C189.9571,105.9806 190.7231,105.8006 191.5651,105.8006 C192.3711,105.8006 192.9881,105.9756 193.4171,106.3266 C193.8471,106.6776 194.0621,107.2106 194.0621,107.9276 L194.0621,111.9286 L192.9181,111.9286 Z" id="Fill-25" fill="#303E51" mask="url(#mask-2)"></path>
            <path d="M198.1128,110.7096 C198.4668,110.7096 198.7398,110.5906 198.9288,110.3526 C199.1188,110.1146 199.2148,109.7746 199.2148,109.3346 C199.2148,108.9516 199.1258,108.6496 198.9478,108.4296 C198.7708,108.2096 198.5038,108.0996 198.1448,108.0996 C197.8078,108.0996 197.5208,108.2086 197.2828,108.4266 C197.0448,108.6456 196.9258,108.8996 196.9258,109.1896 C196.9258,109.6156 197.0378,109.9756 197.2608,110.2696 C197.4848,110.5626 197.7688,110.7096 198.1128,110.7096 M195.2768,108.5936 C195.2768,107.0396 195.6048,105.8826 196.2618,105.1236 C196.9198,104.3646 197.9038,103.9846 199.2148,103.9846 C199.6618,103.9846 200.0118,104.0116 200.2668,104.0656 L200.2668,105.3926 C199.9478,105.3206 199.6328,105.2846 199.3218,105.2846 C198.7518,105.2846 198.2878,105.3706 197.9268,105.5426 C197.5678,105.7146 197.2988,105.9686 197.1188,106.3056 C196.9398,106.6416 196.8348,107.1196 196.8018,107.7396 L196.8728,107.7396 C197.2258,107.1306 197.7948,106.8266 198.5748,106.8266 C199.2768,106.8266 199.8258,107.0466 200.2238,107.4866 C200.6208,107.9276 200.8198,108.5366 200.8198,109.3136 C200.8198,110.1506 200.5838,110.8146 200.1108,111.3026 C199.6378,111.7926 198.9828,112.0366 198.1448,112.0366 C197.5648,112.0366 197.0588,111.9016 196.6278,111.6336 C196.1958,111.3646 195.8628,110.9726 195.6288,110.4576 C195.3938,109.9416 195.2768,109.3206 195.2768,108.5936" id="Fill-26" fill="#303E51" mask="url(#mask-2)"></path>
            <polygon id="Fill-27" fill="#303E51" mask="url(#mask-2)" points="202.3882 111.9288 205.3372 105.4838 201.4642 105.4838 201.4642 104.0868 207.0992 104.0868 207.0992 105.1288 204.1282 111.9288"></polygon>
            <path d="M210.5054,105.317 C210.1614,105.317 209.8924,105.435 209.6984,105.671 C209.5054,105.908 209.4094,106.248 209.4094,106.692 C209.4094,107.071 209.4964,107.372 209.6724,107.594 C209.8484,107.817 210.1144,107.927 210.4724,107.927 C210.8094,107.927 211.0974,107.817 211.3374,107.597 C211.5774,107.377 211.6964,107.124 211.6964,106.837 C211.6964,106.411 211.5854,106.051 211.3614,105.757 C211.1384,105.464 210.8524,105.317 210.5054,105.317 M213.3464,107.428 C213.3464,108.975 213.0204,110.129 212.3684,110.892 C211.7174,111.655 210.7304,112.036 209.4094,112.036 C208.9434,112.036 208.5914,112.011 208.3514,111.961 L208.3514,110.629 C208.6514,110.704 208.9674,110.742 209.2964,110.742 C209.8514,110.742 210.3084,110.66 210.6654,110.497 C211.0244,110.335 211.2984,110.078 211.4874,109.73 C211.6774,109.38 211.7864,108.9 211.8164,108.287 L211.7514,108.287 C211.5434,108.624 211.3034,108.86 211.0304,108.996 C210.7594,109.132 210.4194,109.2 210.0114,109.2 C209.3264,109.2 208.7874,108.981 208.3944,108.542 C208.0004,108.104 207.8034,107.494 207.8034,106.713 C207.8034,105.872 208.0424,105.207 208.5204,104.718 C208.9984,104.23 209.6494,103.985 210.4724,103.985 C211.0524,103.985 211.5604,104.121 211.9954,104.393 C212.4304,104.665 212.7644,105.06 212.9974,105.577 C213.2304,106.095 213.3464,106.712 213.3464,107.428" id="Fill-28" fill="#303E51" mask="url(#mask-2)"></path>
            <path d="M215.7749,107.8898 C215.7749,108.2158 215.8489,108.4728 215.9979,108.6628 C216.1459,108.8528 216.3729,108.9478 216.6769,108.9478 C216.9849,108.9478 217.2109,108.8528 217.3529,108.6628 C217.4969,108.4728 217.5679,108.2158 217.5679,107.8898 C217.5679,107.1668 217.2709,106.8048 216.6769,106.8048 C216.0759,106.8048 215.7749,107.1668 215.7749,107.8898 L215.7749,107.8898 Z M215.1779,112.7778 C215.1779,113.0028 215.2869,113.1808 215.5039,113.3088 C215.7199,113.4378 216.0229,113.5028 216.4139,113.5028 C217.0009,113.5028 217.4609,113.4218 217.7949,113.2608 C218.1269,113.0998 218.2939,112.8798 218.2939,112.5998 C218.2939,112.3748 218.1949,112.2188 217.9979,112.1328 C217.8009,112.0468 217.4969,112.0038 217.0859,112.0038 L216.2359,112.0038 C215.9349,112.0038 215.6839,112.0748 215.4819,112.2158 C215.2799,112.3578 215.1779,112.5448 215.1779,112.7778 L215.1779,112.7778 Z M219.8139,105.9238 L219.8139,106.7568 L218.8739,106.9978 C219.0459,107.2668 219.1309,107.5678 219.1309,107.9008 C219.1309,108.5448 218.9069,109.0468 218.4579,109.4078 C218.0079,109.7668 217.3839,109.9468 216.5859,109.9468 L216.2909,109.9308 L216.0479,109.9038 C215.8799,110.0328 215.7959,110.1758 215.7959,110.3338 C215.7959,110.5698 216.0969,110.6878 216.6989,110.6878 L217.7179,110.6878 C218.3779,110.6878 218.8789,110.8298 219.2249,111.1128 C219.5709,111.3948 219.7439,111.8108 219.7439,112.3588 C219.7439,113.0598 219.4509,113.6048 218.8659,113.9918 C218.2799,114.3778 217.4389,114.5708 216.3429,114.5708 C215.5049,114.5708 214.8659,114.4258 214.4229,114.1338 C213.9809,113.8418 213.7599,113.4328 213.7599,112.9068 C213.7599,112.5448 213.8729,112.2428 214.0989,111.9988 C214.3239,111.7548 214.6559,111.5818 215.0919,111.4778 C214.9239,111.4058 214.7769,111.2888 214.6519,111.1258 C214.5269,110.9628 214.4639,110.7898 214.4639,110.6078 C214.4639,110.3788 214.5299,110.1878 214.6629,110.0358 C214.7959,109.8838 214.9869,109.7338 215.2379,109.5868 C214.9219,109.4508 214.6719,109.2328 214.4879,108.9318 C214.3029,108.6308 214.2119,108.2768 214.2119,107.8688 C214.2119,107.2128 214.4239,106.7058 214.8509,106.3478 C215.2769,105.9908 215.8849,105.8108 216.6769,105.8108 C216.8449,105.8108 217.0449,105.8268 217.2759,105.8568 C217.5059,105.8878 217.6539,105.9098 217.7179,105.9238 L219.8139,105.9238 Z" id="Fill-29" fill="#303E51" mask="url(#mask-2)"></path>
            <path d="M220.5718,111.1608 C220.5718,110.8598 220.6518,110.6328 220.8128,110.4788 C220.9738,110.3248 221.2088,110.2478 221.5168,110.2478 C221.8138,110.2478 222.0438,110.3268 222.2068,110.4838 C222.3698,110.6418 222.4508,110.8678 222.4508,111.1608 C222.4508,111.4438 222.3688,111.6668 222.2048,111.8288 C222.0398,111.9928 221.8098,112.0738 221.5168,112.0738 C221.2168,112.0738 220.9828,111.9938 220.8178,111.8348 C220.6538,111.6758 220.5718,111.4508 220.5718,111.1608" id="Fill-30" fill="#303E51" mask="url(#mask-2)"></path>
            <path d="M223.7085,111.1608 C223.7085,110.8598 223.7885,110.6328 223.9495,110.4788 C224.1105,110.3248 224.3455,110.2478 224.6535,110.2478 C224.9505,110.2478 225.1805,110.3268 225.3435,110.4838 C225.5065,110.6418 225.5875,110.8678 225.5875,111.1608 C225.5875,111.4438 225.5055,111.6668 225.3415,111.8288 C225.1765,111.9928 224.9465,112.0738 224.6535,112.0738 C224.3535,112.0738 224.1195,111.9938 223.9545,111.8348 C223.7905,111.6758 223.7085,111.4508 223.7085,111.1608" id="Fill-31" fill="#303E51" mask="url(#mask-2)"></path>
            <path d="M226.8452,111.1608 C226.8452,110.8598 226.9252,110.6328 227.0862,110.4788 C227.2472,110.3248 227.4822,110.2478 227.7902,110.2478 C228.0872,110.2478 228.3172,110.3268 228.4802,110.4838 C228.6432,110.6418 228.7242,110.8678 228.7242,111.1608 C228.7242,111.4438 228.6422,111.6668 228.4782,111.8288 C228.3132,111.9928 228.0832,112.0738 227.7902,112.0738 C227.4902,112.0738 227.2562,111.9938 227.0912,111.8348 C226.9272,111.6758 226.8452,111.4508 226.8452,111.1608" id="Fill-32" fill="#303E51" mask="url(#mask-2)"></path>
            <path d="M58.7652,64.3458 C58.6632,64.0888 58.4102,63.9228 58.1582,63.9228 C57.6262,63.9228 56.8592,63.2748 56.4822,62.0738 C56.2802,61.4298 56.2382,60.7488 56.3682,60.2058 C56.4302,59.9438 56.5902,59.4828 56.9592,59.3408 C56.9942,59.3268 57.0542,59.3188 57.1152,59.3128 C57.2532,59.2968 57.3742,59.2278 57.4722,59.1298 C58.1292,59.5918 58.5762,60.3108 58.7002,60.5278 C58.7922,62.0118 59.8982,63.1908 61.2582,63.1908 C62.6792,63.1908 63.8342,61.9088 63.8342,60.3328 C63.8342,60.2208 63.8232,60.0838 63.8012,59.9588 C64.2382,59.7658 64.7282,59.7698 65.1622,59.9648 C65.1372,60.0778 65.1202,60.2348 65.1202,60.3328 C65.1202,61.9088 66.2762,63.1908 67.6972,63.1908 C69.0572,63.1908 70.1622,62.0118 70.2552,60.5278 C70.3792,60.3108 70.8262,59.5918 71.4832,59.1308 C71.5802,59.2278 71.7012,59.2978 71.8392,59.3128 C71.8772,59.3158 71.9562,59.3248 71.9962,59.3408 C72.3652,59.4828 72.5252,59.9438 72.5872,60.2058 C72.7162,60.7488 72.6752,61.4298 72.4732,62.0738 C72.0952,63.2748 71.3282,63.9228 70.7842,63.9228 C70.5092,63.9388 70.2922,64.0848 70.1902,64.3458 C69.0862,67.1558 67.0062,70.1578 64.4772,70.1578 C61.9492,70.1578 59.8692,67.1558 58.7652,64.3458 M62.5522,60.3588 C62.6362,60.4498 62.7442,60.4868 62.8532,60.4968 C62.7742,61.4108 62.1012,62.1358 61.2582,62.1358 C60.3622,62.1358 59.6332,61.3268 59.6332,60.3328 C59.6332,59.3378 60.3622,58.5288 61.2582,58.5288 C61.8792,58.5288 62.4042,58.9318 62.6772,59.5018 C62.6362,59.5408 62.5902,59.5708 62.5522,59.6128 C62.3672,59.8188 62.3672,60.1528 62.5522,60.3588 M66.4022,59.6128 C66.3652,59.5708 66.3192,59.5408 66.2782,59.5018 C66.5512,58.9318 67.0752,58.5288 67.6972,58.5288 C68.5932,58.5288 69.3222,59.3378 69.3222,60.3328 C69.3222,61.3268 68.5932,62.1358 67.6972,62.1358 C66.8532,62.1358 66.1802,61.4108 66.1012,60.4968 C66.2102,60.4868 66.3192,60.4508 66.4022,60.3588 C66.5872,60.1528 66.5872,59.8188 66.4022,59.6128 M61.5202,51.7678 C61.2542,55.5378 66.8862,55.0078 66.8862,55.0078 C68.6172,54.8308 69.8012,55.1248 70.6152,55.5668 C70.9242,56.3468 71.1102,57.2058 71.2002,58.1018 C70.7172,58.3908 70.3272,58.7768 70.0302,59.1378 C69.6202,58.1588 68.7332,57.4728 67.6972,57.4728 C66.7302,57.4728 65.8952,58.0748 65.4542,58.9528 C64.8282,58.6988 64.1252,58.6978 63.5002,58.9528 C63.0602,58.0748 62.2252,57.4728 61.2582,57.4728 C60.2222,57.4728 59.3332,58.1588 58.9252,59.1378 C58.6282,58.7758 58.2372,58.3908 57.7542,58.1018 C58.0362,55.2868 59.4922,52.9488 61.5202,51.7678 M64.4952,83.0538 C64.5752,79.9308 65.2032,76.9468 66.2882,74.1908 C65.7272,74.4398 65.1202,74.5868 64.4772,74.5868 C62.1372,74.5868 60.1872,72.7678 59.6932,70.3368 L60.8702,69.9478 C61.9252,70.9168 63.1352,71.5648 64.4772,71.5648 C65.8202,71.5648 67.0302,70.9168 68.0842,69.9478 L68.3652,70.0398 C68.6192,69.6298 68.8852,69.2288 69.1612,68.8348 L69.1332,68.8248 C69.9742,67.7698 70.6772,66.5278 71.1992,65.2868 C72.2332,65.0628 73.2122,63.9948 73.6702,62.5368 C73.9572,61.6208 74.0082,60.6648 73.8132,59.8448 C73.6402,59.1228 73.2742,58.5658 72.7942,58.2328 C72.8202,58.0438 72.7592,57.7478 72.4562,57.7198 C72.4312,57.5088 72.4062,57.2978 72.3692,57.0908 L72.5502,55.5988 C73.0522,51.4678 70.4622,47.6578 66.7442,47.0588 C65.2792,46.8238 63.8032,47.3968 62.7912,48.5948 L62.7252,48.6728 C61.3342,47.9678 59.7122,48.1348 58.4622,49.1128 C57.0602,50.2098 56.2622,52.0288 56.3482,53.9318 L56.4962,57.7168 C56.3202,57.7168 56.1162,57.9328 56.1612,58.2328 C55.6812,58.5658 55.3142,59.1238 55.1422,59.8448 C54.9462,60.6648 54.9962,61.6218 55.2852,62.5368 C55.7382,63.9808 56.7032,65.0428 57.7532,65.2808 C58.2752,66.5238 58.9792,67.7678 59.8212,68.8258 L59.5832,68.9038 L58.9302,69.1208 L53.7912,70.8208 C52.9562,71.0968 50.7742,72.1178 49.9222,73.1348 C47.0392,69.7778 45.2922,65.4188 45.2922,60.6578 C45.2922,50.0788 53.8992,41.4728 64.4772,41.4728 C74.3682,41.4728 82.5302,48.9968 83.5512,58.6208 C84.5782,58.3348 85.6292,58.1068 86.7032,57.9478 C85.3612,46.8718 75.9102,38.2608 64.4772,38.2608 C52.1272,38.2608 42.0802,48.3078 42.0802,60.6578 C42.0802,73.0068 52.1272,83.0538 64.4772,83.0538 L64.4952,83.0538" id="Fill-33" fill="#303E51" mask="url(#mask-2)"></path>
            <path d="M36.3237,128.1989 L53.9697,111.8579 L58.6777,116.0089 C59.4687,116.7059 60.6667,116.6699 61.4127,115.9209 L65.7337,111.5879 L83.6737,128.1989 L36.3237,128.1989 Z M33.2227,118.8729 L37.6497,118.8729 C38.7537,118.8729 39.6467,117.9789 39.6467,116.8759 C39.6467,115.7719 38.7537,114.8789 37.6497,114.8789 L33.2227,114.8789 L33.2227,110.8139 L37.6497,110.8139 C38.7537,110.8139 39.6467,109.9199 39.6467,108.8169 C39.6467,107.7139 38.7537,106.8189 37.6497,106.8189 L33.2227,106.8189 L33.2227,102.7549 L37.6497,102.7549 C38.7537,102.7549 39.6467,101.8609 39.6467,100.7579 C39.6467,99.6549 38.7537,98.7599 37.6497,98.7599 L33.2227,98.7599 L33.2227,92.0099 L51.3757,108.8169 L33.2227,125.6239 L33.2227,118.8729 Z M90.5577,109.8099 C89.2717,109.8099 88.0107,109.7129 86.7737,109.5329 L86.7737,125.6239 L68.6227,108.8169 L73.9767,103.8589 C72.9457,103.0089 71.9847,102.0779 71.0957,101.0809 L64.2837,107.3889 C64.2777,107.3949 64.2707,107.3989 64.2647,107.4039 L64.2397,107.4299 L59.9987,111.3569 L36.3237,89.4349 L65.1167,89.4349 C64.8267,88.1369 64.6347,86.8029 64.5457,85.4399 L31.2257,85.4399 C31.0407,85.4399 30.8637,85.4729 30.6927,85.5209 C30.6527,85.5319 30.6137,85.5439 30.5747,85.5579 C30.4077,85.6159 30.2477,85.6879 30.1037,85.7859 C30.0987,85.7889 30.0947,85.7939 30.0897,85.7969 C29.9497,85.8939 29.8287,86.0129 29.7177,86.1419 C29.6907,86.1729 29.6657,86.2019 29.6407,86.2349 C29.5337,86.3759 29.4427,86.5269 29.3757,86.6929 C29.3737,86.6989 29.3687,86.7029 29.3667,86.7079 C29.3607,86.7239 29.3617,86.7409 29.3557,86.7579 C29.3027,86.9049 29.2677,87.0599 29.2507,87.2209 C29.2467,87.2639 29.2397,87.3049 29.2377,87.3479 C29.2367,87.3789 29.2287,87.4069 29.2287,87.4369 L29.2287,98.7599 L17.0697,98.7599 C15.9667,98.7599 15.0727,99.6549 15.0727,100.7579 C15.0727,101.8609 15.9667,102.7549 17.0697,102.7549 L29.2287,102.7549 L29.2287,106.8189 L20.6947,106.8189 C19.5917,106.8189 18.6977,107.7139 18.6977,108.8169 C18.6977,109.9199 19.5917,110.8139 20.6947,110.8139 L29.2287,110.8139 L29.2287,114.8789 L17.0697,114.8789 C15.9667,114.8789 15.0727,115.7719 15.0727,116.8759 C15.0727,117.9789 15.9667,118.8729 17.0697,118.8729 L29.2287,118.8729 L29.2287,130.1959 C29.2287,130.2269 29.2367,130.2549 29.2377,130.2849 C29.2397,130.3279 29.2467,130.3689 29.2507,130.4119 C29.2677,130.5739 29.3027,130.7299 29.3557,130.8779 C29.3617,130.8929 29.3607,130.9089 29.3667,130.9249 C29.3687,130.9299 29.3737,130.9339 29.3757,130.9399 C29.4417,131.1059 29.5347,131.2589 29.6407,131.3999 C29.6657,131.4309 29.6907,131.4609 29.7167,131.4909 C29.8277,131.6199 29.9497,131.7399 30.0907,131.8369 C30.0947,131.8399 30.0987,131.8449 30.1037,131.8469 C30.2477,131.9459 30.4077,132.0179 30.5747,132.0749 C30.6137,132.0889 30.6527,132.1009 30.6927,132.1119 C30.8637,132.1599 31.0397,132.1929 31.2257,132.1929 L88.7707,132.1929 C88.9577,132.1929 89.1347,132.1599 89.3047,132.1119 C89.3447,132.1009 89.3837,132.0889 89.4227,132.0749 C89.5897,132.0179 89.7507,131.9459 89.8937,131.8469 C89.8987,131.8449 89.9017,131.8399 89.9067,131.8369 C90.0477,131.7399 90.1697,131.6199 90.2807,131.4909 C90.3057,131.4609 90.3317,131.4309 90.3557,131.3999 C90.4637,131.2589 90.5547,131.1059 90.6217,130.9399 C90.6247,130.9339 90.6287,130.9299 90.6307,130.9249 C90.6367,130.9089 90.6357,130.8929 90.6407,130.8779 C90.6947,130.7299 90.7287,130.5739 90.7467,130.4119 C90.7517,130.3689 90.7577,130.3279 90.7597,130.2849 C90.7607,130.2549 90.7677,130.2269 90.7677,130.1959 L90.7677,109.8039 C90.6977,109.8049 90.6287,109.8099 90.5577,109.8099 L90.5577,109.8099 Z" id="Fill-34" fill="#303E51" mask="url(#mask-2)"></path>
            <polygon id="Fill-35" fill="#303E51" mask="url(#mask-2)" points="81.232 86.7413 80.043 86.7413 80.043 82.1193 78.519 82.1193 78.519 81.1293 82.756 81.1293 82.756 82.1193 81.232 82.1193"></polygon>
            <path d="M84.6177,83.9279 C84.6177,84.5539 84.7367,85.0269 84.9747,85.3439 C85.2127,85.6609 85.5687,85.8199 86.0417,85.8199 C86.9907,85.8199 87.4657,85.1889 87.4657,83.9279 C87.4657,82.6639 86.9937,82.0319 86.0497,82.0319 C85.5757,82.0319 85.2197,82.1909 84.9787,82.5099 C84.7377,82.8279 84.6177,83.3009 84.6177,83.9279 M88.7137,83.9279 C88.7137,84.8569 88.4827,85.5709 88.0217,86.0699 C87.5617,86.5689 86.9017,86.8179 86.0417,86.8179 C85.1817,86.8179 84.5217,86.5689 84.0607,86.0699 C83.5997,85.5709 83.3707,84.8539 83.3707,83.9199 C83.3707,82.9859 83.6007,82.2729 84.0627,81.7799 C84.5247,81.2869 85.1867,81.0409 86.0497,81.0409 C86.9117,81.0409 87.5717,81.2899 88.0277,81.7859 C88.4847,82.2819 88.7137,82.9959 88.7137,83.9279" id="Fill-36" fill="#303E51" mask="url(#mask-2)"></path>
            <polygon id="Fill-37" fill="#303E51" mask="url(#mask-2)" points="94.3902 86.7413 93.0392 86.7413 91.5692 84.3763 91.0662 84.7373 91.0662 86.7413 89.8762 86.7413 89.8762 81.1293 91.0662 81.1293 91.0662 83.6973 91.5352 83.0373 93.0542 81.1293 94.3742 81.1293 92.4172 83.6133"></polygon>
            <polygon id="Fill-38" fill="#303E51" mask="url(#mask-2)" points="98.3286 86.7413 95.0966 86.7413 95.0966 81.1293 98.3286 81.1293 98.3286 82.1043 96.2866 82.1043 96.2866 83.3363 98.1856 83.3363 98.1856 84.3113 96.2866 84.3113 96.2866 85.7583 98.3286 85.7583"></polygon>
            <path d="M104.4771,86.7413 L102.9651,86.7413 L100.5241,82.4953 L100.4901,82.4953 C100.5381,83.2453 100.5621,83.7803 100.5621,84.1003 L100.5621,86.7413 L99.4991,86.7413 L99.4991,81.1293 L100.9991,81.1293 L103.4371,85.3323 L103.4641,85.3323 C103.4251,84.6033 103.4071,84.0873 103.4071,83.7853 L103.4071,81.1293 L104.4771,81.1293 L104.4771,86.7413 Z" id="Fill-39" fill="#303E51" mask="url(#mask-2)"></path>
            <path d="M91.4986,60.6574 C78.6446,60.6574 68.2266,71.0764 68.2266,83.9294 C68.2266,96.7824 78.6446,107.2014 91.4986,107.2014 C104.3516,107.2014 114.7696,96.7824 114.7696,83.9294 C114.7696,71.0764 104.3516,60.6574 91.4986,60.6574 M91.4986,64.6524 C102.1276,64.6524 110.7756,73.3004 110.7756,83.9294 C110.7756,94.5594 102.1276,103.2064 91.4986,103.2064 C80.8686,103.2064 72.2216,94.5594 72.2216,83.9294 C72.2216,73.3004 80.8686,64.6524 91.4986,64.6524" id="Fill-40" fill="#303E51" mask="url(#mask-2)"></path>
        </g>
    </g>
</svg>