<?xml version="1.0" encoding="UTF-8" standalone="no"?>
<svg
   xmlns:dc="http://purl.org/dc/elements/1.1/"
   xmlns:cc="http://creativecommons.org/ns#"
   xmlns:rdf="http://www.w3.org/1999/02/22-rdf-syntax-ns#"
   xmlns:svg="http://www.w3.org/2000/svg"
   xmlns="http://www.w3.org/2000/svg"
   xmlns:sodipodi="http://sodipodi.sourceforge.net/DTD/sodipodi-0.dtd"
   xmlns:inkscape="http://www.inkscape.org/namespaces/inkscape"
   width="354"
   height="237"
   viewBox="0 0 354 237"
   version="1.1"
   id="svg21"
   sodipodi:docname="space-data.svg"
   inkscape:version="0.92.2 2405546, 2018-03-11">
  <metadata
     id="metadata27">
    <rdf:RDF>
      <cc:Work
         rdf:about="">
        <dc:format>image/svg+xml</dc:format>
        <dc:type
           rdf:resource="http://purl.org/dc/dcmitype/StillImage" />
        <dc:title>Group 3</dc:title>
      </cc:Work>
    </rdf:RDF>
  </metadata>
  <defs
     id="defs25" />
  <sodipodi:namedview
     pagecolor="#ffffff"
     bordercolor="#666666"
     borderopacity="1"
     objecttolerance="10"
     gridtolerance="10"
     guidetolerance="10"
     inkscape:pageopacity="0"
     inkscape:pageshadow="2"
     inkscape:window-width="1920"
     inkscape:window-height="1015"
     id="namedview23"
     showgrid="false"
     inkscape:zoom="2.1305838"
     inkscape:cx="3.4029309"
     inkscape:cy="71.859607"
     inkscape:window-x="0"
     inkscape:window-y="0"
     inkscape:window-maximized="1"
     inkscape:current-layer="svg21" />
  <!-- Generator: Sketch 52.2 (67145) - http://www.bohemiancoding.com/sketch -->
  <title
     id="title2">Group 3</title>
  <desc
     id="desc4">Created with Sketch.</desc>
  <path
     d="m 130.19637,116.91127 v -1.19128 c 0,-1.30937 -1.06846,-2.38258 -2.37436,-2.38258 h -15.43124 v -0.59459 c 0,-1.31042 -1.06847,-2.38258 -2.37437,-2.38258 h -5.93485 c -1.30695,0 -2.37436,1.07216 -2.37436,2.38258 v 2.97717 1.19128 z m 0,1.19129 v 14.29441 c 0,1.31041 -1.06846,2.38257 -2.37436,2.38257 h -23.74046 c -1.30695,0 -2.37436,-1.07216 -2.37436,-2.38257 v -12.50748 -1.78693 z"
     id="Fill-1-Copy-7"
     inkscape:connector-curvature="0"
     style="fill:#555d72;fill-rule:evenodd;stroke:none;stroke-width:1.35662782" />
  <path
     d="m 130.19637,179.31615 v -1.19129 c 0,-1.30936 -1.06846,-2.38258 -2.37436,-2.38258 h -15.43124 v -0.59458 c 0,-1.31042 -1.06847,-2.38258 -2.37437,-2.38258 h -5.93485 c -1.30695,0 -2.37436,1.07216 -2.37436,2.38258 v 2.97716 1.19129 z m 0,1.19129 v 14.2944 c 0,1.31042 -1.06846,2.38258 -2.37436,2.38258 h -23.74046 c -1.30695,0 -2.37436,-1.07216 -2.37436,-2.38258 v -12.50747 -1.78693 z"
     id="Fill-1-Copy-8"
     inkscape:connector-curvature="0"
     style="fill:#555d72;fill-rule:evenodd;stroke:none;stroke-width:1.35662782" />
  <path
     d="m 50.155334,46.366627 v -1.191288 c 0,-1.309363 -1.068463,-2.382577 -2.374362,-2.382577 H 32.349725 v -0.59459 c 0,-1.310417 -1.068462,-2.382576 -2.374361,-2.382576 h -5.934853 c -1.306949,0 -2.374361,1.072159 -2.374361,2.382576 v 2.977167 1.191288 z m 0,1.191288 V 61.85232 c 0,1.310417 -1.068463,2.382576 -2.374362,2.382576 H 24.040511 c -1.306949,0 -2.374361,-1.072159 -2.374361,-2.382576 V 49.344848 47.557915 Z"
     id="Fill-1-Copy-13"
     inkscape:connector-curvature="0"
     style="fill:#555d72;fill-rule:evenodd;stroke:none;stroke-width:1.35662782" />
  <rect
     id="Rectangle"
     x="70.504753"
     y="46.598736"
     width="183.14476"
     height="10.853023"
     rx="2.7132556"
     style="fill:#dee1ed;fill-rule:evenodd;stroke:none;stroke-width:1.35662782" />
  <rect
     id="Rectangle-Copy"
     x="149.18916"
     y="118.50001"
     width="183.14476"
     height="10.853023"
     rx="2.7132556"
     style="fill:#dee1ed;fill-rule:evenodd;stroke:none;stroke-width:1.35662782" />
  <rect
     id="Rectangle-Copy-2"
     x="149.18916"
     y="182.26152"
     width="183.14476"
     height="10.853023"
     rx="2.7132556"
     style="fill:#dee1ed;fill-rule:evenodd;stroke:none;stroke-width:1.35662782" />
  <path
     d="m 38.663899,120.53495 h 47.40217"
     id="Line"
     inkscape:connector-curvature="0"
     style="fill:none;fill-rule:evenodd;stroke:#b6b6b6;stroke-width:1.35662782;stroke-linecap:square;stroke-dasharray:4.0698834" />
  <path
     d="M 38.643948,187.00971 H 84.729392"
     id="path13"
     inkscape:connector-curvature="0"
     style="fill:none;fill-rule:evenodd;stroke:#b6b6b6;stroke-width:1.35662782;stroke-linecap:square;stroke-dasharray:4.0698834" />
  <path
     d="M 35.910742,77.134247 V 190.0138"
     id="path15"
     inkscape:connector-curvature="0"
     style="fill:none;fill-rule:evenodd;stroke:#b6b6b6;stroke-width:1.35662782;stroke-linecap:square;stroke-dasharray:4.0698834"
     sodipodi:nodetypes="cc" />
</svg>
