<?xml version="1.0" encoding="UTF-8" standalone="no"?>
<svg width="378px" height="197px" viewBox="0 0 378 197" version="1.1" xmlns="http://www.w3.org/2000/svg" xmlns:xlink="http://www.w3.org/1999/xlink">
    <!-- Generator: Sketch 48.2 (47327) - http://www.bohemiancoding.com/sketch -->
    <title>Group</title>
    <desc>Created with Sketch.</desc>
    <defs>
        <polygon id="path-1" points="0 -0.0003 73.452 -0.0003 73.452 61.4695 0 61.4695"></polygon>
        <polygon id="path-3" points="0.427277778 0.500655903 34.4816667 0.500655903 34.4816667 13.9998385 0.427277778 13.9998385"></polygon>
        <polygon id="path-5" points="0.427277778 0.159899348 34.4816667 0.159899348 34.4816667 13.8395385 0.427277778 13.8395385"></polygon>
        <polygon id="path-7" points="0.0268240964 0.0740322581 45.9026795 0.0740322581 45.9026795 16.6148129 0.0268240964 16.6148129"></polygon>
        <polygon id="path-9" points="0 0.00910714286 23.6930473 0.00910714286 23.6930473 14.9421429 0 14.9421429"></polygon>
    </defs>
    <g id="deploy-your-own-provider-copy" stroke="none" stroke-width="1" fill="none" fill-rule="evenodd" transform="translate(-1451.000000, -175.000000)">
        <g id="Group" transform="translate(1442.000000, 175.000000)">
            <g id="Group-34" transform="translate(9.000000, 146.000000)" fill="#F53B3B">
                <path d="M328.308558,5.7293728 L328.536899,4.8667486 C328.875183,5.0612619 329.382609,5.2304039 329.915407,5.2304039 C330.583518,5.2304039 330.95563,4.9174912 330.95563,4.4523507 C330.95563,4.0210386 330.668089,3.7673256 329.940778,3.5051555 C329.00204,3.1668715 328.401586,2.6679026 328.401586,1.8475639 C328.401586,0.9172829 329.179639,0.2068865 330.414376,0.2068865 C331.031744,0.2068865 331.488427,0.3422001 331.784426,0.4944279 L331.530713,1.3316808 C331.327742,1.2217385 330.930259,1.0610536 330.397461,1.0610536 C329.737808,1.0610536 329.450266,1.4162518 329.450266,1.7460787 C329.450266,2.1858479 329.780093,2.3888183 330.541232,2.6848168 C331.530713,3.0569292 332.012768,3.5558981 332.012768,4.3762368 C332.012768,5.2896036 331.319285,6.084571 329.84775,6.084571 C329.247296,6.084571 328.62147,5.915429 328.308558,5.7293728 Z M332.951506,6 L332.951506,0.3760285 C333.323618,0.3083717 333.839501,0.2576291 334.54144,0.2576291 C335.302579,0.2576291 335.860748,0.418314 336.224403,0.7227696 C336.562687,1.0018539 336.782572,1.4500802 336.782572,1.9828775 C336.782572,2.5241319 336.61343,2.9723582 336.29206,3.2768138 C335.877662,3.6912117 335.226466,3.885725 334.490698,3.885725 C334.296185,3.885725 334.118585,3.8772679 333.983272,3.8518966 L333.983272,6 L332.951506,6 Z M333.983272,1.1033391 L333.983272,3.0315579 C334.110128,3.0653863 334.27927,3.0738434 334.490698,3.0738434 C335.268751,3.0738434 335.742349,2.6932739 335.742349,2.025163 C335.742349,1.3908805 335.302579,1.0525965 334.583726,1.0525965 C334.296185,1.0525965 334.093214,1.0779678 333.983272,1.1033391 Z M340.030098,4.3846939 L338.220279,4.3846939 L337.729767,6 L336.655715,6 L338.482449,0.2999146 L339.810214,0.2999146 L341.662319,6 L340.545981,6 L340.030098,4.3846939 Z M338.389421,3.5981836 L339.852499,3.5981836 L339.404273,2.194305 C339.294331,1.8475639 339.201303,1.4585373 339.116732,1.1287104 L339.099817,1.1287104 C339.015246,1.4585373 338.930675,1.856021 338.82919,2.194305 L338.389421,3.5981836 Z M346.195324,5.0105193 L346.364466,5.830858 C346.11921,5.9577145 345.577956,6.084571 344.892931,6.084571 C343.083111,6.084571 341.983688,4.9513196 341.983688,3.2176141 C341.983688,1.3401379 343.286082,0.2068865 345.028244,0.2068865 C345.71327,0.2068865 346.203781,0.3506572 346.415209,0.4605995 L346.186867,1.2893953 C345.91624,1.1709959 345.544128,1.0695107 345.07053,1.0695107 C343.911907,1.0695107 343.074654,1.7968213 343.074654,3.1668715 C343.074654,4.4185223 343.810422,5.2219468 345.062073,5.2219468 C345.484928,5.2219468 345.924697,5.1373758 346.195324,5.0105193 Z M350.440788,2.6256171 L350.440788,3.4713271 L348.292685,3.4713271 L348.292685,5.1458329 L350.694501,5.1458329 L350.694501,6 L347.252462,6 L347.252462,0.2999146 L350.567645,0.2999146 L350.567645,1.1540817 L348.292685,1.1540817 L348.292685,2.6256171 L350.440788,2.6256171 Z" id="SPACE"></path>
                <path d="M156.600454,6 L156.600454,0.3760285 C156.972566,0.3083717 157.48845,0.2576291 158.190389,0.2576291 C158.951528,0.2576291 159.509696,0.418314 159.873352,0.7227696 C160.211636,1.0018539 160.43152,1.4500802 160.43152,1.9828775 C160.43152,2.5241319 160.262378,2.9723582 159.941009,3.2768138 C159.526611,3.6912117 158.875414,3.885725 158.139646,3.885725 C157.945133,3.885725 157.767534,3.8772679 157.63222,3.8518966 L157.63222,6 L156.600454,6 Z M157.63222,1.1033391 L157.63222,3.0315579 C157.759077,3.0653863 157.928219,3.0738434 158.139646,3.0738434 C158.917699,3.0738434 159.391297,2.6932739 159.391297,2.025163 C159.391297,1.3908805 158.951528,1.0525965 158.232674,1.0525965 C157.945133,1.0525965 157.742163,1.0779678 157.63222,1.1033391 Z M161.327973,6 L161.327973,0.3760285 C161.717,0.3083717 162.30054,0.2576291 162.900994,0.2576291 C163.721332,0.2576291 164.279501,0.3929427 164.66007,0.7143125 C164.972983,0.9764826 165.150582,1.3739663 165.150582,1.856021 C165.150582,2.5917887 164.651613,3.0907576 164.118816,3.2852709 L164.118816,3.3106422 C164.524757,3.46287 164.770013,3.8603537 164.913783,4.4100652 C165.091383,5.1204616 165.24361,5.7801154 165.36201,6 L164.287958,6 C164.203387,5.830858 164.068073,5.3657175 163.907388,4.6553211 C163.746704,3.9110963 163.476076,3.6742975 162.884079,3.6573833 L162.359739,3.6573833 L162.359739,6 L161.327973,6 Z M162.359739,1.094882 L162.359739,2.8962443 L162.977107,2.8962443 C163.679047,2.8962443 164.118816,2.5241319 164.118816,1.9575062 C164.118816,1.3316808 163.679047,1.0441394 163.002479,1.0441394 C162.672652,1.0441394 162.461224,1.0695107 162.359739,1.094882 Z M168.550336,0.2068865 C170.216385,0.2068865 171.197409,1.4669944 171.197409,3.0907576 C171.197409,5.0020622 170.038786,6.0930281 168.465765,6.0930281 C166.858916,6.0930281 165.844064,4.8667486 165.844064,3.1922428 C165.844064,1.4416231 166.943487,0.2068865 168.550336,0.2068865 Z M168.524965,1.0441394 C167.493199,1.0441394 166.943487,1.9997917 166.943487,3.1753286 C166.943487,4.3339513 167.527027,5.2557752 168.524965,5.2557752 C169.53136,5.2557752 170.097986,4.3254942 170.097986,3.1330431 C170.097986,2.0589914 169.565188,1.0441394 168.524965,1.0441394 Z M174.538809,6 L173.346358,6 L171.50271,0.2999146 L172.635961,0.2999146 L173.414015,2.8877872 C173.633899,3.6066407 173.819955,4.2747516 173.972183,4.9682338 L173.989097,4.9682338 C174.141325,4.2916658 174.344296,3.5981836 174.572637,2.9047014 L175.401433,0.2999146 L176.509313,0.2999146 L174.538809,6 Z M177.126682,0.2999146 L178.166905,0.2999146 L178.166905,6 L177.126682,6 L177.126682,0.2999146 Z M179.359356,5.9830858 L179.359356,0.3760285 C179.816039,0.2999146 180.399579,0.2576291 181.016948,0.2576291 C182.082542,0.2576291 182.81831,0.4775137 183.34265,0.9172829 C183.892362,1.3655092 184.230646,2.0420772 184.230646,3.0146437 C184.230646,4.0294957 183.883904,4.7906347 183.34265,5.2811465 C182.776024,5.7970296 181.871115,6.0591997 180.763235,6.0591997 C180.154323,6.0591997 179.69764,6.0253713 179.359356,5.9830858 Z M180.399579,1.1287104 L180.399579,5.2050326 C180.54335,5.2304039 180.763235,5.2304039 180.974662,5.2304039 C182.327798,5.238861 183.131223,4.4946362 183.131223,3.0484721 C183.13968,1.7883642 182.412369,1.0695107 181.109976,1.0695107 C180.780149,1.0695107 180.54335,1.094882 180.399579,1.1287104 Z M188.323882,2.6256171 L188.323882,3.4713271 L186.175779,3.4713271 L186.175779,5.1458329 L188.577595,5.1458329 L188.577595,6 L185.135555,6 L185.135555,0.2999146 L188.450738,0.2999146 L188.450738,1.1540817 L186.175779,1.1540817 L186.175779,2.6256171 L188.323882,2.6256171 Z M189.490962,6 L189.490962,0.3760285 C189.879988,0.3083717 190.463528,0.2576291 191.063982,0.2576291 C191.884321,0.2576291 192.44249,0.3929427 192.823059,0.7143125 C193.135972,0.9764826 193.313571,1.3739663 193.313571,1.856021 C193.313571,2.5917887 192.814602,3.0907576 192.281805,3.2852709 L192.281805,3.3106422 C192.687746,3.46287 192.933001,3.8603537 193.076772,4.4100652 C193.254371,5.1204616 193.406599,5.7801154 193.524998,6 L192.450947,6 C192.366376,5.830858 192.231062,5.3657175 192.070377,4.6553211 C191.909692,3.9110963 191.639065,3.6742975 191.047068,3.6573833 L190.522728,3.6573833 L190.522728,6 L189.490962,6 Z M190.522728,1.094882 L190.522728,2.8962443 L191.140096,2.8962443 C191.842036,2.8962443 192.281805,2.5241319 192.281805,1.9575062 C192.281805,1.3316808 191.842036,1.0441394 191.165468,1.0441394 C190.835641,1.0441394 190.624213,1.0695107 190.522728,1.094882 Z" id="PROVIDER-Copy"></path>
                <path d="M4.12983525,2.6256171 L4.12983525,3.4713271 L1.98173185,3.4713271 L1.98173185,5.1458329 L4.38354825,5.1458329 L4.38354825,6 L0.94150855,6 L0.94150855,0.2999146 L4.25669175,0.2999146 L4.25669175,1.1540817 L1.98173185,1.1540817 L1.98173185,2.6256171 L4.12983525,2.6256171 Z M9.55083635,6 L8.34992815,6 L7.73255985,4.8667486 C7.48730395,4.4269794 7.32661905,4.1225238 7.16593415,3.7926969 L7.14056285,3.7926969 C7.00524925,4.1225238 6.85302145,4.4269794 6.62467975,4.8667486 L6.05805405,6 L4.86560295,6 L6.55702295,3.1161289 L4.93325975,0.2999146 L6.12571085,0.2999146 L6.74307915,1.4754515 C6.92913535,1.8306497 7.06444895,2.109734 7.21667675,2.4311038 L7.23359095,2.4311038 C7.38581875,2.0759056 7.50421815,1.8221926 7.68181725,1.4754515 L8.29072845,0.2999146 L9.48317955,0.2999146 L7.81713085,3.0823005 L9.55083635,6 Z M10.3204325,0.2999146 L11.3606558,0.2999146 L11.3606558,6 L10.3204325,6 L10.3204325,0.2999146 Z M12.2993939,5.7293728 L12.5277356,4.8667486 C12.8660196,5.0612619 13.3734456,5.2304039 13.9062429,5.2304039 C14.5743538,5.2304039 14.9464662,4.9174912 14.9464662,4.4523507 C14.9464662,4.0210386 14.6589248,3.7673256 13.9316142,3.5051555 C12.9928761,3.1668715 12.392422,2.6679026 12.392422,1.8475639 C12.392422,0.9172829 13.1704752,0.2068865 14.4052118,0.2068865 C15.0225801,0.2068865 15.4792635,0.3422001 15.775262,0.4944279 L15.521549,1.3316808 C15.3185786,1.2217385 14.9210949,1.0610536 14.3882976,1.0610536 C13.7286438,1.0610536 13.4411024,1.4162518 13.4411024,1.7460787 C13.4411024,2.1858479 13.7709293,2.3888183 14.5320683,2.6848168 C15.521549,3.0569292 16.0036037,3.5558981 16.0036037,4.3762368 C16.0036037,5.2896036 15.3101215,6.084571 13.8385861,6.084571 C13.238132,6.084571 12.6123066,5.915429 12.2993939,5.7293728 Z M18.0333077,6 L18.0333077,1.1709959 L16.4095445,1.1709959 L16.4095445,0.2999146 L20.7142084,0.2999146 L20.7142084,1.1709959 L19.073531,1.1709959 L19.073531,6 L18.0333077,6 Z M21.3823193,0.2999146 L22.4225426,0.2999146 L22.4225426,6 L21.3823193,6 L21.3823193,0.2999146 Z M24.570646,6 L23.6149937,6 L23.6149937,0.2999146 L24.7989877,0.2999146 L26.2705231,2.7440165 C26.6510926,3.378299 26.9809195,4.0379528 27.2430896,4.6553211 L27.2600038,4.6553211 C27.192347,3.8941821 27.1669757,3.1584144 27.1669757,2.2873331 L27.1669757,0.2999146 L28.1310851,0.2999146 L28.1310851,6 L27.0570334,6 L25.5685838,3.4966984 C25.2049285,2.870873 24.824359,2.1689337 24.5452747,1.5261941 L24.5199034,1.5346512 C24.5621889,2.2704189 24.570646,3.0231008 24.570646,3.9618389 L24.570646,6 Z M33.8988273,2.8539588 L33.8988273,5.7378299 C33.535172,5.8731435 32.8247756,6.0591997 32.0636366,6.0591997 C31.0995272,6.0591997 30.3722166,5.8139438 29.8309622,5.2980607 C29.3235362,4.816006 29.0275377,4.0633241 29.0359948,3.2006999 C29.0359948,1.3993376 30.321474,0.2407149 32.2074073,0.2407149 C32.9093466,0.2407149 33.4590581,0.3844856 33.7212282,0.5113421 L33.4928865,1.348595 C33.1799738,1.2132814 32.7994043,1.1033391 32.1989502,1.1033391 C30.9811278,1.1033391 30.1269607,1.8221926 30.1269607,3.1499573 C30.1269607,4.4438936 30.9219281,5.2134897 32.1059221,5.2134897 C32.4780345,5.2134897 32.7571188,5.1627471 32.8924324,5.0950903 L32.8924324,3.6742975 L31.8860375,3.6742975 L31.8860375,2.8539588 L33.8988273,2.8539588 Z M36.7150416,5.9830858 L36.7150416,0.3760285 C37.171725,0.2999146 37.7552649,0.2576291 38.3726332,0.2576291 C39.4382278,0.2576291 40.1739955,0.4775137 40.6983357,0.9172829 C41.2480472,1.3655092 41.5863312,2.0420772 41.5863312,3.0146437 C41.5863312,4.0294957 41.2395901,4.7906347 40.6983357,5.2811465 C40.13171,5.7970296 39.2268003,6.0591997 38.1189202,6.0591997 C37.510009,6.0591997 37.0533256,6.0253713 36.7150416,5.9830858 Z M37.7552649,1.1287104 L37.7552649,5.2050326 C37.8990356,5.2304039 38.1189202,5.2304039 38.3303477,5.2304039 C39.6834837,5.238861 40.4869082,4.4946362 40.4869082,3.0484721 C40.4953653,1.7883642 39.7680547,1.0695107 38.4656613,1.0695107 C38.1358344,1.0695107 37.8990356,1.094882 37.7552649,1.1287104 Z M45.3159123,4.3846939 L43.5060929,4.3846939 L43.0155811,6 L41.9415294,6 L43.768263,0.2999146 L45.0960277,0.2999146 L46.9481326,6 L45.8317954,6 L45.3159123,4.3846939 Z M43.6752349,3.5981836 L45.1383132,3.5981836 L44.6900869,2.194305 C44.5801446,1.8475639 44.4871165,1.4585373 44.4025455,1.1287104 L44.3856313,1.1287104 C44.3010603,1.4585373 44.2164893,1.856021 44.1150041,2.194305 L43.6752349,3.5981836 Z M48.1490408,6 L48.1490408,1.1709959 L46.5252776,1.1709959 L46.5252776,0.2999146 L50.8299415,0.2999146 L50.8299415,1.1709959 L49.1892641,1.1709959 L49.1892641,6 L48.1490408,6 Z M53.832212,4.3846939 L52.0223926,4.3846939 L51.5318808,6 L50.4578291,6 L52.2845627,0.2999146 L53.6123274,0.2999146 L55.4644323,6 L54.3480951,6 L53.832212,4.3846939 Z M52.1915346,3.5981836 L53.6546129,3.5981836 L53.2063866,2.194305 C53.0964443,1.8475639 53.0034162,1.4585373 52.9188452,1.1287104 L52.901931,1.1287104 C52.81736,1.4585373 52.732789,1.856021 52.6313038,2.194305 L52.1915346,3.5981836 Z" id="EXISTING-DATA"></path>
            </g>
            <g id="Group-32">
                <polygon id="Fill-21" fill="#EF3F3F" points="236 110.523207 294.059199 110.523207 294.059199 106 236 106"></polygon>
                <polygon id="Fill-21-Copy" fill="#EF3F3F" points="85 110.523207 143.059199 110.523207 143.059199 106 85 106"></polygon>
                <path d="M259.261256,119.992696 C258.682302,119.992696 258.104479,119.77219 257.662348,119.330046 C256.779217,118.44689 256.779217,117.015295 257.662348,116.132139 L266.298033,107.496207 L257.662348,98.8614051 C256.779217,97.9771181 256.779217,96.546654 257.662348,95.6623671 C258.545479,94.779211 259.977033,94.779211 260.860163,95.6623671 L272.693663,107.496207 L260.860163,119.330046 C260.418033,119.77219 259.84021,119.992696 259.261256,119.992696" id="Fill-22" fill="#EF3F3F"></path>
                <path d="M108.261256,119.992696 C107.682302,119.992696 107.104479,119.77219 106.662348,119.330046 C105.779217,118.44689 105.779217,117.015295 106.662348,116.132139 L115.298033,107.496207 L106.662348,98.8614051 C105.779217,97.9771181 105.779217,96.546654 106.662348,95.6623671 C107.545479,94.779211 108.977033,94.779211 109.860163,95.6623671 L121.693663,107.496207 L109.860163,119.330046 C109.418033,119.77219 108.84021,119.992696 108.261256,119.992696" id="Fill-22-Copy" fill="#EF3F3F"></path>
                <g id="Page-1" transform="translate(0.000000, 80.000000)">
                    <mask id="mask-2" fill="white">
                        <use xlink:href="#path-1"></use>
                    </mask>
                    <g id="Clip-2"></g>
                    <path d="M13.6603628,15.4840222 L60.1118306,15.4840222 L60.1118306,15.2263326 C60.1118306,13.9334925 59.0598423,12.8807722 57.7662701,12.8807722 L28.7915704,12.8807722 L28.7915704,10.0066553 C28.7915704,8.71308311 27.7388501,7.66036278 26.44601,7.66036278 L16.0059232,7.66036278 C14.712351,7.66036278 13.6603628,8.71308311 13.6603628,10.0066553 L13.6603628,15.4840222 Z M13.6603628,19.7688429 L13.6603628,42.9945768 C13.6603628,44.288149 14.712351,45.3401372 16.0059232,45.3401372 L57.7662701,45.3401372 C59.0598423,45.3401372 60.1118306,44.288149 60.1118306,42.9945768 L60.1118306,19.7688429 L13.6603628,19.7688429 Z M57.7662701,49.0005 L16.0059232,49.0005 C12.6947591,49.0005 10,46.306473 10,42.9945768 L10,10.0066553 C10,6.69475908 12.6947591,4 16.0059232,4 L26.44601,4 C29.4914318,4 32.0148859,6.27894187 32.4006881,9.22040939 L57.7662701,9.22040939 C61.0774343,9.22040939 63.7721934,11.9151685 63.7721934,15.2263326 L63.7721934,42.9945768 C63.7721934,46.306473 61.0774343,49.0005 57.7662701,49.0005 Z" id="Fill-1" fill="#303E51" mask="url(#mask-2)"></path>
                </g>
                <path d="M178.22975,8.42521577 L178.241058,8.42521577 L178.22975,8.42521577 Z M173.877419,4.51942674 C173.532535,4.51942674 173.18765,4.59632125 172.866512,4.75011028 C172.297735,5.01924109 171.868042,5.4953086 171.657719,6.08897948 C171.446265,6.68265037 171.479058,7.32268412 171.749312,7.89147737 C172.019565,8.46027062 172.495619,8.88997526 173.089273,9.10143518 C174.315027,9.53566303 175.665165,8.89336767 176.101642,7.66984024 C176.536989,6.44405121 175.894712,5.0927432 174.670089,4.65738455 C174.411142,4.56465881 174.144281,4.51942674 173.877419,4.51942674 Z M173.871765,13.7546841 C173.109627,13.7546841 172.33505,13.6280343 171.576304,13.3577727 C169.846227,12.7426166 168.457642,11.4908191 167.669496,9.83193307 C166.88135,8.17304699 166.785235,6.30722421 167.401504,4.57596682 C168.015512,2.84584024 169.267273,1.45834657 170.927242,0.670177795 C172.586081,-0.120252585 174.45185,-0.212978323 176.181927,0.399916191 C179.754027,1.67093729 181.626581,5.60951957 180.357858,9.1817221 L180.357858,9.1828529 C179.357127,11.9962875 176.699819,13.7546841 173.871765,13.7546841 Z" id="Fill-23" fill="#303E51"></path>
                <path d="M326.22975,38.4252158 L326.241058,38.4252158 L326.22975,38.4252158 Z M321.877419,34.5194267 C321.532535,34.5194267 321.18765,34.5963213 320.866512,34.7501103 C320.297735,35.0192411 319.868042,35.4953086 319.657719,36.0889795 C319.446265,36.6826504 319.479058,37.3226841 319.749312,37.8914774 C320.019565,38.4602706 320.495619,38.8899753 321.089273,39.1014352 C322.315027,39.535663 323.665165,38.8933677 324.101642,37.6698402 C324.536989,36.4440512 323.894712,35.0927432 322.670089,34.6573845 C322.411142,34.5646588 322.144281,34.5194267 321.877419,34.5194267 Z M321.871765,43.7546841 C321.109627,43.7546841 320.33505,43.6280343 319.576304,43.3577727 C317.846227,42.7426166 316.457642,41.4908191 315.669496,39.8319331 C314.88135,38.173047 314.785235,36.3072242 315.401504,34.5759668 C316.015512,32.8458402 317.267273,31.4583466 318.927242,30.6701778 C320.586081,29.8797474 322.45185,29.7870217 324.181927,30.3999162 C327.754027,31.6709373 329.626581,35.6095196 328.357858,39.1817221 L328.357858,39.1828529 C327.357127,41.9962875 324.699819,43.7546841 321.871765,43.7546841 Z" id="Fill-23-Copy" fill="#303E51"></path>
                <path d="M328.875077,181.516422 C327.574692,181.516422 326.516292,182.574852 326.516292,183.875274 C326.516292,185.175696 327.574692,186.234127 328.875077,186.234127 C330.175462,186.234127 331.233862,185.175696 331.233862,183.875274 C331.233862,182.574852 330.175462,181.516422 328.875077,181.516422 M328.875077,190.750549 C325.083608,190.750549 322,187.665722 322,183.875274 C322,180.083696 325.083608,177 328.875077,177 C332.666546,177 335.750154,180.083696 335.750154,183.875274 C335.750154,187.665722 332.666546,190.750549 328.875077,190.750549" id="Fill-24" fill="#303E51"></path>
                <path d="M84.8750769,187.516422 C83.5746923,187.516422 82.5162923,188.574852 82.5162923,189.875274 C82.5162923,191.175696 83.5746923,192.234127 84.8750769,192.234127 C86.1754615,192.234127 87.2338615,191.175696 87.2338615,189.875274 C87.2338615,188.574852 86.1754615,187.516422 84.8750769,187.516422 M84.8750769,196.750549 C81.0836077,196.750549 78,193.665722 78,189.875274 C78,186.083696 81.0836077,183 84.8750769,183 C88.6665462,183 91.7501538,186.083696 91.7501538,189.875274 C91.7501538,193.665722 88.6665462,196.750549 84.8750769,196.750549" id="Fill-24-Copy" fill="#303E51"></path>
                <path d="M259.662693,155.531114 L263.813747,156.810051 L262.844678,152.576329 L259.662693,155.531114 Z M266.887178,162.379249 C266.664416,162.379249 266.440524,162.346456 266.222285,162.279739 L254.594585,158.697359 C253.82227,158.45989 253.236531,157.827772 253.056739,157.041865 C252.876947,156.254827 253.13137,155.431604 253.721631,154.883165 L262.638878,146.603435 C263.23027,146.053865 264.070431,145.86276 264.840485,146.100228 C265.612801,146.337696 266.197408,146.969815 266.377201,147.755722 L269.088785,159.616701 C269.268578,160.404869 269.015285,161.226962 268.423893,161.775401 C267.999855,162.16892 267.44917,162.379249 266.887178,162.379249 Z" id="Fill-25" fill="#303E51"></path>
                <path d="M118.744884,42.5994301 L122.226522,45.1946199 L122.733107,40.8806115 L118.744884,42.5994301 Z M124.014268,51.6017423 C123.535953,51.6017423 123.06103,51.4490841 122.665261,51.1539448 L112.908984,43.8851516 C112.262184,43.4034301 111.920691,42.6129997 112.015676,41.8112613 C112.10953,41.0095229 112.62403,40.3174723 113.364684,39.999717 L124.538945,35.1847634 C125.276207,34.8647465 126.134461,34.9653879 126.781261,35.4482402 C127.429191,35.9299617 127.769553,36.7203921 127.674568,37.5221305 L126.257714,49.6070081 C126.163861,50.4076157 125.64823,51.0985356 124.907576,51.4185524 C124.620361,51.5418098 124.317314,51.6017423 124.014268,51.6017423 Z" id="Fill-26" fill="#303E51"></path>
                <path d="M246.604302,69.1241046 C245.683855,69.1241046 244.818817,68.5564422 244.482978,67.6404928 L240.024355,55.4572354 C239.595794,54.2857249 240.197363,52.9875646 241.36884,52.5601215 C242.539186,52.1349401 243.836178,52.7331342 244.267002,53.9046447 L248.725625,66.0879021 C249.154186,67.2605435 248.552617,68.557573 247.38114,68.9861468 C247.124455,69.0800034 246.863248,69.1241046 246.604302,69.1241046" id="Fill-27" fill="#303E51"></path>
                <path d="M238.283649,65.2624169 C237.363203,65.2624169 236.498165,64.6947544 236.162326,63.7788051 C235.733765,62.6072945 236.335334,61.310265 237.506811,60.8816911 L249.690849,56.4218093 C250.860065,55.9977586 252.159318,56.5948219 252.58788,57.7663325 C253.016442,58.937843 252.414872,60.2360034 251.243395,60.6645772 L239.060488,65.1244591 C238.803803,65.2171848 238.542595,65.2624169 238.283649,65.2624169" id="Fill-28" fill="#303E51"></path>
                <path d="M193.802502,189.687155 L185.520748,179.701046 C184.723555,178.740995 184.856986,177.317316 185.815878,176.521231 C186.777032,175.722885 188.200671,175.857451 188.996732,176.81637 L197.278486,186.803611 C198.075678,187.763662 197.942248,189.187341 196.982225,189.983425 C196.560448,190.333974 196.04934,190.503594 195.541625,190.503594 C194.892563,190.503594 194.248025,190.225417 193.802502,189.687155 Z" id="Fill-29" fill="#303E51"></path>
                <path d="M54.8025015,59.6871553 L46.5207477,49.7010456 C45.7235554,48.740995 45.8569862,47.3173156 46.8158785,46.5212313 C47.7770323,45.7228853 49.2006708,45.8574507 49.9967323,46.8163705 L58.2784862,56.803611 C59.0756785,57.7636616 58.9422477,59.187341 57.9822246,59.9834253 C57.5604477,60.3339739 57.04934,60.5035941 56.5416246,60.5035941 C55.8925631,60.5035941 55.2480246,60.2254169 54.8025015,59.6871553 Z" id="Fill-29-Copy" fill="#303E51"></path>
                <path d="M186.259775,189.80024 C185.610713,189.80024 184.966175,189.522063 184.520652,188.983801 C183.72346,188.023751 183.85689,186.600071 184.816913,185.803987 L194.803867,177.520864 C195.76389,176.722518 197.18866,176.858215 197.98359,177.816004 C198.780783,178.777185 198.647352,180.200864 197.687329,180.996949 L187.700375,189.280071 C187.278598,189.63062 186.76749,189.80024 186.259775,189.80024" id="Fill-30" fill="#303E51"></path>
                <path d="M48.259775,59.80024 C47.6107135,59.80024 46.966175,59.5220628 46.5206519,58.9838012 C45.7234596,58.0237506 45.8568904,56.6000712 46.8169135,55.8039868 L56.8038673,47.5208645 C57.7638904,46.7225185 59.1886596,46.8582147 59.9835904,47.8160037 C60.7807827,48.7771852 60.6473519,50.2008645 59.6873289,50.9969489 L49.700375,59.2800712 C49.2785981,59.6306198 48.7674904,59.80024 48.259775,59.80024" id="Fill-30-Copy" fill="#303E51"></path>
            </g>
            <g id="Page-1" transform="translate(310.000000, 80.000000)" fill="#303E51">
                <path d="M21.2221104,14.8265177 C18.3392688,14.8265177 15.8893167,16.8755324 15.3949468,19.7005005 L15.0087993,21.9885254 L12.8414044,22.7653086 C8.39207569,24.2636869 5.42080337,28.3538323 5.42080337,32.9522894 C5.42080337,38.8557589 10.2945995,43.6587855 16.2855705,43.6587855 L61.9495119,43.6587855 C67.2599874,43.6587855 71.580881,39.4014159 71.580881,34.167673 C71.580881,29.022729 67.1707145,24.6765605 61.9495119,24.6765605 L57.9284406,24.6765605 L58.1297257,20.7187836 L58.1288835,20.4262451 C58.1288835,12.0525883 51.3159279,5.34121453 42.9423806,5.34121453 C37.1055317,5.34121453 31.7154685,8.60063343 29.2120369,13.6464048 L27.4366848,17.1485684 L23.8939816,15.4032959 C23.0404145,15.0294275 22.1215772,14.8265177 21.2221104,14.8265177 M62.0720516,49 L16.2855705,49 C7.30564108,49 0,41.8014769 0,32.9522894 C0,26.3940315 4.06865549,20.5341316 10.2065899,18.1212072 C11.52126,13.1409977 16.0261737,9.60729801 21.2221104,9.60729801 C22.6399497,9.60729801 23.9301961,9.93386232 24.9808373,10.3073158 C28.6414481,3.91545217 35.4021875,0 42.9423806,0 C48.4853026,0 53.6854502,2.14030334 57.5839818,6.02712407 C61.2226956,9.65584696 63.276815,14.3808633 63.417883,19.4067171 C71.030505,20.137856 77,26.4790959 77,34.167673 C77,42.346304 70.3028465,49 62.0720516,49" id="Fill-1"></path>
            </g>
            <g id="Page-1" transform="translate(158.000000, 80.000000)">
                <path d="M38.0002773,22.2969991 C29.025613,22.2969991 24.397393,25.655901 24.397393,27.0893554 C24.397393,28.7155161 29.5619851,31.7030009 38.0002773,31.7030009 C46.9749417,31.7030009 51.602607,28.3435608 51.602607,26.9101063 C51.602607,25.2844839 46.4380149,22.2969991 38.0002773,22.2969991 M38.0002773,35 C28.4670539,35 21,31.525905 21,27.0893554 C21,22.6280447 28.626246,19 38.0002773,19 C47.5329461,19 55,22.474095 55,26.9101063 C55,31.371417 47.373754,35 38.0002773,35" id="Fill-1" fill="#303E51"></path>
                <g id="Group-5" transform="translate(20.000000, 44.000000)">
                    <mask id="mask-4" fill="white">
                        <use xlink:href="#path-3"></use>
                    </mask>
                    <g id="Clip-4"></g>
                    <path d="M3.83005556,5.44906923 L3.83005556,6.08714615 C3.83005556,7.7133 9.00338889,10.7017615 17.4545,10.7017615 C26.4433889,10.7017615 31.0789444,7.34176154 31.0789444,5.90837692 L31.0789444,5.44906923 C27.6445,7.32453077 22.6978333,8.45206923 17.4545,8.45206923 C12.2111667,8.45206923 7.2645,7.32453077 3.83005556,5.44906923 M17.4545,13.9998385 C7.90672222,13.9998385 0.427277778,10.5246077 0.427277778,6.08714615 L0.427277778,2.15045385 C0.427277778,1.47253077 0.8545,0.864069231 1.5045,0.6153 C2.15505556,0.367069231 2.89616667,0.530223077 3.37283333,1.02453077 C5.35172222,3.08037692 10.4733889,5.15399231 17.4545,5.15399231 C24.4356111,5.15399231 29.5572778,3.08037692 31.5367222,1.02453077 C32.0128333,0.530223077 32.7533889,0.367069231 33.4039444,0.6153 C34.0550556,0.864069231 34.4817222,1.47253077 34.4817222,2.15045385 L34.4817222,5.90837692 C34.4817222,10.3706077 26.8433889,13.9998385 17.4545,13.9998385" id="Fill-3" fill="#303E51" mask="url(#mask-4)"></path>
                </g>
                <g id="Group-8" transform="translate(20.000000, 33.000000)">
                    <mask id="mask-6" fill="white">
                        <use xlink:href="#path-5"></use>
                    </mask>
                    <g id="Clip-7"></g>
                    <path d="M3.83005556,5.08415385 L3.83005556,5.74753846 C3.83005556,7.18146154 8.46616667,10.5414615 17.4545,10.5414615 C26.4433889,10.5414615 31.0789444,7.18146154 31.0789444,5.74753846 L31.0789444,5.04807692 C27.6528333,6.88692308 22.8272778,7.93369231 17.4545,7.93369231 C12.0817222,7.93369231 7.2045,6.88315385 3.83005556,5.08415385 M17.4545,13.8395385 C8.06561111,13.8395385 0.427277778,10.2103077 0.427277778,5.74753846 L0.427277778,1.81030769 C0.427277778,1.13238462 0.8545,0.523923077 1.5045,0.275153846 C2.15227778,0.0269230769 2.89616667,0.190076923 3.37283333,0.684384615 C5.64783333,3.04769231 11.3072778,4.63561538 17.4545,4.63561538 C23.6256111,4.63561538 29.0361667,3.10584615 31.5772778,0.644 C32.0639444,0.170692308 32.7972778,0.0301538462 33.4317222,0.285923077 C34.0678333,0.541153846 34.4817222,1.14315385 34.4817222,1.81030769 L34.4817222,5.74753846 C34.4817222,10.2103077 26.8433889,13.8395385 17.4545,13.8395385" id="Fill-6" fill="#303E51" mask="url(#mask-6)"></path>
                </g>
                <path d="M8.74958259,40.2803086 C7.71256261,40.2803086 6.8686165,41.1126103 6.8686165,42.1353676 C6.8686165,43.1565108 7.71256261,43.9866605 8.74958259,43.9866605 C9.78933733,43.9866605 10.6354712,43.1565108 10.6354712,42.1353676 C10.6354712,41.1126103 9.78933733,40.2803086 8.74958259,40.2803086 Z M2.73475733,37.6924797 L2.73475733,45.4080833 C2.73475733,46.5276825 3.45892107,47.3099492 4.49594104,47.3099492 L16.2652427,47.3099492 L16.2652427,37.6924797 L9.72753181,37.6924797 C11.8075882,38.1352621 13.3702286,39.9591165 13.3702286,42.1353676 C13.3702286,44.6398048 11.2972825,46.6767113 8.74958259,46.6767113 C6.20461742,46.6767113 4.13385917,44.6398048 4.13385917,42.1353676 C4.13385917,39.9591165 5.69485866,38.1352621 7.77272727,37.6924797 L2.85836836,37.6924797 C2.817347,37.6930177 2.77577869,37.6930177 2.73475733,37.6924797 Z M19,50 L4.49594104,50 C1.93292648,50 0,48.0260407 0,45.4080833 L0,37.0334173 C0,36.6245296 0,35.6674095 0.976855317,35.216019 C1.43848235,35.0024289 1.91979964,34.9927448 2.82828603,35.0024289 L19,35.0024289 L19,50 Z" id="Fill-9" fill="#303E51"></path>
                <g id="Group-13">
                    <mask id="mask-8" fill="white">
                        <use xlink:href="#path-7"></use>
                    </mask>
                    <g id="Clip-12"></g>
                    <path d="M8.89263133,6.17023226 C7.84183614,6.17023226 6.98667952,7.01639355 6.98667952,8.05613548 C6.98667952,9.09971613 7.84183614,9.94807097 8.89263133,9.94807097 C9.94619759,9.94807097 10.8035711,9.09971613 10.8035711,8.05613548 C10.8035711,7.01639355 9.94619759,6.17023226 8.89263133,6.17023226 Z M8.89263133,12.6900065 C6.31386024,12.6900065 4.21559518,10.6116194 4.21559518,8.05613548 C4.21559518,5.50449032 6.31386024,3.42829677 8.89263133,3.42829677 C11.4741735,3.42829677 13.5746554,5.50449032 13.5746554,8.05613548 C13.5746554,10.6116194 11.4741735,12.6900065 8.89263133,12.6900065 Z M4.58248675,2.81574839 C3.53169157,2.81574839 2.79790843,3.59939355 2.79790843,4.72084516 L2.79790843,13.2575871 C2.79790843,13.7116516 2.90875181,13.8728774 3.5328,13.8728774 L43.0928,13.8728774 C43.113306,13.7478452 43.1315952,13.5548129 43.1315952,13.2575871 L43.1315952,4.72084516 C43.1315952,3.4568129 42.6704867,2.81574839 41.7621253,2.81574839 L4.58248675,2.81574839 Z M43.3826554,16.6148129 L3.5328,16.6148129 C1.11087229,16.6148129 0.0268240964,14.9285226 0.0268240964,13.2575871 L0.0268240964,4.72084516 C0.0268240964,2.0715871 1.98542651,0.0738129032 4.58248675,0.0738129032 L41.7621253,0.0738129032 C44.2383663,0.0738129032 45.9026795,1.94107097 45.9026795,4.72084516 L45.9026795,13.2575871 C45.9026795,16.2874258 44.1408241,16.6148129 43.3826554,16.6148129 Z" id="Fill-11" fill="#303E51" mask="url(#mask-8)"></path>
                </g>
                <g id="Group-16" transform="translate(0.000000, 18.000000)">
                    <mask id="mask-10" fill="white">
                        <use xlink:href="#path-9"></use>
                    </mask>
                    <g id="Clip-15"></g>
                    <path d="M8.95557209,5.61482143 C7.89733953,5.61482143 7.03613023,6.44357143 7.03613023,7.46196429 C7.03613023,8.47821429 7.89733953,9.30482143 8.95557209,9.30482143 C10.0165953,9.30482143 10.8800372,8.47821429 10.8800372,7.46196429 C10.8800372,6.44357143 10.0165953,5.61482143 8.95557209,5.61482143 Z M8.95557209,11.9833929 C6.35854884,11.9833929 4.24543256,9.95517857 4.24543256,7.46196429 C4.24543256,4.96660714 6.35854884,2.93625 8.95557209,2.93625 C11.555386,2.93625 13.6707349,4.96660714 13.6707349,7.46196429 C13.6707349,9.95517857 11.555386,11.9833929 8.95557209,11.9833929 Z M2.8059907,12.2635714 L2.82831628,12.2635714 L16.6249674,12.2635714 L16.6249674,7.81071429 C16.6249674,5.99732143 17.8528744,4.20375 20.1094326,2.68767857 L2.79259535,2.68767857 C2.79482791,2.76589286 2.79985116,2.84464286 2.8032,2.90625 C2.81101395,3.04392857 2.81771163,3.17357143 2.81771163,3.29035714 L2.81771163,11.62875 C2.81771163,11.7176786 2.81436279,11.8141071 2.81101395,11.9164286 C2.80710698,12.0133929 2.8032,12.15 2.8059907,12.2635714 Z M19.4156651,14.9421429 L2.82831628,14.9421429 C1.94589767,14.9421429 1.24375814,14.68875 0.740316279,14.1894643 C-0.0338232558,13.4207143 0.00245581395,12.3835714 0.0219906977,11.8264286 C0.0242232558,11.75625 0.0270139535,11.6898214 0.0270139535,11.62875 L0.0270139535,3.29035714 C0.0270139535,3.21857143 0.0214325581,3.13875 0.0164093023,3.05464286 C-0.0165209302,2.47178571 -0.0734511628,1.49678571 0.668874419,0.743571429 C1.1499907,0.256607143 1.8247814,0.00910714286 2.67482791,0.00910714286 L21.2262698,0.00910714286 C22.3503628,0.00910714286 23.3053395,0.709285714 23.6028279,1.75017857 C23.8986419,2.78839286 23.4515721,3.85339286 22.4882233,4.40142857 C20.5643163,5.49642857 19.4156651,6.77035714 19.4156651,7.81071429 L19.4156651,14.9421429 Z" id="Fill-14" fill="#303E51" mask="url(#mask-10)"></path>
                </g>
            </g>
        </g>
    </g>
</svg>