<?xml version="1.0" encoding="UTF-8" standalone="no"?>
<svg
   xmlns:dc="http://purl.org/dc/elements/1.1/"
   xmlns:cc="http://creativecommons.org/ns#"
   xmlns:rdf="http://www.w3.org/1999/02/22-rdf-syntax-ns#"
   xmlns:svg="http://www.w3.org/2000/svg"
   xmlns="http://www.w3.org/2000/svg"
   xmlns:xlink="http://www.w3.org/1999/xlink"
   xmlns:sodipodi="http://sodipodi.sourceforge.net/DTD/sodipodi-0.dtd"
   xmlns:inkscape="http://www.inkscape.org/namespaces/inkscape"
   width="500"
   height="80"
   viewBox="0 0 500 80"
   version="1.1"
   id="svg2"
   inkscape:version="0.91 r13725"
   sodipodi:docname="space-support-expose.svg">
  <metadata
     id="metadata79">
    <rdf:RDF>
      <cc:Work
         rdf:about="">
        <dc:format>image/svg+xml</dc:format>
        <dc:type
           rdf:resource="http://purl.org/dc/dcmitype/StillImage" />
        <dc:title>Group</dc:title>
      </cc:Work>
    </rdf:RDF>
  </metadata>
  <sodipodi:namedview
     pagecolor="#ffffff"
     bordercolor="#666666"
     borderopacity="1"
     objecttolerance="10"
     gridtolerance="10"
     guidetolerance="10"
     inkscape:pageopacity="0"
     inkscape:pageshadow="2"
     inkscape:window-width="1790"
     inkscape:window-height="794"
     id="namedview77"
     showgrid="false"
     fit-margin-top="0"
     fit-margin-left="0"
     fit-margin-right="0"
     fit-margin-bottom="0"
     inkscape:zoom="1.7301587"
     inkscape:cx="222.3229"
     inkscape:cy="76.805134"
     inkscape:window-x="0"
     inkscape:window-y="0"
     inkscape:window-maximized="0"
     inkscape:current-layer="deploy-your-own-provider-copy" />
  <!-- Generator: Sketch 48.2 (47327) - http://www.bohemiancoding.com/sketch -->
  <title
     id="title4">Group</title>
  <desc
     id="desc6">Created with Sketch.</desc>
  <defs
     id="defs8">
    <polygon
       id="path-1"
       points="73.452,61.4695 0,61.4695 0,-0.0003 73.452,-0.0003 " />
    <polygon
       id="path-3"
       points="34.481667,13.999838 0.42727778,13.999838 0.42727778,0.5006559 34.481667,0.5006559 " />
    <polygon
       id="path-5"
       points="34.481667,13.839538 0.42727778,13.839538 0.42727778,0.15989935 34.481667,0.15989935 " />
    <polygon
       id="path-7"
       points="45.902679,16.614813 0.026824096,16.614813 0.026824096,0.074032258 45.902679,0.074032258 " />
    <polygon
       id="path-9"
       points="23.693047,14.942143 0,14.942143 0,0.0091071429 23.693047,0.0091071429 " />
  </defs>
  <g
     id="deploy-your-own-provider-copy"
     transform="translate(-1452,-232.99984)"
     style="fill:none;fill-rule:evenodd;stroke:none;stroke-width:1">
    <g
       id="g4308"
       transform="translate(61.5,-11.000079)">
      <polygon
         transform="translate(1442,175)"
         style="fill:#ef3f3f"
         points="236,106 236,110.52321 294.0592,110.52321 294.0592,106 "
         id="Fill-21" />
      <polygon
         transform="translate(1442,175)"
         style="fill:#ef3f3f"
         points="85,106 85,110.52321 143.0592,110.52321 143.0592,106 "
         id="Fill-21-Copy" />
      <path
         style="fill:#ef3f3f"
         inkscape:connector-curvature="0"
         id="Fill-22"
         d="m 1701.2613,294.9927 c -0.579,0 -1.1568,-0.22051 -1.5989,-0.66265 -0.8832,-0.88316 -0.8832,-2.31476 0,-3.19791 l 8.6356,-8.63593 -8.6356,-8.63481 c -0.8832,-0.88428 -0.8832,-2.31475 0,-3.19903 0.8831,-0.88316 2.3146,-0.88316 3.1978,0 l 11.8335,11.83384 -11.8335,11.83384 c -0.4422,0.44214 -1.02,0.66265 -1.5989,0.66265" />
      <path
         style="fill:#ef3f3f"
         inkscape:connector-curvature="0"
         id="Fill-22-Copy"
         d="m 1550.2613,294.9927 c -0.579,0 -1.1568,-0.22051 -1.5989,-0.66265 -0.8832,-0.88316 -0.8832,-2.31476 0,-3.19791 l 8.6356,-8.63593 -8.6356,-8.63481 c -0.8832,-0.88428 -0.8832,-2.31475 0,-3.19903 0.8831,-0.88316 2.3146,-0.88316 3.1978,0 l 11.8335,11.83384 -11.8335,11.83384 c -0.4422,0.44214 -1.02,0.66265 -1.5989,0.66265" />
      <g
         transform="translate(1442,255)"
         id="Page-1">
        <mask
           fill="white"
           id="mask-2">
          <use
             height="100%"
             width="100%"
             y="0"
             x="0"
             id="use28"
             xlink:href="#path-1" />
        </mask>
        <g
           id="Clip-2" />
        <path
           style="fill:#303e51"
           inkscape:connector-curvature="0"
           mask="url(#mask-2)"
           id="Fill-1"
           d="m 13.660363,15.484022 46.451468,0 0,-0.257689 c 0,-1.29284 -1.051989,-2.345561 -2.345561,-2.345561 l -28.9747,0 0,-2.874117 c 0,-1.2935719 -1.05272,-2.3462922 -2.34556,-2.3462922 l -10.440087,0 c -1.293572,0 -2.34556,1.0527203 -2.34556,2.3462922 l 0,5.477367 z m 0,4.284821 0,23.225734 c 0,1.293572 1.051988,2.34556 2.34556,2.34556 l 41.760347,0 c 1.293572,0 2.345561,-1.051988 2.345561,-2.34556 l 0,-23.225734 -46.451468,0 z M 57.76627,49.0005 l -41.760347,0 C 12.694759,49.0005 10,46.306473 10,42.994577 L 10,10.006655 C 10,6.6947591 12.694759,4 16.005923,4 L 26.44601,4 c 3.045422,0 5.568876,2.2789419 5.954678,5.2204094 l 25.365582,0 c 3.311164,0 6.005923,2.6947596 6.005923,6.0059236 l 0,27.768244 c 0,3.311896 -2.694759,6.005923 -6.005923,6.005923 z" />
      </g>
      <g
         id="g44"
         transform="translate(1752,255)"
         style="fill:#303e51">
        <path
           d="m 21.22211,14.826518 c -2.882841,0 -5.332793,2.049014 -5.827163,4.873982 l -0.386148,2.288025 -2.167395,0.776784 c -4.4493283,1.498378 -7.4206006,5.588523 -7.4206006,10.18698 0,5.90347 4.8737966,10.706496 10.8647666,10.706496 l 45.663942,0 c 5.310475,0 9.631369,-4.257369 9.631369,-9.491112 0,-5.144944 -4.410166,-9.491113 -9.631369,-9.491113 l -4.021071,0 0.201285,-3.957776 -8.43e-4,-0.292539 c 0,-8.373657 -6.812955,-15.0850305 -15.186502,-15.0850305 -5.836849,0 -11.226913,3.2594189 -13.730344,8.3051905 l -1.775352,3.502163 -3.542703,-1.745272 C 23.040414,15.029428 22.121577,14.826518 21.22211,14.826518 M 62.072052,49 16.28557,49 C 7.3056411,49 0,41.801477 0,32.952289 0,26.394031 4.0686555,20.534132 10.20659,18.121207 c 1.31467,-4.980209 5.819584,-8.513909 11.01552,-8.513909 1.41784,0 2.708086,0.3265643 3.758727,0.700018 C 28.641448,3.9154522 35.402187,0 42.942381,0 48.485303,0 53.68545,2.1403033 57.583982,6.0271241 61.222696,9.655847 63.276815,14.380863 63.417883,19.406717 71.030505,20.137856 77,26.479096 77,34.167673 77,42.346304 70.302846,49 62.072052,49"
           id="path46"
           inkscape:connector-curvature="0" />
      </g>
      <g
         id="g48"
         transform="translate(1600,255)">
        <path
           d="m 38.000277,22.296999 c -8.974664,0 -13.602884,3.358902 -13.602884,4.792356 0,1.626161 5.164592,4.613646 13.602884,4.613646 8.974665,0 13.60233,-3.35944 13.60233,-4.792895 0,-1.625622 -5.164592,-4.613107 -13.60233,-4.613107 m 0,12.703001 C 28.467054,35 21,31.525905 21,27.089355 21,22.628045 28.626246,19 38.000277,19 47.532946,19 55,22.474095 55,26.910106 55,31.371417 47.373754,35 38.000277,35"
           id="path50"
           inkscape:connector-curvature="0"
           style="fill:#303e51" />
        <g
           id="Group-5"
           transform="translate(20,44)">
          <mask
             id="mask-4"
             fill="white">
            <use
               xlink:href="#path-3"
               id="use54"
               x="0"
               y="0"
               width="100%"
               height="100%" />
          </mask>
          <g
             id="Clip-4" />
          <path
             d="m 3.8300556,5.4490692 0,0.6380769 c 0,1.6261539 5.1733333,4.6146159 13.6244444,4.6146159 8.988889,0 13.624444,-3.3600005 13.624444,-4.7933851 l 0,-0.4593077 c -3.434444,1.8754616 -8.381111,3.003 -13.624444,3.003 -5.243333,0 -10.19,-1.1275384 -13.6244444,-3.003 M 17.4545,13.999838 c -9.5477778,0 -17.02722222,-3.47523 -17.02722222,-7.9126919 l 0,-3.9366922 C 0.42727778,1.4725308 0.8545,0.86406923 1.5045,0.6153 2.1550556,0.36706923 2.8961667,0.53022308 3.3728333,1.0245308 5.3517222,3.0803769 10.473389,5.1539923 17.4545,5.1539923 c 6.981111,0 12.102778,-2.0736154 14.082222,-4.1294615 0.476111,-0.49430772 1.216667,-0.65746157 1.867222,-0.4092308 0.651112,0.24876923 1.077778,0.8572308 1.077778,1.5351539 l 0,3.757923 c 0,4.4622311 -7.638333,8.0914611 -17.027222,8.0914611"
             id="Fill-3"
             mask="url(#mask-4)"
             inkscape:connector-curvature="0"
             style="fill:#303e51" />
        </g>
        <g
           id="Group-8"
           transform="translate(20,33)">
          <mask
             id="mask-6"
             fill="white">
            <use
               xlink:href="#path-5"
               id="use60"
               x="0"
               y="0"
               width="100%"
               height="100%" />
          </mask>
          <g
             id="Clip-7" />
          <path
             d="m 3.8300556,5.0841538 0,0.6633847 c 0,1.433923 4.6361111,4.7939235 13.6244444,4.7939235 8.988889,0 13.624444,-3.3600005 13.624444,-4.7939235 l 0,-0.6994616 C 27.652833,6.8869231 22.827278,7.9336923 17.4545,7.9336923 c -5.372778,0 -10.25,-1.0505385 -13.6244444,-2.8495385 M 17.4545,13.839539 c -9.3888889,0 -17.02722222,-3.629231 -17.02722222,-8.0920005 l 0,-3.9372308 C 0.42727778,1.1323846 0.8545,0.52392308 1.5045,0.27515385 2.1522778,0.02692308 2.8961667,0.19007692 3.3728333,0.68438461 5.6478333,3.0476923 11.307278,4.6356154 17.4545,4.6356154 c 6.171111,0 11.581667,-1.5297692 14.122778,-3.9916154 0.486666,-0.47330769 1.22,-0.61384615 1.854444,-0.35807692 0.636111,0.25523077 1.05,0.85723072 1.05,1.52438462 l 0,3.9372308 c 0,4.4627695 -7.638333,8.0920005 -17.027222,8.0920005"
             id="Fill-6"
             mask="url(#mask-6)"
             inkscape:connector-curvature="0"
             style="fill:#303e51" />
        </g>
        <path
           d="m 8.7495826,40.280309 c -1.03702,0 -1.8809661,0.832301 -1.8809661,1.855059 0,1.021143 0.8439461,1.851292 1.8809661,1.851292 1.0397547,0 1.8858884,-0.830149 1.8858884,-1.851292 0,-1.022758 -0.8461337,-1.855059 -1.8858884,-1.855059 z m -6.0148253,-2.587829 0,7.715603 c 0,1.119599 0.7241638,1.901866 1.7611837,1.901866 l 11.769302,0 0,-9.617469 -6.5377112,0 c 2.0800562,0.442782 3.6426972,2.266636 3.6426972,4.442888 0,2.504437 -2.072946,4.541343 -4.6206464,4.541343 -2.5449652,0 -4.6157234,-2.036906 -4.6157234,-4.541343 0,-2.176252 1.5609995,-4.000106 3.6388681,-4.442888 l -4.9143589,0 c -0.041021,5.38e-4 -0.08259,5.38e-4 -0.1236111,0 z M 19,50 4.495941,50 C 1.9329265,50 0,48.026041 0,45.408083 L 0,37.033417 C 0,36.62453 0,35.667409 0.97685532,35.216019 1.4384823,35.002429 1.9197996,34.992745 2.828286,35.002429 L 19,35.002429 19,50 Z"
           id="Fill-9"
           inkscape:connector-curvature="0"
           style="fill:#303e51" />
        <g
           id="Group-13">
          <mask
             id="mask-8"
             fill="white">
            <use
               xlink:href="#path-7"
               id="use67"
               x="0"
               y="0"
               width="100%"
               height="100%" />
          </mask>
          <g
             id="Clip-12" />
          <path
             d="m 8.8926313,6.1702323 c -1.0507952,0 -1.9059518,0.8461612 -1.9059518,1.8859032 0,1.0435806 0.8551566,1.8919355 1.9059518,1.8919355 1.0535663,0 1.9109397,-0.8483549 1.9109397,-1.8919355 0,-1.039742 -0.8573734,-1.8859032 -1.9109397,-1.8859032 z m 0,6.5197747 c -2.5787711,0 -4.6770361,-2.078388 -4.6770361,-4.6338715 0,-2.5516452 2.098265,-4.6278387 4.6770361,-4.6278387 2.5815417,0 4.6820237,2.0761935 4.6820237,4.6278387 0,2.5554835 -2.100482,4.6338715 -4.6820237,4.6338715 z M 4.5824867,2.8157484 c -1.0507951,0 -1.7845783,0.7836451 -1.7845783,1.9050968 l 0,8.5367418 c 0,0.454065 0.1108434,0.61529 0.7348916,0.61529 l 39.56,0 c 0.02051,-0.125032 0.0388,-0.318064 0.0388,-0.61529 l 0,-8.5367418 c 0,-1.2640323 -0.461108,-1.9050968 -1.36947,-1.9050968 l -37.1796383,0 z m 38.8001683,13.7990646 -39.849855,0 c -2.4219277,0 -3.5059759,-1.68629 -3.5059759,-3.357226 l 0,-8.5367418 c 0,-2.6492581 1.9586024,-4.6470323 4.5556626,-4.6470323 l 37.1796383,0 c 2.476241,0 4.140554,1.8672581 4.140554,4.6470323 l 0,8.5367418 c 0,3.029839 -1.761855,3.357226 -2.520024,3.357226 z"
             id="Fill-11"
             mask="url(#mask-8)"
             inkscape:connector-curvature="0"
             style="fill:#303e51" />
        </g>
        <g
           id="Group-16"
           transform="translate(0,18)">
          <mask
             id="mask-10"
             fill="white">
            <use
               xlink:href="#path-9"
               id="use73"
               x="0"
               y="0"
               width="100%"
               height="100%" />
          </mask>
          <g
             id="Clip-15" />
          <path
             d="m 8.9555721,5.6148214 c -1.0582326,0 -1.9194419,0.82875 -1.9194419,1.8471429 0,1.01625 0.8612093,1.8428571 1.9194419,1.8428571 1.0610229,0 1.9244649,-0.8266071 1.9244649,-1.8428571 0,-1.0183929 -0.863442,-1.8471429 -1.9244649,-1.8471429 z m 0,6.3685716 c -2.5970233,0 -4.7101395,-2.0282144 -4.7101395,-4.5214287 0,-2.4953572 2.1131162,-4.5257143 4.7101395,-4.5257143 2.5998139,0 4.7151629,2.0303571 4.7151629,4.5257143 0,2.4932143 -2.115349,4.5214287 -4.7151629,4.5214287 z m -6.1495814,0.280178 0.022326,0 13.7966503,0 0,-4.4528567 c 0,-1.8133929 1.227907,-3.6069643 3.484466,-5.1230357 l -17.3168372,0 c 0.00223,0.078214 0.00726,0.1569643 0.010605,0.2185714 0.00781,0.1376786 0.014512,0.2673214 0.014512,0.3841071 l 0,8.3383929 c 0,0.08893 -0.00335,0.185357 -0.0067,0.287679 -0.00391,0.09696 -0.00781,0.233571 -0.00502,0.347142 z m 16.6096743,2.678572 -16.5873487,0 c -0.8824186,0 -1.5845582,-0.253393 -2.08800002,-0.752679 -0.77413954,-0.76875 -0.73786047,-1.805893 -0.71832558,-2.363035 0.0022326,-0.07018 0.0050232,-0.136608 0.0050232,-0.197679 l 0,-8.3383929 C 0.0270139,3.2185711 0.0214325,3.13875 0.01640925,3.0546429 -0.01652093,2.4717857 -0.07345116,1.4967857 0.66887442,0.74357143 1.1499907,0.25660714 1.8247814,0.00910714 2.6748279,0.00910714 l 18.5514421,0 c 1.124093,0 2.079069,0.70017857 2.376558,1.74107146 0.295814,1.0382143 -0.151256,2.1032143 -1.114605,2.65125 -1.923907,1.095 -3.072558,2.3689285 -3.072558,3.4092857 l 0,7.1314287 z"
             id="Fill-14"
             mask="url(#mask-10)"
             inkscape:connector-curvature="0"
             style="fill:#303e51" />
        </g>
      </g>
    </g>
  </g>
</svg>
