<?xml version="1.0" encoding="UTF-8"?>
<svg width="257px" height="264px" viewBox="0 0 257 264" version="1.1" xmlns="http://www.w3.org/2000/svg" xmlns:xlink="http://www.w3.org/1999/xlink">
    <!-- Generator: Sketch 53.2 (72643) - https://sketchapp.com -->
    <title>Page 1</title>
    <desc>Created with Sketch.</desc>
    <defs>
        <polygon id="path-1" points="1.98951966e-13 263.559 256.917 263.559 256.917 8.52651283e-14 1.98951966e-13 8.52651283e-14"></polygon>
    </defs>
    <g id="Empty-screen-first-screen" stroke="none" stroke-width="1" fill="none" fill-rule="evenodd">
        <g id="new" transform="translate(-1111.000000, -366.000000)">
            <g id="Page-1" transform="translate(1110.000000, 366.000000)">
                <path d="M181.395,98.8424 C175.894,98.8424 171.417,103.3184 171.417,108.8194 C171.417,114.3204 175.894,118.7954 181.395,118.7954 L243.947,118.7954 C249.448,118.7954 253.923,114.3204 253.923,108.8194 C253.923,103.3184 249.448,98.8424 243.947,98.8424 L181.395,98.8424 Z M243.947,122.7904 L181.395,122.7904 C173.691,122.7904 167.423,116.5234 167.423,108.8194 C167.423,101.1144 173.691,94.8474 181.395,94.8474 L243.947,94.8474 C251.651,94.8474 257.917,101.1144 257.917,108.8194 C257.917,116.5234 251.651,122.7904 243.947,122.7904 L243.947,122.7904 Z" id="Fill-5" fill="#303E51"></path>
                <mask id="mask-2" fill="white">
                    <use xlink:href="#path-1"></use>
                </mask>
                <g id="Clip-8"></g>
                <path d="M61.7959517,54.7060983 C60.910382,54.7060983 60.1570356,55.3026284 60.0048155,56.1250476 L59.8921809,56.7585275 L59.259223,56.9729889 C57.9051583,57.404959 57,58.5850677 57,59.911452 C57,61.6145722 58.4846556,63 60.3088475,63 L74.0629285,63 C75.682256,63 77,61.76999 77,60.2580947 C77,58.7721024 75.6549135,57.5165703 74.0629285,57.5165703 L72.8900588,57.5165703 L72.9488247,56.4225508 L72.9484166,56.3376043 C72.9484166,53.930152 70.8805909,52 68.3381489,52 C66.5657852,52 64.9301339,52.937078 64.1698498,54.388406 L63.651159,55.3567199 L62.6170421,54.8740866 C62.3530036,54.7651418 62.0714169,54.7060983 61.7959517,54.7060983 M74.369967,65 L60.0536795,65 C57.2669326,65 55,62.8018728 55,60.1002136 C55,58.0910136 56.2700923,56.2970264 58.1849747,55.5647281 C58.5857443,54.0393461 59.9837779,52.9558896 61.5974475,52.9558896 C62.0490547,52.9558896 62.4595682,53.0610317 62.7895889,53.1793166 C63.9236907,51.2087235 66.0342977,50 68.3889252,50 C70.1123193,50 71.7285308,50.6546739 72.9401599,51.8436833 C74.0789218,52.9604074 74.7186281,54.418022 74.7542144,55.9672252 C77.1312951,56.1742238 79,58.1168885 79,60.4739609 C79,62.9694431 76.9232847,65 74.369967,65" id="Fill-3" fill="#303E51" mask="url(#mask-2)"></path>
                <polygon id="Fill-7" fill="#EF3F3F" mask="url(#mask-2)" points="115.77 108.876 156.863 108.876 156.863 104.876 115.77 104.876"></polygon>
                <path d="M132.7915,117.9269 C132.2795,117.9269 131.7685,117.7319 131.3775,117.3409 C130.5965,116.5599 130.5965,115.2939 131.3775,114.5129 L139.0145,106.8759 L131.3775,99.2399 C130.5965,98.4589 130.5965,97.1919 131.3775,96.4109 C132.1585,95.6299 133.4245,95.6299 134.2055,96.4109 L144.6705,106.8759 L134.2055,117.3409 C133.8145,117.7319 133.3035,117.9269 132.7915,117.9269" id="Fill-9" fill="#EF3F3F" mask="url(#mask-2)"></path>
                <path d="M224.1333,190.6886 C223.6213,190.6886 223.1103,190.4936 222.7193,190.1026 L211.6773,179.0616 C210.8963,178.2806 210.8963,177.0146 211.6773,176.2336 C212.4583,175.4526 213.7243,175.4526 214.5053,176.2336 L224.1333,185.8606 L233.7603,176.2336 C234.5413,175.4526 235.8073,175.4526 236.5883,176.2336 C237.3693,177.0146 237.3693,178.2806 236.5883,179.0616 L225.5473,190.1026 C225.1563,190.4936 224.6453,190.6886 224.1333,190.6886" id="Fill-10" fill="#EF3F3F" mask="url(#mask-2)"></path>
                <path d="M173.2681,39.9078 L173.2781,39.9078 L173.2681,39.9078 Z M169.4181,36.4538 C169.1141,36.4538 168.8091,36.5218 168.5251,36.6568 C168.0221,36.8958 167.6421,37.3168 167.4561,37.8418 C167.2691,38.3668 167.2981,38.9328 167.5371,39.4358 C167.7761,39.9388 168.1971,40.3188 168.7221,40.5058 C169.8061,40.8898 170.9991,40.3218 171.3861,39.2388 C171.7711,38.1548 171.2031,36.9598 170.1191,36.5748 C169.8901,36.4938 169.6541,36.4538 169.4181,36.4538 L169.4181,36.4538 Z M169.4141,44.6208 C168.7411,44.6208 168.0551,44.5078 167.3841,44.2688 C165.8541,43.7248 164.6261,42.6178 163.9291,41.1518 C163.2321,39.6838 163.1471,38.0338 163.6921,36.5028 C164.2351,34.9728 165.3421,33.7468 166.8091,33.0488 C168.2761,32.3518 169.9261,32.2658 171.4561,32.8108 C174.6161,33.9338 176.2731,37.4178 175.1501,40.5758 L175.1501,40.5768 C174.2651,43.0648 171.9151,44.6208 169.4141,44.6208 L169.4141,44.6208 Z" id="Fill-11" fill="#303E51" mask="url(#mask-2)"></path>
                <path d="M136.3159,135.924 C135.1669,135.924 134.2309,136.86 134.2309,138.009 C134.2309,139.159 135.1669,140.095 136.3159,140.095 C137.4659,140.095 138.4019,139.159 138.4019,138.009 C138.4019,136.86 137.4659,135.924 136.3159,135.924 M136.3159,144.09 C132.9629,144.09 130.2369,141.362 130.2369,138.009 C130.2369,134.657 132.9629,131.929 136.3159,131.929 C139.6689,131.929 142.3959,134.657 142.3959,138.009 C142.3959,141.362 139.6689,144.09 136.3159,144.09" id="Fill-12" fill="#303E51" mask="url(#mask-2)"></path>
                <path d="M25.2564,176.965 L28.9264,178.096 L28.0704,174.352 L25.2564,176.965 Z M31.6444,183.02 C31.4474,183.02 31.2494,182.991 31.0564,182.932 L20.7744,179.765 C20.0924,179.555 19.5734,178.996 19.4144,178.301 C19.2554,177.606 19.4804,176.877 20.0024,176.392 L27.8874,169.069 C28.4094,168.583 29.1534,168.413 29.8344,168.624 C30.5174,168.834 31.0344,169.393 31.1934,170.088 L33.5914,180.577 C33.7504,181.274 33.5264,182.001 33.0034,182.486 C32.6284,182.834 32.1414,183.02 31.6444,183.02 L31.6444,183.02 Z" id="Fill-13" fill="#303E51" mask="url(#mask-2)"></path>
                <path d="M124.8677,9.7516 L127.9467,12.0456 L128.3947,8.2316 L124.8677,9.7516 Z M129.5277,17.7126 C129.1047,17.7126 128.6847,17.5776 128.3347,17.3166 L119.7067,10.8876 C119.1347,10.4616 118.8327,9.7626 118.9167,9.0536 C118.9997,8.3446 119.4547,7.7336 120.1097,7.4516 L129.9917,3.1936 C130.6447,2.9116 131.4027,3.0006 131.9747,3.4266 C132.5477,3.8536 132.8487,4.5526 132.7647,5.2616 L131.5117,15.9476 C131.4287,16.6566 130.9727,17.2676 130.3177,17.5496 C130.0637,17.6586 129.7957,17.7126 129.5277,17.7126 L129.5277,17.7126 Z" id="Fill-14" fill="#303E51" mask="url(#mask-2)"></path>
                <path d="M85.8042,14.7697 C84.9902,14.7697 84.2252,14.2677 83.9282,13.4577 L79.9852,2.6837 C79.6062,1.6467 80.1382,0.4997 81.1742,0.1207 C82.2082,-0.2553 83.3572,0.2737 83.7372,1.3107 L87.6802,12.0847 C88.0592,13.1217 87.5272,14.2687 86.4912,14.6477 C86.2642,14.7297 86.0332,14.7697 85.8042,14.7697" id="Fill-15" fill="#303E51" mask="url(#mask-2)"></path>
                <path d="M78.4449,11.3541 C77.6309,11.3541 76.8659,10.8521 76.5689,10.0421 C76.1899,9.0071 76.7219,7.8591 77.7579,7.4801 L88.5329,3.5361 C89.5679,3.1611 90.7159,3.6891 91.0949,4.7261 C91.4739,5.7611 90.9419,6.9091 89.9059,7.2881 L79.1319,11.2321 C78.9049,11.3141 78.6739,11.3541 78.4449,11.3541" id="Fill-16" fill="#303E51" mask="url(#mask-2)"></path>
                <path d="M11.0767,153.6017 C10.5027,153.6017 9.9327,153.3557 9.5387,152.8797 L2.2147,144.0477 C1.5097,143.1987 1.6277,141.9397 2.4757,141.2357 C3.3257,140.5307 4.5847,140.6487 5.2887,141.4977 L12.6127,150.3297 C13.3177,151.1787 13.1997,152.4377 12.3507,153.1417 C11.9777,153.4517 11.5257,153.6017 11.0767,153.6017" id="Fill-17" fill="#303E51" mask="url(#mask-2)"></path>
                <path d="M2.9986,152.8478 C2.4246,152.8478 1.8546,152.6018 1.4606,152.1258 C0.7556,151.2768 0.8736,150.0178 1.7226,149.3138 L10.5546,141.9888 C11.4036,141.2848 12.6636,141.4008 13.3666,142.2518 C14.0716,143.1008 13.9536,144.3598 13.1046,145.0638 L4.2726,152.3878 C3.8996,152.6978 3.4476,152.8478 2.9986,152.8478" id="Fill-18" fill="#303E51" mask="url(#mask-2)"></path>
                <path d="M209.0943,232.5167 L192.7113,232.5167 L192.7113,228.5167 L209.0943,228.5167 C216.2833,228.5167 222.1333,222.6667 222.1333,215.4777 L222.1333,138.0097 L226.1333,138.0097 L226.1333,215.4777 C226.1333,224.8727 218.4903,232.5167 209.0943,232.5167" id="Fill-19" fill="#EF3F3F" mask="url(#mask-2)"></path>
                <path d="M75.023,259.441 L169.713,259.441 L169.713,185.336 L75.023,185.336 L75.023,259.441 Z M75.023,181.219 L169.713,181.219 L169.713,164.751 L75.023,164.751 L75.023,181.219 Z M70.906,263.559 L173.831,263.559 L173.831,160.634 L70.906,160.634 L70.906,263.559 Z" id="Fill-20" fill="#303E51" mask="url(#mask-2)"></path>
                <path d="M110.668269,236.569231 L113.938462,233.291014 L111.3625,230.723077 L108.092308,234.001294 L110.668269,236.569231 Z M125.046154,240.661538 L125.046154,235.4 L121.538462,235.4 L121.538462,240.661538 L125.046154,240.661538 Z M104,220.2 L104,223.707692 L109.261538,223.707692 L109.261538,220.2 L104,220.2 Z M128.553846,205 L118.030769,205 L118.030769,213.0845 C114.891385,214.8325 112.769231,218.076385 112.769231,221.807692 C112.769231,227.371038 117.487077,231.892308 123.292308,231.892308 C129.097538,231.892308 133.815385,227.371038 133.815385,221.807692 C133.815385,218.076385 131.693231,214.8325 128.553846,213.0845 L128.553846,205 Z M136.738462,223.707692 L142,223.707692 L142,220.2 L136.738462,220.2 L136.738462,223.707692 Z M135.331731,236.569231 L137.907692,233.993269 L134.619231,230.723077 L132.061538,233.280769 L135.331731,236.569231 Z" id="Shape" fill="#303E51" fill-rule="nonzero" mask="url(#mask-2)"></path>
                <polygon id="Fill-41" fill="#303E51" mask="url(#mask-2)" points="97.667 175.043 161.48 175.043 161.48 170.927 97.667 170.927"></polygon>
                <polygon id="Fill-22" fill="#303E51" mask="url(#mask-2)" points="81.198 175.043 85.315 175.043 85.315 170.927 81.198 170.927"></polygon>
                <polygon id="Fill-23" fill="#303E51" mask="url(#mask-2)" points="89.432 175.043 93.549 175.043 93.549 170.927 89.432 170.927"></polygon>
                <path d="M188.5894,105.8327 C188.5894,106.3237 188.4414,106.7407 188.1444,107.0837 C187.8474,107.4277 187.4294,107.6647 186.8924,107.7927 L186.8924,107.8257 C187.5274,107.9037 188.0064,108.0967 188.3314,108.4027 C188.6574,108.7087 188.8204,109.1217 188.8204,109.6407 C188.8204,110.3957 188.5464,110.9847 187.9994,111.4057 C187.4504,111.8257 186.6684,112.0367 185.6514,112.0367 C184.7994,112.0367 184.0444,111.8947 183.3854,111.6117 L183.3854,110.1997 C183.6904,110.3537 184.0254,110.4787 184.3904,110.5757 C184.7554,110.6717 185.1164,110.7207 185.4744,110.7207 C186.0234,110.7207 186.4274,110.6267 186.6894,110.4407 C186.9494,110.2547 187.0804,109.9557 187.0804,109.5437 C187.0804,109.1757 186.9304,108.9137 186.6294,108.7597 C186.3284,108.6057 185.8494,108.5287 185.1904,108.5287 L184.5934,108.5287 L184.5934,107.2557 L185.2004,107.2557 C185.8094,107.2557 186.2544,107.1767 186.5354,107.0167 C186.8174,106.8577 186.9564,106.5847 186.9564,106.1977 C186.9564,105.6037 186.5844,105.3067 185.8394,105.3067 C185.5814,105.3067 185.3194,105.3497 185.0534,105.4357 C184.7864,105.5207 184.4894,105.6697 184.1634,105.8807 L183.3964,104.7367 C184.1114,104.2217 184.9664,103.9637 185.9584,103.9637 C186.7714,103.9637 187.4124,104.1277 187.8834,104.4577 C188.3544,104.7877 188.5894,105.2457 188.5894,105.8327" id="Fill-24" fill="#303E51" mask="url(#mask-2)"></path>
                <path d="M193.4351,109.1466 L192.8011,109.1676 C192.3251,109.1826 191.9701,109.2686 191.7381,109.4256 C191.5051,109.5836 191.3881,109.8236 191.3881,110.1456 C191.3881,110.6076 191.6541,110.8386 192.1831,110.8386 C192.5631,110.8386 192.8671,110.7296 193.0941,110.5106 C193.3221,110.2926 193.4351,110.0026 193.4351,109.6406 L193.4351,109.1466 Z M193.9181,111.9286 L193.6011,111.1126 L193.5581,111.1126 C193.2831,111.4596 192.9991,111.7006 192.7071,111.8346 C192.4151,111.9686 192.0351,112.0366 191.5661,112.0366 C190.9901,112.0366 190.5361,111.8716 190.2051,111.5426 C189.8731,111.2126 189.7071,110.7436 189.7071,110.1346 C189.7071,109.4976 189.9301,109.0276 190.3761,108.7246 C190.8221,108.4226 191.4951,108.2546 192.3931,108.2226 L193.4351,108.1906 L193.4351,107.9276 C193.4351,107.3186 193.1231,107.0146 192.5001,107.0146 C192.0211,107.0146 191.4561,107.1596 190.8081,107.4496 L190.2661,106.3426 C190.9571,105.9806 191.7231,105.8006 192.5651,105.8006 C193.3711,105.8006 193.9881,105.9756 194.4171,106.3266 C194.8471,106.6776 195.0621,107.2106 195.0621,107.9276 L195.0621,111.9286 L193.9181,111.9286 Z" id="Fill-25" fill="#303E51" mask="url(#mask-2)"></path>
                <path d="M199.1128,110.7096 C199.4668,110.7096 199.7398,110.5906 199.9288,110.3526 C200.1188,110.1146 200.2148,109.7746 200.2148,109.3346 C200.2148,108.9516 200.1258,108.6496 199.9478,108.4296 C199.7708,108.2096 199.5038,108.0996 199.1448,108.0996 C198.8078,108.0996 198.5208,108.2086 198.2828,108.4266 C198.0448,108.6456 197.9258,108.8996 197.9258,109.1896 C197.9258,109.6156 198.0378,109.9756 198.2608,110.2696 C198.4848,110.5626 198.7688,110.7096 199.1128,110.7096 M196.2768,108.5936 C196.2768,107.0396 196.6048,105.8826 197.2618,105.1236 C197.9198,104.3646 198.9038,103.9846 200.2148,103.9846 C200.6618,103.9846 201.0118,104.0116 201.2668,104.0656 L201.2668,105.3926 C200.9478,105.3206 200.6328,105.2846 200.3218,105.2846 C199.7518,105.2846 199.2878,105.3706 198.9268,105.5426 C198.5678,105.7146 198.2988,105.9686 198.1188,106.3056 C197.9398,106.6416 197.8348,107.1196 197.8018,107.7396 L197.8728,107.7396 C198.2258,107.1306 198.7948,106.8266 199.5748,106.8266 C200.2768,106.8266 200.8258,107.0466 201.2238,107.4866 C201.6208,107.9276 201.8198,108.5366 201.8198,109.3136 C201.8198,110.1506 201.5838,110.8146 201.1108,111.3026 C200.6378,111.7926 199.9828,112.0366 199.1448,112.0366 C198.5648,112.0366 198.0588,111.9016 197.6278,111.6336 C197.1958,111.3646 196.8628,110.9726 196.6288,110.4576 C196.3938,109.9416 196.2768,109.3206 196.2768,108.5936" id="Fill-26" fill="#303E51" mask="url(#mask-2)"></path>
                <polygon id="Fill-27" fill="#303E51" mask="url(#mask-2)" points="203.3882 111.9288 206.3372 105.4838 202.4642 105.4838 202.4642 104.0868 208.0992 104.0868 208.0992 105.1288 205.1282 111.9288"></polygon>
                <path d="M211.5054,105.317 C211.1614,105.317 210.8924,105.435 210.6984,105.671 C210.5054,105.908 210.4094,106.248 210.4094,106.692 C210.4094,107.071 210.4964,107.372 210.6724,107.594 C210.8484,107.817 211.1144,107.927 211.4724,107.927 C211.8094,107.927 212.0974,107.817 212.3374,107.597 C212.5774,107.377 212.6964,107.124 212.6964,106.837 C212.6964,106.411 212.5854,106.051 212.3614,105.757 C212.1384,105.464 211.8524,105.317 211.5054,105.317 M214.3464,107.428 C214.3464,108.975 214.0204,110.129 213.3684,110.892 C212.7174,111.655 211.7304,112.036 210.4094,112.036 C209.9434,112.036 209.5914,112.011 209.3514,111.961 L209.3514,110.629 C209.6514,110.704 209.9674,110.742 210.2964,110.742 C210.8514,110.742 211.3084,110.66 211.6654,110.497 C212.0244,110.335 212.2984,110.078 212.4874,109.73 C212.6774,109.38 212.7864,108.9 212.8164,108.287 L212.7514,108.287 C212.5434,108.624 212.3034,108.86 212.0304,108.996 C211.7594,109.132 211.4194,109.2 211.0114,109.2 C210.3264,109.2 209.7874,108.981 209.3944,108.542 C209.0004,108.104 208.8034,107.494 208.8034,106.713 C208.8034,105.872 209.0424,105.207 209.5204,104.718 C209.9984,104.23 210.6494,103.985 211.4724,103.985 C212.0524,103.985 212.5604,104.121 212.9954,104.393 C213.4304,104.665 213.7644,105.06 213.9974,105.577 C214.2304,106.095 214.3464,106.712 214.3464,107.428" id="Fill-28" fill="#303E51" mask="url(#mask-2)"></path>
                <path d="M216.7749,107.8898 C216.7749,108.2158 216.8489,108.4728 216.9979,108.6628 C217.1459,108.8528 217.3729,108.9478 217.6769,108.9478 C217.9849,108.9478 218.2109,108.8528 218.3529,108.6628 C218.4969,108.4728 218.5679,108.2158 218.5679,107.8898 C218.5679,107.1668 218.2709,106.8048 217.6769,106.8048 C217.0759,106.8048 216.7749,107.1668 216.7749,107.8898 L216.7749,107.8898 Z M216.1779,112.7778 C216.1779,113.0028 216.2869,113.1808 216.5039,113.3088 C216.7199,113.4378 217.0229,113.5028 217.4139,113.5028 C218.0009,113.5028 218.4609,113.4218 218.7949,113.2608 C219.1269,113.0998 219.2939,112.8798 219.2939,112.5998 C219.2939,112.3748 219.1949,112.2188 218.9979,112.1328 C218.8009,112.0468 218.4969,112.0038 218.0859,112.0038 L217.2359,112.0038 C216.9349,112.0038 216.6839,112.0748 216.4819,112.2158 C216.2799,112.3578 216.1779,112.5448 216.1779,112.7778 L216.1779,112.7778 Z M220.8139,105.9238 L220.8139,106.7568 L219.8739,106.9978 C220.0459,107.2668 220.1309,107.5678 220.1309,107.9008 C220.1309,108.5448 219.9069,109.0468 219.4579,109.4078 C219.0079,109.7668 218.3839,109.9468 217.5859,109.9468 L217.2909,109.9308 L217.0479,109.9038 C216.8799,110.0328 216.7959,110.1758 216.7959,110.3338 C216.7959,110.5698 217.0969,110.6878 217.6989,110.6878 L218.7179,110.6878 C219.3779,110.6878 219.8789,110.8298 220.2249,111.1128 C220.5709,111.3948 220.7439,111.8108 220.7439,112.3588 C220.7439,113.0598 220.4509,113.6048 219.8659,113.9918 C219.2799,114.3778 218.4389,114.5708 217.3429,114.5708 C216.5049,114.5708 215.8659,114.4258 215.4229,114.1338 C214.9809,113.8418 214.7599,113.4328 214.7599,112.9068 C214.7599,112.5448 214.8729,112.2428 215.0989,111.9988 C215.3239,111.7548 215.6559,111.5818 216.0919,111.4778 C215.9239,111.4058 215.7769,111.2888 215.6519,111.1258 C215.5269,110.9628 215.4639,110.7898 215.4639,110.6078 C215.4639,110.3788 215.5299,110.1878 215.6629,110.0358 C215.7959,109.8838 215.9869,109.7338 216.2379,109.5868 C215.9219,109.4508 215.6719,109.2328 215.4879,108.9318 C215.3029,108.6308 215.2119,108.2768 215.2119,107.8688 C215.2119,107.2128 215.4239,106.7058 215.8509,106.3478 C216.2769,105.9908 216.8849,105.8108 217.6769,105.8108 C217.8449,105.8108 218.0449,105.8268 218.2759,105.8568 C218.5059,105.8878 218.6539,105.9098 218.7179,105.9238 L220.8139,105.9238 Z" id="Fill-29" fill="#303E51" mask="url(#mask-2)"></path>
                <path d="M221.5718,111.1608 C221.5718,110.8598 221.6518,110.6328 221.8128,110.4788 C221.9738,110.3248 222.2088,110.2478 222.5168,110.2478 C222.8138,110.2478 223.0438,110.3268 223.2068,110.4838 C223.3698,110.6418 223.4508,110.8678 223.4508,111.1608 C223.4508,111.4438 223.3688,111.6668 223.2048,111.8288 C223.0398,111.9928 222.8098,112.0738 222.5168,112.0738 C222.2168,112.0738 221.9828,111.9938 221.8178,111.8348 C221.6538,111.6758 221.5718,111.4508 221.5718,111.1608" id="Fill-30" fill="#303E51" mask="url(#mask-2)"></path>
                <path d="M224.7085,111.1608 C224.7085,110.8598 224.7885,110.6328 224.9495,110.4788 C225.1105,110.3248 225.3455,110.2478 225.6535,110.2478 C225.9505,110.2478 226.1805,110.3268 226.3435,110.4838 C226.5065,110.6418 226.5875,110.8678 226.5875,111.1608 C226.5875,111.4438 226.5055,111.6668 226.3415,111.8288 C226.1765,111.9928 225.9465,112.0738 225.6535,112.0738 C225.3535,112.0738 225.1195,111.9938 224.9545,111.8348 C224.7905,111.6758 224.7085,111.4508 224.7085,111.1608" id="Fill-31" fill="#303E51" mask="url(#mask-2)"></path>
                <path d="M227.8452,111.1608 C227.8452,110.8598 227.9252,110.6328 228.0862,110.4788 C228.2472,110.3248 228.4822,110.2478 228.7902,110.2478 C229.0872,110.2478 229.3172,110.3268 229.4802,110.4838 C229.6432,110.6418 229.7242,110.8678 229.7242,111.1608 C229.7242,111.4438 229.6422,111.6668 229.4782,111.8288 C229.3132,111.9928 229.0832,112.0738 228.7902,112.0738 C228.4902,112.0738 228.2562,111.9938 228.0912,111.8348 C227.9272,111.6758 227.8452,111.4508 227.8452,111.1608" id="Fill-32" fill="#303E51" mask="url(#mask-2)"></path>
                <path d="M37.3237,128.1989 L54.9697,111.8579 L59.6777,116.0089 C60.4687,116.7059 61.6667,116.6699 62.4127,115.9209 L66.7337,111.5879 L84.6737,128.1989 L37.3237,128.1989 Z M34.2227,118.8729 L38.6497,118.8729 C39.7537,118.8729 40.6467,117.9789 40.6467,116.8759 C40.6467,115.7719 39.7537,114.8789 38.6497,114.8789 L34.2227,114.8789 L34.2227,110.8139 L38.6497,110.8139 C39.7537,110.8139 40.6467,109.9199 40.6467,108.8169 C40.6467,107.7139 39.7537,106.8189 38.6497,106.8189 L34.2227,106.8189 L34.2227,102.7549 L38.6497,102.7549 C39.7537,102.7549 40.6467,101.8609 40.6467,100.7579 C40.6467,99.6549 39.7537,98.7599 38.6497,98.7599 L34.2227,98.7599 L34.2227,92.0099 L52.3757,108.8169 L34.2227,125.6239 L34.2227,118.8729 Z M91.5577,109.8099 C90.2717,109.8099 89.0107,109.7129 87.7737,109.5329 L87.7737,125.6239 L69.6227,108.8169 L74.9767,103.8589 C73.9457,103.0089 72.9847,102.0779 72.0957,101.0809 L65.2837,107.3889 C65.2777,107.3949 65.2707,107.3989 65.2647,107.4039 L65.2397,107.4299 L60.9987,111.3569 L37.3237,89.4349 L66.1167,89.4349 C65.8267,88.1369 65.6347,86.8029 65.5457,85.4399 L32.2257,85.4399 C32.0407,85.4399 31.8637,85.4729 31.6927,85.5209 C31.6527,85.5319 31.6137,85.5439 31.5747,85.5579 C31.4077,85.6159 31.2477,85.6879 31.1037,85.7859 C31.0987,85.7889 31.0947,85.7939 31.0897,85.7969 C30.9497,85.8939 30.8287,86.0129 30.7177,86.1419 C30.6907,86.1729 30.6657,86.2019 30.6407,86.2349 C30.5337,86.3759 30.4427,86.5269 30.3757,86.6929 C30.3737,86.6989 30.3687,86.7029 30.3667,86.7079 C30.3607,86.7239 30.3617,86.7409 30.3557,86.7579 C30.3027,86.9049 30.2677,87.0599 30.2507,87.2209 C30.2467,87.2639 30.2397,87.3049 30.2377,87.3479 C30.2367,87.3789 30.2287,87.4069 30.2287,87.4369 L30.2287,98.7599 L18.0697,98.7599 C16.9667,98.7599 16.0727,99.6549 16.0727,100.7579 C16.0727,101.8609 16.9667,102.7549 18.0697,102.7549 L30.2287,102.7549 L30.2287,106.8189 L21.6947,106.8189 C20.5917,106.8189 19.6977,107.7139 19.6977,108.8169 C19.6977,109.9199 20.5917,110.8139 21.6947,110.8139 L30.2287,110.8139 L30.2287,114.8789 L18.0697,114.8789 C16.9667,114.8789 16.0727,115.7719 16.0727,116.8759 C16.0727,117.9789 16.9667,118.8729 18.0697,118.8729 L30.2287,118.8729 L30.2287,130.1959 C30.2287,130.2269 30.2367,130.2549 30.2377,130.2849 C30.2397,130.3279 30.2467,130.3689 30.2507,130.4119 C30.2677,130.5739 30.3027,130.7299 30.3557,130.8779 C30.3617,130.8929 30.3607,130.9089 30.3667,130.9249 C30.3687,130.9299 30.3737,130.9339 30.3757,130.9399 C30.4417,131.1059 30.5347,131.2589 30.6407,131.3999 C30.6657,131.4309 30.6907,131.4609 30.7167,131.4909 C30.8277,131.6199 30.9497,131.7399 31.0907,131.8369 C31.0947,131.8399 31.0987,131.8449 31.1037,131.8469 C31.2477,131.9459 31.4077,132.0179 31.5747,132.0749 C31.6137,132.0889 31.6527,132.1009 31.6927,132.1119 C31.8637,132.1599 32.0397,132.1929 32.2257,132.1929 L89.7707,132.1929 C89.9577,132.1929 90.1347,132.1599 90.3047,132.1119 C90.3447,132.1009 90.3837,132.0889 90.4227,132.0749 C90.5897,132.0179 90.7507,131.9459 90.8937,131.8469 C90.8987,131.8449 90.9017,131.8399 90.9067,131.8369 C91.0477,131.7399 91.1697,131.6199 91.2807,131.4909 C91.3057,131.4609 91.3317,131.4309 91.3557,131.3999 C91.4637,131.2589 91.5547,131.1059 91.6217,130.9399 C91.6247,130.9339 91.6287,130.9299 91.6307,130.9249 C91.6367,130.9089 91.6357,130.8929 91.6407,130.8779 C91.6947,130.7299 91.7287,130.5739 91.7467,130.4119 C91.7517,130.3689 91.7577,130.3279 91.7597,130.2849 C91.7607,130.2549 91.7677,130.2269 91.7677,130.1959 L91.7677,109.8039 C91.6977,109.8049 91.6287,109.8099 91.5577,109.8099 L91.5577,109.8099 Z" id="Fill-34" fill="#303E51" mask="url(#mask-2)"></path>
                <polygon id="Fill-35" fill="#303E51" mask="url(#mask-2)" points="82.232 86.7413 81.043 86.7413 81.043 82.1193 79.519 82.1193 79.519 81.1293 83.756 81.1293 83.756 82.1193 82.232 82.1193"></polygon>
                <path d="M85.6177,83.9279 C85.6177,84.5539 85.7367,85.0269 85.9747,85.3439 C86.2127,85.6609 86.5687,85.8199 87.0417,85.8199 C87.9907,85.8199 88.4657,85.1889 88.4657,83.9279 C88.4657,82.6639 87.9937,82.0319 87.0497,82.0319 C86.5757,82.0319 86.2197,82.1909 85.9787,82.5099 C85.7377,82.8279 85.6177,83.3009 85.6177,83.9279 M89.7137,83.9279 C89.7137,84.8569 89.4827,85.5709 89.0217,86.0699 C88.5617,86.5689 87.9017,86.8179 87.0417,86.8179 C86.1817,86.8179 85.5217,86.5689 85.0607,86.0699 C84.5997,85.5709 84.3707,84.8539 84.3707,83.9199 C84.3707,82.9859 84.6007,82.2729 85.0627,81.7799 C85.5247,81.2869 86.1867,81.0409 87.0497,81.0409 C87.9117,81.0409 88.5717,81.2899 89.0277,81.7859 C89.4847,82.2819 89.7137,82.9959 89.7137,83.9279" id="Fill-36" fill="#303E51" mask="url(#mask-2)"></path>
                <polygon id="Fill-37" fill="#303E51" mask="url(#mask-2)" points="95.3902 86.7413 94.0392 86.7413 92.5692 84.3763 92.0662 84.7373 92.0662 86.7413 90.8762 86.7413 90.8762 81.1293 92.0662 81.1293 92.0662 83.6973 92.5352 83.0373 94.0542 81.1293 95.3742 81.1293 93.4172 83.6133"></polygon>
                <polygon id="Fill-38" fill="#303E51" mask="url(#mask-2)" points="99.3286 86.7413 96.0966 86.7413 96.0966 81.1293 99.3286 81.1293 99.3286 82.1043 97.2866 82.1043 97.2866 83.3363 99.1856 83.3363 99.1856 84.3113 97.2866 84.3113 97.2866 85.7583 99.3286 85.7583"></polygon>
                <path d="M105.4771,86.7413 L103.9651,86.7413 L101.5241,82.4953 L101.4901,82.4953 C101.5381,83.2453 101.5621,83.7803 101.5621,84.1003 L101.5621,86.7413 L100.4991,86.7413 L100.4991,81.1293 L101.9991,81.1293 L104.4371,85.3323 L104.4641,85.3323 C104.4251,84.6033 104.4071,84.0873 104.4071,83.7853 L104.4071,81.1293 L105.4771,81.1293 L105.4771,86.7413 Z" id="Fill-39" fill="#303E51" mask="url(#mask-2)"></path>
                <path d="M92.4986,60.6574 C79.6446,60.6574 69.2266,71.0764 69.2266,83.9294 C69.2266,96.7824 79.6446,107.2014 92.4986,107.2014 C105.3516,107.2014 115.7696,96.7824 115.7696,83.9294 C115.7696,71.0764 105.3516,60.6574 92.4986,60.6574 M92.4986,64.6524 C103.1276,64.6524 111.7756,73.3004 111.7756,83.9294 C111.7756,94.5594 103.1276,103.2064 92.4986,103.2064 C81.8686,103.2064 73.2216,94.5594 73.2216,83.9294 C73.2216,73.3004 81.8686,64.6524 92.4986,64.6524" id="Fill-40" fill="#303E51" mask="url(#mask-2)"></path>
                <path d="M65.9999985,83.5098346 C53.7376801,82.8494457 44,72.6982499 44,60.272 C44,47.419 54.418,37 67.272,37 C79.3658967,37 89.3039239,46.2246422 90.4356265,58.0218054 C89.0832238,58.0773391 87.7579928,58.2381979 86.4679198,58.496402 C85.5687383,48.6964438 77.3024552,40.995 67.272,40.995 C56.642,40.995 47.995,49.643 47.995,60.272 C47.995,70.5787549 56.1241068,79.0212773 66.3079532,79.5251999 C66.1052322,80.8203928 66,82.1479072 66,83.5 C66,83.5032784 66.0000006,83.5065567 66.0000019,83.5098348 Z" id="Combined-Shape" fill="#303E51" mask="url(#mask-2)"></path>
            </g>
        </g>
    </g>
</svg>