<?xml version="1.0" encoding="UTF-8" standalone="no"?>
<svg
   xmlns:dc="http://purl.org/dc/elements/1.1/"
   xmlns:cc="http://creativecommons.org/ns#"
   xmlns:rdf="http://www.w3.org/1999/02/22-rdf-syntax-ns#"
   xmlns:svg="http://www.w3.org/2000/svg"
   xmlns="http://www.w3.org/2000/svg"
   xmlns:xlink="http://www.w3.org/1999/xlink"
   xmlns:sodipodi="http://sodipodi.sourceforge.net/DTD/sodipodi-0.dtd"
   xmlns:inkscape="http://www.inkscape.org/namespaces/inkscape"
   width="500"
   height="80"
   viewBox="0 0 500.00001 80"
   version="1.1"
   id="svg2"
   inkscape:version="0.91 r13725"
   sodipodi:docname="space-support-request.svg">
  <metadata
     id="metadata110">
    <rdf:RDF>
      <cc:Work
         rdf:about="">
        <dc:format>image/svg+xml</dc:format>
        <dc:type
           rdf:resource="http://purl.org/dc/dcmitype/StillImage" />
        <dc:title>Page 1</dc:title>
      </cc:Work>
    </rdf:RDF>
  </metadata>
  <sodipodi:namedview
     pagecolor="#ffffff"
     bordercolor="#666666"
     borderopacity="1"
     objecttolerance="10"
     gridtolerance="10"
     guidetolerance="10"
     inkscape:pageopacity="0"
     inkscape:pageshadow="2"
     inkscape:window-width="1516"
     inkscape:window-height="990"
     id="namedview108"
     showgrid="false"
     inkscape:zoom="1.350574"
     inkscape:cx="308.34228"
     inkscape:cy="38.043686"
     inkscape:window-x="409"
     inkscape:window-y="53"
     inkscape:window-maximized="0"
     inkscape:current-layer="svg2"
     fit-margin-top="0"
     fit-margin-left="0"
     fit-margin-right="0"
     fit-margin-bottom="0" />
  <!-- Generator: Sketch 48.2 (47327) - http://www.bohemiancoding.com/sketch -->
  <title
     id="title4">Page 1</title>
  <desc
     id="desc6">Created with Sketch.</desc>
  <defs
     id="defs8">
    <polygon
       id="path-1"
       points="0.56170962,17.217134 0.56170962,0.20902869 30.054715,0.20902869 30.054715,0.20902869 30.054715,17.217134 " />
    <polygon
       id="path-3"
       points="0,266.8692 293.52395,266.8692 293.52395,0.55861603 0,0.55861603 " />
    <polygon
       id="path-5"
       points="0.35403016,0.42913363 28.570524,0.42913363 28.570524,11.999861 0.35403016,11.999861 " />
    <polygon
       id="path-7"
       points="0.35403016,0.13705658 28.570524,0.13705658 28.570524,11.862462 0.35403016,11.862462 " />
    <polygon
       id="path-9"
       points="0.022159036,0.060967742 37.919605,0.060967742 37.919605,13.682787 0.022159036,13.682787 " />
    <polygon
       id="path-11"
       points="0,0.0078928571 19.744206,0.0078928571 19.744206,12.949857 0,12.949857 " />
    <mask
       fill="white"
       id="mask-4">
      <use
         height="100%"
         width="100%"
         y="0"
         x="0"
         id="use31"
         xlink:href="#path-3" />
    </mask>
  </defs>
  <g
     id="g4620"
     transform="translate(5.57364,-0.33893884)">
    <g
       transform="translate(-5.7e-4,-27.684224)"
       id="Clip-15"
       style="fill:none;fill-rule:evenodd;stroke:none;stroke-width:1" />
    <path
       transform="translate(19.99943,-27.684224)"
       d="m 161.77124,86.280169 47.91069,0 0,-34.681688 -47.91069,0 0,34.681688 z m 49.7007,3.578987 -51.48958,0 c -0.98829,0 -1.79001,-0.801738 -1.79001,-1.790059 l 0,-38.260675 c 0,-0.988321 0.80172,-1.788928 1.79001,-1.788928 l 51.48958,0 c 0.98829,0 1.78887,0.800607 1.78887,1.788928 l 0,38.260675 c 0,0.988321 -0.80058,1.790059 -1.78887,1.790059 z"
       id="Fill-14"
       mask="url(#mask-4)"
       inkscape:connector-curvature="0"
       style="fill:#303e51;fill-rule:evenodd;stroke:none;stroke-width:1" />
    <path
       transform="translate(19.99943,-27.684224)"
       d="m 164.54841,86.279943 42.35635,0 -16.04561,-14.857604 -3.86497,3.875258 c -0.66942,0.671696 -1.74026,0.704489 -2.45151,0.07803 L 180.33395,71.6632 164.54841,86.279943 Z m 46.92353,3.578987 -51.48958,0 c -0.73613,0 -1.3965,-0.450059 -1.66675,-1.137586 -0.268,-0.684136 -0.0905,-1.465519 0.45117,-1.965334 l 20.32219,-18.817671 c 0.67281,-0.623071 1.70972,-0.637772 2.39949,-0.02827 l 4.15897,3.668321 3.8955,-3.904658 c 0.67846,-0.683005 1.77644,-0.702228 2.48204,-0.04976 l 20.66141,19.132034 c 0.54164,0.499815 0.71917,1.281198 0.45231,1.965334 -0.27025,0.687527 -0.93062,1.137586 -1.66675,1.137586 z"
       id="Fill-16"
       mask="url(#mask-4)"
       inkscape:connector-curvature="0"
       style="fill:#303e51;fill-rule:evenodd;stroke:none;stroke-width:1" />
    <path
       transform="translate(19.99943,-27.684224)"
       d="m 164.54841,51.598368 21.17817,19.610363 21.17818,-19.610363 -42.35635,0 z m 21.17817,23.83843 c -0.43647,0 -0.87295,-0.159443 -1.21557,-0.476067 L 158.76678,51.1223 c -0.54163,-0.500945 -0.71917,-1.281198 -0.45117,-1.966464 0.27025,-0.686396 0.93062,-1.136455 1.66675,-1.136455 l 51.48958,0 c 0.73613,0 1.3965,0.450059 1.66675,1.136455 0.26686,0.685266 0.0893,1.465519 -0.45231,1.966464 l -25.74422,23.838431 c -0.34262,0.316624 -0.78023,0.476067 -1.21558,0.476067 z"
       id="Fill-17"
       mask="url(#mask-4)"
       inkscape:connector-curvature="0"
       style="fill:#303e51;fill-rule:evenodd;stroke:none;stroke-width:1" />
    <path
       transform="translate(19.99943,-27.684224)"
       d="m 165.72995,63.518149 -18.41345,0 c -0.98829,0 -1.79001,-0.801739 -1.79001,-1.790059 0,-0.988321 0.80172,-1.788929 1.79001,-1.788929 l 18.41345,0 c 0.98829,0 1.78887,0.800608 1.78887,1.788929 0,0.98832 -0.80058,1.790059 -1.78887,1.790059"
       id="Fill-18"
       mask="url(#mask-4)"
       inkscape:connector-curvature="0"
       style="fill:#303e51;fill-rule:evenodd;stroke:none;stroke-width:1" />
    <path
       transform="translate(19.99943,-27.684224)"
       d="m 165.72995,70.72814 -15.1704,0 c -0.98829,0 -1.79001,-0.800608 -1.79001,-1.788928 0,-0.988321 0.80172,-1.790059 1.79001,-1.790059 l 15.1704,0 c 0.98829,0 1.78887,0.801738 1.78887,1.790059 0,0.98832 -0.80058,1.788928 -1.78887,1.788928"
       id="Fill-19"
       mask="url(#mask-4)"
       inkscape:connector-curvature="0"
       style="fill:#303e51;fill-rule:evenodd;stroke:none;stroke-width:1" />
    <path
       transform="translate(19.99943,-27.684224)"
       d="m 165.72995,77.939149 -18.41345,0 c -0.98829,0 -1.79001,-0.801738 -1.79001,-1.790059 0,-0.98719 0.80172,-1.788928 1.79001,-1.788928 l 18.41345,0 c 0.98829,0 1.78887,0.801738 1.78887,1.788928 0,0.988321 -0.80058,1.790059 -1.78887,1.790059"
       id="Fill-20"
       mask="url(#mask-4)"
       inkscape:connector-curvature="0"
       style="fill:#303e51;fill-rule:evenodd;stroke:none;stroke-width:1" />
    <g
       transform="translate(0,1.5492177)"
       id="g4529">
      <path
         style="fill:#303e51;fill-rule:evenodd;stroke:none;stroke-width:1"
         inkscape:connector-curvature="0"
         id="Fill-49"
         d="m 30.50193,36.880971 c 1.6905,1.554853 3.6309,2.592928 5.78049,2.592928 2.15072,0 4.09,-1.038075 5.78049,-2.592928 l 1.88726,0.625334 c -0.79493,3.894481 -3.91812,6.809687 -7.66775,6.809687 -3.74963,0 -6.87508,-2.915206 -7.66774,-6.809687 l 1.88725,-0.625334 z m -3.37309,-8.975173 c -0.16283,-0.412742 -0.5699,-0.678481 -0.97472,-0.678481 -0.85034,0 -2.08061,-1.038076 -2.68444,-2.9627 -0.32454,-1.032422 -0.39012,-2.123646 -0.18319,-2.994363 0.10064,-0.419528 0.35732,-1.157941 0.94872,-1.386363 0.0554,-0.02262 0.15265,-0.03505 0.24877,-0.04523 0.22163,-0.02488 0.41499,-0.134565 0.5733,-0.291747 1.05274,0.739544 1.76739,1.892962 1.96753,2.238987 0.147,2.379207 1.91892,4.268777 4.09904,4.268777 2.27624,0 4.12731,-2.055798 4.12731,-4.580878 0,-0.179797 -0.017,-0.399173 -0.052,-0.598194 0.69769,-0.30984 1.4847,-0.304186 2.18125,0.009 -0.0407,0.18206 -0.0678,0.431967 -0.0678,0.589148 0,2.52508 1.8522,4.580878 4.12957,4.580878 2.18013,0 3.95091,-1.88957 4.09904,-4.268777 0.19902,-0.346025 0.91253,-1.499443 1.96754,-2.237856 0.15605,0.156051 0.34941,0.266869 0.57104,0.290616 0.0611,0.0068 0.18771,0.02035 0.25216,0.04523 0.58913,0.228422 0.84582,0.966835 0.94532,1.386363 0.20807,0.870717 0.14135,1.961941 -0.18318,2.994363 -0.60496,1.924624 -1.83411,2.9627 -2.70593,2.9627 l -0.001,0 c -0.43874,0.02488 -0.78589,0.258954 -0.94985,0.678481 -1.76852,4.501722 -5.10316,9.312152 -9.15471,9.312152 -4.05267,0 -7.38618,-4.81043 -9.15357,-9.312152 z m 6.06884,-6.39016 c 0.13343,0.147004 0.30757,0.205806 0.48171,0.221637 -0.12778,1.463257 -1.20427,2.626852 -2.55554,2.626852 -1.43607,0 -2.60416,-1.297029 -2.60416,-2.890329 0,-1.59443 1.16809,-2.89146 2.60416,-2.89146 0.99508,0 1.83524,0.646819 2.27398,1.560507 -0.0656,0.06219 -0.13909,0.109687 -0.20015,0.176405 -0.29739,0.330194 -0.29739,0.866194 0,1.196388 z m 6.16835,-1.196388 c -0.0599,-0.06672 -0.13343,-0.114211 -0.19789,-0.176405 0.43761,-0.913688 1.27664,-1.560507 2.27398,-1.560507 1.43495,0 2.60303,1.29703 2.60303,2.89146 0,1.5933 -1.16808,2.890329 -2.60303,2.890329 -1.3524,0 -2.43115,-1.163595 -2.5578,-2.626852 0.17414,-0.01583 0.34941,-0.0735 0.48171,-0.221637 0.29852,-0.330194 0.29852,-0.866194 0,-1.196388 z M 31.54337,7.7481265 c -0.4263,6.0430055 8.59837,5.1926425 8.59837,5.1926425 2.77377,-0.283831 4.6712,0.187713 5.97611,0.896725 0.49641,1.250667 0.79267,2.624591 0.93628,4.06184 -0.77232,0.463629 -1.39989,1.081046 -1.87482,1.660017 -0.65471,-1.569553 -2.07835,-2.668692 -3.73719,-2.668692 -1.55028,0 -2.88798,0.965705 -3.59358,2.372422 -1.003,-0.407089 -2.13037,-0.40822 -3.1311,0 -0.7056,-1.406717 -2.04443,-2.372422 -3.59359,-2.372422 -1.65997,0 -3.08361,1.099139 -3.73832,2.668692 -0.47605,-0.581232 -1.10363,-1.196388 -1.87595,-1.660017 0.45005,-4.510768 2.78283,-8.2582455 6.03379,-10.1512075 z M 54.01514,38.546642 c -0.19336,-0.105164 -0.39803,-0.194498 -0.60948,-0.265738 l -9.28135,-3.072389 0,0.0011 -0.38107,-0.12665 c 1.34787,-1.691679 2.47412,-3.680759 3.30976,-5.669839 1.65771,-0.359595 3.22608,-2.071629 3.96108,-4.406734 0.46023,-1.468912 0.54051,-3.000017 0.22729,-4.314009 -0.27591,-1.157941 -0.86278,-2.049012 -1.63283,-2.583882 0.0418,-0.301924 -0.0554,-0.77573 -0.54051,-0.822092 -0.0407,-0.339241 -0.0814,-0.67622 -0.14022,-1.007545 L 49.21955,13.88835 C 50.0224,7.2686665 45.87361,1.1623375 39.91332,0.20228752 c -2.34748,-0.377688 -4.71191,0.541654 -6.33231,2.46062398 l -0.10742,0.12665 c -2.22761,-1.129671 -4.82725,-0.862802 -6.82871,0.704489 -2.24797,1.758397 -3.52687,4.672473 -3.39005,7.7222455 l 0.23972,6.06562 c -0.28495,0 -0.61174,0.347156 -0.53937,0.826616 -0.76893,0.53487 -1.35693,1.427072 -1.63284,2.583882 -0.31435,1.313992 -0.2318,2.847359 0.22955,4.314009 0.72595,2.31362 2.27285,4.015476 3.95543,4.396557 0.83564,1.991341 1.96415,3.986076 3.31429,5.681147 l -0.38107,0.124388 -1.0471,0.348287 -8.22973,2.722971 C 14.89844,39.236431 4.92393,44.554591 6.77726,73.549482 l 13.31481,0 7.03338,0 17.97132,0 14.55978,0 5.78615,0 C 67.16825,46.559503 58.64338,40.083402 54.01514,38.546642 Z" />
      <path
         style="fill:#303e51;fill-rule:evenodd;stroke:none;stroke-width:1"
         inkscape:connector-curvature="0"
         id="Fill-51"
         d="m 71.75409,77.460582 -70.61541,0 C 0.50884,77.460582 0,76.577422 0,75.489592 c 0,-1.08896 0.50884,-1.97212 1.13868,-1.97212 l 70.61541,0 c 0.63097,0 1.13981,0.88316 1.13981,1.97212 0,1.08783 -0.50884,1.97099 -1.13981,1.97099" />
      <path
         style="fill:#ffffff;fill-rule:evenodd;stroke:none;stroke-width:1"
         inkscape:connector-curvature="0"
         id="Fill-53"
         d="m 55.34685,73.063342 -37.80161,0 c -2.35879,0 -4.28788,-1.929144 -4.28788,-4.287996 l 0,-23.453958 c 0,-2.358852 1.92909,-4.288 4.28788,-4.288 l 37.80161,0 c 2.35879,0 4.28901,1.929148 4.28901,4.288 l 0,23.453958 c 0,2.358852 -1.93022,4.287996 -4.28901,4.287996" />
      <path
         style="fill:none;fill-rule:evenodd;stroke:#303e51;stroke-width:3"
         inkscape:connector-curvature="0"
         id="Stroke-55"
         d="m 55.34685,73.063342 -37.80161,0 c -2.35879,0 -4.28788,-1.929144 -4.28788,-4.287996 l 0,-23.453958 c 0,-2.358852 1.92909,-4.288 4.28788,-4.288 l 37.80161,0 c 2.35879,0 4.28901,1.929148 4.28901,4.288 l 0,23.453958 c 0,2.358852 -1.93022,4.287996 -4.28901,4.287996 z" />
      <path
         style="fill:#303e51;fill-rule:evenodd;stroke:none;stroke-width:1"
         inkscape:connector-curvature="0"
         id="Fill-57"
         d="m 39.14621,58.530735 c 0,1.609131 -1.20879,2.912945 -2.70028,2.912945 -1.49035,0 -2.69801,-1.303814 -2.69801,-2.912945 0,-1.609131 1.20766,-2.912945 2.69801,-2.912945 1.49149,0 2.70028,1.303814 2.70028,2.912945" />
    </g>
    <path
       d="m 244.5382,72.480041 -42.42533,0 c -4.66443,0 -8.47964,-3.816456 -8.47964,-8.481013 0,-4.664557 3.81521,-8.481013 8.47964,-8.481013 l 42.42533,0 c 4.66442,0 8.48077,3.816456 8.48077,8.481013 0,4.664557 -3.81635,8.481013 -8.48077,8.481013"
       id="Fill-61"
       inkscape:connector-curvature="0"
       style="fill:#ffffff;fill-rule:evenodd;stroke:none;stroke-width:1" />
    <path
       d="m 201.13498,57.355568 c -3.82653,0 -6.94066,3.113097 -6.94066,6.940861 0,3.825502 3.11413,6.938599 6.94066,6.938599 l 43.51087,0 c 3.82652,0 6.93953,-3.113097 6.93953,-6.938599 0,-3.827764 -3.11301,-6.940861 -6.93953,-6.940861 l -43.51087,0 z m 43.51087,16.658972 -43.51087,0 c -5.35872,0 -9.71896,-4.359242 -9.71896,-9.718111 0,-5.36 4.36024,-9.720371 9.71896,-9.720371 l 43.51087,0 c 5.35984,0 9.71783,4.360371 9.71783,9.720371 0,5.358869 -4.35799,9.718111 -9.71783,9.718111 z"
       id="Fill-63"
       inkscape:connector-curvature="0"
       style="fill:#303e51;fill-rule:evenodd;stroke:none;stroke-width:1" />
    <path
       d="m 206.13954,62.217789 c 0,0.342633 -0.10403,0.632118 -0.30983,0.871848 -0.20694,0.237469 -0.49754,0.402566 -0.8707,0.491899 l 0,0.02375 c 0.44213,0.05315 0.77571,0.188844 1.00186,0.400304 0.22616,0.213721 0.34037,0.499814 0.34037,0.861671 0,0.525822 -0.1911,0.935173 -0.57217,1.22805 -0.38107,0.292878 -0.9261,0.43762 -1.63396,0.43762 -0.59253,0 -1.1172,-0.09838 -1.57517,-0.294008 l 0,-0.982667 c 0.21146,0.106296 0.4444,0.193368 0.69882,0.261216 0.25442,0.06785 0.50432,0.100641 0.75422,0.100641 0.38107,0 0.66263,-0.06446 0.84469,-0.194498 0.18092,-0.128911 0.27138,-0.336979 0.27138,-0.624202 0,-0.255562 -0.10403,-0.437621 -0.31322,-0.545047 -0.20919,-0.107426 -0.54277,-0.160574 -1.00073,-0.160574 l -0.41499,0 0,-0.885417 0.42177,0 c 0.42404,0 0.73274,-0.05541 0.92836,-0.166228 0.19563,-0.110819 0.29287,-0.300794 0.29287,-0.569924 0,-0.413874 -0.25781,-0.61968 -0.7757,-0.61968 -0.18093,0 -0.36298,0.0294 -0.54843,0.08933 -0.18544,0.05993 -0.39124,0.162835 -0.61853,0.309839 l -0.53372,-0.796084 c 0.49754,-0.358464 1.09232,-0.537131 1.78322,-0.537131 0.56426,0 1.01091,0.114211 1.3377,0.342633 0.32792,0.229553 0.49189,0.548439 0.49189,0.956658"
       id="Fill-65"
       inkscape:connector-curvature="0"
       style="fill:#303e51;fill-rule:evenodd;stroke:none;stroke-width:1" />
    <path
       d="m 209.50979,64.523607 -0.441,0.0147 c -0.33131,0.009 -0.57669,0.07011 -0.73952,0.179798 -0.1617,0.109688 -0.24311,0.275916 -0.24311,0.499814 0,0.321148 0.18431,0.482853 0.55294,0.482853 0.2646,0 0.47492,-0.07576 0.63436,-0.228422 0.15831,-0.151528 0.23633,-0.353941 0.23633,-0.604979 l 0,-0.343764 z m 0.33697,1.935933 -0.2205,-0.568794 -0.0305,0 c -0.19223,0.241992 -0.38898,0.409351 -0.59139,0.502076 -0.20354,0.09386 -0.46814,0.14022 -0.7938,0.14022 -0.40142,0 -0.71691,-0.113081 -0.94758,-0.342633 -0.22955,-0.229553 -0.34602,-0.556355 -0.34602,-0.980405 0,-0.442144 0.15605,-0.768946 0.46588,-0.980405 0.30983,-0.209199 0.77797,-0.326802 1.40215,-0.348287 l 0.72482,-0.02262 0,-0.18319 c 0,-0.424051 -0.21597,-0.635511 -0.64906,-0.635511 -0.33357,0 -0.72708,0.100642 -1.17713,0.303055 l -0.37768,-0.770076 c 0.48171,-0.251038 1.01317,-0.377688 1.59891,-0.377688 0.56086,0 0.99056,0.123258 1.28795,0.367511 0.29965,0.243122 0.44891,0.615156 0.44891,1.112709 l 0,2.784034 -0.79493,0 z"
       id="Fill-67"
       inkscape:connector-curvature="0"
       style="fill:#303e51;fill-rule:evenodd;stroke:none;stroke-width:1" />
    <path
       d="m 213.45968,65.611325 c 0.24651,0 0.43648,-0.08368 0.56765,-0.248776 0.1323,-0.165097 0.19902,-0.401435 0.19902,-0.709013 0,-0.265738 -0.0622,-0.476067 -0.18545,-0.628726 -0.12325,-0.153789 -0.30983,-0.229552 -0.5586,-0.229552 -0.23407,0 -0.43422,0.07576 -0.60044,0.228422 -0.16509,0.150396 -0.24764,0.327932 -0.24764,0.529215 0,0.297401 0.078,0.547308 0.23294,0.751983 0.15492,0.203544 0.3528,0.306447 0.59252,0.306447 m -1.97319,-1.473434 c 0,-1.081047 0.22842,-1.885047 0.68525,-2.413131 0.45796,-0.528085 1.14207,-0.792692 2.05461,-0.792692 0.31096,0 0.55407,0.01922 0.7316,0.05654 l 0,0.923865 c -0.22163,-0.04976 -0.441,-0.07576 -0.6581,-0.07576 -0.39577,0 -0.71917,0.05993 -0.96907,0.179798 -0.2499,0.119865 -0.43761,0.29627 -0.562,0.530346 -0.12551,0.234075 -0.19788,0.566531 -0.22163,0.997367 l 0.0498,0 c 0.24537,-0.42292 0.64114,-0.635511 1.18391,-0.635511 0.48849,0 0.87069,0.153789 1.14773,0.460236 0.27591,0.306448 0.41386,0.729368 0.41386,1.271021 0,0.582363 -0.16396,1.04373 -0.49301,1.382971 -0.32905,0.340371 -0.78475,0.509991 -1.3671,0.509991 -0.40369,0 -0.75535,-0.09273 -1.05614,-0.280438 -0.30078,-0.186582 -0.53146,-0.459106 -0.69429,-0.81757 -0.16396,-0.358464 -0.24538,-0.79043 -0.24538,-1.297029"
       id="Fill-69"
       inkscape:connector-curvature="0"
       style="fill:#303e51;fill-rule:evenodd;stroke:none;stroke-width:1" />
    <polygon
       transform="translate(19.99943,0.58581802)"
       id="Fill-71"
       points="199.71103,61.142334 197.64399,65.873608 196.43407,65.873608 198.48528,61.388849 195.79179,61.388849 195.79179,60.418621 199.71103,60.418621 "
       style="fill:#303e51;fill-rule:evenodd;stroke:none;stroke-width:1" />
    <path
       d="m 222.07965,61.860004 c -0.23859,0 -0.4263,0.08142 -0.56086,0.246514 -0.13456,0.163967 -0.20128,0.400304 -0.20128,0.710144 0,0.263477 0.0611,0.472675 0.18319,0.626464 0.12212,0.15492 0.30757,0.231814 0.5552,0.231814 0.2352,0 0.43535,-0.07576 0.6027,-0.229552 0.16736,-0.152659 0.2499,-0.329064 0.2499,-0.528085 0,-0.29627 -0.0769,-0.547308 -0.23293,-0.750852 -0.15492,-0.204675 -0.35393,-0.306447 -0.59592,-0.306447 m 1.97659,1.46778 c 0,1.076523 -0.22729,1.879393 -0.68073,2.410869 -0.45231,0.529216 -1.13868,0.794954 -2.058,0.794954 -0.3234,0 -0.56877,-0.01696 -0.73613,-0.05202 l 0,-0.926126 c 0.20919,0.05089 0.42856,0.07802 0.65811,0.07802 0.38559,0 0.70334,-0.05767 0.95211,-0.16962 0.24877,-0.114211 0.43987,-0.291747 0.57104,-0.53487 0.1323,-0.243122 0.20806,-0.577839 0.22954,-1.003021 l -0.0452,0 c -0.14474,0.234076 -0.31209,0.398042 -0.50206,0.49303 -0.18884,0.09499 -0.42517,0.142481 -0.70899,0.142481 -0.47606,0 -0.85147,-0.152658 -1.12512,-0.459106 -0.27364,-0.304185 -0.41047,-0.728236 -0.41047,-1.272152 0,-0.584624 0.16623,-1.047122 0.49867,-1.387493 0.33245,-0.339241 0.78589,-0.509992 1.35692,-0.509992 0.40482,0 0.75762,0.09499 1.06067,0.284962 0.30304,0.188844 0.53485,0.463629 0.69655,0.823224 0.16283,0.360726 0.24312,0.788169 0.24312,1.286852"
       id="Fill-73"
       inkscape:connector-curvature="0"
       style="fill:#303e51;fill-rule:evenodd;stroke:none;stroke-width:1" />
    <path
       d="m 225.74583,63.649045 c 0,0.22616 0.0509,0.405958 0.15492,0.538262 0.1029,0.132303 0.26007,0.19789 0.47266,0.19789 0.21371,0 0.37089,-0.06559 0.4704,-0.19789 0.0995,-0.132304 0.14926,-0.312102 0.14926,-0.538262 0,-0.502076 -0.20693,-0.754245 -0.61966,-0.754245 -0.41839,0 -0.62758,0.252169 -0.62758,0.754245 z m -0.41499,3.400321 c 0,0.157181 0.0746,0.280439 0.22615,0.369772 0.15039,0.08933 0.36072,0.134565 0.63323,0.134565 0.40821,0 0.72709,-0.05654 0.96003,-0.167358 0.23067,-0.113081 0.34714,-0.26687 0.34714,-0.461368 0,-0.15605 -0.069,-0.264607 -0.2058,-0.32454 -0.13682,-0.0588 -0.34827,-0.08933 -0.63436,-0.08933 l -0.59139,0 c -0.20806,0 -0.38446,0.04863 -0.52468,0.147004 -0.14021,0.09951 -0.21032,0.228422 -0.21032,0.391258 z m 3.22382,-4.76746 0,0.57897 -0.65358,0.16849 c 0.11986,0.186582 0.17866,0.39578 0.17866,0.627595 0,0.447797 -0.15492,0.797215 -0.46814,1.048253 -0.31209,0.249907 -0.74744,0.375426 -1.30265,0.375426 l -0.20467,-0.01131 -0.16848,-0.01922 c -0.1176,0.08933 -0.17527,0.188844 -0.17527,0.299663 0,0.163966 0.20919,0.246515 0.62758,0.246515 l 0.70899,0 c 0.45909,0 0.80737,0.09838 1.04822,0.294008 0.24086,0.196759 0.36072,0.486245 0.36072,0.867325 0,0.488506 -0.20354,0.867325 -0.61062,1.136455 -0.40707,0.268 -0.99281,0.402566 -1.75382,0.402566 -0.58348,0 -1.029,-0.100641 -1.33657,-0.303055 -0.30757,-0.203544 -0.46022,-0.488506 -0.46022,-0.854886 0,-0.252169 0.0769,-0.461367 0.2352,-0.630987 0.15604,-0.169621 0.38785,-0.290616 0.6909,-0.362988 -0.11647,-0.04975 -0.21937,-0.131173 -0.30644,-0.244253 -0.0871,-0.11308 -0.13117,-0.234076 -0.13117,-0.360726 0,-0.159443 0.0452,-0.291746 0.13795,-0.398042 0.0927,-0.105164 0.22616,-0.209198 0.4003,-0.312101 -0.21824,-0.09386 -0.39351,-0.246515 -0.52129,-0.454582 -0.12778,-0.210329 -0.19223,-0.456844 -0.19223,-0.740675 0,-0.455714 0.14813,-0.808524 0.44552,-1.0573 0.29513,-0.248776 0.71804,-0.373165 1.26986,-0.373165 0.11647,0 0.25442,0.009 0.41612,0.03053 0.15944,0.02262 0.26234,0.03732 0.30757,0.04749 l 1.45756,0 z"
       id="Fill-75"
       inkscape:connector-curvature="0"
       style="fill:#303e51;fill-rule:evenodd;stroke:none;stroke-width:1" />
    <path
       d="m 229.08183,65.92501 c 0,-0.21033 0.0565,-0.367511 0.16735,-0.474937 0.11308,-0.107426 0.27591,-0.160574 0.49076,-0.160574 0.20693,0 0.36523,0.05428 0.47944,0.163966 0.11308,0.110819 0.16962,0.26687 0.16962,0.471545 0,0.196759 -0.0577,0.351679 -0.17075,0.464759 -0.11534,0.114211 -0.27478,0.170751 -0.47831,0.170751 -0.21033,0 -0.37203,-0.05541 -0.48737,-0.167358 -0.11307,-0.110819 -0.17074,-0.26687 -0.17074,-0.468152"
       id="Fill-77"
       inkscape:connector-curvature="0"
       style="fill:#303e51;fill-rule:evenodd;stroke:none;stroke-width:1" />
    <path
       d="m 231.26387,65.92501 c 0,-0.21033 0.0565,-0.367511 0.16736,-0.474937 0.11307,-0.107426 0.2759,-0.160574 0.49075,-0.160574 0.20693,0 0.36524,0.05428 0.47945,0.163966 0.11307,0.110819 0.16961,0.26687 0.16961,0.471545 0,0.196759 -0.0577,0.351679 -0.17075,0.464759 -0.11533,0.114211 -0.27477,0.170751 -0.47831,0.170751 -0.21032,0 -0.37202,-0.05541 -0.48736,-0.167358 -0.11308,-0.110819 -0.17075,-0.26687 -0.17075,-0.468152"
       id="Fill-79"
       inkscape:connector-curvature="0"
       style="fill:#303e51;fill-rule:evenodd;stroke:none;stroke-width:1" />
    <path
       d="m 233.4458,65.92501 c 0,-0.21033 0.0565,-0.367511 0.16736,-0.474937 0.11308,-0.107426 0.27591,-0.160574 0.49075,-0.160574 0.20693,0 0.36524,0.05428 0.47945,0.163966 0.11307,0.110819 0.16961,0.26687 0.16961,0.471545 0,0.196759 -0.0577,0.351679 -0.17074,0.464759 -0.11534,0.114211 -0.27478,0.170751 -0.47832,0.170751 -0.21032,0 -0.37202,-0.05541 -0.48736,-0.167358 -0.11308,-0.110819 -0.17075,-0.26687 -0.17075,-0.468152"
       id="Fill-81"
       inkscape:connector-curvature="0"
       style="fill:#303e51;fill-rule:evenodd;stroke:none;stroke-width:1" />
    <g
       transform="translate(42,0.67787935)"
       id="g4498">
      <path
         style="fill:#303e51;fill-rule:evenodd;stroke:none;stroke-width:1"
         inkscape:connector-curvature="0"
         id="Fill-1"
         d="m 333.04364,41.120947 c 7.52753,0 13.58393,-10.21566 13.58393,-18.67745 0,-0.095 -0.008,-0.18206 -0.008,-0.27478 -0.88653,-3.13911 -2.63356,-7.36944 -5.99308,-10.71322 -3.5427,3.8255 -10.05706,8.23789 -21.06284,7.75617 -0.0724,0.99623 -0.1029,2.0705 -0.1029,3.23183 0,8.46179 6.0564,18.67745 13.5828,18.67745 z m 14.80856,-9.259 c -2.77491,6.80742 -8.28628,12.42072 -14.80856,12.42072 -6.50644,0 -12.0099,-5.58842 -14.79272,-12.37323 -2.06252,-0.32454 -4.02441,-1.92123 -4.33198,-5.6868 -0.30191,-3.58804 0.89218,-5.05921 2.4108,-5.63592 0.25216,-6.59483 1.84881,-10.6578005 4.20533,-13.1659205 1.46322,-1.90314 3.92264,-3.75426 5.50459,-4.71997 12.44411,-7.58994 18.816,3.22731 18.816,3.22731 0,0 8.53165,2.46741 5.44013,15.0690605 1.10589,0.77573 1.86577,2.28535 1.62039,5.23448 -0.29287,3.5903 -2.10323,5.21187 -4.06398,5.63027 z" />
      <path
         style="fill:#303e51;fill-rule:evenodd;stroke:none;stroke-width:1"
         inkscape:connector-curvature="0"
         id="Fill-3"
         d="m 328.73473,53.913137 0.87069,-3.60499 c 0.10064,-0.41161 0.31549,-0.76668 0.60723,-1.04373 -0.095,-0.0633 -0.18205,-0.12665 -0.26799,-0.19676 l -7.78083,-6.44444 -4.73566,1.10706 c -8.01715,1.88165 -13.66987,8.65628 -13.66987,16.42828 0,0 -1.496,13.804825 0.64002,13.804825 l 23.33229,0 3.05873,-17.425645 c -1.37388,-0.0147 -2.37801,-1.2812 -2.05461,-2.6246" />
      <path
         style="fill:#303e51;fill-rule:evenodd;stroke:none;stroke-width:1"
         inkscape:connector-curvature="0"
         id="Fill-5"
         d="m 348.36647,43.730387 -4.66555,-1.10706 -7.77857,6.44444 c -0.0871,0.0701 -0.16509,0.13344 -0.25329,0.19676 0.29174,0.27705 0.50659,0.63212 0.60836,1.04373 l 0.86956,3.605 c 0.3234,1.34339 -0.6796,2.60989 -2.05574,2.63364 l 3.05986,17.424515 20.04402,0 c 2.14167,0 3.7632,-1.60461 3.7632,-3.611775 l 0,-10.20096 c 0.007,-7.772 -5.56678,-14.54664 -13.59185,-16.42829" />
      <path
         style="fill:#ffffff;fill-rule:evenodd;stroke:none;stroke-width:1"
         inkscape:connector-curvature="0"
         id="Fill-7"
         d="m 393.24274,9.6285765 -57.25989,0 c -2.2344,0 -4.05268,1.8070205 -4.05268,4.0290405 l 0,41.96631 c 0,2.22203 1.81828,4.02905 4.05268,4.02905 l 20.76658,0 0,5.86095 -1.31056,0 c -3.87854,0 -7.03565,3.13797 -7.03565,6.993995 0,0.87638 0.71578,1.58878 1.59665,1.58878 l 29.22586,0 c 0.88087,0 1.59777,-0.7124 1.59777,-1.58878 0,-3.856025 -3.15597,-6.993995 -7.03677,-6.993995 l -1.3083,0 0,-5.86095 20.76431,0 c 2.2344,0 4.05155,-1.80702 4.05155,-4.02905 l 0,-41.96631 c 0,-2.22202 -1.81715,-4.0290405 -4.05155,-4.0290405" />
      <path
         style="fill:#303e51;fill-rule:evenodd;stroke:none;stroke-width:1"
         inkscape:connector-curvature="0"
         mask="url(#mask-4)"
         id="Fill-31"
         d="m 167.50446,235.85832 c 1.5322,0 2.88347,0.89559 3.49747,2.2469 l -25.34167,0 c 0.61514,-1.35131 1.96528,-2.2469 3.49634,-2.2469 l 2.90721,0 12.53571,0 2.90494,0 z m -8.23539,-8.30348 c 0,0.51678 -0.42064,0.93744 -0.93854,0.93744 -0.51563,0 -0.93627,-0.42066 -0.93627,-0.93744 l 0,-0.78364 1.87481,0 0,0.78364 z m 3.7338,5.11123 -9.34241,0 0,-5.89487 0.53937,0 0,0.78364 c 0,2.27857 1.85333,4.13195 4.1307,4.13195 2.2785,0 4.13183,-1.85338 4.13183,-4.13195 l 0,-0.78364 0.54051,0 0,5.89487 z m 1.59665,-9.08826 -3.7338,0 -5.06924,0 -3.73267,0 -22.36322,0 c -0.4738,0 -0.85826,-0.38673 -0.85826,-0.86054 l 0,-42.21056 c 0,-0.47381 0.38446,-0.85941 0.85826,-0.85941 l 57.25989,0 c 0.47379,0 0.85938,0.3856 0.85938,0.85941 l 0,42.21056 c 0,0.47381 -0.38559,0.86054 -0.85938,0.86054 l -22.36096,0 z m 22.36096,-47.1239 -57.25989,0 c -2.23327,0 -4.05268,1.8172 -4.05268,4.0528 l 0,42.21056 c 0,2.23447 1.81941,4.05393 4.05268,4.05393 l 20.76657,0 0,5.89487 -1.31056,0 c -3.87854,0 -7.03564,3.15606 -7.03564,7.03471 0,0.8809 0.7169,1.59783 1.59664,1.59783 l 29.22699,0 c 0.87974,0 1.59665,-0.71693 1.59665,-1.59783 0,-3.87865 -3.15598,-7.03471 -7.03678,-7.03471 l -1.3083,0 0,-5.89487 20.76432,0 c 2.2344,0 4.05155,-1.81946 4.05155,-4.05393 l 0,-42.21056 c 0,-2.2356 -1.81715,-4.0528 -4.05155,-4.0528 z"
         transform="translate(206.28215,-167.10556)" />
      <path
         style="fill:#303e51;fill-rule:evenodd;stroke:none;stroke-width:1"
         inkscape:connector-curvature="0"
         id="Fill-47"
         d="m 366.83091,34.671867 c 0,1.43838 -1.16582,2.6065 -2.60642,2.6065 -1.43947,0 -2.60529,-1.16812 -2.60529,-2.6065 0,-1.43838 1.16582,-2.60649 2.60529,-2.60649 1.4406,0 2.60642,1.16811 2.60642,2.60649" />
      <path
         style="fill:#303e51;fill-rule:evenodd;stroke:none;stroke-width:1"
         inkscape:connector-curvature="0"
         id="Fill-59"
         d="m 416.33273,78.183422 -115.69131,0 c -1.02914,0 -1.86393,-1.07879 -1.86393,-2.40861 0,-1.33095 0.83479,-2.41087 1.86393,-2.41087 l 115.69131,0 c 1.03149,0 1.86745,1.07992 1.86745,2.41087 0,1.32982 -0.83596,2.40861 -1.86745,2.40861" />
      <path
         style="fill:#303e51;fill-rule:evenodd;stroke:none;stroke-width:1"
         inkscape:connector-curvature="0"
         id="path77"
         d="m 432.28238,49.207127 c -7.3909,0 -11.20238,2.93904 -11.20238,4.19332 0,1.42289 4.2532,4.03694 11.20238,4.03694 7.3909,0 11.20192,-2.93951 11.20192,-4.19379 0,-1.42242 -4.2532,-4.03647 -11.20192,-4.03647 m 0,11.11513 c -7.85089,0 -14.00023,-3.03983 -14.00023,-6.92181 0,-3.90365 6.28044,-7.07819 14.00023,-7.07819 7.85043,0 13.99977,3.03983 13.99977,6.92134 0,3.90365 -6.28044,7.07866 -13.99977,7.07866" />
      <g
         style="fill:none;fill-rule:evenodd;stroke:none;stroke-width:1"
         transform="translate(418.28215,67.322257)"
         id="Group-5">
        <mask
           fill="white"
           id="mask-6">
          <use
             height="100%"
             width="100%"
             y="0"
             x="0"
             id="use81"
             xlink:href="#path-5" />
        </mask>
        <g
           id="Clip-4" />
        <path
           style="fill:#303e51"
           inkscape:connector-curvature="0"
           mask="url(#mask-6)"
           id="path84"
           d="m 3.1734746,4.6706308 0,0.546923 c 0,1.3938462 4.2864762,3.9553847 11.2888254,3.9553847 7.447936,0 11.288825,-2.88 11.288825,-4.1086154 l 0,-0.3936923 c -2.845682,1.6075384 -6.944349,2.574 -11.288825,2.574 -4.344476,0 -8.4431429,-0.9664616 -11.2888254,-2.574 M 14.4623,11.999862 c -7.9110159,0 -14.10826984,-2.9787697 -14.10826984,-6.7823082 l 0,-3.3743077 C 0.35403016,1.2621692 0.70801429,0.74063077 1.2465857,0.5274 1.7856175,0.31463077 2.399681,0.45447692 2.7946333,0.87816923 4.4342841,2.6403231 8.6779508,4.4177077 14.4623,4.4177077 c 5.784349,0 10.028016,-1.7773846 11.668127,-3.53953847 C 26.524919,0.45447692 27.138522,0.31463077 27.677554,0.5274 28.217046,0.74063077 28.57057,1.2621692 28.57057,1.8432461 l 0,3.221077 c 0,3.8247692 -6.328905,6.9355389 -14.10827,6.9355389" />
      </g>
      <g
         style="fill:none;fill-rule:evenodd;stroke:none;stroke-width:1"
         transform="translate(418.28215,58.322257)"
         id="Group-8">
        <mask
           fill="white"
           id="mask-8">
          <use
             height="100%"
             width="100%"
             y="0"
             x="0"
             id="use88"
             xlink:href="#path-7" />
        </mask>
        <g
           id="Clip-7" />
        <path
           style="fill:#303e51"
           inkscape:connector-curvature="0"
           mask="url(#mask-8)"
           id="Fill-6"
           d="m 3.1734746,4.3578462 0,0.5686153 c 0,1.229077 3.8413492,4.109077 11.2888254,4.109077 7.447936,0 11.288825,-2.88 11.288825,-4.109077 l 0,-0.5995384 C 22.912348,5.9030769 18.91403,6.8003077 14.4623,6.8003077 c -4.45173,0 -8.4928571,-0.9004616 -11.2888254,-2.4424615 M 14.4623,11.862462 c -7.7793651,0 -14.10826984,-3.1107697 -14.10826984,-6.9360005 l 0,-3.3747692 c 0,-0.58107691 0.35398413,-1.10261538 0.89255554,-1.31584615 0.5367302,-0.21276923 1.1530953,-0.0729231 1.5480476,0.35076923 1.885,2.02569232 6.574254,3.38676922 11.6676667,3.38676922 5.113206,0 9.596238,-1.3112307 11.70173,-3.4213846 0.403238,-0.40569231 1.010857,-0.52615385 1.53654,-0.30692308 0.527063,0.21876923 0.87,0.73476923 0.87,1.30661538 l 0,3.3747692 c 0,3.8252308 -6.328905,6.9360005 -14.10827,6.9360005" />
      </g>
      <path
         style="fill:#303e51;fill-rule:evenodd;stroke:none;stroke-width:1"
         inkscape:connector-curvature="0"
         id="path92"
         d="m 408.65022,64.898527 c -0.87328,0 -1.58397,0.72133 -1.58397,1.60771 0,0.885 0.71069,1.60446 1.58397,1.60446 0.87558,0 1.58812,-0.71946 1.58812,-1.60446 0,-0.88638 -0.71254,-1.60771 -1.58812,-1.60771 z m -5.06512,-2.24279 0,6.68686 c 0,0.97032 0.60983,1.64828 1.48311,1.64828 l 9.91099,0 0,-8.33514 -5.50544,0 c 1.75162,0.38375 3.06753,1.96442 3.06753,3.8505 0,2.17052 -1.74564,3.93584 -3.89107,3.93584 -2.14313,0 -3.88693,-1.76532 -3.88693,-3.93584 0,-1.88608 1.31453,-3.46675 3.06431,-3.8505 l -4.1384,0 c -0.0345,4.7e-4 -0.0695,4.7e-4 -0.1041,0 z m 13.69705,10.666515 -12.21394,0 c -2.15833,0 -3.78606,-1.710765 -3.78606,-3.979655 l 0,-7.25805 c 0,-0.35436 0,-1.18387 0.82262,-1.57507 0.38873,-0.18512 0.79405,-0.19351 1.55909,-0.18512 l 13.61829,0 0,12.997895 z" />
      <g
         style="fill:none;fill-rule:evenodd;stroke:none;stroke-width:1"
         id="Group-13"
         transform="translate(401.28215,31.322257)">
        <mask
           fill="white"
           id="mask-10">
          <use
             height="100%"
             width="100%"
             y="0"
             x="0"
             id="use96"
             xlink:href="#path-9" />
        </mask>
        <g
           id="Clip-12" />
        <path
           style="fill:#303e51"
           inkscape:connector-curvature="0"
           mask="url(#mask-10)"
           id="Fill-11"
           d="m 7.3460868,5.0813677 c -0.8680483,0 -1.574482,0.6968387 -1.574482,1.5530968 0,0.8594194 0.7064337,1.5580645 1.574482,1.5580645 0.8703373,0 1.5786024,-0.6986451 1.5786024,-1.5580645 0,-0.8562581 -0.7082651,-1.5530968 -1.5786024,-1.5530968 z m 0,5.3692263 c -2.1302892,0 -3.8636386,-1.7116133 -3.8636386,-3.8161295 0,-2.1013548 1.7333494,-3.8111613 3.8636386,-3.8111613 2.1325783,0 3.8677592,1.7098065 3.8677592,3.8111613 0,2.1045162 -1.7351809,3.8161295 -3.8677592,3.8161295 z M 3.7855325,2.3188516 c -0.8680482,0 -1.4742168,0.6453548 -1.4742168,1.5689032 l 0,7.0302582 c 0,0.373935 0.091566,0.50671 0.6070843,0.50671 l 32.68,0 c 0.01694,-0.102968 0.03205,-0.261936 0.03205,-0.50671 l 0,-7.0302582 c 0,-1.0409677 -0.380916,-1.5689032 -1.131301,-1.5689032 l -30.7136145,0 z m 32.0523135,11.3639354 -32.919446,0 c -2.00072289,0 -2.89624096,-1.38871 -2.89624096,-2.764774 l 0,-7.0302582 c 0,-2.1817419 1.61797586,-3.8269677 3.76337346,-3.8269677 l 30.7136145,0 c 2.04559,0 3.420458,1.5377419 3.420458,3.8269677 l 0,7.0302582 c 0,2.495161 -1.455446,2.764774 -2.081759,2.764774 z" />
      </g>
      <g
         style="fill:none;fill-rule:evenodd;stroke:none;stroke-width:1"
         transform="translate(401.28215,46.322257)"
         id="Group-16">
        <mask
           fill="white"
           id="mask-12">
          <use
             height="100%"
             width="100%"
             y="0"
             x="0"
             id="use102"
             xlink:href="#path-11" />
        </mask>
        <g
           id="g104" />
        <path
           style="fill:#303e51"
           inkscape:connector-curvature="0"
           mask="url(#mask-12)"
           id="path106"
           d="m 7.4629767,4.8661786 c -0.8818604,0 -1.5995348,0.71825 -1.5995348,1.6008571 0,0.88075 0.7176744,1.5971429 1.5995348,1.5971429 0.8841861,0 1.603721,-0.7163929 1.603721,-1.5971429 0,-0.8826071 -0.7195349,-1.6008571 -1.603721,-1.6008571 z m 0,5.5194284 c -2.164186,0 -3.9251162,-1.7577856 -3.9251162,-3.9185713 0,-2.1626428 1.7609302,-3.9222857 3.9251162,-3.9222857 2.1665117,0 3.9293023,1.7596429 3.9293023,3.9222857 0,2.1607857 -1.7627906,3.9185713 -3.9293023,3.9185713 z m -5.1246511,0.242822 0.018605,0 11.4972094,0 0,-3.8591433 c 0,-1.5716071 1.023255,-3.1260357 2.90372,-4.4399643 l -14.4306968,0 c 0.00186,0.067786 0.00605,0.1360357 0.00884,0.1894286 0.00651,0.1193214 0.012093,0.2316786 0.012093,0.3328929 l 0,7.2266071 c 0,0.07707 -0.00279,0.160643 -0.00558,0.249321 -0.00326,0.08404 -0.00651,0.202429 -0.00419,0.300858 z m 13.8413954,2.321428 -13.8227908,0 c -0.7353488,0 -1.3204651,-0.219607 -1.73999997,-0.652321 -0.64511628,-0.66625 -0.61488372,-1.565107 -0.59860465,-2.047965 0.0018605,-0.06082 0.004186,-0.118392 0.004186,-0.171321 l 0,-7.2266071 c 0,-0.062214 -0.0046512,-0.1313929 -0.0088372,-0.2042858 C -0.01376744,2.1422143 -0.0612093,1.2972143 0.55739535,0.64442857 0.95832558,0.22239286 1.5206512,0.00789286 2.2290233,0.00789286 l 15.4595347,0 c 0.936744,0 1.732558,0.60682143 1.980465,1.50892854 0.246512,0.8997857 -0.126046,1.8227857 -0.928837,2.29775 -1.603256,0.949 -2.560465,2.0530715 -2.560465,2.9547143 l 0,6.1805713 z" />
      </g>
    </g>
    <path
       inkscape:connector-curvature="0"
       id="path4547"
       d=""
       style="fill:#000000" />
    <path
       style="fill:#ee4343"
       d="m 116.68521,53.495266 c -0.3211,-0.321107 -0.5422,-0.903682 -0.5422,-1.428651 0,-0.758998 0.37028,-1.255193 2.57549,-3.451227 1.41652,-1.410632 2.57549,-2.71846 2.57549,-2.906287 0,-0.26859 -2.64792,-0.356552 -12.40302,-0.412008 l -12.403027,-0.07051 0,-2.033282 0,-2.033281 12.877457,-0.06782 c 7.08261,-0.03729 13.05044,-0.132831 13.26186,-0.212288 0.25953,-0.09754 -0.73116,-1.271905 -3.04993,-3.615384 -2.96403,-2.995621 -3.43432,-3.590072 -3.43432,-4.341037 0,-1.095556 1.0409,-2.200988 2.0725,-2.200988 0.6001,0 1.71657,0.970091 5.85022,5.083206 l 5.10859,5.083205 10.76725,0.135552 10.76725,0.135556 0,2.033281 0,2.033282 -11.37909,0.0708 -11.3791,0.0708 -4.36354,4.334649 c -4.05048,4.023665 -4.43514,4.334646 -5.3616,4.334646 -0.63659,0 -1.19443,-0.196374 -1.54028,-0.542207 z"
       id="path4590"
       inkscape:connector-curvature="0" />
    <path
       inkscape:connector-curvature="0"
       id="path4618"
       d="m 294.68521,53.495266 c -0.3211,-0.321107 -0.5422,-0.903682 -0.5422,-1.428651 0,-0.758998 0.37028,-1.255193 2.57549,-3.451227 1.41652,-1.410632 2.57549,-2.71846 2.57549,-2.906287 0,-0.26859 -2.64792,-0.356552 -12.40302,-0.412008 l -12.40303,-0.07051 0,-2.033282 0,-2.033281 12.87746,-0.06782 c 7.08261,-0.03729 13.05044,-0.132831 13.26186,-0.212288 0.25953,-0.09754 -0.73116,-1.271905 -3.04993,-3.615384 -2.96403,-2.995621 -3.43432,-3.590072 -3.43432,-4.341037 0,-1.095556 1.0409,-2.200988 2.0725,-2.200988 0.6001,0 1.71657,0.970091 5.85022,5.083206 l 5.10859,5.083205 10.76725,0.135552 10.76725,0.135556 0,2.033281 0,2.033282 -11.37909,0.0708 -11.3791,0.0708 -4.36354,4.334649 c -4.05048,4.023665 -4.43514,4.334646 -5.3616,4.334646 -0.63659,0 -1.19443,-0.196374 -1.54028,-0.542207 z"
       style="fill:#ee4343" />
  </g>
</svg>
