<?xml version="1.0" encoding="UTF-8" standalone="no"?>
<svg
   xmlns:dc="http://purl.org/dc/elements/1.1/"
   xmlns:cc="http://creativecommons.org/ns#"
   xmlns:rdf="http://www.w3.org/1999/02/22-rdf-syntax-ns#"
   xmlns:svg="http://www.w3.org/2000/svg"
   xmlns="http://www.w3.org/2000/svg"
   xmlns:xlink="http://www.w3.org/1999/xlink"
   xmlns:sodipodi="http://sodipodi.sourceforge.net/DTD/sodipodi-0.dtd"
   xmlns:inkscape="http://www.inkscape.org/namespaces/inkscape"
   width="500"
   height="80"
   viewBox="0 0 500 80"
   version="1.1"
   id="svg2"
   inkscape:version="0.91 r13725"
   sodipodi:docname="space-support-deploy.svg">
  <metadata
     id="metadata64">
    <rdf:RDF>
      <cc:Work
         rdf:about="">
        <dc:format>image/svg+xml</dc:format>
        <dc:type
           rdf:resource="http://purl.org/dc/dcmitype/StillImage" />
        <dc:title>Group</dc:title>
      </cc:Work>
    </rdf:RDF>
  </metadata>
  <sodipodi:namedview
     pagecolor="#ffffff"
     bordercolor="#666666"
     borderopacity="1"
     objecttolerance="10"
     gridtolerance="10"
     guidetolerance="10"
     inkscape:pageopacity="0"
     inkscape:pageshadow="2"
     inkscape:window-width="1306"
     inkscape:window-height="741"
     id="namedview62"
     showgrid="false"
     inkscape:zoom="1.0973154"
     inkscape:cx="214.75869"
     inkscape:cy="80.5"
     inkscape:window-x="345"
     inkscape:window-y="286"
     inkscape:window-maximized="0"
     inkscape:current-layer="svg2" />
  <!-- Generator: Sketch 48.2 (47327) - http://www.bohemiancoding.com/sketch -->
  <title
     id="title4">Group</title>
  <desc
     id="desc6">Created with Sketch.</desc>
  <defs
     id="defs8">
    <polygon
       id="path-1"
       points="0.42727778,0.5006559 34.481667,0.5006559 34.481667,13.999838 0.42727778,13.999838 " />
    <polygon
       id="path-3"
       points="0.42727778,0.15989935 34.481667,0.15989935 34.481667,13.839538 0.42727778,13.839538 " />
    <polygon
       id="path-5"
       points="0.026824096,0.074032258 45.902679,0.074032258 45.902679,16.614813 0.026824096,16.614813 " />
    <polygon
       id="path-7"
       points="0,0.0091071429 23.693047,0.0091071429 23.693047,14.942143 0,14.942143 " />
  </defs>
  <g
     id="g4365"
     transform="translate(0,7.046596)">
    <polygon
       transform="translate(114.00005,-46.046515)"
       id="Fill-21"
       points="191.90603,80.523207 191.90603,76 75,76 75,80.523207 "
       style="fill:#ef3f3f;fill-rule:evenodd;stroke:none;stroke-width:1" />
    <path
       d="m 242.26131,43.946181 c -0.57896,0 -1.15678,-0.220506 -1.59891,-0.66265 -0.88313,-0.883156 -0.88313,-2.314751 0,-3.197907 l 8.63568,-8.635932 -8.63568,-8.634802 c -0.88313,-0.884287 -0.88313,-2.314751 0,-3.199038 0.88313,-0.883156 2.31468,-0.883156 3.19781,0 l 11.8335,11.83384 -11.8335,11.833839 c -0.44213,0.442144 -1.01995,0.66265 -1.5989,0.66265"
       id="Fill-22"
       inkscape:connector-curvature="0"
       style="fill:#ef3f3f;fill-rule:evenodd;stroke:none;stroke-width:1" />
    <path
       d="m 343.22216,18.780003 c -2.88284,0 -5.33279,2.049014 -5.82716,4.873982 l -0.38615,2.288025 -2.1674,0.776784 c -4.44932,1.498378 -7.4206,5.588523 -7.4206,10.18698 0,5.90347 4.8738,10.706496 10.86477,10.706496 l 45.66394,0 c 5.31048,0 9.63137,-4.257369 9.63137,-9.491112 0,-5.144944 -4.41017,-9.491113 -9.63137,-9.491113 l -4.02107,0 0.20129,-3.957776 -8.5e-4,-0.292539 c 0,-8.373657 -6.81295,-15.085031 -15.1865,-15.085031 -5.83685,0 -11.22691,3.259419 -13.73034,8.305191 l -1.77536,3.502163 -3.5427,-1.745272 c -0.85357,-0.373868 -1.7724,-0.576778 -2.67187,-0.576778 m 40.84994,34.173482 -45.78648,0 c -8.97993,0 -16.28557,-7.198523 -16.28557,-16.047711 0,-6.558258 4.06866,-12.418157 10.20659,-14.831082 1.31467,-4.980209 5.81958,-8.513909 11.01552,-8.513909 1.41784,0 2.70809,0.326564 3.75873,0.700018 3.66061,-6.391864 10.42135,-10.307316 17.96154,-10.307316 5.54292,0 10.74307,2.140303 14.6416,6.027124 3.63872,3.628723 5.69283,8.353739 5.8339,13.379593 7.61262,0.731139 13.58212,7.072379 13.58212,14.760956 0,8.178631 -6.69715,14.832327 -14.92795,14.832327"
       id="Fill-1"
       inkscape:connector-curvature="0"
       style="fill:#303e51;fill-rule:evenodd;stroke:none;stroke-width:1" />
    <path
       d="m 139.00033,26.250484 c -8.97467,0 -13.60289,3.358902 -13.60289,4.792356 0,1.626161 5.16459,4.613646 13.60289,4.613646 8.97466,0 13.60233,-3.35944 13.60233,-4.792895 0,-1.625622 -5.1646,-4.613107 -13.60233,-4.613107 m 0,12.703001 c -9.53323,0 -17.00028,-3.474095 -17.00028,-7.910645 0,-4.46131 7.62625,-8.089355 17.00028,-8.089355 9.53267,0 16.99972,3.474095 16.99972,7.910106 0,4.461311 -7.62625,8.089894 -16.99972,8.089894"
       id="path35"
       inkscape:connector-curvature="0"
       style="fill:#303e51;fill-rule:evenodd;stroke:none;stroke-width:1" />
    <g
       id="Group-5"
       transform="translate(121.00005,47.953485)"
       style="fill:none;fill-rule:evenodd;stroke:none;stroke-width:1">
      <mask
         id="mask-2"
         fill="white">
        <use
           xlink:href="#path-1"
           id="use39"
           x="0"
           y="0"
           width="100%"
           height="100%" />
      </mask>
      <g
         id="Clip-4" />
      <path
         d="m 3.8300556,5.4490692 0,0.6380769 c 0,1.6261539 5.1733333,4.6146159 13.6244444,4.6146159 8.988889,0 13.624444,-3.3600005 13.624444,-4.7933851 l 0,-0.4593077 c -3.434444,1.8754616 -8.381111,3.003 -13.624444,3.003 -5.243333,0 -10.19,-1.1275384 -13.6244444,-3.003 M 17.4545,13.999838 c -9.5477778,0 -17.02722222,-3.47523 -17.02722222,-7.9126919 l 0,-3.9366922 C 0.42727778,1.4725308 0.8545,0.86406923 1.5045,0.6153 2.1550556,0.36706923 2.8961667,0.53022308 3.3728333,1.0245308 5.3517222,3.0803769 10.473389,5.1539923 17.4545,5.1539923 c 6.981111,0 12.102778,-2.0736154 14.082222,-4.1294615 0.476111,-0.49430772 1.216667,-0.65746157 1.867222,-0.4092308 0.651112,0.24876923 1.077778,0.8572308 1.077778,1.5351539 l 0,3.757923 c 0,4.4622311 -7.638333,8.0914611 -17.027222,8.0914611"
         id="Fill-3"
         mask="url(#mask-2)"
         inkscape:connector-curvature="0"
         style="fill:#303e51" />
    </g>
    <g
       id="Group-8"
       transform="translate(121.00005,36.953485)"
       style="fill:none;fill-rule:evenodd;stroke:none;stroke-width:1">
      <mask
         id="mask-4"
         fill="white">
        <use
           xlink:href="#path-3"
           id="use45"
           x="0"
           y="0"
           width="100%"
           height="100%" />
      </mask>
      <g
         id="Clip-7" />
      <path
         d="m 3.8300556,5.0841538 0,0.6633847 c 0,1.433923 4.6361111,4.7939235 13.6244444,4.7939235 8.988889,0 13.624444,-3.3600005 13.624444,-4.7939235 l 0,-0.6994616 C 27.652833,6.8869231 22.827278,7.9336923 17.4545,7.9336923 c -5.372778,0 -10.25,-1.0505385 -13.6244444,-2.8495385 M 17.4545,13.839539 c -9.3888889,0 -17.02722222,-3.629231 -17.02722222,-8.0920005 l 0,-3.9372308 C 0.42727778,1.1323846 0.8545,0.52392308 1.5045,0.27515385 2.1522778,0.02692308 2.8961667,0.19007692 3.3728333,0.68438461 5.6478333,3.0476923 11.307278,4.6356154 17.4545,4.6356154 c 6.171111,0 11.581667,-1.5297692 14.122778,-3.9916154 0.486666,-0.47330769 1.22,-0.61384615 1.854444,-0.35807692 0.636111,0.25523077 1.05,0.85723072 1.05,1.52438462 l 0,3.9372308 c 0,4.4627695 -7.638333,8.0920005 -17.027222,8.0920005"
         id="Fill-6"
         mask="url(#mask-4)"
         inkscape:connector-curvature="0"
         style="fill:#303e51" />
    </g>
    <path
       d="m 109.74963,44.233794 c -1.03702,0 -1.88096,0.832301 -1.88096,1.855059 0,1.021143 0.84394,1.851292 1.88096,1.851292 1.03976,0 1.88589,-0.830149 1.88589,-1.851292 0,-1.022758 -0.84613,-1.855059 -1.88589,-1.855059 z m -6.01482,-2.587829 0,7.715603 c 0,1.119599 0.72416,1.901866 1.76118,1.901866 l 11.7693,0 0,-9.617469 -6.53771,0 c 2.08006,0.442782 3.6427,2.266636 3.6427,4.442888 0,2.504437 -2.07295,4.541343 -4.62065,4.541343 -2.54496,0 -4.61572,-2.036906 -4.61572,-4.541343 0,-2.176252 1.561,-4.000106 3.63887,-4.442888 l -4.91436,0 c -0.041,5.38e-4 -0.0826,5.38e-4 -0.12361,0 z m 16.26524,12.30752 -14.50406,0 c -2.56301,0 -4.49594,-1.973959 -4.49594,-4.591917 l 0,-8.374666 c 0,-0.408887 0,-1.366008 0.97686,-1.817398 0.46162,-0.21359 0.94294,-0.223274 1.85143,-0.21359 l 16.17171,0 0,14.997571 z"
       id="Fill-9"
       inkscape:connector-curvature="0"
       style="fill:#303e51;fill-rule:evenodd;stroke:none;stroke-width:1" />
    <g
       transform="translate(101.00005,3.953485)"
       id="Group-13"
       style="fill:none;fill-rule:evenodd;stroke:none;stroke-width:1">
      <mask
         id="mask-6"
         fill="white">
        <use
           xlink:href="#path-5"
           id="use52"
           x="0"
           y="0"
           width="100%"
           height="100%" />
      </mask>
      <g
         id="Clip-12" />
      <path
         d="m 8.8926313,6.1702323 c -1.0507952,0 -1.9059518,0.8461612 -1.9059518,1.8859032 0,1.0435806 0.8551566,1.8919355 1.9059518,1.8919355 1.0535663,0 1.9109397,-0.8483549 1.9109397,-1.8919355 0,-1.039742 -0.8573734,-1.8859032 -1.9109397,-1.8859032 z m 0,6.5197747 c -2.5787711,0 -4.6770361,-2.078388 -4.6770361,-4.6338715 0,-2.5516452 2.098265,-4.6278387 4.6770361,-4.6278387 2.5815417,0 4.6820237,2.0761935 4.6820237,4.6278387 0,2.5554835 -2.100482,4.6338715 -4.6820237,4.6338715 z M 4.5824867,2.8157484 c -1.0507951,0 -1.7845783,0.7836451 -1.7845783,1.9050968 l 0,8.5367418 c 0,0.454065 0.1108434,0.61529 0.7348916,0.61529 l 39.56,0 c 0.02051,-0.125032 0.0388,-0.318064 0.0388,-0.61529 l 0,-8.5367418 c 0,-1.2640323 -0.461108,-1.9050968 -1.36947,-1.9050968 l -37.1796383,0 z m 38.8001683,13.7990646 -39.849855,0 c -2.4219277,0 -3.5059759,-1.68629 -3.5059759,-3.357226 l 0,-8.5367418 c 0,-2.6492581 1.9586024,-4.6470323 4.5556626,-4.6470323 l 37.1796383,0 c 2.476241,0 4.140554,1.8672581 4.140554,4.6470323 l 0,8.5367418 c 0,3.029839 -1.761855,3.357226 -2.520024,3.357226 z"
         id="Fill-11"
         mask="url(#mask-6)"
         inkscape:connector-curvature="0"
         style="fill:#303e51" />
    </g>
    <g
       id="Group-16"
       transform="translate(101.00005,21.953485)"
       style="fill:none;fill-rule:evenodd;stroke:none;stroke-width:1">
      <mask
         id="mask-8"
         fill="white">
        <use
           xlink:href="#path-7"
           id="use58"
           x="0"
           y="0"
           width="100%"
           height="100%" />
      </mask>
      <g
         id="Clip-15" />
      <path
         d="m 8.9555721,5.6148214 c -1.0582326,0 -1.9194419,0.82875 -1.9194419,1.8471429 0,1.01625 0.8612093,1.8428571 1.9194419,1.8428571 1.0610229,0 1.9244649,-0.8266071 1.9244649,-1.8428571 0,-1.0183929 -0.863442,-1.8471429 -1.9244649,-1.8471429 z m 0,6.3685716 c -2.5970233,0 -4.7101395,-2.0282144 -4.7101395,-4.5214287 0,-2.4953572 2.1131162,-4.5257143 4.7101395,-4.5257143 2.5998139,0 4.7151629,2.0303571 4.7151629,4.5257143 0,2.4932143 -2.115349,4.5214287 -4.7151629,4.5214287 z m -6.1495814,0.280178 0.022326,0 13.7966503,0 0,-4.4528567 c 0,-1.8133929 1.227907,-3.6069643 3.484466,-5.1230357 l -17.3168372,0 c 0.00223,0.078214 0.00726,0.1569643 0.010605,0.2185714 0.00781,0.1376786 0.014512,0.2673214 0.014512,0.3841071 l 0,8.3383929 c 0,0.08893 -0.00335,0.185357 -0.0067,0.287679 -0.00391,0.09696 -0.00781,0.233571 -0.00502,0.347142 z m 16.6096743,2.678572 -16.5873487,0 c -0.8824186,0 -1.5845582,-0.253393 -2.08800002,-0.752679 -0.77413954,-0.76875 -0.73786047,-1.805893 -0.71832558,-2.363035 0.0022326,-0.07018 0.0050232,-0.136608 0.0050232,-0.197679 l 0,-8.3383929 C 0.0270139,3.2185711 0.0214325,3.13875 0.01640925,3.0546429 -0.01652093,2.4717857 -0.07345116,1.4967857 0.66887442,0.74357143 1.1499907,0.25660714 1.8247814,0.00910714 2.6748279,0.00910714 l 18.5514421,0 c 1.124093,0 2.079069,0.70017857 2.376558,1.74107146 0.295814,1.0382143 -0.151256,2.1032143 -1.114605,2.65125 -1.923907,1.095 -3.072558,2.3689285 -3.072558,3.4092857 l 0,7.1314287 z"
         id="Fill-14"
         mask="url(#mask-8)"
         inkscape:connector-curvature="0"
         style="fill:#303e51" />
    </g>
  </g>
</svg>
