<?xml version="1.0" encoding="UTF-8" standalone="no"?>
<svg width="515px" height="302px" viewBox="0 0 515 302" version="1.1" xmlns="http://www.w3.org/2000/svg" xmlns:xlink="http://www.w3.org/1999/xlink">
    <!-- Generator: Sketch 48.2 (47327) - http://www.bohemiancoding.com/sketch -->
    <title>Page 1</title>
    <desc>Created with Sketch.</desc>
    <defs>
        <polygon id="path-1" points="0 384 563 384 563 0 0 0"></polygon>
    </defs>
    <g id="ONEPANEL-Spaces-empty" stroke="none" stroke-width="1" fill="none" fill-rule="evenodd" transform="translate(-974.000000, -353.000000)">
        <g id="Page-1" transform="translate(958.000000, 326.000000)">
            <mask id="mask-2" fill="white">
                <use xlink:href="#path-1"></use>
            </mask>
            <g id="Clip-12"></g>
            <path d="M158.550561,318.809842 L383.585997,318.809842 L383.585997,142.517765 L158.550561,142.517765 L158.550561,318.809842 Z M158.550561,132.723628 L383.585997,132.723628 L383.585997,93.5470826 L158.550561,93.5470826 L158.550561,132.723628 Z M148.766412,328.606357 L393.370147,328.606357 L393.370147,83.7529462 L148.766412,83.7529462 L148.766412,328.606357 Z" id="Fill-11" fill="#303E51" mask="url(#mask-2)"></path>
            <polygon id="Fill-13" fill="#303E51" mask="url(#mask-2)" points="196.621412 113.644958 310.596468 113.644958 310.596468 106.285954 196.621412 106.285954"></polygon>
            <polygon id="Fill-14" fill="#303E51" mask="url(#mask-2)" points="167.533079 113.644958 174.886366 113.644958 174.886366 106.285954 167.533079 106.285954"></polygon>
            <polygon id="Fill-15" fill="#303E51" mask="url(#mask-2)" points="181.608079 113.644958 188.961366 113.644958 188.961366 106.285954 181.608079 106.285954"></polygon>
            <path d="M79.4692981,74.2232664 C78.4511882,74.2232664 77.4947819,74.857562 77.134053,75.8719599 C76.6772088,77.1583684 77.3523889,78.5778127 78.6386723,79.0351233 C79.2604551,79.2560577 79.933262,79.2227987 80.5301259,78.9377221 C81.1258033,78.6538332 81.5767145,78.154949 81.7986102,77.5313438 L81.7986102,77.5301559 C82.0193194,76.9065507 81.9849077,76.2342448 81.7024949,75.6367716 C81.4188956,75.0392984 80.9193335,74.5891148 80.2951775,74.3669926 C80.0222576,74.2695914 79.7434046,74.2232664 79.4692981,74.2232664 M79.4716713,83.926564 C78.657658,83.926564 77.8400849,83.7875891 77.0509904,83.5060759 C73.3024948,82.1721546 71.3362848,78.0337914 72.668846,74.2826574 C74.0014071,70.5279599 78.1379236,68.5585551 81.8828594,69.8960399 C83.6983701,70.5422137 85.1555251,71.8571299 85.9825911,73.5996612 C86.8108437,75.3410046 86.9105188,77.3020946 86.2650039,79.1206463 C85.6206756,80.9380101 84.3059136,82.3942768 82.5651592,83.2233749 C81.5814609,83.6913758 80.5301259,83.926564 79.4716713,83.926564" id="Fill-20" fill="#303E51" mask="url(#mask-2)"></path>
            <path d="M503.592912,203.786904 C502.228312,203.786904 501.117647,204.898703 501.117647,206.263507 C501.117647,207.6295 502.228312,208.741299 503.592912,208.741299 C504.957511,208.741299 506.068177,207.6295 506.068177,206.263507 C506.068177,204.898703 504.957511,203.786904 503.592912,203.786904 M503.592912,213.486638 C499.614214,213.486638 496.378333,210.246266 496.378333,206.263507 C496.378333,202.281936 499.614214,199.041565 503.592912,199.041565 C507.571609,199.041565 510.80749,202.281936 510.80749,206.263507 C510.80749,210.246266 507.571609,213.486638 503.592912,213.486638" id="Fill-21" fill="#303E51" mask="url(#mask-2)"></path>
            <path d="M100.094992,210.202481 L104.451031,211.545904 L103.434108,207.098708 L100.094992,210.202481 Z M107.676233,217.394728 C107.442471,217.394728 107.207522,217.360281 106.978507,217.2902 L94.7766139,213.528375 C93.967347,213.278933 93.3514973,212.614942 93.1628266,211.789407 C92.9741559,210.963873 93.2411428,210.097952 93.8605523,209.52186 L103.218145,200.823458 C103.837555,200.247365 104.718018,200.044248 105.528472,200.294878 C106.338925,200.54432 106.952402,201.208311 107.141072,202.033846 L109.986559,214.492885 C110.17523,215.320795 109.90943,216.18434 109.288833,216.760432 C108.843855,217.173793 108.265977,217.394728 107.676233,217.394728 L107.676233,217.394728 Z" id="Fill-22" fill="#303E51" mask="url(#mask-2)"></path>
            <path d="M29.6024121,117.831365 L33.255979,120.556223 L33.7875795,116.02588 L29.6024121,117.831365 Z M35.1320067,127.287597 C34.6300714,127.287597 34.1316959,127.127241 33.716383,126.81722 L23.4783266,119.180728 C22.7995867,118.674717 22.441231,117.844431 22.5409061,117.002267 C22.6393945,116.160103 23.1793013,115.434346 23.9565298,115.09938 L35.682593,110.041645 C36.4562616,109.70668 37.3568973,109.812396 38.0356373,110.318407 C38.7155638,110.825606 39.0727329,111.655892 38.9730578,112.498056 L37.4862376,125.191095 C37.3877491,126.033259 36.8466557,126.759017 36.0694273,127.093982 C35.7680288,127.223454 35.4500178,127.287597 35.1320067,127.287597 L35.1320067,127.287597 Z" id="Fill-23" fill="#303E51" mask="url(#mask-2)"></path>
            <path d="M432.142956,158.203003 L435.796523,160.927861 L436.328124,156.397518 L432.142956,158.203003 Z M437.672551,167.659235 C437.170615,167.659235 436.67224,167.498879 436.256927,167.188858 L426.018871,159.552366 C425.340131,159.046355 424.981775,158.21607 425.08145,157.373905 C425.179939,156.531741 425.719845,155.805984 426.497074,155.471019 L438.223137,150.413283 C438.996806,150.078318 439.897441,150.184034 440.576181,150.690045 C441.256108,151.197244 441.613277,152.02753 441.513602,152.869694 L440.026782,165.562733 C439.928293,166.404897 439.3872,167.130655 438.609971,167.46562 C438.308573,167.595092 437.990562,167.659235 437.672551,167.659235 L437.672551,167.659235 Z" id="Fill-23-Copy" fill="#303E51" mask="url(#mask-2)"></path>
            <path d="M95.2532114,126.453617 C94.2873123,126.453617 93.3795569,125.857332 93.0271343,124.895198 L88.3483377,112.09763 C87.8986132,110.865862 88.5298888,109.503433 89.759215,109.053249 C90.986168,108.606629 92.3495809,109.234985 92.8004921,110.466754 L97.4792886,123.264322 C97.9290131,124.496091 97.2977375,125.85852 96.0684113,126.308703 C95.7990512,126.406104 95.5249447,126.453617 95.2532114,126.453617" id="Fill-24" fill="#303E51" mask="url(#mask-2)"></path>
            <path d="M464.018211,122.698116 C463.052312,122.698116 462.144557,122.101831 461.792134,121.139697 L457.113338,108.342129 C456.663613,107.11036 457.294889,105.747931 458.524215,105.297748 C459.751168,104.851128 461.114581,105.479484 461.565492,106.711253 L466.244289,119.508821 C466.694013,120.740589 466.062738,122.103018 464.833411,122.553202 C464.564051,122.650603 464.289945,122.698116 464.018211,122.698116" id="Fill-24-Copy" fill="#303E51" mask="url(#mask-2)"></path>
            <path d="M86.8210816,122.094648 C85.8551824,122.094648 84.9474271,121.498363 84.5950044,120.536229 C84.1452798,119.306836 84.7765555,117.943219 86.0058817,117.493035 L98.7915861,112.808275 C100.018539,112.362843 101.381952,112.990012 101.831677,114.22178 C102.281401,115.451174 101.650125,116.81479 100.420799,117.264974 L87.6362815,121.949734 C87.3669214,122.047135 87.0928149,122.094648 86.8210816,122.094648" id="Fill-25" fill="#303E51" mask="url(#mask-2)"></path>
            <path d="M455.586082,118.339147 C454.620182,118.339147 453.712427,117.742861 453.360004,116.780728 C452.91028,115.551334 453.541555,114.187718 454.770882,113.737534 L467.556586,109.052774 C468.783539,108.607342 470.146952,109.23451 470.596677,110.466279 C471.046401,111.695672 470.415125,113.059289 469.185799,113.509473 L456.401281,118.194233 C456.131921,118.291634 455.857815,118.339147 455.586082,118.339147" id="Fill-25-Copy" fill="#303E51" mask="url(#mask-2)"></path>
            <path d="M83.2704292,182.451097 C82.589316,182.451097 81.9129493,182.158893 81.4454256,181.593491 L72.7547064,171.102669 C71.9181476,170.09421 72.0581674,168.598746 73.0644112,167.762521 C74.0718417,166.925108 75.5681547,167.065271 76.4023404,168.073729 L85.0930595,178.564551 C85.9296184,179.57301 85.7895986,181.068475 84.7821682,181.9047 C84.3395633,182.272924 83.8032163,182.451097 83.2704292,182.451097" id="Fill-26" fill="#303E51" mask="url(#mask-2)"></path>
            <path d="M73.6848887,181.5556 C73.0037755,181.5556 72.3274088,181.263396 71.8598851,180.697994 C71.0233263,179.689535 71.163346,178.194071 72.1707765,177.357846 L82.6497144,168.657068 C83.6559582,167.820843 85.1510847,167.95863 85.9864569,168.969464 C86.8230158,169.977923 86.682996,171.473388 85.6755656,172.309613 L75.1966277,181.009203 C74.7540228,181.377427 74.2176758,181.5556 73.6848887,181.5556" id="Fill-27" fill="#303E51" mask="url(#mask-2)"></path>
            <g id="File" mask="url(#mask-2)" fill="#303E51">
                <g transform="translate(16.890000, 177.447433)">
                    <path d="M195.330996,0.425171077 L165.464078,4.57565063 C163.512674,4.84621405 162.157739,6.80089666 162.432077,8.7291978 L169.384887,57.6238716 C169.659226,59.5533998 171.459806,60.7264548 173.411211,60.4552778 L210.510242,55.2998485 C212.461026,55.029285 213.82465,53.4163345 213.550312,51.4880333 L207.613548,9.74089637 C207.481965,8.81447743 206.993493,7.97640572 206.236889,7.41380561 L197.981281,1.18532543 C197.225919,0.622725314 196.267595,0.295104311 195.330996,0.425171077 M195.827536,3.91734102 L204.080041,10.2311008 L209.993219,51.8107461 L172.894809,56.965562 L165.940757,8.07027466 L195.973395,3.89709477" id="Fill-1"></path>
                    <path d="M206.048266,11.4014563 L196.331587,12.7512058 C195.844357,12.8193067 195.393125,12.48371 195.32423,12.0014813 L194.207014,4.14287188 C194.138119,3.66064321 194.478249,3.21461237 194.9661,3.1471249 C195.453951,3.07963743 195.904562,3.4146207 195.973457,3.89746289 L196.966538,10.8824163 L205.799996,9.65475781 C206.287847,9.58727034 206.738457,9.92286713 206.807352,10.4057093 C206.875627,10.887938 206.536117,11.3339688 206.048266,11.4014563" id="Fill-3"></path>
                    <path d="M182.943859,19.9542664 L174.111023,21.1813113 C173.623172,21.2487988 173.17194,20.913202 173.103666,20.4309734 C173.034771,19.9481312 173.374901,19.5033274 173.862752,19.4352264 L182.695589,18.2075679 C183.18344,18.1400804 183.634671,18.4756772 183.702946,18.9579059 C183.771841,19.4407481 183.43171,19.8861654 182.943859,19.9542664" id="Fill-5"></path>
                    <path d="M197.076957,17.9902582 L186.477056,19.4627122 C185.989205,19.5308132 185.538594,19.1952164 185.469699,18.7129877 C185.400804,18.2301455 185.740935,17.7847282 186.228786,17.7172407 L196.828686,16.2435597 C197.316537,16.1760723 197.767148,16.5116691 197.836043,16.9945113 C197.904317,17.4767399 197.564808,17.9227708 197.076957,17.9902582" id="Fill-7"></path>
                    <path d="M178.264833,25.0559512 L174.731947,25.5473827 C174.244096,25.6148702 173.792864,25.2792734 173.72459,24.7964312 C173.655695,24.3142025 173.995825,23.8681717 174.483676,23.8006842 L178.016563,23.3098662 C178.504414,23.2417652 178.955645,23.5779756 179.02392,24.0602042 C179.092815,24.5424329 178.752684,24.9884637 178.264833,25.0559512" id="Fill-9"></path>
                    <path d="M187.981388,23.706079 L181.798216,24.5650105 C181.310365,24.6331115 180.859134,24.2975147 180.790859,23.8146725 C180.721964,23.3324439 181.062095,22.886413 181.549946,22.8189255 L187.733118,21.9593806 C188.220969,21.8918931 188.671579,22.2274899 188.740474,22.7103321 C188.808749,23.1925607 188.469239,23.6385916 187.981388,23.706079" id="Fill-11"></path>
                    <path d="M182.418954,28.930591 L175.35256,29.9128405 C174.864709,29.980328 174.414099,29.6447312 174.345204,29.1625025 C174.276309,28.6796604 174.616439,28.234243 175.10429,28.166142 L182.170684,27.1845061 C182.658535,27.1164051 183.109766,27.4526154 183.17804,27.9348441 C183.246935,28.4170727 182.906805,28.8631036 182.418954,28.930591" id="Fill-13"></path>
                    <path d="M198.318618,26.721542 L185.952275,28.4400185 C185.464424,28.5075059 185.013192,28.1719092 184.944918,27.689067 C184.876023,27.2068383 185.216153,26.7608075 185.704004,26.69332 L198.070348,24.9748435 C198.558199,24.9073561 199.00881,25.2429528 199.077705,25.725795 C199.145979,26.2080237 198.80647,26.6540545 198.318618,26.721542" id="Fill-15"></path>
                    <path d="M197.697632,22.3555934 L192.397682,23.0918203 C191.909831,23.1605349 191.45922,22.8243245 191.390325,22.3420959 C191.322051,21.8592537 191.661561,21.4138364 192.149412,21.3457354 L197.449362,20.6095084 C197.937213,20.5420209 198.388444,20.8776177 198.456719,21.3598464 C198.524993,21.8426886 198.185483,22.2881059 197.697632,22.3555934" id="Fill-17"></path>
                    <path d="M194.61877,45.0433478 L188.435598,45.9022793 C187.947747,45.9703803 187.496516,45.6347835 187.428242,45.1519413 C187.359347,44.6697126 187.699477,44.2236818 188.187328,44.1561943 L194.3705,43.2966493 C194.858351,43.2291618 195.308962,43.5647586 195.377857,44.0469873 C195.446131,44.5298295 195.106621,44.9752468 194.61877,45.0433478" id="Fill-19"></path>
                    <path d="M200.180956,39.8182223 L193.997784,40.6771537 C193.509933,40.7452547 193.058702,40.4096579 192.990427,39.9274293 C192.922153,39.4445871 193.261663,38.9991698 193.749514,38.9316823 L199.932686,38.0721373 C200.420537,38.0040363 200.871768,38.3402466 200.940042,38.8224753 C201.008937,39.304704 200.668807,39.7507348 200.180956,39.8182223" id="Fill-21"></path>
                    <path d="M190.464712,41.168708 L177.215146,43.0092754 C176.727295,43.0767629 176.276064,42.7411661 176.20779,42.2589374 C176.138895,41.7760952 176.479025,41.3312914 176.966876,41.2631904 L190.216441,39.4220095 C190.704292,39.354522 191.154903,39.6901188 191.223798,40.1723474 C191.292072,40.6551896 190.952563,41.100607 190.464712,41.168708" id="Fill-23"></path>
                    <path d="M184.019118,46.5160472 L177.835946,47.3749786 C177.348095,47.4430796 176.896864,47.1074828 176.828589,46.6246406 C176.759694,46.142412 177.099825,45.6963811 177.587676,45.6288937 L183.770848,44.7693487 C184.258699,44.7018612 184.709309,45.037458 184.778204,45.5203002 C184.846479,46.0025288 184.506969,46.4485597 184.019118,46.5160472" id="Fill-25"></path>
                    <path d="M181.273373,33.5416419 L175.973422,34.2778689 C175.485571,34.3465834 175.03434,34.0103731 174.966066,33.5281444 C174.897171,33.0453022 175.237301,32.5998849 175.725152,32.5317839 L181.025102,31.795557 C181.512953,31.7280695 181.963564,32.0636663 182.032459,32.5458949 C182.100733,33.0287371 181.761224,33.4741545 181.273373,33.5416419" id="Fill-27"></path>
                    <path d="M198.939294,31.0869385 L184.806507,33.0508239 C184.318656,33.1189249 183.867425,32.7833281 183.79915,32.300486 C183.730255,31.8176438 184.070386,31.3722264 184.558237,31.3041255 L198.691024,29.3408535 C199.178875,29.2733661 199.630106,29.6089629 199.698381,30.0911915 C199.767276,30.5740337 199.427145,31.019451 198.939294,31.0869385" id="Fill-29"></path>
                    <path d="M188.077158,37.0484137 L176.594657,38.6441857 C176.106185,38.7116731 175.655574,38.3760763 175.586679,37.8932342 C175.518405,37.4110055 175.857915,36.9649746 176.345766,36.8974872 L187.828888,35.3017152 C188.316739,35.2342277 188.76797,35.5698245 188.836245,36.0526667 C188.90514,36.5348954 188.565009,36.9809262 188.077158,37.0484137" id="Fill-31"></path>
                    <path d="M199.56028,35.4528871 L191.610665,36.5572276 C191.122814,36.6247151 190.671583,36.2891183 190.602688,35.8068896 C190.534413,35.3240474 190.874544,34.8786301 191.362395,34.8111426 L199.31201,33.7061887 C199.799861,33.6387012 200.250472,33.974298 200.319367,34.4571402 C200.387641,34.9393688 200.048131,35.3853997 199.56028,35.4528871" id="Fill-33"></path>
                    <path d="M249.928055,-0.000184056743 L219.767559,-0.000184056743 C217.797534,-0.000184056743 216.145916,1.74896853 216.145916,3.69628887 L216.145916,53.0719643 C216.145916,55.0198982 217.797534,56.4297728 219.767559,56.4297728 L257.231547,56.4297728 C259.201572,56.4297728 260.745192,55.0198982 260.745192,53.0719643 L260.745192,10.9143808 C260.745192,9.97937255 260.395752,9.08240269 259.727284,8.42102546 L252.436827,1.11704037 C251.767738,0.456276666 250.873965,-0.000184056743 249.928055,-0.000184056743 M249.928055,3.52634314 L257.177548,10.9143808 L257.177548,52.9026321 L219.71356,52.9026321 L219.71356,3.52634314 L250.041639,3.52634314" id="Fill-35"></path>
                    <path d="M257.177362,12.3439495 L250.041453,12.3439495 C249.548016,12.3439495 249.149542,11.9488411 249.149542,11.4623177 L249.149542,3.52640449 C249.149542,3.03926765 249.548016,2.64477269 250.041453,2.64477269 C250.534269,2.64477269 250.933364,3.03926765 250.933364,3.52640449 L250.933364,10.5800724 L257.177362,10.5800724 C257.670179,10.5800724 258.069273,10.9751809 258.069273,11.4623177 C258.069273,11.9488411 257.670179,12.3439495 257.177362,12.3439495" id="Fill-38"></path>
                    <path d="M250.933302,44.9666575 L225.95793,44.9666575 C225.464493,44.9666575 225.065399,44.5721625 225.065399,44.0850257 L225.065399,16.7525993 C225.065399,16.264849 225.464493,15.870354 225.95793,15.870354 C226.450747,15.870354 226.849841,16.264849 226.849841,16.7525993 L226.849841,43.2033939 L250.933302,43.2033939 C251.426118,43.2033939 251.825213,43.5985024 251.825213,44.0850257 C251.825213,44.5721625 251.426118,44.9666575 250.933302,44.9666575" id="Fill-40"></path>
                    <path d="M238.414024,39.6768667 C238.088169,39.6768667 237.785279,39.5001722 237.628248,39.2124302 L232.294161,29.4199979 L230.175794,34.7110158 C229.994557,35.1644089 229.474431,35.3846634 229.017613,35.2061284 C228.559555,35.0269798 228.335491,34.5146886 228.516728,34.061909 L231.340803,27.0082411 C231.468041,26.6898229 231.770931,26.4726359 232.117889,26.4523897 C232.457398,26.4407328 232.790081,26.6131326 232.955801,26.9149857 L238.167615,36.4822552 L240.67949,27.9671767 C240.771971,27.6555073 241.030172,27.4193011 241.351061,27.3518137 C241.675675,27.2849397 242.005874,27.3978278 242.218145,27.6463044 L243.850523,29.5611081 L246.048335,23.5080953 C246.214677,23.048567 246.726113,22.8099068 247.189758,22.9755578 C247.652782,23.1405954 247.894225,23.6455244 247.727884,24.1038257 L245.006841,31.5986162 C244.898223,31.8949476 244.638781,32.1127481 244.324098,32.1685786 C244.014381,32.2250227 243.690388,32.1096805 243.484324,31.8685661 L241.926428,30.0408827 L239.270556,39.0424845 C239.169386,39.3854435 238.867738,39.6345336 238.507125,39.671345 C238.476091,39.6750261 238.444437,39.6768667 238.414024,39.6768667" id="Fill-42"></path>
                    <path d="M304.056505,3.78279554 L274.112624,0.215162333 C272.156875,-0.0179762086 270.338915,1.52687339 270.103059,3.46069624 L264.12533,52.4811421 C263.889474,54.414965 265.324476,56.0058288 267.280846,56.2389673 L304.475461,60.6710537 C306.43121,60.9041922 308.168482,59.6906448 308.404339,57.7574354 L313.508155,15.9023185 C313.621118,14.974059 313.366641,14.0402778 312.781965,13.3046644 L306.420659,5.1902161 C305.835982,4.45460265 304.995587,3.89507015 304.056505,3.78279554 M303.62948,7.28416831 L309.965959,15.4802151 L304.882624,57.1666133 L267.688009,52.7351404 L273.665737,3.71408102 L303.775339,7.30134694" id="Fill-44"></path>
                    <path d="M311.563764,17.1107124 L301.822258,15.9493144 C301.333787,15.8916433 300.984967,15.4529747 301.043931,14.9689054 L302.004737,7.09066332 C302.063081,6.60659409 302.507485,6.26240798 302.996577,6.32069261 C303.485669,6.37897725 303.834489,6.81825934 303.775525,7.30171505 L302.921475,14.3050741 L311.777277,15.3597193 C312.266369,15.4180039 312.615189,15.8566725 312.556225,16.3407417 C312.497261,16.8241974 312.052857,17.1689971 311.563764,17.1107124" id="Fill-46"></path>
                    <path d="M297.809466,39.4904786 L277.007518,36.8216558 L284.00812,23.7812355 L289.817024,33.238071 L293.621766,31.1128291 L297.809466,39.4904786 Z M294.296441,25.9721243 C294.110238,27.3912018 295.123181,28.6912559 296.559425,28.8759262 C297.995668,29.0599829 299.31026,28.0587143 299.497083,26.6396368 C299.683286,25.2193322 298.670343,23.9192781 297.23472,23.7352214 C295.798476,23.5511646 294.483264,24.5524333 294.296441,25.9721243 L294.296441,25.9721243 Z M299.318328,41.426142 L275.049286,38.3125154 L277.524541,19.4638779 L301.792963,22.578118 L299.318328,41.426142 Z M276.015678,17.5282145 L273.090433,39.8039886 L300.82657,43.3630324 L303.751815,21.0866448 L276.015678,17.5282145 Z" id="Fill-48"></path>
                    <path d="M13.9065508,96.3568859 C12.4465075,96.3568859 11.2033023,97.3370197 10.9527338,98.6886197 L10.6475543,100.396768 L8.92088045,100.980074 C6.41358942,101.775221 4.75116391,103.933902 4.75116391,106.361113 C4.75116391,109.476059 7.47850547,112.00919 10.8322682,112.00919 L39.2750034,112.00919 C42.2047272,112.00919 44.5883402,109.796803 44.5883402,107.075701 C44.5883402,104.400845 42.1549347,102.14072 39.2750034,102.14072 L36.0497373,102.14072 L36.2103581,99.1466122 L36.2087519,99.00638 C36.2087519,94.4428651 32.2735417,90.7878761 27.4372488,90.7878761 C24.0609991,90.7878761 20.9465614,92.5616646 19.500974,95.306636 L18.0826921,97.9367363 L15.2637967,96.6283994 C14.8413639,96.453855 14.3755636,96.3568859 13.9065508,96.3568859 M39.3521014,116.420538 L10.8322682,116.420538 C4.85877986,116.420538 0,111.907745 0,106.361113 C0,102.355543 2.56672073,98.7647032 6.47462533,97.183361 C7.47689926,94.1444987 10.4692652,92.0171459 13.9065508,92.0171459 C14.6518314,92.0171459 15.3392885,92.1379843 15.936798,92.2991022 C18.3959027,88.6142765 22.6812663,86.3765281 27.4372488,86.3765281 C31.0737042,86.3765281 34.4868967,87.6997833 37.0439802,90.1046169 C39.2958841,92.2185432 40.6226121,94.9351698 40.8474812,97.8427508 C45.65165,98.5468957 49.3378979,102.4182 49.3378979,107.075701 C49.3378979,112.228489 44.8581831,116.420538 39.3521014,116.420538" id="Fill-3-Copy"></path>
                </g>
            </g>
            <path d="M486.826551,37.2077416 C485.366507,37.2077416 484.123302,38.1878754 483.872734,39.5394755 L483.567554,41.2476234 L481.84088,41.8309298 C479.333589,42.6260764 477.671164,44.7847577 477.671164,47.2119687 C477.671164,50.3269145 480.398505,52.8600457 483.752268,52.8600457 L512.195003,52.8600457 C515.124727,52.8600457 517.50834,50.6476584 517.50834,47.9265564 C517.50834,45.2517012 515.074935,42.9915753 512.195003,42.9915753 L508.969737,42.9915753 L509.130358,39.997468 L509.128752,39.8572357 C509.128752,35.2937209 505.193542,31.6387318 500.357249,31.6387318 C496.980999,31.6387318 493.866561,33.4125204 492.420974,36.1574917 L491.002692,38.787592 L488.183797,37.4792551 C487.761364,37.3047107 487.295564,37.2077416 486.826551,37.2077416 M512.272101,57.2713936 L483.752268,57.2713936 C477.77878,57.2713936 472.92,52.7586011 472.92,47.2119687 C472.92,43.2063991 475.486721,39.6155589 479.394625,38.0342167 C480.396899,34.9953544 483.389265,32.8680016 486.826551,32.8680016 C487.571831,32.8680016 488.259288,32.98884 488.856798,33.1499579 C491.315903,29.4651322 495.601266,27.2273839 500.357249,27.2273839 C503.993704,27.2273839 507.406897,28.5506391 509.96398,30.9554727 C512.215884,33.069399 513.542612,35.7860255 513.767481,38.6936066 C518.57165,39.3977514 522.257898,43.2690561 522.257898,47.9265564 C522.257898,53.079345 517.778183,57.2713936 512.272101,57.2713936" id="Fill-3" fill="#303E51" mask="url(#mask-2)"></path>
            <path d="M495.271551,273.804319 C493.811507,273.804319 492.568302,274.784452 492.317734,276.136052 L492.012554,277.8442 L490.28588,278.427507 C487.778589,279.222653 486.116164,281.381335 486.116164,283.808546 C486.116164,286.923492 488.843505,289.456623 492.197268,289.456623 L520.640003,289.456623 C523.569727,289.456623 525.95334,287.244235 525.95334,284.523133 C525.95334,281.848278 523.519935,279.588152 520.640003,279.588152 L517.414737,279.588152 L517.575358,276.594045 L517.573752,276.453813 C517.573752,271.890298 513.638542,268.235309 508.802249,268.235309 C505.425999,268.235309 502.311561,270.009097 500.865974,272.754069 L499.447692,275.384169 L496.628797,274.075832 C496.206364,273.901288 495.740564,273.804319 495.271551,273.804319 M520.717101,293.867971 L492.197268,293.867971 C486.22378,293.867971 481.365,289.355178 481.365,283.808546 C481.365,279.802976 483.931721,276.212136 487.839625,274.630794 C488.841899,271.591931 491.834265,269.464579 495.271551,269.464579 C496.016831,269.464579 496.704288,269.585417 497.301798,269.746535 C499.760903,266.061709 504.046266,263.823961 508.802249,263.823961 C512.438704,263.823961 515.851897,265.147216 518.40898,267.55205 C520.660884,269.665976 521.987612,272.382603 522.212481,275.290184 C527.01665,275.994328 530.702898,279.865633 530.702898,284.523133 C530.702898,289.675922 526.223183,293.867971 520.717101,293.867971" id="Fill-3-Copy-2" fill="#303E51" mask="url(#mask-2)"></path>
            <g mask="url(#mask-2)" fill="#303E51">
                <g transform="translate(331.000000, 185.000000)">
                    <path d="M35.9485071,3.50841477 L8.32879286,0.662948864 C6.52429286,0.477698864 4.87729286,1.95710795 4.69279286,3.77527841 L0.01665,49.865608 C-0.16785,51.6837784 1.18022143,53.1521761 2.98472143,53.3380739 L37.2927214,56.8714261 C39.0965786,57.0573239 40.6754357,55.8901193 40.8592929,54.0719489 L44.8520786,14.7199261 C44.94015,13.8474375 44.6900786,12.9749489 44.1397929,12.2941875 L38.1477214,4.78897159 C37.5980786,4.10885795 36.8150786,3.59780114 35.9485071,3.50841477 M35.6142214,6.80016477 L41.5844357,14.383108 L37.6083643,53.577733 L3.30036429,50.0443807 L7.97650714,3.95340341 L35.7492214,6.81441477" id="Fill-1"></path>
                    <path d="M43.0826786,15.8860943 L34.0974643,14.960492 C33.6461786,14.9138557 33.3176786,14.5083784 33.3639643,14.0530261 L34.1154643,6.64561705 C34.16175,6.1909125 34.5648214,5.86057159 35.0161071,5.90720795 C35.46675,5.95319659 35.79525,6.35932159 35.7489643,6.81402614 L35.0810357,13.3981739 L43.2498214,14.2395716 C43.7004643,14.286208 44.0296071,14.6916852 43.9833214,15.1470375 C43.9370357,15.6023898 43.5339643,15.932083 43.0826786,15.8860943" id="Fill-4"></path>
                    <path d="M18.8386714,24.6614386 C18.8386714,24.4289045 18.7480286,24.2106205 18.5847429,24.0467455 C18.4214571,23.8822227 18.2048143,23.7915409 17.9740286,23.7915409 L17.9733857,23.7915409 C17.7426,23.7915409 17.5259571,23.8828705 17.3626714,24.0473932 L13.7543143,27.686325 C13.4695286,27.9719727 13.4181,28.4137227 13.6289571,28.7583136 L16.4163857,33.3312682 C16.5565286,33.5618591 16.7995286,33.7160182 17.0656714,33.742575 C17.0965286,33.7451659 17.1261,33.7471091 17.1563143,33.7471091 C17.3151,33.7471091 17.4687429,33.7030636 17.6056714,33.6175636 C18.0113143,33.3668932 18.1392429,32.8292795 17.8898143,32.4199159 L15.4585286,28.4318591 L18.5853857,25.278075 C18.7486714,25.1129045 18.8386714,24.8939727 18.8386714,24.6614386" id="Fill-6"></path>
                    <path d="M31.2560357,28.7799477 L28.4679643,24.2063455 C28.34775,24.0094364 28.1574643,23.870175 27.93375,23.8157659 C27.7093929,23.7613568 27.4766786,23.798925 27.2793214,23.9206977 C27.0819643,24.0424705 26.94375,24.23355 26.8903929,24.4602545 C26.8370357,24.6869591 26.8743214,24.9207886 26.9951786,25.1189932 L29.4258214,29.1064023 L26.2996071,32.2608341 C26.1363214,32.4253568 26.0463214,32.6436409 26.0463214,32.876175 C26.0463214,33.1093568 26.1363214,33.3276409 26.2996071,33.4915159 C26.4391071,33.6333682 26.6248929,33.7221068 26.82225,33.7421864 C26.8524643,33.745425 26.8826786,33.7473682 26.91225,33.7473682 C27.1404643,33.7473682 27.3583929,33.6566864 27.5216786,33.4915159 L31.1306786,29.8512886 C31.4154643,29.5649932 31.46625,29.1238909 31.2560357,28.7799477" id="Fill-8"></path>
                    <path d="M24.7069286,34.1704636 L21.5132143,22.8902932 C21.3820714,22.4304068 20.9025,22.1609523 20.4447857,22.2917932 C19.9870714,22.4226341 19.7196429,22.9051909 19.8495,23.3676682 L23.0438571,34.6478386 C23.1415714,34.9930773 23.4334286,35.2385659 23.7876429,35.2754864 C23.8172143,35.278725 23.8467857,35.2806682 23.8757143,35.2806682 C23.9554286,35.2806682 24.0345,35.2690091 24.1122857,35.2463386 C24.5706429,35.1154977 24.8374286,34.6322932 24.7069286,34.1704636" id="Fill-10"></path>
                </g>
            </g>
        </g>
    </g>
</svg>