<?xml version="1.0" encoding="UTF-8" standalone="no"?>
<svg width="298px" height="161px" viewBox="0 0 298 161" version="1.1" xmlns="http://www.w3.org/2000/svg" xmlns:xlink="http://www.w3.org/1999/xlink">
    <!-- Generator: Sketch 48.2 (47327) - http://www.bohemiancoding.com/sketch -->
    <title>Group</title>
    <desc>Created with Sketch.</desc>
    <defs>
        <polygon id="path-1" points="0.427277778 0.500655903 34.4816667 0.500655903 34.4816667 13.9998385 0.427277778 13.9998385"></polygon>
        <polygon id="path-3" points="0.427277778 0.159899348 34.4816667 0.159899348 34.4816667 13.8395385 0.427277778 13.8395385"></polygon>
        <polygon id="path-5" points="0.0268240964 0.0740322581 45.9026795 0.0740322581 45.9026795 16.6148129 0.0268240964 16.6148129"></polygon>
        <polygon id="path-7" points="0 0.00910714286 23.6930473 0.00910714286 23.6930473 14.9421429 0 14.9421429"></polygon>
    </defs>
    <g id="deploy-your-own-provider" stroke="none" stroke-width="1" fill="none" fill-rule="evenodd" transform="translate(-1480.000000, -196.000000)">
        <g id="Group" transform="translate(1480.000000, 196.000000)">
            <g id="Group-34" transform="translate(7.000000, 116.000000)" fill="#F53B3B">
                <path d="M241.308558,5.7293728 L241.536899,4.8667486 C241.875183,5.0612619 242.382609,5.2304039 242.915407,5.2304039 C243.583518,5.2304039 243.95563,4.9174912 243.95563,4.4523507 C243.95563,4.0210386 243.668089,3.7673256 242.940778,3.5051555 C242.00204,3.1668715 241.401586,2.6679026 241.401586,1.8475639 C241.401586,0.9172829 242.179639,0.2068865 243.414376,0.2068865 C244.031744,0.2068865 244.488427,0.3422001 244.784426,0.4944279 L244.530713,1.3316808 C244.327742,1.2217385 243.930259,1.0610536 243.397461,1.0610536 C242.737808,1.0610536 242.450266,1.4162518 242.450266,1.7460787 C242.450266,2.1858479 242.780093,2.3888183 243.541232,2.6848168 C244.530713,3.0569292 245.012768,3.5558981 245.012768,4.3762368 C245.012768,5.2896036 244.319285,6.084571 242.84775,6.084571 C242.247296,6.084571 241.62147,5.915429 241.308558,5.7293728 Z M245.951506,6 L245.951506,0.3760285 C246.323618,0.3083717 246.839501,0.2576291 247.54144,0.2576291 C248.302579,0.2576291 248.860748,0.418314 249.224403,0.7227696 C249.562687,1.0018539 249.782572,1.4500802 249.782572,1.9828775 C249.782572,2.5241319 249.61343,2.9723582 249.29206,3.2768138 C248.877662,3.6912117 248.226466,3.885725 247.490698,3.885725 C247.296185,3.885725 247.118585,3.8772679 246.983272,3.8518966 L246.983272,6 L245.951506,6 Z M246.983272,1.1033391 L246.983272,3.0315579 C247.110128,3.0653863 247.27927,3.0738434 247.490698,3.0738434 C248.268751,3.0738434 248.742349,2.6932739 248.742349,2.025163 C248.742349,1.3908805 248.302579,1.0525965 247.583726,1.0525965 C247.296185,1.0525965 247.093214,1.0779678 246.983272,1.1033391 Z M253.030098,4.3846939 L251.220279,4.3846939 L250.729767,6 L249.655715,6 L251.482449,0.2999146 L252.810214,0.2999146 L254.662319,6 L253.545981,6 L253.030098,4.3846939 Z M251.389421,3.5981836 L252.852499,3.5981836 L252.404273,2.194305 C252.294331,1.8475639 252.201303,1.4585373 252.116732,1.1287104 L252.099817,1.1287104 C252.015246,1.4585373 251.930675,1.856021 251.82919,2.194305 L251.389421,3.5981836 Z M259.195324,5.0105193 L259.364466,5.830858 C259.11921,5.9577145 258.577956,6.084571 257.892931,6.084571 C256.083111,6.084571 254.983688,4.9513196 254.983688,3.2176141 C254.983688,1.3401379 256.286082,0.2068865 258.028244,0.2068865 C258.71327,0.2068865 259.203781,0.3506572 259.415209,0.4605995 L259.186867,1.2893953 C258.91624,1.1709959 258.544128,1.0695107 258.07053,1.0695107 C256.911907,1.0695107 256.074654,1.7968213 256.074654,3.1668715 C256.074654,4.4185223 256.810422,5.2219468 258.062073,5.2219468 C258.484928,5.2219468 258.924697,5.1373758 259.195324,5.0105193 Z M263.440788,2.6256171 L263.440788,3.4713271 L261.292685,3.4713271 L261.292685,5.1458329 L263.694501,5.1458329 L263.694501,6 L260.252462,6 L260.252462,0.2999146 L263.567645,0.2999146 L263.567645,1.1540817 L261.292685,1.1540817 L261.292685,2.6256171 L263.440788,2.6256171 Z" id="SPACE"></path>
                <path d="M0.6004541,6 L0.6004541,0.3760285 C0.9725665,0.3083717 1.4884496,0.2576291 2.1903889,0.2576291 C2.9515279,0.2576291 3.5096965,0.418314 3.8733518,0.7227696 C4.2116358,1.0018539 4.4315204,1.4500802 4.4315204,1.9828775 C4.4315204,2.5241319 4.2623784,2.9723582 3.9410086,3.2768138 C3.5266107,3.6912117 2.875414,3.885725 2.1396463,3.885725 C1.945133,3.885725 1.7675339,3.8772679 1.6322203,3.8518966 L1.6322203,6 L0.6004541,6 Z M1.6322203,1.1033391 L1.6322203,3.0315579 C1.7590768,3.0653863 1.9282188,3.0738434 2.1396463,3.0738434 C2.9176995,3.0738434 3.3912971,2.6932739 3.3912971,2.025163 C3.3912971,1.3908805 2.9515279,1.0525965 2.2326744,1.0525965 C1.945133,1.0525965 1.7421626,1.0779678 1.6322203,1.1033391 Z M5.327973,6 L5.327973,0.3760285 C5.7169996,0.3083717 6.3005395,0.2576291 6.9009936,0.2576291 C7.7213323,0.2576291 8.2795009,0.3929427 8.6600704,0.7143125 C8.9729831,0.9764826 9.1505822,1.3739663 9.1505822,1.856021 C9.1505822,2.5917887 8.6516133,3.0907576 8.118816,3.2852709 L8.118816,3.3106422 C8.5247568,3.46287 8.7700127,3.8603537 8.9137834,4.4100652 C9.0913825,5.1204616 9.2436103,5.7801154 9.3620097,6 L8.287958,6 C8.203387,5.830858 8.0680734,5.3657175 7.9073885,4.6553211 C7.7467036,3.9110963 7.4760764,3.6742975 6.8840794,3.6573833 L6.3597392,3.6573833 L6.3597392,6 L5.327973,6 Z M6.3597392,1.094882 L6.3597392,2.8962443 L6.9771075,2.8962443 C7.6790468,2.8962443 8.118816,2.5241319 8.118816,1.9575062 C8.118816,1.3316808 7.6790468,1.0441394 7.0024788,1.0441394 C6.6726519,1.0441394 6.4612244,1.0695107 6.3597392,1.094882 Z M12.5503364,0.2068865 C14.2163851,0.2068865 15.1974087,1.4669944 15.1974087,3.0907576 C15.1974087,5.0020622 14.038786,6.0930281 12.4657654,6.0930281 C10.8589164,6.0930281 9.8440644,4.8667486 9.8440644,3.1922428 C9.8440644,1.4416231 10.9434874,0.2068865 12.5503364,0.2068865 Z M12.5249651,1.0441394 C11.4931989,1.0441394 10.9434874,1.9997917 10.9434874,3.1753286 C10.9434874,4.3339513 11.5270273,5.2557752 12.5249651,5.2557752 C13.53136,5.2557752 14.0979857,4.3254942 14.0979857,3.1330431 C14.0979857,2.0589914 13.5651884,1.0441394 12.5249651,1.0441394 Z M18.5388089,6 L17.3463578,6 L15.50271,0.2999146 L16.6359614,0.2999146 L17.4140146,2.8877872 C17.6338992,3.6066407 17.8199554,4.2747516 17.9721832,4.9682338 L17.9890974,4.9682338 C18.1413252,4.2916658 18.3442956,3.5981836 18.5726373,2.9047014 L19.4014331,0.2999146 L20.5093132,0.2999146 L18.5388089,6 Z M21.1266815,0.2999146 L22.1669048,0.2999146 L22.1669048,6 L21.1266815,6 L21.1266815,0.2999146 Z M23.3593559,5.9830858 L23.3593559,0.3760285 C23.8160393,0.2999146 24.3995792,0.2576291 25.0169475,0.2576291 C26.0825421,0.2576291 26.8183098,0.4775137 27.34265,0.9172829 C27.8923615,1.3655092 28.2306455,2.0420772 28.2306455,3.0146437 C28.2306455,4.0294957 27.8839044,4.7906347 27.34265,5.2811465 C26.7760243,5.7970296 25.8711146,6.0591997 24.7632345,6.0591997 C24.1543233,6.0591997 23.6976399,6.0253713 23.3593559,5.9830858 Z M24.3995792,1.1287104 L24.3995792,5.2050326 C24.5433499,5.2304039 24.7632345,5.2304039 24.974662,5.2304039 C26.327798,5.238861 27.1312225,4.4946362 27.1312225,3.0484721 C27.1396796,1.7883642 26.412369,1.0695107 25.1099756,1.0695107 C24.7801487,1.0695107 24.5433499,1.094882 24.3995792,1.1287104 Z M32.3238819,2.6256171 L32.3238819,3.4713271 L30.1757785,3.4713271 L30.1757785,5.1458329 L32.5775949,5.1458329 L32.5775949,6 L29.1355552,6 L29.1355552,0.2999146 L32.4507384,0.2999146 L32.4507384,1.1540817 L30.1757785,1.1540817 L30.1757785,2.6256171 L32.3238819,2.6256171 Z M33.4909617,6 L33.4909617,0.3760285 C33.8799883,0.3083717 34.4635282,0.2576291 35.0639823,0.2576291 C35.884321,0.2576291 36.4424896,0.3929427 36.8230591,0.7143125 C37.1359718,0.9764826 37.3135709,1.3739663 37.3135709,1.856021 C37.3135709,2.5917887 36.814602,3.0907576 36.2818047,3.2852709 L36.2818047,3.3106422 C36.6877455,3.46287 36.9330014,3.8603537 37.0767721,4.4100652 C37.2543712,5.1204616 37.406599,5.7801154 37.5249984,6 L36.4509467,6 C36.3663757,5.830858 36.2310621,5.3657175 36.0703772,4.6553211 C35.9096923,3.9110963 35.6390651,3.6742975 35.0470681,3.6573833 L34.5227279,3.6573833 L34.5227279,6 L33.4909617,6 Z M34.5227279,1.094882 L34.5227279,2.8962443 L35.1400962,2.8962443 C35.8420355,2.8962443 36.2818047,2.5241319 36.2818047,1.9575062 C36.2818047,1.3316808 35.8420355,1.0441394 35.1654675,1.0441394 C34.8356406,1.0441394 34.6242131,1.0695107 34.5227279,1.094882 Z" id="PROVIDER-Copy"></path>
            </g>
            <g id="Group-32" transform="translate(13.000000, 0.000000)">
                <polygon id="Fill-21" fill="#EF3F3F" points="75 80.5232068 191.906031 80.5232068 191.906031 76 75 76"></polygon>
                <path d="M128.261256,89.9926962 C127.682302,89.9926962 127.104479,89.7721899 126.662348,89.3300464 C125.779217,88.4468903 125.779217,87.0152954 126.662348,86.1321392 L135.298033,77.4962068 L126.662348,68.8614051 C125.779217,67.9771181 125.779217,66.546654 126.662348,65.6623671 C127.545479,64.779211 128.977033,64.779211 129.860163,65.6623671 L141.693663,77.4962068 L129.860163,89.3300464 C129.418033,89.7721899 128.84021,89.9926962 128.261256,89.9926962" id="Fill-22" fill="#EF3F3F"></path>
                <path d="M72.2297501,39.4252158 L72.2410578,39.4252158 L72.2297501,39.4252158 Z M67.8774193,35.5194267 C67.5325347,35.5194267 67.1876501,35.5963213 66.8665116,35.7501103 C66.2977347,36.0192411 65.8680424,36.4953086 65.6577193,37.0889795 C65.4462655,37.6826504 65.4790578,38.3226841 65.7493116,38.8914774 C66.0195655,39.4602706 66.4956193,39.8899753 67.0892732,40.1014352 C68.315027,40.535663 69.6651655,39.8933677 70.1016424,38.6698402 C70.5369885,37.4440512 69.8947116,36.0927432 68.6700885,35.6573845 C68.4111424,35.5646588 68.1442808,35.5194267 67.8774193,35.5194267 Z M67.8717655,44.7546841 C67.109627,44.7546841 66.3350501,44.6280343 65.5763039,44.3577727 C63.846227,43.7426166 62.4576424,42.4908191 61.6694962,40.8319331 C60.8813501,39.173047 60.7852347,37.3072242 61.4015039,35.5759668 C62.0155116,33.8458402 63.2672732,32.4583466 64.9272424,31.6701778 C66.5860808,30.8797474 68.4518501,30.7870217 70.181927,31.3999162 C73.754027,32.6709373 75.6265808,36.6095196 74.3578578,40.1817221 L74.3578578,40.1828529 C73.357127,42.9962875 70.6998193,44.7546841 67.8717655,44.7546841 Z" id="Fill-23" fill="#303E51"></path>
                <path d="M224.22975,8.42521577 L224.241058,8.42521577 L224.22975,8.42521577 Z M219.877419,4.51942674 C219.532535,4.51942674 219.18765,4.59632125 218.866512,4.75011028 C218.297735,5.01924109 217.868042,5.4953086 217.657719,6.08897948 C217.446265,6.68265037 217.479058,7.32268412 217.749312,7.89147737 C218.019565,8.46027062 218.495619,8.88997526 219.089273,9.10143518 C220.315027,9.53566303 221.665165,8.89336767 222.101642,7.66984024 C222.536989,6.44405121 221.894712,5.0927432 220.670089,4.65738455 C220.411142,4.56465881 220.144281,4.51942674 219.877419,4.51942674 Z M219.871765,13.7546841 C219.109627,13.7546841 218.33505,13.6280343 217.576304,13.3577727 C215.846227,12.7426166 214.457642,11.4908191 213.669496,9.83193307 C212.88135,8.17304699 212.785235,6.30722421 213.401504,4.57596682 C214.015512,2.84584024 215.267273,1.45834657 216.927242,0.670177795 C218.586081,-0.120252585 220.45185,-0.212978323 222.181927,0.399916191 C225.754027,1.67093729 227.626581,5.60951957 226.357858,9.1817221 L226.357858,9.1828529 C225.357127,11.9962875 222.699819,13.7546841 219.871765,13.7546841 Z" id="Fill-23-Copy" fill="#303E51"></path>
                <path d="M226.875077,151.516422 C225.574692,151.516422 224.516292,152.574852 224.516292,153.875274 C224.516292,155.175696 225.574692,156.234127 226.875077,156.234127 C228.175462,156.234127 229.233862,155.175696 229.233862,153.875274 C229.233862,152.574852 228.175462,151.516422 226.875077,151.516422 M226.875077,160.750549 C223.083608,160.750549 220,157.665722 220,153.875274 C220,150.083696 223.083608,147 226.875077,147 C230.666546,147 233.750154,150.083696 233.750154,153.875274 C233.750154,157.665722 230.666546,160.750549 226.875077,160.750549" id="Fill-24" fill="#303E51"></path>
                <path d="M157.662693,125.531114 L161.813747,126.810051 L160.844678,122.576329 L157.662693,125.531114 Z M164.887178,132.379249 C164.664416,132.379249 164.440524,132.346456 164.222285,132.279739 L152.594585,128.697359 C151.82227,128.45989 151.236531,127.827772 151.056739,127.041865 C150.876947,126.254827 151.13137,125.431604 151.721631,124.883165 L160.638878,116.603435 C161.23027,116.053865 162.070431,115.86276 162.840485,116.100228 C163.612801,116.337696 164.197408,116.969815 164.377201,117.755722 L167.088785,129.616701 C167.268578,130.404869 167.015285,131.226962 166.423893,131.775401 C165.999855,132.16892 165.44917,132.379249 164.887178,132.379249 Z" id="Fill-25" fill="#303E51"></path>
                <path d="M6.74488362,14.5994301 L10.2265221,17.1946199 L10.7331067,12.8806115 L6.74488362,14.5994301 Z M12.0142682,23.6017423 C11.5359529,23.6017423 11.0610298,23.4490841 10.6652605,23.1539448 L0.908983621,15.8851516 C0.262183621,15.4034301 -0.0793086869,14.6129997 0.0156759284,13.8112613 C0.109529775,13.0095229 0.624029775,12.3174723 1.36468362,11.999717 L12.5389452,7.1847634 C13.2762067,6.86474652 14.1344605,6.96538787 14.7812605,7.44824019 C15.4291913,7.92996171 15.7695529,8.72039209 15.6745682,9.52213049 L14.2577144,21.6070081 C14.1638605,22.4076157 13.6482298,23.0985356 12.9075759,23.4185524 C12.6203605,23.5418098 12.3173144,23.6017423 12.0142682,23.6017423 Z" id="Fill-26" fill="#303E51"></path>
                <path d="M144.604302,39.1241046 C143.683855,39.1241046 142.818817,38.5564422 142.482978,37.6404928 L138.024355,25.4572354 C137.595794,24.2857249 138.197363,22.9875646 139.36884,22.5601215 C140.539186,22.1349401 141.836178,22.7331342 142.267002,23.9046447 L146.725625,36.0879021 C147.154186,37.2605435 146.552617,38.557573 145.38114,38.9861468 C145.124455,39.0800034 144.863248,39.1241046 144.604302,39.1241046" id="Fill-27" fill="#303E51"></path>
                <path d="M136.283649,35.2624169 C135.363203,35.2624169 134.498165,34.6947544 134.162326,33.7788051 C133.733765,32.6072945 134.335334,31.310265 135.506811,30.8816911 L147.690849,26.4218093 C148.860065,25.9977586 150.159318,26.5948219 150.58788,27.7663325 C151.016442,28.937843 150.414872,30.2360034 149.243395,30.6645772 L137.060488,35.1244591 C136.803803,35.2171848 136.542595,35.2624169 136.283649,35.2624169" id="Fill-28" fill="#303E51"></path>
                <path d="M91.9905138,159.633641 L83.70876,149.647531 C82.9115677,148.68748 83.0449985,147.263801 84.0038908,146.467716 C84.9650446,145.66937 86.3886831,145.803936 87.1847446,146.762856 L95.4664985,156.750096 C96.2636908,157.710147 96.13026,159.133826 95.1702369,159.929911 C94.74846,160.280459 94.2373523,160.450079 93.7296369,160.450079 C93.0805754,160.450079 92.4360369,160.171902 91.9905138,159.633641 Z" id="Fill-29" fill="#303E51"></path>
                <path d="M84.59517,159.598699 C83.9461085,159.598699 83.30157,159.320522 82.8560469,158.78226 C82.0588546,157.822209 82.1922854,156.39853 83.1523085,155.602446 L93.1392623,147.319323 C94.0992854,146.520977 95.5240546,146.656673 96.3189854,147.614462 C97.1161777,148.575644 96.9827469,149.999323 96.0227238,150.795408 L86.03577,159.07853 C85.6139931,159.429078 85.1028854,159.598699 84.59517,159.598699" id="Fill-30" fill="#303E51"></path>
            </g>
            <g id="Page-1" transform="translate(221.000000, 50.000000)" fill="#303E51">
                <path d="M21.2221104,14.8265177 C18.3392688,14.8265177 15.8893167,16.8755324 15.3949468,19.7005005 L15.0087993,21.9885254 L12.8414044,22.7653086 C8.39207569,24.2636869 5.42080337,28.3538323 5.42080337,32.9522894 C5.42080337,38.8557589 10.2945995,43.6587855 16.2855705,43.6587855 L61.9495119,43.6587855 C67.2599874,43.6587855 71.580881,39.4014159 71.580881,34.167673 C71.580881,29.022729 67.1707145,24.6765605 61.9495119,24.6765605 L57.9284406,24.6765605 L58.1297257,20.7187836 L58.1288835,20.4262451 C58.1288835,12.0525883 51.3159279,5.34121453 42.9423806,5.34121453 C37.1055317,5.34121453 31.7154685,8.60063343 29.2120369,13.6464048 L27.4366848,17.1485684 L23.8939816,15.4032959 C23.0404145,15.0294275 22.1215772,14.8265177 21.2221104,14.8265177 M62.0720516,49 L16.2855705,49 C7.30564108,49 0,41.8014769 0,32.9522894 C0,26.3940315 4.06865549,20.5341316 10.2065899,18.1212072 C11.52126,13.1409977 16.0261737,9.60729801 21.2221104,9.60729801 C22.6399497,9.60729801 23.9301961,9.93386232 24.9808373,10.3073158 C28.6414481,3.91545217 35.4021875,0 42.9423806,0 C48.4853026,0 53.6854502,2.14030334 57.5839818,6.02712407 C61.2226956,9.65584696 63.276815,14.3808633 63.417883,19.4067171 C71.030505,20.137856 77,26.4790959 77,34.167673 C77,42.346304 70.3028465,49 62.0720516,49" id="Fill-1"></path>
            </g>
            <g id="Page-1" transform="translate(0.000000, 50.000000)">
                <path d="M38.0002773,22.2969991 C29.025613,22.2969991 24.397393,25.655901 24.397393,27.0893554 C24.397393,28.7155161 29.5619851,31.7030009 38.0002773,31.7030009 C46.9749417,31.7030009 51.602607,28.3435608 51.602607,26.9101063 C51.602607,25.2844839 46.4380149,22.2969991 38.0002773,22.2969991 M38.0002773,35 C28.4670539,35 21,31.525905 21,27.0893554 C21,22.6280447 28.626246,19 38.0002773,19 C47.5329461,19 55,22.474095 55,26.9101063 C55,31.371417 47.373754,35 38.0002773,35" id="Fill-1" fill="#303E51"></path>
                <g id="Group-5" transform="translate(20.000000, 44.000000)">
                    <mask id="mask-2" fill="white">
                        <use xlink:href="#path-1"></use>
                    </mask>
                    <g id="Clip-4"></g>
                    <path d="M3.83005556,5.44906923 L3.83005556,6.08714615 C3.83005556,7.7133 9.00338889,10.7017615 17.4545,10.7017615 C26.4433889,10.7017615 31.0789444,7.34176154 31.0789444,5.90837692 L31.0789444,5.44906923 C27.6445,7.32453077 22.6978333,8.45206923 17.4545,8.45206923 C12.2111667,8.45206923 7.2645,7.32453077 3.83005556,5.44906923 M17.4545,13.9998385 C7.90672222,13.9998385 0.427277778,10.5246077 0.427277778,6.08714615 L0.427277778,2.15045385 C0.427277778,1.47253077 0.8545,0.864069231 1.5045,0.6153 C2.15505556,0.367069231 2.89616667,0.530223077 3.37283333,1.02453077 C5.35172222,3.08037692 10.4733889,5.15399231 17.4545,5.15399231 C24.4356111,5.15399231 29.5572778,3.08037692 31.5367222,1.02453077 C32.0128333,0.530223077 32.7533889,0.367069231 33.4039444,0.6153 C34.0550556,0.864069231 34.4817222,1.47253077 34.4817222,2.15045385 L34.4817222,5.90837692 C34.4817222,10.3706077 26.8433889,13.9998385 17.4545,13.9998385" id="Fill-3" fill="#303E51" mask="url(#mask-2)"></path>
                </g>
                <g id="Group-8" transform="translate(20.000000, 33.000000)">
                    <mask id="mask-4" fill="white">
                        <use xlink:href="#path-3"></use>
                    </mask>
                    <g id="Clip-7"></g>
                    <path d="M3.83005556,5.08415385 L3.83005556,5.74753846 C3.83005556,7.18146154 8.46616667,10.5414615 17.4545,10.5414615 C26.4433889,10.5414615 31.0789444,7.18146154 31.0789444,5.74753846 L31.0789444,5.04807692 C27.6528333,6.88692308 22.8272778,7.93369231 17.4545,7.93369231 C12.0817222,7.93369231 7.2045,6.88315385 3.83005556,5.08415385 M17.4545,13.8395385 C8.06561111,13.8395385 0.427277778,10.2103077 0.427277778,5.74753846 L0.427277778,1.81030769 C0.427277778,1.13238462 0.8545,0.523923077 1.5045,0.275153846 C2.15227778,0.0269230769 2.89616667,0.190076923 3.37283333,0.684384615 C5.64783333,3.04769231 11.3072778,4.63561538 17.4545,4.63561538 C23.6256111,4.63561538 29.0361667,3.10584615 31.5772778,0.644 C32.0639444,0.170692308 32.7972778,0.0301538462 33.4317222,0.285923077 C34.0678333,0.541153846 34.4817222,1.14315385 34.4817222,1.81030769 L34.4817222,5.74753846 C34.4817222,10.2103077 26.8433889,13.8395385 17.4545,13.8395385" id="Fill-6" fill="#303E51" mask="url(#mask-4)"></path>
                </g>
                <path d="M8.74958259,40.2803086 C7.71256261,40.2803086 6.8686165,41.1126103 6.8686165,42.1353676 C6.8686165,43.1565108 7.71256261,43.9866605 8.74958259,43.9866605 C9.78933733,43.9866605 10.6354712,43.1565108 10.6354712,42.1353676 C10.6354712,41.1126103 9.78933733,40.2803086 8.74958259,40.2803086 Z M2.73475733,37.6924797 L2.73475733,45.4080833 C2.73475733,46.5276825 3.45892107,47.3099492 4.49594104,47.3099492 L16.2652427,47.3099492 L16.2652427,37.6924797 L9.72753181,37.6924797 C11.8075882,38.1352621 13.3702286,39.9591165 13.3702286,42.1353676 C13.3702286,44.6398048 11.2972825,46.6767113 8.74958259,46.6767113 C6.20461742,46.6767113 4.13385917,44.6398048 4.13385917,42.1353676 C4.13385917,39.9591165 5.69485866,38.1352621 7.77272727,37.6924797 L2.85836836,37.6924797 C2.817347,37.6930177 2.77577869,37.6930177 2.73475733,37.6924797 Z M19,50 L4.49594104,50 C1.93292648,50 0,48.0260407 0,45.4080833 L0,37.0334173 C0,36.6245296 0,35.6674095 0.976855317,35.216019 C1.43848235,35.0024289 1.91979964,34.9927448 2.82828603,35.0024289 L19,35.0024289 L19,50 Z" id="Fill-9" fill="#303E51"></path>
                <g id="Group-13">
                    <mask id="mask-6" fill="white">
                        <use xlink:href="#path-5"></use>
                    </mask>
                    <g id="Clip-12"></g>
                    <path d="M8.89263133,6.17023226 C7.84183614,6.17023226 6.98667952,7.01639355 6.98667952,8.05613548 C6.98667952,9.09971613 7.84183614,9.94807097 8.89263133,9.94807097 C9.94619759,9.94807097 10.8035711,9.09971613 10.8035711,8.05613548 C10.8035711,7.01639355 9.94619759,6.17023226 8.89263133,6.17023226 Z M8.89263133,12.6900065 C6.31386024,12.6900065 4.21559518,10.6116194 4.21559518,8.05613548 C4.21559518,5.50449032 6.31386024,3.42829677 8.89263133,3.42829677 C11.4741735,3.42829677 13.5746554,5.50449032 13.5746554,8.05613548 C13.5746554,10.6116194 11.4741735,12.6900065 8.89263133,12.6900065 Z M4.58248675,2.81574839 C3.53169157,2.81574839 2.79790843,3.59939355 2.79790843,4.72084516 L2.79790843,13.2575871 C2.79790843,13.7116516 2.90875181,13.8728774 3.5328,13.8728774 L43.0928,13.8728774 C43.113306,13.7478452 43.1315952,13.5548129 43.1315952,13.2575871 L43.1315952,4.72084516 C43.1315952,3.4568129 42.6704867,2.81574839 41.7621253,2.81574839 L4.58248675,2.81574839 Z M43.3826554,16.6148129 L3.5328,16.6148129 C1.11087229,16.6148129 0.0268240964,14.9285226 0.0268240964,13.2575871 L0.0268240964,4.72084516 C0.0268240964,2.0715871 1.98542651,0.0738129032 4.58248675,0.0738129032 L41.7621253,0.0738129032 C44.2383663,0.0738129032 45.9026795,1.94107097 45.9026795,4.72084516 L45.9026795,13.2575871 C45.9026795,16.2874258 44.1408241,16.6148129 43.3826554,16.6148129 Z" id="Fill-11" fill="#303E51" mask="url(#mask-6)"></path>
                </g>
                <g id="Group-16" transform="translate(0.000000, 18.000000)">
                    <mask id="mask-8" fill="white">
                        <use xlink:href="#path-7"></use>
                    </mask>
                    <g id="Clip-15"></g>
                    <path d="M8.95557209,5.61482143 C7.89733953,5.61482143 7.03613023,6.44357143 7.03613023,7.46196429 C7.03613023,8.47821429 7.89733953,9.30482143 8.95557209,9.30482143 C10.0165953,9.30482143 10.8800372,8.47821429 10.8800372,7.46196429 C10.8800372,6.44357143 10.0165953,5.61482143 8.95557209,5.61482143 Z M8.95557209,11.9833929 C6.35854884,11.9833929 4.24543256,9.95517857 4.24543256,7.46196429 C4.24543256,4.96660714 6.35854884,2.93625 8.95557209,2.93625 C11.555386,2.93625 13.6707349,4.96660714 13.6707349,7.46196429 C13.6707349,9.95517857 11.555386,11.9833929 8.95557209,11.9833929 Z M2.8059907,12.2635714 L2.82831628,12.2635714 L16.6249674,12.2635714 L16.6249674,7.81071429 C16.6249674,5.99732143 17.8528744,4.20375 20.1094326,2.68767857 L2.79259535,2.68767857 C2.79482791,2.76589286 2.79985116,2.84464286 2.8032,2.90625 C2.81101395,3.04392857 2.81771163,3.17357143 2.81771163,3.29035714 L2.81771163,11.62875 C2.81771163,11.7176786 2.81436279,11.8141071 2.81101395,11.9164286 C2.80710698,12.0133929 2.8032,12.15 2.8059907,12.2635714 Z M19.4156651,14.9421429 L2.82831628,14.9421429 C1.94589767,14.9421429 1.24375814,14.68875 0.740316279,14.1894643 C-0.0338232558,13.4207143 0.00245581395,12.3835714 0.0219906977,11.8264286 C0.0242232558,11.75625 0.0270139535,11.6898214 0.0270139535,11.62875 L0.0270139535,3.29035714 C0.0270139535,3.21857143 0.0214325581,3.13875 0.0164093023,3.05464286 C-0.0165209302,2.47178571 -0.0734511628,1.49678571 0.668874419,0.743571429 C1.1499907,0.256607143 1.8247814,0.00910714286 2.67482791,0.00910714286 L21.2262698,0.00910714286 C22.3503628,0.00910714286 23.3053395,0.709285714 23.6028279,1.75017857 C23.8986419,2.78839286 23.4515721,3.85339286 22.4882233,4.40142857 C20.5643163,5.49642857 19.4156651,6.77035714 19.4156651,7.81071429 L19.4156651,14.9421429 Z" id="Fill-14" fill="#303E51" mask="url(#mask-8)"></path>
                </g>
            </g>
        </g>
    </g>
</svg>