<?xml version="1.0" encoding="UTF-8" standalone="no"?>
<svg
   xmlns:dc="http://purl.org/dc/elements/1.1/"
   xmlns:cc="http://creativecommons.org/ns#"
   xmlns:rdf="http://www.w3.org/1999/02/22-rdf-syntax-ns#"
   xmlns:svg="http://www.w3.org/2000/svg"
   xmlns="http://www.w3.org/2000/svg"
   xmlns:sodipodi="http://sodipodi.sourceforge.net/DTD/sodipodi-0.dtd"
   xmlns:inkscape="http://www.inkscape.org/namespaces/inkscape"
   width="128.18304"
   height="106.79482"
   viewBox="0 0 128.18304 106.79482"
   version="1.1"
   id="svg13"
   sodipodi:docname="tokens.svg"
   inkscape:version="0.92.2 5c3e80d, 2017-08-06">
  <metadata
     id="metadata17">
    <rdf:RDF>
      <cc:Work
         rdf:about="">
        <dc:format>image/svg+xml</dc:format>
        <dc:type
           rdf:resource="http://purl.org/dc/dcmitype/StillImage" />
        <dc:title>Fill 1</dc:title>
      </cc:Work>
    </rdf:RDF>
  </metadata>
  <sodipodi:namedview
     pagecolor="#ffffff"
     bordercolor="#666666"
     borderopacity="1"
     objecttolerance="10"
     gridtolerance="10"
     guidetolerance="10"
     inkscape:pageopacity="0"
     inkscape:pageshadow="2"
     inkscape:window-width="1920"
     inkscape:window-height="1015"
     id="namedview15"
     showgrid="false"
     inkscape:zoom="3.2777778"
     inkscape:cx="50.672976"
     inkscape:cy="20.775719"
     inkscape:window-x="0"
     inkscape:window-y="0"
     inkscape:window-maximized="1"
     inkscape:current-layer="svg13"
     fit-margin-top="0"
     fit-margin-left="0"
     fit-margin-right="0"
     fit-margin-bottom="0" />
  <!-- Generator: Sketch 43.2 (39069) - http://www.bohemiancoding.com/sketch -->
  <title
     id="title2">Fill 1</title>
  <desc
     id="desc4">Created with Sketch.</desc>
  <defs
     id="defs6" />
  <g
     id="Onepanel-for-provider-New-color"
     style="fill:#555555;fill-rule:evenodd;stroke:none;stroke-width:1;fill-opacity:1"
     transform="scale(6.0554867)">
    <g
       id="Wersja-3"
       transform="translate(-28,-588)"
       style="fill:#555555;fill-opacity:1">
      <g
         id="Menu-Fix"
         transform="translate(1,40)"
         style="fill:#555555;fill-opacity:1">
        <g
           id="Tokens"
           transform="translate(27,548)"
           style="fill:#555555;fill-opacity:1">
          <path
             d="m 18.853023,17.006422 v -1.889468 c 0,-0.348044 -0.296363,-0.630226 -0.661264,-0.630226 -0.365536,0 -0.6619,0.282182 -0.6619,0.630226 v 1.259847 H 3.6382248 v -1.259847 c 0,-0.348044 -0.2957287,-0.630226 -0.6612647,-0.630226 -0.3655359,0 -0.6618992,0.282182 -0.6618992,0.630226 v 1.889468 c 0,0.34744 0.2963633,0.629621 0.6618992,0.629621 H 18.191759 c 0.364901,0 0.661264,-0.282181 0.661264,-0.629621 z m 0,-14.4867283 V 0.63022555 C 18.853023,0.28218153 18.55666,0 18.191759,0 H 2.9769601 C 2.6114242,0 2.3150609,0.28218153 2.3150609,0.63022555 V 2.5196937 c 0,0.348044 0.2963633,0.6296213 0.6618992,0.6296213 0.365536,0 0.6612647,-0.2815773 0.6612647,-0.6296213 V 1.2598469 H 17.529859 v 1.2598468 c 0,0.348044 0.296364,0.6296213 0.6619,0.6296213 0.364901,0 0.661264,-0.2815773 0.661264,-0.6296213 z m -5.559827,6.5910837 c 0,-0.4489526 -0.222114,-1.1492704 -1.058531,-1.1492704 -0.746937,0 -1.201953,0.5794692 -1.201953,1.3154373 0,0.7359677 0.470881,1.2302387 1.260337,1.2302387 0.407421,0 0.687919,-0.08097 0.852283,-0.151665 l -0.07996,-0.317227 c -0.174518,0.07009 -0.37569,0.125682 -0.70886,0.125682 -0.46644,0 -0.868783,-0.2465311 -0.878937,-0.8465445 h 1.799757 c 0.0057,-0.045318 0.01586,-0.1160146 0.01586,-0.2066511 z m -2.80498,0.4181362 c 0,-0.4586205 -0.343959,-0.7613463 -0.7672449,-0.8417106 V 8.6769309 C 10.144257,8.5313083 10.356217,8.2436886 10.356217,7.9053124 c 0,-0.3981962 -0.307152,-0.780682 -0.9842819,-0.780682 -0.3712475,0 -0.7209181,0.1256825 -0.900513,0.2513651 l 0.1218453,0.32327 C 8.7411317,7.5983569 9.0063991,7.4823423 9.2811857,7.4823423 c 0.428997,0 0.603515,0.2320293 0.603515,0.4942708 0,0.3879241 -0.4283624,0.5546952 -0.7672446,0.5546952 H 8.8579002 V 8.863642 h 0.2595559 c 0.4499391,0 0.8840129,0.196379 0.8890899,0.6549995 0.0057,0.2725136 -0.1802295,0.6356635 -0.778033,0.6356635 -0.323017,0 -0.6301687,-0.126287 -0.7621678,-0.2066509 L 8.3387884,10.29026 c 0.1694411,0.105743 0.5083234,0.221757 0.8948015,0.221757 0.8262631,0 1.2546261,-0.45862 1.2546261,-0.9831034 z M 7.8374457,10.088443 H 6.2915333 v -0.0097 L 6.5669545,9.8364734 C 7.2916802,9.1712017 7.7524078,8.6817648 7.7524078,8.0775217 c 0,-0.4694969 -0.3122286,-0.9528913 -1.0534542,-0.9528913 -0.3972665,0 -0.7361488,0.1407886 -0.9741279,0.3329379 L 5.8733247,7.769962 C 6.0313428,7.6436752 6.2915333,7.4920101 6.6037619,7.4920101 c 0.5134003,0 0.6828415,0.308164 0.6828415,0.6404977 C 7.2815265,8.6267787 6.88426,9.0503531 6.0053238,9.8467455 L 5.6404224,10.183913 v 0.272514 H 7.8374457 Z M 5.0794263,10.456427 C 5.0483304,10.29026 5.037542,10.083004 5.037542,9.8715195 V 8.9597166 c 0,-0.4894369 -0.1903833,-0.9982096 -0.9741279,-0.9982096 -0.3223823,0 -0.629534,0.085198 -0.8414941,0.2163191 L 3.3279,8.4702797 C 3.5074949,8.3597032 3.7562624,8.2890068 3.9942416,8.2890068 c 0.5248232,0 0.5825728,0.3625458 0.5825728,0.564363 v 0.050757 c -0.9899931,-0.00544 -1.5402008,0.3172276 -1.5402008,0.9069689 0,0.3528783 0.2646328,0.7009223 0.7831099,0.7009223 0.365536,0 0.6409571,-0.171605 0.7837446,-0.36315 h 0.015865 l 0.036807,0.30756 z M 21.168084,5.3040459 v 7.5584771 c 0,0.695484 -0.597804,1.309395 -1.328241,1.309395 H 1.3174524 C 0.58638055,14.171918 0,13.558007 0,12.862523 V 5.3040459 C 0,4.6085621 0.58638055,4.0943512 1.3174524,4.0943512 H 19.839843 c 0.730437,0 1.328241,0.5142109 1.328241,1.2096947 z m -8.970861,2.9746888 c -0.470881,0 -0.67713,0.4133022 -0.714572,0.720862 h 1.360606 c 0.0057,-0.2821815 -0.121845,-0.720862 -0.646034,-0.720862 z M 4.5876028,9.211686 v 0.4229702 c 0,0.045318 -0.010788,0.096075 -0.026654,0.1413928 -0.073615,0.2066512 -0.285575,0.407864 -0.6193804,0.407864 -0.2379791,0 -0.4391508,-0.135955 -0.4391508,-0.42297 0,-0.4737266 0.5768614,-0.5595291 1.0851852,-0.549257 z"
             id="Fill-1"
             style="fill:#555555;fill-opacity:1"
             inkscape:connector-curvature="0" />
        </g>
      </g>
    </g>
  </g>
</svg>
