<?xml version="1.0" encoding="UTF-8" standalone="no"?>
<svg width="359px" height="238px" viewBox="0 0 359 238" version="1.1" xmlns="http://www.w3.org/2000/svg" xmlns:xlink="http://www.w3.org/1999/xlink">
    <!-- Generator: Sketch 48.2 (47327) - http://www.bohemiancoding.com/sketch -->
    <title>Page 1</title>
    <desc>Created with Sketch.</desc>
    <defs></defs>
    <g id="First-screen--Join-a-SPACE-Copy-2" stroke="none" stroke-width="1" fill="none" fill-rule="evenodd" transform="translate(-1048.000000, -401.000000)">
        <g id="Page-1" transform="translate(1048.000000, 401.000000)">
            <polygon id="Fill-7" fill="#EF3F3F" points="199 128 249 128 249 123 199 123"></polygon>
            <path d="M220.449482,139 C219.822336,139 219.196415,138.761784 218.717482,138.284129 C217.760839,137.330042 217.760839,135.783467 218.717482,134.82938 L228.071999,125.499847 L218.717482,116.171536 C217.760839,115.217449 217.760839,113.669653 218.717482,112.715566 C219.674124,111.761478 221.22484,111.761478 222.181482,112.715566 L235,125.499847 L222.181482,138.284129 C221.702549,138.761784 221.076628,139 220.449482,139" id="Fill-9" fill="#EF3F3F"></path>
            <path d="M312.245832,11.1884976 L312.258163,11.1884976 L312.245832,11.1884976 Z M307.498464,6.92944187 C307.123607,6.92944187 306.747516,7.01329126 306.397321,7.17975695 C305.77708,7.47446289 305.308509,7.99358925 305.079156,8.64095585 C304.848569,9.28832245 304.884329,9.9862453 305.179035,10.6064842 C305.473742,11.226723 305.99287,11.6952931 306.640238,11.9258789 C307.9769,12.3993814 309.447967,11.6989924 309.92517,10.3635675 C310.399907,9.02690965 309.699516,7.55337996 308.362855,7.07864446 C308.080479,6.97876504 307.789471,6.92944187 307.498464,6.92944187 L307.498464,6.92944187 Z M307.493531,17 C306.663667,17 305.817772,16.860662 304.990374,16.5659561 C303.103757,15.895161 301.589532,14.5301423 300.730073,12.7224481 C299.870614,10.9122878 299.765802,8.87770706 300.437832,6.98986275 C301.107396,5.10325152 302.472419,3.59149637 304.281351,2.73080707 C306.090283,1.87135084 308.12487,1.76530602 310.011486,2.43733421 C313.908027,3.82208219 315.951245,8.11813025 314.566493,12.0121945 L314.566493,12.0134276 C313.475215,15.0813287 310.577471,17 307.493531,17 L307.493531,17 Z" id="Fill-11" fill="#303E51"></path>
            <path d="M7.49938317,159.927638 C6.08191463,159.927638 4.92721441,161.082148 4.92721441,162.499383 C4.92721441,163.917852 6.08191463,165.072362 7.49938317,165.072362 C8.91808537,165.072362 10.0727856,163.917852 10.0727856,162.499383 C10.0727856,161.082148 8.91808537,159.927638 7.49938317,159.927638 M7.49938317,170 C3.36294103,170 0,166.635145 0,162.499383 C0,158.364855 3.36294103,155 7.49938317,155 C11.6358253,155 15,158.364855 15,162.499383 C15,166.635145 11.6358253,170 7.49938317,170" id="Fill-12" fill="#303E51"></path>
            <path d="M287.015744,214.893718 L291.385569,216.221085 L290.36634,211.827043 L287.015744,214.893718 Z M294.621858,222 C294.387293,222 294.151536,221.965965 293.921734,221.896721 L281.679081,218.17986 C280.867032,217.933399 280.249065,217.277345 280.059746,216.461677 C279.870426,215.64601 280.138331,214.790439 280.75987,214.221233 L290.148444,205.626798 C290.769983,205.056417 291.655855,204.856902 292.466713,205.104536 C293.279953,205.350997 293.895539,206.007051 294.084858,206.822719 L296.940127,219.132841 C297.129447,219.950856 296.862733,220.804079 296.240003,221.373286 C295.793495,221.781706 295.21363,222 294.621858,222 L294.621858,222 Z" id="Fill-13" fill="#303E51"></path>
            <path d="M216.307901,49.2396727 L220.080163,52.0521574 L220.629034,47.3761257 L216.307901,49.2396727 Z M222.017138,59 C221.498896,59 220.98433,58.8344876 220.555525,58.514497 L209.984859,50.6324289 C209.284069,50.1101453 208.914071,49.2531589 209.016984,48.3839123 C209.118673,47.5146657 209.67612,46.7655689 210.478598,46.4198319 L222.585612,41.1994483 C223.38564,40.8537113 224.31431,40.9628269 225.0151,41.4851104 C225.717116,42.00862 226.085889,42.8656064 225.982975,43.734853 L224.447852,56.8360787 C224.346164,57.7053253 223.787492,58.4544221 222.985013,58.8001591 C222.673823,58.933795 222.345481,59 222.017138,59 L222.017138,59 Z" id="Fill-14" fill="#303E51"></path>
            <path d="M100.483185,18 C99.4579185,18 98.4943698,17.3882189 98.1202861,16.4010821 L93.1539168,3.27094409 C92.6765508,2.00716526 93.3466265,0.609330815 94.6515108,0.147448291 C95.953876,-0.310778171 97.4010884,0.333907463 97.8797139,1.5976863 L102.846083,14.7278243 C103.323449,15.9916032 102.653373,17.3894376 101.348489,17.8513201 C101.062573,17.9512525 100.77162,18 100.483185,18" id="Fill-15" fill="#303E51"></path>
            <path d="M91.4351141,14 C90.4431302,14 89.5108604,13.3676458 89.1489203,12.3473134 C88.6870507,11.0435554 89.3353743,9.59745464 90.5978992,9.12003985 L103.72889,4.15190282 C104.990196,3.67952671 106.38921,4.34463228 106.85108,5.65090969 C107.312949,6.95466775 106.664626,8.40076849 105.402101,8.87818328 L92.272329,13.8463203 C91.9956947,13.9496132 91.7141857,14 91.4351141,14" id="Fill-16" fill="#303E51"></path>
            <path d="M196.530678,237 C195.82072,237 195.115708,236.712313 194.628384,236.15565 L185.569606,225.826986 C184.697618,224.834115 184.843568,223.361766 185.892427,222.538466 C186.94376,221.713998 188.500969,221.851994 189.37172,222.844865 L198.430499,233.173529 C199.302486,234.1664 199.156537,235.638749 198.106441,236.462049 C197.645091,236.824581 197.086029,237 196.530678,237" id="Fill-17" fill="#303E51"></path>
            <path d="M186.492816,238 C185.776819,238 185.065812,237.69574 184.574344,237.107009 C183.694941,236.056941 183.842132,234.499773 184.901158,233.629045 L195.918022,224.56927 C196.977048,223.698543 198.548747,223.842015 199.425656,224.894556 C200.305059,225.944625 200.157868,227.501793 199.098842,228.372521 L188.081978,237.431059 C187.616705,237.814476 187.052889,238 186.492816,238" id="Fill-18" fill="#303E51"></path>
            <g id="Group-2" transform="translate(51.000000, 66.000000)" fill="#303E51">
                <path d="M5.0138367,118.952117 L119.928885,118.952117 L119.928885,29.7383301 L5.0138367,29.7383301 L5.0138367,118.952117 Z M5.0138367,24.7819417 L119.928885,24.7819417 L119.928885,4.95638835 L5.0138367,4.95638835 L5.0138367,24.7819417 Z M0.0174774782,123.909709 L124.926458,123.909709 L124.926458,0 L0.0174774782,0 L0.0174774782,123.909709 Z" id="Fill-20"></path>
                <polygon id="Fill-21" points="32.7844678 16.9940194 110.227429 16.9940194 110.227429 12.038835 32.7844678 12.038835"></polygon>
                <polygon id="Fill-22" points="12.1533998 16.9940194 17.149759 16.9940194 17.149759 12.038835 12.1533998 12.038835"></polygon>
                <polygon id="Fill-23" points="23.0757299 16.9940194 28.0720891 16.9940194 28.0720891 12.038835 23.0757299 12.038835"></polygon>
                <g id="Group" transform="translate(17.007769, 74.640777)">
                    <path d="M14.6152478,4.13085029 C8.86099084,4.13085029 4.17787716,8.75905701 4.17787716,14.4471189 C4.17787716,20.1351809 8.86099084,24.7623536 14.6152478,24.7623536 L80.0470385,24.7623536 C85.8012954,24.7623536 90.482317,20.1351809 90.482317,14.4471189 C90.482317,8.75905701 85.8012954,4.13085029 80.0470385,4.13085029 L14.6152478,4.13085029 Z M80.0470385,28.8932039 L14.6152478,28.8932039 C6.55656836,28.8932039 0,22.4130941 0,14.4471189 C0,6.48010982 6.55656836,0 14.6152478,0 L80.0470385,0 C88.1057179,0 94.6601942,6.48010982 94.6601942,14.4471189 C94.6601942,22.4130941 88.1057179,28.8932039 80.0470385,28.8932039 L80.0470385,28.8932039 Z" id="Fill-5"></path>
                    <path d="M22.8003501,11.5820661 C22.8003501,12.0946076 22.635114,12.5299025 22.3035253,12.8879508 C21.9719367,13.2470431 21.5052563,13.4944409 20.9057172,13.6280566 L20.9057172,13.6625044 C21.6146694,13.7439265 22.1494538,13.9453939 22.5123034,14.264819 C22.8762694,14.584244 23.0582524,15.0153634 23.0582524,15.5571334 C23.0582524,16.3452573 22.7523423,16.9600983 22.1416386,17.3995687 C21.528702,17.8379953 20.6556301,18.0582524 19.5201901,18.0582524 C18.568966,18.0582524 17.7260385,17.9100225 16.9902913,17.6146065 L16.9902913,16.1406582 C17.3308116,16.3014146 17.7048258,16.4318987 18.1123338,16.5331544 C18.5198417,16.6333662 18.9228839,16.6845159 19.3225766,16.6845159 C19.9355133,16.6845159 20.3865632,16.5863919 20.6790757,16.3922316 C20.9693554,16.1980712 21.1156117,15.8859533 21.1156117,15.4558777 C21.1156117,15.0717326 20.9481427,14.7982379 20.6120881,14.6374815 C20.2760336,14.4767251 19.7412492,14.3963469 19.0055019,14.3963469 L18.3389752,14.3963469 L18.3389752,13.067497 L19.0166665,13.067497 C19.6965908,13.067497 20.1934156,12.985031 20.5071409,12.8180114 C20.8219827,12.6520356 20.9771706,12.3670584 20.9771706,11.9630796 C20.9771706,11.3430192 20.5618474,11.032989 19.7300846,11.032989 C19.4420379,11.032989 19.1495253,11.0778756 18.8525469,11.1676486 C18.554452,11.2563778 18.2228633,11.4119148 17.8588973,11.632172 L17.0025723,10.4379816 C17.8008414,9.90038712 18.7554148,9.63106796 19.8629433,9.63106796 C20.7706255,9.63106796 21.4862765,9.80226309 22.0121292,10.1467411 C22.537982,10.4912191 22.8003501,10.9693128 22.8003501,11.5820661" id="Fill-24"></path>
                    <path d="M27.2825959,14.0647415 L26.5641855,14.0850122 C26.0248112,14.0994912 25.6225468,14.1825043 25.3596584,14.3340516 C25.095637,14.4865641 24.9630597,14.7182286 24.9630597,15.0290453 C24.9630597,15.4749995 25.2644747,15.6979767 25.8639054,15.6979767 C26.2944984,15.6979767 26.6389727,15.5927624 26.8961954,15.3813684 C27.1545511,15.1709398 27.2825959,14.8910118 27.2825959,14.5415844 L27.2825959,14.0647415 Z M27.8299022,16.7501199 L27.470697,15.9624604 L27.421972,15.9624604 C27.1103587,16.2974087 26.7885471,16.5300385 26.4576704,16.6593846 C26.1267938,16.7887306 25.6962008,16.8543689 25.1647585,16.8543689 C24.5120702,16.8543689 23.9976249,16.6950995 23.6225558,16.377526 C23.2463536,16.0589873 23.0582524,15.6062761 23.0582524,15.0184273 C23.0582524,14.4035509 23.3109425,13.9498745 23.8163226,13.657398 C24.3217028,13.3658868 25.0843056,13.2037216 26.1018647,13.172833 L27.2825959,13.1419444 L27.2825959,12.8880786 C27.2825959,12.3002298 26.9290564,12.006788 26.2231106,12.006788 C25.6803369,12.006788 25.0401131,12.146752 24.3058388,12.42668 L23.6916773,11.3581273 C24.4746766,11.0086999 25.3426613,10.8349515 26.2967647,10.8349515 C27.210075,10.8349515 27.9092219,11.0038735 28.3953387,11.3426829 C28.8825886,11.6814924 29.1262136,12.1959807 29.1262136,12.8880786 L29.1262136,16.7501199 L27.8299022,16.7501199 Z" id="Fill-25"></path>
                    <path d="M33.444395,16.6694206 C33.8319213,16.6694206 34.1307763,16.5448758 34.337676,16.2957861 C34.5456703,16.0466965 34.6507622,15.6908541 34.6507622,15.2303522 C34.6507622,14.8295063 34.5533333,14.5134345 34.3584754,14.2831836 C34.1647122,14.0529326 33.8724255,13.9378072 33.4794256,13.9378072 C33.1105094,13.9378072 32.7963284,14.051886 32.5357882,14.2800438 C32.2752479,14.5092481 32.1449777,14.7750833 32.1449777,15.0785959 C32.1449777,15.5244455 32.2675849,15.9012197 32.5117046,16.2089187 C32.756919,16.5155711 33.0678158,16.6694206 33.444395,16.6694206 M30.3398058,14.4548252 C30.3398058,12.8284163 30.6988697,11.6175056 31.4180923,10.8231399 C32.1384095,10.0287741 33.2156012,9.63106796 34.6507622,9.63106796 C35.1400962,9.63106796 35.5232437,9.65932603 35.802394,9.71584217 L35.802394,11.104674 C35.4531824,11.0293191 35.1083497,10.9916417 34.7678958,10.9916417 C34.1439128,10.9916417 33.6359687,11.0816489 33.2407795,11.2616633 C32.8477797,11.4416776 32.5533035,11.7075128 32.3562562,12.0602154 C32.1603036,12.4118714 32.0453594,12.9121439 32.0092341,13.5610329 L32.0869583,13.5610329 C32.4733899,12.9236564 33.0962782,12.6054915 33.9501497,12.6054915 C34.718634,12.6054915 35.3196282,12.8357424 35.7553216,13.2962443 C36.1899203,13.7577928 36.407767,14.3951693 36.407767,15.2083737 C36.407767,16.0843739 36.1494161,16.7793131 35.6316197,17.2900516 C35.1138233,17.8028832 34.3967901,18.0582524 33.4794256,18.0582524 C32.8444956,18.0582524 32.2905738,17.9169621 31.818755,17.6364746 C31.3458416,17.3549405 30.9813042,16.9446751 30.7251427,16.4056786 C30.4678865,15.8656355 30.3398058,15.2156999 30.3398058,14.4548252" id="Fill-26"></path>
                    <polygon id="Fill-27" points="37.4027619 18.0582524 40.5783462 11.1323147 36.407767 11.1323147 36.407767 9.63106796 42.4757282 9.63106796 42.4757282 10.7508239 39.2764535 18.0582524"></polygon>
                    <path d="M46.6472188,11.0253059 C46.2706396,11.0253059 45.9761634,11.1488195 45.7637902,11.3958466 C45.5525118,11.6439205 45.4474199,11.9998071 45.4474199,12.464553 C45.4474199,12.8612619 45.5426594,13.1763262 45.7353279,13.4086992 C45.9279963,13.6421189 46.2191884,13.7572586 46.6110935,13.7572586 C46.9800098,13.7572586 47.2952854,13.6421189 47.5580151,13.4118393 C47.8207448,13.1815598 47.9510149,12.9167383 47.9510149,12.6163282 C47.9510149,12.1704233 47.8295024,11.7936022 47.5842881,11.485865 C47.3401684,11.1791745 47.0270822,11.0253059 46.6472188,11.0253059 M49.7572816,13.2349428 C49.7572816,14.8542266 49.4004071,16.0621475 48.6866581,16.8607988 C47.9740038,17.6594501 46.8935279,18.0582524 45.4474199,18.0582524 C44.9372864,18.0582524 44.5519495,18.0320843 44.2892199,17.979748 L44.2892199,16.5855101 C44.617632,16.6640145 44.9635594,16.70379 45.323718,16.70379 C45.9312804,16.70379 46.4315615,16.6179586 46.822372,16.4473424 C47.2153718,16.2777729 47.5153215,16.0087645 47.7222212,15.6445042 C47.9302155,15.2781503 48.0495386,14.7757222 48.0823798,14.1340797 L48.0112238,14.1340797 C47.7835247,14.4868261 47.5207951,14.7338532 47.22194,14.8762079 C46.9252744,15.0185625 46.553074,15.0897398 46.1064335,15.0897398 C45.3565592,15.0897398 44.7665121,14.860507 44.3362923,14.4009946 C43.9049777,13.942529 43.6893204,13.3040266 43.6893204,12.4865343 C43.6893204,11.6062384 43.9509554,10.9101661 44.4742253,10.3983175 C44.9974953,9.88751563 45.7101496,9.63106796 46.6110935,9.63106796 C47.2460236,9.63106796 47.8021348,9.77342259 48.2783323,10.0581318 C48.7545299,10.3428411 49.1201621,10.7562975 49.3752288,11.2974545 C49.6302955,11.8396581 49.7572816,12.4854875 49.7572816,13.2349428" id="Fill-28"></path>
                    <path d="M51.7769284,13.1206809 C51.7769284,13.4790974 51.851099,13.7616527 52.0004426,13.9705457 C52.1487839,14.1794388 52.3763074,14.2838853 52.6810085,14.2838853 C52.9897187,14.2838853 53.2162399,14.1794388 53.3585674,13.9705457 C53.5028995,13.7616527 53.5740632,13.4790974 53.5740632,13.1206809 C53.5740632,12.325788 53.2763783,11.9277918 52.6810085,11.9277918 C52.0786225,11.9277918 51.7769284,12.325788 51.7769284,13.1206809 L51.7769284,13.1206809 Z M51.1785516,18.4947289 C51.1785516,18.7421022 51.287803,18.937802 51.5053034,19.0785299 C51.7218015,19.2203573 52.0255003,19.2918207 52.417402,19.2918207 C53.0057556,19.2918207 53.4668165,19.2027663 53.8015867,19.025757 C54.1343523,18.8487476 54.3017374,18.6068715 54.3017374,18.2990291 C54.3017374,18.0516558 54.2025091,17.8801436 54.0050548,17.7855921 C53.8076005,17.6910405 53.5028995,17.6437647 53.0909517,17.6437647 L52.2389915,17.6437647 C51.9372973,17.6437647 51.6857185,17.7218247 51.4832527,17.8768453 C51.2807868,18.0329654 51.1785516,18.2385601 51.1785516,18.4947289 L51.1785516,18.4947289 Z M55.8252427,10.9591878 L55.8252427,11.8750188 L54.883075,12.1399832 C55.0554716,12.4357317 55.1406676,12.7666622 55.1406676,13.1327747 C55.1406676,13.8408122 54.9161511,14.3927295 54.4661156,14.7896263 C54.0150779,15.1843242 53.3896389,15.3822228 52.5897986,15.3822228 L52.2941183,15.3646318 L52.0505579,15.334947 C51.8821705,15.4767744 51.7979768,15.6339939 51.7979768,15.8077049 C51.7979768,16.0671721 52.0996709,16.1969056 52.7030592,16.1969056 L53.7244091,16.1969056 C54.3859312,16.1969056 54.8880865,16.3530257 55.2348844,16.6641663 C55.5816823,16.9742076 55.7550813,17.4315733 55.7550813,18.0340648 C55.7550813,18.8047701 55.4614056,19.4039633 54.8750565,19.8294454 C54.2877052,20.2538281 53.4447657,20.4660194 52.3462382,20.4660194 C51.5063057,20.4660194 50.8658321,20.3066011 50.4218105,19.9855655 C49.9787912,19.6645299 49.7572816,19.2148601 49.7572816,18.6365563 C49.7572816,18.2385601 49.8705421,17.9065301 50.0970633,17.6382675 C50.3225822,17.3700049 50.6553478,17.1798023 51.0923533,17.0654608 C50.9239659,16.9863014 50.7766269,16.8576672 50.6513386,16.678459 C50.5260503,16.4992508 50.4629051,16.3090482 50.4629051,16.1089507 C50.4629051,15.8571796 50.5290573,15.6471871 50.662364,15.4800727 C50.7956707,15.3129583 50.9871111,15.1480427 51.23869,14.9864255 C50.9219612,14.8369021 50.6713847,14.5972248 50.4869604,14.2662943 C50.3015338,13.9353637 50.2103239,13.5461631 50.2103239,13.0975928 C50.2103239,12.3763621 50.4228128,11.8189476 50.8507975,11.4253491 C51.2777799,11.0328501 51.887182,10.8349515 52.6810085,10.8349515 C52.8493959,10.8349515 53.0498571,10.8525424 53.2813898,10.8855256 C53.5119202,10.9196081 53.6602615,10.9437957 53.7244091,10.9591878 L55.8252427,10.9591878 Z" id="Fill-29"></path>
                    <path d="M57.038835,16.8543689 C57.038835,16.4574698 57.1421744,16.1581472 57.3501449,15.9550825 C57.5581155,15.7520178 57.861675,15.6504854 58.2595318,15.6504854 C58.6431793,15.6504854 58.9402802,15.754655 59.1508342,15.9616755 C59.3613883,16.1700146 59.4660194,16.4680186 59.4660194,16.8543689 C59.4660194,17.2275333 59.3600965,17.5215815 59.1482507,17.735195 C58.9351132,17.9514457 58.6380124,18.0582524 58.2595318,18.0582524 C57.872009,18.0582524 57.5697412,17.9527643 57.3566036,17.7431066 C57.1447578,17.5334489 57.038835,17.2367635 57.038835,16.8543689" id="Fill-30"></path>
                    <path d="M59.4660194,16.8543689 C59.4660194,16.4574698 59.5693588,16.1581472 59.7773294,15.9550825 C59.9853,15.7520178 60.2888595,15.6504854 60.6867162,15.6504854 C61.0703638,15.6504854 61.3674646,15.754655 61.5780187,15.9616755 C61.7885727,16.1700146 61.8932039,16.4680186 61.8932039,16.8543689 C61.8932039,17.2275333 61.787281,17.5215815 61.5754352,17.735195 C61.3622976,17.9514457 61.0651968,18.0582524 60.6867162,18.0582524 C60.2991934,18.0582524 59.9969257,17.9527643 59.7837881,17.7431066 C59.5719423,17.5334489 59.4660194,17.2367635 59.4660194,16.8543689" id="Fill-31"></path>
                    <path d="M63.1067961,16.8543689 C63.1067961,16.4574698 63.2101355,16.1581472 63.4181061,15.9550825 C63.6260767,15.7520178 63.9296362,15.6504854 64.3274929,15.6504854 C64.7111405,15.6504854 65.0082413,15.754655 65.2187954,15.9616755 C65.4293494,16.1700146 65.5339806,16.4680186 65.5339806,16.8543689 C65.5339806,17.2275333 65.4280577,17.5215815 65.2162119,17.735195 C65.0030743,17.9514457 64.7059735,18.0582524 64.3274929,18.0582524 C63.9399701,18.0582524 63.6377024,17.9527643 63.4245648,17.7431066 C63.212719,17.5334489 63.1067961,17.2367635 63.1067961,16.8543689" id="Fill-32"></path>
                </g>
            </g>
            <path d="M291.191157,116.446655 C291.067723,116.136829 290.761558,115.936709 290.456603,115.936709 C289.81281,115.936709 288.884633,115.155515 288.428411,113.707655 C288.183963,112.931284 288.133138,112.110307 288.290456,111.455696 C288.365484,111.139843 288.559106,110.584087 289.005647,110.412899 C289.048002,110.396022 289.12061,110.386377 289.194429,110.379144 C289.361428,110.359855 289.507855,110.276673 289.626448,110.158529 C290.421509,110.715491 290.962441,111.582278 291.112498,111.843882 C291.223831,113.632911 292.562244,115.05425 294.208032,115.05425 C295.927638,115.05425 297.325348,113.50874 297.325348,111.6088 C297.325348,111.473779 297.312036,111.30862 297.285413,111.157926 C297.814244,110.925256 298.407212,110.930078 298.932412,111.16516 C298.902158,111.301386 298.881586,111.490657 298.881586,111.6088 C298.881586,113.50874 300.280506,115.05425 302.000112,115.05425 C303.6459,115.05425 304.983103,113.632911 305.095646,111.843882 C305.245703,111.582278 305.786635,110.715491 306.581696,110.159735 C306.699079,110.276673 306.845506,110.361061 307.012505,110.379144 C307.05849,110.382761 307.154091,110.393611 307.202496,110.412899 C307.649037,110.584087 307.84266,111.139843 307.917688,111.455696 C308.073796,112.110307 308.02418,112.931284 307.779732,113.707655 C307.3223,115.155515 306.394124,115.936709 305.735809,115.936709 C305.403021,115.955998 305.140421,116.132007 305.016987,116.446655 C303.680994,119.834237 301.163907,123.453285 298.103467,123.453285 C295.044237,123.453285 292.52715,119.834237 291.191157,116.446655 M295.773951,111.640145 C295.875602,111.749849 296.006297,111.794454 296.138202,111.80651 C296.042601,112.908379 295.228178,113.782399 294.208032,113.782399 C293.123748,113.782399 292.241557,112.807113 292.241557,111.6088 C292.241557,110.409283 293.123748,109.433996 294.208032,109.433996 C294.959528,109.433996 295.59485,109.919831 295.925218,110.606992 C295.875602,110.654008 295.819936,110.690175 295.773951,110.740808 C295.550075,110.98915 295.550075,111.391802 295.773951,111.640145 M300.432983,110.740808 C300.388208,110.690175 300.332542,110.654008 300.282926,110.606992 C300.613294,109.919831 301.247406,109.433996 302.000112,109.433996 C303.084396,109.433996 303.966587,110.409283 303.966587,111.6088 C303.966587,112.807113 303.084396,113.782399 302.000112,113.782399 C300.978755,113.782399 300.164332,112.908379 300.068731,111.80651 C300.200636,111.794454 300.332542,111.751055 300.432983,111.640145 C300.656859,111.391802 300.656859,110.98915 300.432983,110.740808 M294.525088,101.283303 C294.203191,105.82821 301.01869,105.189271 301.01869,105.189271 C303.113439,104.975889 304.546243,105.330319 305.531296,105.863171 C305.905228,106.803496 306.130314,107.83906 306.239226,108.919228 C305.65473,109.267631 305.182776,109.732972 304.823365,110.168174 C304.327208,108.987945 303.253815,108.16094 302.000112,108.16094 C300.829908,108.16094 299.819443,108.886679 299.285772,109.945148 C298.528225,109.638939 297.677498,109.637734 296.921162,109.945148 C296.388701,108.886679 295.378235,108.16094 294.208032,108.16094 C292.954328,108.16094 291.878516,108.987945 291.384779,110.168174 C291.025368,109.731766 290.552204,109.267631 289.967707,108.919228 C290.308966,105.525618 292.070928,102.707052 294.525088,101.283303 M298.125249,139 C298.22206,135.235081 298.982027,131.637734 300.295027,128.31525 C299.61614,128.615431 298.881586,128.792646 298.103467,128.792646 C295.271743,128.792646 292.911974,126.599759 292.314165,123.669078 L293.738498,123.200121 C295.015194,124.368294 296.479461,125.149488 298.103467,125.149488 C299.728683,125.149488 301.19295,124.368294 302.468436,123.200121 L302.808484,123.311031 C303.11586,122.816757 303.437756,122.333333 303.771754,121.858348 L303.737871,121.846293 C304.755597,120.574442 305.606324,119.077155 306.238016,117.581073 C307.489299,117.311031 308.674025,116.023508 309.228268,114.265823 C309.575578,113.161543 309.637295,112.009042 309.401318,111.020494 C309.191964,110.15009 308.749053,109.478602 308.168187,109.077155 C308.19965,108.849307 308.125832,108.492465 307.75916,108.45871 C307.728907,108.20434 307.698653,107.94997 307.653878,107.700422 L307.872913,105.901748 C308.480402,100.92164 305.346144,96.3285112 300.84685,95.6063894 C299.073998,95.3230862 297.287834,96.0138638 296.063174,97.4581073 L295.983305,97.5521398 C294.300002,96.7022303 292.337158,96.9035564 290.824485,98.0825799 C289.127871,99.4050633 288.162181,101.597951 288.266253,103.892104 L288.445353,108.455093 C288.232369,108.455093 287.985501,108.715491 288.039957,109.077155 C287.459091,109.478602 287.01497,110.151296 286.806826,111.020494 C286.569639,112.009042 286.630146,113.162749 286.979876,114.265823 C287.528068,116.006631 288.695852,117.28692 289.966497,117.57384 C290.598189,119.072333 291.450127,120.572031 292.469063,121.847498 L292.18105,121.941531 L291.39083,122.203134 L285.171929,124.252562 C284.161464,124.585292 281.520942,125.816154 280.489904,127.042194 C277.001076,122.995178 274.886964,117.740205 274.886964,112.000603 C274.886964,99.2471368 285.302624,88.8722122 298.103467,88.8722122 C310.072944,88.8722122 319.950093,97.9427366 321.185644,109.544907 C322.428456,109.200121 323.700311,108.925256 325,108.733574 C323.375994,95.3809524 311.938978,85 298.103467,85 C283.158259,85 271,97.1121157 271,112.000603 C271,126.887884 283.158259,139 298.103467,139 L298.125249,139" id="Fill-33" fill="#303E51"></path>
            <g id="tokens" transform="translate(302.000000, 111.000000)" fill="#303E51">
                <polygon id="Fill-35" points="16.0473191 32.3124042 14.6053404 32.3124042 14.6053404 26.7274875 12.7570851 26.7274875 12.7570851 25.5312375 17.8955745 25.5312375 17.8955745 26.7274875 16.0473191 26.7274875"></polygon>
                <path d="M20.1533809,28.9128792 C20.1533809,29.6692958 20.2977,30.2408375 20.5863383,30.6238792 C20.8749766,31.0069208 21.3067213,31.1990458 21.8803596,31.1990458 C23.0312745,31.1990458 23.6073383,30.4365875 23.6073383,28.9128792 C23.6073383,27.3855458 23.0349128,26.6218792 21.8900617,26.6218792 C21.3152106,26.6218792 20.883466,26.8140042 20.5911894,27.1994625 C20.2989128,27.5837125 20.1533809,28.1552542 20.1533809,28.9128792 M25.1208702,28.9128792 C25.1208702,30.0354208 24.8407213,30.8981708 24.2816362,31.5011292 C23.7237638,32.1040875 22.9233383,32.4049625 21.8803596,32.4049625 C20.8373809,32.4049625 20.0369553,32.1040875 19.4778702,31.5011292 C18.9187851,30.8981708 18.6410617,30.0317958 18.6410617,28.9032125 C18.6410617,27.7746292 18.9199979,26.9130875 19.4802957,26.3173792 C20.0405936,25.7216708 20.8434447,25.4244208 21.8900617,25.4244208 C22.935466,25.4244208 23.7358915,25.7252958 24.2889128,26.3246292 C24.8431468,26.9239625 25.1208702,27.7867125 25.1208702,28.9128792" id="Fill-36"></path>
                <polygon id="Fill-37" points="32.0051362 32.3124042 30.3666894 32.3124042 28.5839234 29.4546958 27.9739021 29.8909042 27.9739021 32.3124042 26.5307106 32.3124042 26.5307106 25.5312375 27.9739021 25.5312375 27.9739021 28.6342375 28.5426894 27.8367375 30.3848809 25.5312375 31.9857319 25.5312375 29.6123489 28.5327375"></polygon>
                <polygon id="Fill-38" points="36.7814936 32.3124042 32.861834 32.3124042 32.861834 25.5312375 36.7814936 25.5312375 36.7814936 26.7093625 34.3050255 26.7093625 34.3050255 28.1980292 36.6080681 28.1980292 36.6080681 29.3761542 34.3050255 29.3761542 34.3050255 31.1246125 36.7814936 31.1246125"></polygon>
                <path d="M44.2381851,32.3124042 L42.404483,32.3124042 L39.4441213,27.1818208 L39.4028872,27.1818208 C39.4611,28.0880708 39.4902064,28.7345292 39.4902064,29.1211958 L39.4902064,32.3124042 L38.2010362,32.3124042 L38.2010362,25.5312375 L40.0201851,25.5312375 L42.9769085,30.6098625 L43.0096532,30.6098625 C42.9623553,29.7289875 42.9405255,29.1054875 42.9405255,28.7405708 L42.9405255,25.5312375 L44.2381851,25.5312375 L44.2381851,32.3124042 Z" id="Fill-39"></path>
                <path d="M28.4983021,0.794358333 C12.9094085,0.794358333 0.274812766,13.3839833 0.274812766,28.9146917 C0.274812766,44.4454 12.9094085,57.035025 28.4983021,57.035025 C44.085983,57.035025 56.7205787,44.4454 56.7205787,28.9146917 C56.7205787,13.3839833 44.085983,0.794358333 28.4983021,0.794358333 M28.4983021,5.62165 C41.3887915,5.62165 51.8767915,16.0713167 51.8767915,28.9146917 C51.8767915,41.759275 41.3887915,52.2077333 28.4983021,52.2077333 C15.6066,52.2077333 5.11981277,41.759275 5.11981277,28.9146917 C5.11981277,16.0713167 15.6066,5.62165 28.4983021,5.62165" id="Fill-40"></path>
            </g>
            <path d="M124.680631,127.979167 L128.103992,114 L133.97585,114 L137.399211,128 L134.315919,128 L133.703795,125.458333 L128.376047,125.458333 L127.763923,128 L124.680631,128 L124.680631,127.979167 Z M130.484475,116.333333 L128.942829,122.979167 L133.114342,122.979167 L131.572696,116.333333 L130.484475,116.333333 L130.484475,116.333333 Z M137.240513,116.5 L137.240513,114 L148.440118,114 L148.440118,116.5 L144.404633,116.5 L144.404633,127.979167 L141.321341,127.979167 L141.321341,116.5 L137.240513,116.5 Z M148.281419,127.979167 L151.704781,114 L157.576639,114 L161,127.979167 L157.916708,127.979167 L157.304584,125.458333 L151.976836,125.458333 L151.364712,128 L148.281419,128 L148.281419,127.979167 Z M154.085264,116.333333 L152.543618,122.979167 L156.715131,122.979167 L155.173484,116.333333 L154.085264,116.333333 L154.085264,116.333333 Z M123.206999,117.6875 C123.025628,116.895833 122.708231,116.208333 122.232134,115.625 C121.756037,115.041667 121.098571,114.625 120.259734,114.375 C119.420897,114.125 118.332676,114 117.017743,114 L115,114 L115,116.479167 L117.017743,116.479167 C117.765895,116.479167 118.355347,116.541667 118.808773,116.6875 C119.239527,116.833333 119.579596,117.104167 119.806309,117.479167 C120.033021,117.854167 120.169049,118.291667 120.237063,118.75 C120.305076,119.208333 120.327748,119.833333 120.327748,120.604167 C120.327748,121.375 120.305076,121.979167 120.282405,122.416667 C120.169049,123.520833 119.919665,124.291667 119.46624,124.729167 C118.967472,125.25 118.151306,125.520833 117.017743,125.520833 L115,125.520833 L115,128 L117.017743,128 C118.355347,128 119.46624,127.854167 120.327748,127.5625 C121.189256,127.270833 121.846723,126.791667 122.300148,126.145833 C122.753573,125.5 123.070971,124.75 123.22967,123.916667 C123.388369,123.083333 123.479054,122.041667 123.479054,120.770833 C123.479054,119.5 123.388369,118.479167 123.206999,117.6875 Z" id="Shape" fill="#EE3F3F"></path>
            <path d="M81.2961517,127.208633 C80.3357501,128.417266 78.6893475,129 76.3569437,129 C74.0245399,129 72.3781372,128.395683 71.4177356,127.208633 C70.4573341,126.021583 70,124.122302 70,121.57554 C70,119.028777 70.4802008,117.107914 71.4406023,115.877698 C72.4010039,114.625899 74.0474066,114 76.3798104,114 C78.7122142,114 80.3586168,114.625899 81.3190184,115.856115 C82.27942,117.107914 82.7596207,119.007194 82.7596207,121.553957 C82.7596207,124.100719 82.2565533,126 81.2961517,127.208633 Z M73.864473,125.330935 C74.2989403,126.086331 75.1450084,126.453237 76.3569437,126.453237 C77.568879,126.453237 78.414947,126.086331 78.8494144,125.330935 C79.2838818,124.57554 79.5125488,123.323741 79.5125488,121.57554 C79.5125488,119.827338 79.2838818,118.553957 78.8265477,117.755396 C78.3692136,116.956835 77.5460123,116.568345 76.334077,116.568345 C75.1221417,116.568345 74.2989403,116.956835 73.8416062,117.755396 C73.3842722,118.553957 73.1556051,119.827338 73.1556051,121.57554 C73.1556051,123.323741 73.4300056,124.57554 73.864473,125.330935 Z M85.4121584,128.741007 L85.4121584,114.258993 L90.6715003,114.258993 L94.3759063,126.194245 L94.6045733,126.194245 L94.6045733,114.258993 L97.7144451,114.258993 L97.7144451,128.76259 L92.5923034,128.76259 L88.7506972,116.805755 L88.5220301,116.805755 L88.5220301,128.741007 L85.4121584,128.741007 Z M111,114.258993 L101.052984,114.258993 L101.052984,116.827338 L111,116.827338 L111,114.258993 Z M111,120.215827 L101.052984,120.215827 L101.052984,122.784173 L111,122.784173 L111,120.215827 Z M111,126.194245 L101.052984,126.194245 L101.052984,128.76259 L111,128.76259 L111,126.194245 Z" id="Shape" fill="#000000"></path>
        </g>
    </g>
</svg>