<?xml version="1.0" encoding="UTF-8" standalone="no"?>
<!-- Created with Inkscape (http://www.inkscape.org/) -->

<svg
   xmlns:dc="http://purl.org/dc/elements/1.1/"
   xmlns:cc="http://creativecommons.org/ns#"
   xmlns:rdf="http://www.w3.org/1999/02/22-rdf-syntax-ns#"
   xmlns:svg="http://www.w3.org/2000/svg"
   xmlns="http://www.w3.org/2000/svg"
   xmlns:sodipodi="http://sodipodi.sourceforge.net/DTD/sodipodi-0.dtd"
   xmlns:inkscape="http://www.inkscape.org/namespaces/inkscape"
   width="128"
   height="128"
   viewBox="0 0 33.866666 33.866668"
   version="1.1"
   id="svg3947"
   inkscape:version="0.92.5 (2060ec1f9f, 2020-04-08)"
   sodipodi:docname="google.svg">
  <defs
     id="defs3941" />
  <sodipodi:namedview
     id="base"
     pagecolor="#ffffff"
     bordercolor="#666666"
     borderopacity="1.0"
     inkscape:pageopacity="0.0"
     inkscape:pageshadow="2"
     inkscape:zoom="3.43"
     inkscape:cx="24.868678"
     inkscape:cy="101.46566"
     inkscape:document-units="mm"
     inkscape:current-layer="layer1"
     showgrid="false"
     units="px"
     inkscape:window-width="1920"
     inkscape:window-height="1043"
     inkscape:window-x="0"
     inkscape:window-y="0"
     inkscape:window-maximized="1" />
  <metadata
     id="metadata3944">
    <rdf:RDF>
      <cc:Work
         rdf:about="">
        <dc:format>image/svg+xml</dc:format>
        <dc:type
           rdf:resource="http://purl.org/dc/dcmitype/StillImage" />
        <dc:title></dc:title>
      </cc:Work>
    </rdf:RDF>
  </metadata>
  <g
     inkscape:label="Layer 1"
     inkscape:groupmode="layer"
     id="layer1"
     transform="translate(0,-263.13332)">
    <g
       id="g4001"
       transform="matrix(0.03372068,0,0,0.03372068,7.939186,270.88982)">
      <path
         id="path3981"
         d="m 533.5,278.4 c 0,-18.5 -1.5,-37.1 -4.7,-55.3 H 272.1 v 104.8 h 147 c -6.1,33.8 -25.7,63.7 -54.4,82.7 v 68 h 87.7 c 51.5,-47.4 81.1,-117.4 81.1,-200.2 z"
         inkscape:connector-curvature="0"
         style="fill:#4285f4" />
      <path
         id="path3983"
         d="m 272.1,544.3 c 73.4,0 135.3,-24.1 180.4,-65.7 l -87.7,-68 c -24.4,16.6 -55.9,26 -92.6,26 -71,0 -131.2,-47.9 -152.8,-112.3 H 28.9 v 70.1 c 46.2,91.9 140.3,149.9 243.2,149.9 z"
         inkscape:connector-curvature="0"
         style="fill:#34a853" />
      <path
         id="path3985"
         d="m 119.3,324.3 c -11.4,-33.8 -11.4,-70.4 0,-104.2 V 150 H 28.9 c -38.6,76.9 -38.6,167.5 0,244.4 z"
         inkscape:connector-curvature="0"
         style="fill:#fbbc04" />
      <path
         id="path3987"
         d="m 272.1,107.7 c 38.8,-0.6 76.3,14 104.4,40.8 L 454.2,70.8 C 405,24.6 339.7,-0.8 272.1,0 169.2,0 75.1,58 28.9,150 l 90.4,70.1 c 21.5,-64.5 81.8,-112.4 152.8,-112.4 z"
         inkscape:connector-curvature="0"
         style="fill:#ea4335" />
    </g>
  </g>
</svg>
