<?xml version="1.0" encoding="UTF-8" standalone="no"?>
<!-- Created with Inkscape (http://www.inkscape.org/) -->

<svg
   xmlns:dc="http://purl.org/dc/elements/1.1/"
   xmlns:cc="http://creativecommons.org/ns#"
   xmlns:rdf="http://www.w3.org/1999/02/22-rdf-syntax-ns#"
   xmlns:svg="http://www.w3.org/2000/svg"
   xmlns="http://www.w3.org/2000/svg"
   xmlns:sodipodi="http://sodipodi.sourceforge.net/DTD/sodipodi-0.dtd"
   xmlns:inkscape="http://www.inkscape.org/namespaces/inkscape"
   width="128"
   height="128"
   viewBox="0 0 128 128"
   id="svg3550"
   version="1.1"
   inkscape:version="0.91 r13725"
   sodipodi:docname="centos.svg">
  <defs
     id="defs3552">
    <clipPath
       id="clipPath4429">
      <g
         transform="matrix(0.9947658,0,0,1,1.7860989,0)"
         id="g4431">
        <path
           inkscape:connector-curvature="0"
           d="m 322.54143,2800.9375 -4.43505,5.7298 -4.43495,-5.7298 0,-43.1429 -18.93972,0 23.37467,-25.5367 23.13125,25.5367 -18.6962,0 0,43.1429 z"
           id="path4433"
           style="display:inline;overflow:visible;visibility:visible;fill:#efa724;fill-opacity:1;fill-rule:evenodd;stroke:none;stroke-width:30;marker:none" />
      </g>
    </clipPath>
    <clipPath
       id="clipPath3503">
      <g
         transform="matrix(0.9947658,0,0,1,1.7860989,0)"
         id="g3505">
        <path
           inkscape:connector-curvature="0"
           d="m 322.54143,2800.9375 -4.43505,5.7298 -4.43495,-5.7298 0,-43.1429 -18.93972,0 23.37467,-25.5367 23.13125,25.5367 -18.6962,0 0,43.1429 z"
           id="path3507"
           style="display:inline;overflow:visible;visibility:visible;fill:#efa724;fill-opacity:1;fill-rule:evenodd;stroke:none;stroke-width:30;marker:none" />
      </g>
    </clipPath>
    <clipPath
       id="clipPath3509">
      <g
         transform="matrix(0.9947658,0,0,1,1.7860989,0)"
         id="g3511">
        <path
           inkscape:connector-curvature="0"
           d="m 322.54143,2800.9375 -4.43505,5.7298 -4.43495,-5.7298 0,-43.1429 -18.93972,0 23.37467,-25.5367 23.13125,25.5367 -18.6962,0 0,43.1429 z"
           id="path3513"
           style="display:inline;overflow:visible;visibility:visible;fill:#efa724;fill-opacity:1;fill-rule:evenodd;stroke:none;stroke-width:30;marker:none" />
      </g>
    </clipPath>
    <clipPath
       id="clipPath3515">
      <g
         transform="matrix(0.9947658,0,0,1,1.7860989,0)"
         id="g3517">
        <path
           inkscape:connector-curvature="0"
           d="m 322.54143,2800.9375 -4.43505,5.7298 -4.43495,-5.7298 0,-43.1429 -18.93972,0 23.37467,-25.5367 23.13125,25.5367 -18.6962,0 0,43.1429 z"
           id="path3519"
           style="display:inline;overflow:visible;visibility:visible;fill:#efa724;fill-opacity:1;fill-rule:evenodd;stroke:none;stroke-width:30;marker:none" />
      </g>
    </clipPath>
  </defs>
  <sodipodi:namedview
     id="base"
     pagecolor="#ffffff"
     bordercolor="#666666"
     borderopacity="1.0"
     inkscape:pageopacity="0.0"
     inkscape:pageshadow="2"
     inkscape:zoom="1.4"
     inkscape:cx="184.42181"
     inkscape:cy="-40.147292"
     inkscape:document-units="px"
     inkscape:current-layer="layer1"
     showgrid="false"
     units="px"
     inkscape:window-width="1280"
     inkscape:window-height="1000"
     inkscape:window-x="0"
     inkscape:window-y="24"
     inkscape:window-maximized="1" />
  <metadata
     id="metadata3555">
    <rdf:RDF>
      <cc:Work
         rdf:about="">
        <dc:format>image/svg+xml</dc:format>
        <dc:type
           rdf:resource="http://purl.org/dc/dcmitype/StillImage" />
        <dc:title></dc:title>
      </cc:Work>
    </rdf:RDF>
  </metadata>
  <g
     inkscape:label="Layer 1"
     inkscape:groupmode="layer"
     id="layer1"
     transform="translate(0,-924.3622)">
    <g
       transform="matrix(0.74035229,0,0,0.74035229,-17.808793,905.81284)"
       id="g3462">
      <g
         transform="matrix(0,-1.0636674,1.0636632,0,-1922.8262,460.8218)"
         id="g12802">
        <g
           transform="translate(16.279512,-899.16723)"
           id="g12804">
          <g
             transform="matrix(1.0666663,0,0,1,-26.935596,-4.1328125e-5)"
             id="g12806">
            <path
               d="m 323.36653,2798.1614 -5.40616,5.8005 -5.40616,-5.8005 0,-40.8261 -18.01333,0 23.41949,-24.8979 23.02487,24.8979 -17.6187,0 -10e-6,40.8261 z"
               id="path12808"
               style="display:inline;overflow:visible;visibility:visible;fill:#932279;fill-opacity:1;fill-rule:evenodd;stroke:none;stroke-width:30;marker:none"
               inkscape:connector-curvature="0" />
          </g>
          <g
             transform="matrix(1.0722788,0,0,1,-28.850792,-4.1328125e-5)"
             clip-path="url(#clipPath4429)"
             id="g12812" />
        </g>
      </g>
      <g
         transform="matrix(1.0636632,0,0,1.0636674,-238.82056,-1921.8343)"
         id="g12768">
        <g
           transform="translate(16.279512,-899.16723)"
           id="g12770">
          <g
             transform="matrix(1.0666663,0,0,1,-26.935596,-4.1328125e-5)"
             id="g12772">
            <path
               d="m 323.36653,2798.1614 -5.40616,5.8005 -5.40616,-5.8005 0,-40.8261 -18.01333,0 23.41949,-24.8979 23.02487,24.8979 -17.6187,0 -10e-6,40.8261 z"
               id="path12774"
               style="display:inline;overflow:visible;visibility:visible;fill:#efa724;fill-opacity:1;fill-rule:evenodd;stroke:none;stroke-width:30;marker:none"
               inkscape:connector-curvature="0" />
          </g>
          <g
             transform="matrix(1.0722788,0,0,1,-28.850792,-4.1328125e-5)"
             clip-path="url(#clipPath4429)"
             id="g12778" />
        </g>
      </g>
      <g
         transform="matrix(0,1.0636674,-1.0636632,0,3100.2372,-220.50609)"
         id="g12780">
        <g
           transform="matrix(1.0666663,0,0,1,-26.935596,-4.1328125e-5)"
           id="g12782">
          <path
             d="m 323.36653,2798.1614 -5.40616,5.8005 -5.40616,-5.8005 0,-40.8261 -18.01333,0 23.41949,-24.8979 23.02487,24.8979 -17.6187,0 -10e-6,40.8261 z"
             id="path12784"
             style="display:inline;overflow:visible;visibility:visible;fill:#262577;fill-opacity:1;fill-rule:evenodd;stroke:none;stroke-width:30;marker:none"
             inkscape:connector-curvature="0" />
        </g>
        <g
           transform="matrix(1.0722788,0,0,1,-28.850792,-4.1328125e-5)"
           clip-path="url(#clipPath4429)"
           id="g12788" />
      </g>
      <g
         transform="matrix(-1.0636632,0,0,-1.0636674,459.82038,2144.8341)"
         id="g12790">
        <g
           transform="translate(16.279512,-899.16723)"
           id="g12792">
          <g
             transform="matrix(1.0666663,0,0,1,-26.935596,-4.1328125e-5)"
             id="g12794">
            <path
               d="m 323.36653,2798.1614 -5.40616,5.8005 -5.40616,-5.8005 0,-40.8261 -18.01333,0 23.41949,-24.8979 23.02487,24.8979 -17.6187,0 -10e-6,40.8261 z"
               id="path12796"
               style="display:inline;overflow:visible;visibility:visible;fill:#9ccd2a;fill-opacity:1;fill-rule:evenodd;stroke:none;stroke-width:30;marker:none"
               inkscape:connector-curvature="0" />
          </g>
          <g
             transform="matrix(1.0722788,0,0,1,-28.850792,-4.1328125e-5)"
             clip-path="url(#clipPath4429)"
             id="g12800" />
        </g>
      </g>
      <g
         transform="matrix(1.0636632,0,0,1.0636674,-662.68302,-2378.2376)"
         id="g12742">
        <path
           d="m 671.98437,2285.7893 49.60645,0 0,49.6065 -49.60645,0 0,-49.6065 z"
           id="rect12744"
           style="fill:#9ccd2a;fill-opacity:1;stroke:#ffffff;stroke-width:3.54330707;stroke-linecap:butt;stroke-linejoin:miter;stroke-miterlimit:4;stroke-dashoffset:0;stroke-opacity:1"
           inkscape:connector-curvature="0" />
        <path
           d="m 732.22076,2285.7893 49.60645,0 0,49.6065 -49.60645,0 0,-49.6065 z"
           id="rect12746"
           style="fill:#932279;fill-opacity:1;stroke:#ffffff;stroke-width:3.54330707;stroke-linecap:butt;stroke-linejoin:miter;stroke-miterlimit:4;stroke-dashoffset:0;stroke-opacity:1"
           inkscape:connector-curvature="0" />
        <path
           d="m 732.22076,2346.0256 49.60645,0 0,49.6065 -49.60645,0 0,-49.6065 z"
           id="rect12748"
           style="fill:#efa724;fill-opacity:1;stroke:#ffffff;stroke-width:3.54330707;stroke-linecap:butt;stroke-linejoin:miter;stroke-miterlimit:4;stroke-dashoffset:0;stroke-opacity:1"
           inkscape:connector-curvature="0" />
        <path
           d="m 671.98437,2346.0256 49.60645,0 0,49.6065 -49.60645,0 0,-49.6065 z"
           id="rect12750"
           style="fill:#262577;fill-opacity:1;stroke:#ffffff;stroke-width:3.54330707;stroke-linecap:butt;stroke-linejoin:miter;stroke-miterlimit:4;stroke-dashoffset:0;stroke-opacity:1"
           inkscape:connector-curvature="0" />
      </g>
      <path
         d="M 27.884436,111.50006 65.194604,74.189746 102.50478,111.50007 65.194612,148.81038 27.884436,111.50006 Z"
         id="rect12760"
         style="fill:none;stroke:#ffffff;stroke-width:3.76889277;stroke-linecap:butt;stroke-linejoin:miter;stroke-miterlimit:4;stroke-dashoffset:0;stroke-opacity:1"
         inkscape:connector-curvature="0" />
      <path
         d="M 73.189685,66.194634 110.49986,28.884311 147.81004,66.194634 110.49986,103.50496 73.189685,66.194634 Z"
         id="rect12762"
         style="fill:none;stroke:#ffffff;stroke-width:3.76863861;stroke-linecap:butt;stroke-linejoin:miter;stroke-miterlimit:4;stroke-dasharray:none;stroke-dashoffset:0;stroke-opacity:1"
         inkscape:connector-curvature="0" />
      <path
         d="m 118.49485,111.50002 37.31017,-37.310368 37.31018,37.310368 -37.31018,37.31026 -37.31017,-37.31026 z"
         id="rect12764"
         style="fill:none;stroke:#ffffff;stroke-width:3.76889277;stroke-linecap:butt;stroke-linejoin:miter;stroke-miterlimit:4;stroke-dashoffset:0;stroke-opacity:1"
         inkscape:connector-curvature="0" />
      <path
         d="m 73.189594,156.8054 37.310166,-37.31032 37.31018,37.31033 -37.31017,37.31031 -37.310176,-37.31032 z"
         id="rect12766"
         style="fill:none;stroke:#ffffff;stroke-width:3.76889277;stroke-linecap:butt;stroke-linejoin:miter;stroke-miterlimit:4;stroke-dashoffset:0;stroke-opacity:1"
         inkscape:connector-curvature="0" />
    </g>
  </g>
</svg>
