<?xml version="1.0" encoding="UTF-8" standalone="no"?>
<svg
   id="Layer_1"
   viewBox="0 0 21 32"
   version="1.1"
   sodipodi:docname="ubuntu.svg"
   width="21"
   height="32"
   inkscape:version="1.1.2 (0a00cf5339, 2022-02-04)"
   xmlns:inkscape="http://www.inkscape.org/namespaces/inkscape"
   xmlns:sodipodi="http://sodipodi.sourceforge.net/DTD/sodipodi-0.dtd"
   xmlns="http://www.w3.org/2000/svg"
   xmlns:svg="http://www.w3.org/2000/svg">
  <sodipodi:namedview
     id="namedview57"
     pagecolor="#ffffff"
     bordercolor="#666666"
     borderopacity="1.0"
     inkscape:pageshadow="2"
     inkscape:pageopacity="0.0"
     inkscape:pagecheckerboard="0"
     showgrid="false"
     fit-margin-top="0"
     fit-margin-left="0"
     fit-margin-right="0"
     fit-margin-bottom="0"
     inkscape:zoom="7.2566845"
     inkscape:cx="93.431098"
     inkscape:cy="17.018791"
     inkscape:window-width="2560"
     inkscape:window-height="1376"
     inkscape:window-x="0"
     inkscape:window-y="27"
     inkscape:window-maximized="1"
     inkscape:current-layer="Layer_1" />
  <defs
     id="defs4">
    <style
       id="style2">.cls-1{fill:none;}.cls-2{fill:#e95420;}.cls-3{fill:#fff;}</style>
  </defs>
  <g
     id="g52">
    <rect
       class="cls-2"
       width="21"
       height="32"
       id="rect38"
       x="0"
       y="0" />
    <circle
       class="cls-3"
       cx="4.8000002"
       cy="21.15"
       r="2.1700001"
       id="circle40" />
    <circle
       class="cls-3"
       cx="13.86"
       cy="16.389999"
       r="2.1700001"
       id="circle42" />
    <path
       class="cls-3"
       d="M 9.7,26.75 C 8.13,26.41 6.83,25.41 6.09,24 c -0.58,0.26 -1.23,0.34 -1.86,0.23 0.89,2.19 2.78,3.77 5.1,4.27 0.51,0.11 1.03,0.16 1.54,0.16 C 10.47,28.14 10.25,27.5 10.23,26.84 10.05,26.82 9.87,26.79 9.7,26.75 Z"
       id="path44" />
    <circle
       class="cls-3"
       cx="13.37"
       cy="26.76"
       r="2.1700001"
       id="circle46" />
    <path
       class="cls-3"
       d="m 16.39,25.96 c 0.68,-0.85 1.15,-1.86 1.38,-2.93 0.4,-1.87 0.03,-3.83 -1.03,-5.42 -0.25,0.59 -0.68,1.09 -1.22,1.43 0.59,1.11 0.77,2.38 0.5,3.61 -0.13,0.6 -0.36,1.17 -0.68,1.68 0.51,0.42 0.87,0.98 1.04,1.62 z"
       id="path48" />
    <path
       class="cls-3"
       d="m 4.63,18.04 c 0.06,0 0.11,0 0.17,0 0.22,0 0.44,0.02 0.66,0.07 0.35,0.08 0.69,0.21 0.99,0.4 0.98,-1.41 2.56,-2.25 4.27,-2.28 0,-0.16 0.03,-0.33 0.07,-0.49 0.1,-0.47 0.3,-0.9 0.59,-1.27 -2.73,-0.22 -5.39,1.19 -6.74,3.58 z"
       id="path50" />
  </g>
  <rect
     class="cls-1"
     x="2.5"
     y="14"
     width="16"
     height="16"
     id="rect54" />
</svg>
