<?xml version="1.0" encoding="UTF-8" standalone="no"?>
<svg
   xmlns:dc="http://purl.org/dc/elements/1.1/"
   xmlns:cc="http://creativecommons.org/ns#"
   xmlns:rdf="http://www.w3.org/1999/02/22-rdf-syntax-ns#"
   xmlns:svg="http://www.w3.org/2000/svg"
   xmlns="http://www.w3.org/2000/svg"
   xmlns:xlink="http://www.w3.org/1999/xlink"
   xmlns:sodipodi="http://sodipodi.sourceforge.net/DTD/sodipodi-0.dtd"
   xmlns:inkscape="http://www.inkscape.org/namespaces/inkscape"
   width="210"
   height="210"
   viewBox="0 0 55.5625 55.562502"
   version="1.1"
   id="svg1310"
   inkscape:version="0.92.3 (2405546, 2018-03-11)"
   sodipodi:docname="atm-inventory.svg">
  <defs
     id="defs1304">
    <mask
       id="mask-2"
       fill="#ffffff">
      <polygon
         id="use187"
         points="563,384 563,0 0,0 0,384 "
         transform="scale(0.26458333)" />
    </mask>
    <mask
       id="mask-2-2"
       fill="#ffffff">
      <polygon
         id="use187-0"
         points="563,384 563,0 0,0 0,384 "
         transform="scale(0.26458333)" />
    </mask>
    <mask
       id="mask-2-1"
       fill="#ffffff">
      <polygon
         id="use187-5"
         points="563,384 563,0 0,0 0,384 "
         transform="scale(0.26458333)" />
    </mask>
    <mask
       id="clipmask0"
       maskUnits="objectBoundingBox"
       maskContentUnits="userSpaceOnUse"
       x="-0.1"
       y="-0.1"
       width="1.2"
       height="1.2">
      <defs
         id="defs1373" />
      <g
         id="mask-2-4"
         transform="translate(-157.68,-123.84)"
         fill="none">
        <g
           id="group0"
           fill="none">
          <path
             id="path-1"
             fill="#ffffff"
             stroke="#000000"
             stroke-opacity="0"
             stroke-width="0"
             stroke-linecap="square"
             stroke-linejoin="bevel"
             d="M 0,384 H 563 V 0 H 0 Z" />
        </g>
      </g>
    </mask>
    <mask
       id="clipmask0-6"
       maskUnits="objectBoundingBox"
       maskContentUnits="userSpaceOnUse"
       x="-0.1"
       y="-0.1"
       width="1.2"
       height="1.2">
      <defs
         id="defs1394" />
      <g
         id="mask-2-5"
         transform="translate(-157.68,-123.84)"
         fill="none">
        <g
           id="group0-6"
           fill="none">
          <path
             id="path-1-9"
             fill="#ffffff"
             stroke="#000000"
             stroke-opacity="0"
             stroke-width="0"
             stroke-linecap="square"
             stroke-linejoin="bevel"
             d="M 0,384 H 563 V 0 H 0 Z" />
        </g>
      </g>
    </mask>
    <mask
       id="clipmask0-5"
       maskUnits="objectBoundingBox"
       maskContentUnits="userSpaceOnUse"
       x="-0.1"
       y="-0.1"
       width="1.2"
       height="1.2">
      <defs
         id="defs1435" />
      <g
         id="mask-2-25"
         transform="translate(-47.25072,-43.673328)"
         fill="none">
        <g
           id="group0-4"
           fill="none">
          <path
             id="path-1-7"
             fill="#ffffff"
             stroke="#000000"
             stroke-opacity="0"
             stroke-width="0"
             stroke-linecap="square"
             stroke-linejoin="bevel"
             d="M 0,263.559 H 256.917 V 0 H 0 Z" />
        </g>
      </g>
    </mask>
    <mask
       id="mask-2-0"
       fill="#ffffff">
      <use
         xlink:href="#path-1"
         id="use2153"
         x="0"
         y="0"
         width="100%"
         height="100%" />
    </mask>
  </defs>
  <sodipodi:namedview
     id="base"
     pagecolor="#ffffff"
     bordercolor="#666666"
     borderopacity="1.0"
     inkscape:pageopacity="0.0"
     inkscape:pageshadow="2"
     inkscape:zoom="2.11"
     inkscape:cx="-26.966953"
     inkscape:cy="146.24034"
     inkscape:document-units="mm"
     inkscape:current-layer="layer1"
     inkscape:document-rotation="0"
     showgrid="false"
     units="px"
     inkscape:window-width="2560"
     inkscape:window-height="1414"
     inkscape:window-x="0"
     inkscape:window-y="0"
     inkscape:window-maximized="1" />
  <metadata
     id="metadata1307">
    <rdf:RDF>
      <cc:Work
         rdf:about="">
        <dc:format>image/svg+xml</dc:format>
        <dc:type
           rdf:resource="http://purl.org/dc/dcmitype/StillImage" />
        <dc:title />
      </cc:Work>
    </rdf:RDF>
  </metadata>
  <g
     inkscape:label="Layer 1"
     inkscape:groupmode="layer"
     id="layer1">
    <path
       d="m 251.05968,232.96246 c -2.78682,-2.67187 -4.55312,-6.39231 -4.67928,-10.51647 -0.3869,-0.028 -0.76539,-0.0561 -1.16351,-0.0561 h -10.44638 c -8.69691,0 -15.77051,7.07079 -15.77051,15.7705 v 12.77902 l 0.0336,0.20186 0.88315,0.27756 c 6.65305,2.0747 12.59678,3.03635 17.7611,3.33354 v -3.85782 c 0,-8.46981 5.64654,-15.63873 13.38179,-17.93212 M 239.9993,221.54882 c 2.40553,0 4.65125,-0.70651 6.55493,-1.90367 0.59998,-3.93632 2.71112,-7.382 5.72504,-9.72024 0.008,-0.2327 0.0336,-0.4626 0.0336,-0.69811 0,-6.80164 -5.51477,-12.31361 -12.31361,-12.31361 -6.80164,0 -12.31641,5.51197 -12.31641,12.31361 0,6.81006 5.51477,12.32202 12.31641,12.32202 m 67.523,-11.55662 h -10.37629 c -0.10654,4.1522 -1.87845,7.88946 -4.67648,10.57254 7.72404,2.3018 13.37619,9.47072 13.37619,17.93492 v 3.93632 c 10.23891,-0.37288 16.14619,-3.27466 16.53029,-3.47091 l 0.82147,-0.41494 H 323.29 V 225.7627 c 0,-8.6913 -7.0764,-15.7705 -15.7677,-15.7705 m -17.5312,-13.34255 c 3.88025,2.43637 6.60539,6.55212 7.09884,11.33794 1.58125,0.74016 3.33914,1.16632 5.20356,1.16632 6.80164,0 12.31641,-5.51477 12.31641,-12.31642 0,-6.80164 -5.51477,-12.31361 -12.31641,-12.31361 -6.73716,0 -12.20427,5.41384 -12.3024,12.12577 m -2.77841,25.74027 H 276.8392 c -0.10934,4.14939 -1.87844,7.88665 -4.67928,10.57254 7.72685,2.29899 13.379,9.46231 13.379,17.93212 v 3.93912 c 10.23891,-0.37849 16.14619,-3.27746 16.53029,-3.47371 l 0.82707,-0.42055 h 0.0869 v -12.78462 c 0,-8.69411 -7.0708,-15.7649 -15.77051,-15.7649 M 266.8358,235.10165 H 256.381 c -8.6913,0 -15.7677,7.0764 -15.7677,15.7705 v 12.78462 l 0.0336,0.19906 0.88314,0.27476 c 8.29319,2.59057 15.50416,3.4625 21.43668,3.4625 11.59027,0 18.3106,-3.3083 18.72835,-3.51857 l 0.82147,-0.41775 h 0.0841 v -12.78462 c 0,-8.6941 -7.07079,-15.7705 -15.76489,-15.7705 m -5.226,-0.83829 c 6.80165,0 12.31361,-5.51477 12.31361,-12.31642 0,-6.80164 -5.51196,-12.31641 -12.31361,-12.31641 -6.80164,0 -12.32202,5.51477 -12.32202,12.31641 0,6.80165 5.52038,12.31642 12.32202,12.31642 m 8.0745,-25.21879 c 3.87744,2.43636 6.60539,6.55492 7.09883,11.33794 1.58126,0.73455 3.33914,1.16631 5.20357,1.16631 6.80164,0 12.31641,-5.52037 12.31641,-12.32202 0,-6.80164 -5.51477,-12.31361 -12.31641,-12.31361 -6.73716,0 -12.20708,5.41384 -12.3024,12.13138 m -2.26534,-1.20277 c 0.12896,-2.90738 1.13547,-5.60449 2.74476,-7.83058 -1.13267,-0.23551 -2.29899,-0.36167 -3.50175,-0.36167 h -11.34074 c -1.19716,0 -2.36348,0.12616 -3.49054,0.35606 1.72144,2.3831 2.74196,5.29048 2.76159,8.43617 2.08591,-1.14949 4.47462,-1.80274 7.01752,-1.80274 2.06629,0 4.02604,0.43456 5.80916,1.20276 m -19.79935,-22.47402 c 0,-7.382 5.98859,-13.36778 13.37619,-13.36778 7.382,0 13.36778,5.98578 13.36778,13.36778 0,7.382 -5.98578,13.36778 -13.36778,13.36778 -7.3876,0 -13.37619,-5.98578 -13.37619,-13.36778"
       id="Fill-9"
       mask="url(#mask-2)"
       transform="matrix(0.26458333,0,0,0.26458333,-5.9999414,-8.4739178)"
       inkscape:connector-curvature="0"
       style="fill:#303e51" />
    <path
       d="m 251.05968,232.96246 c -2.78682,-2.67187 -4.55312,-6.39231 -4.67928,-10.51647 -0.3869,-0.028 -0.76539,-0.0561 -1.16351,-0.0561 h -10.44638 c -8.69691,0 -15.77051,7.07079 -15.77051,15.7705 v 12.77902 l 0.0336,0.20186 0.88315,0.27756 c 6.65305,2.0747 12.59678,3.03635 17.7611,3.33354 v -3.85782 c 0,-8.46981 5.64654,-15.63873 13.38179,-17.93212 M 239.9993,221.54882 c 2.40553,0 4.65125,-0.70651 6.55493,-1.90367 0.59998,-3.93632 2.71112,-7.382 5.72504,-9.72024 0.008,-0.2327 0.0336,-0.4626 0.0336,-0.69811 0,-6.80164 -5.51477,-12.31361 -12.31361,-12.31361 -6.80164,0 -12.31641,5.51197 -12.31641,12.31361 0,6.81006 5.51477,12.32202 12.31641,12.32202 m 67.523,-11.55662 h -10.37629 c -0.10654,4.1522 -1.87845,7.88946 -4.67648,10.57254 7.72404,2.3018 13.37619,9.47072 13.37619,17.93492 v 3.93632 c 10.23891,-0.37288 16.14619,-3.27466 16.53029,-3.47091 l 0.82147,-0.41494 H 323.29 V 225.7627 c 0,-8.6913 -7.0764,-15.7705 -15.7677,-15.7705 m -17.5312,-13.34255 c 3.88025,2.43637 6.60539,6.55212 7.09884,11.33794 1.58125,0.74016 3.33914,1.16632 5.20356,1.16632 6.80164,0 12.31641,-5.51477 12.31641,-12.31642 0,-6.80164 -5.51477,-12.31361 -12.31641,-12.31361 -6.73716,0 -12.20427,5.41384 -12.3024,12.12577 m -2.77841,25.74027 H 276.8392 c -0.10934,4.14939 -1.87844,7.88665 -4.67928,10.57254 7.72685,2.29899 13.379,9.46231 13.379,17.93212 v 3.93912 c 10.23891,-0.37849 16.14619,-3.27746 16.53029,-3.47371 l 0.82707,-0.42055 h 0.0869 v -12.78462 c 0,-8.69411 -7.0708,-15.7649 -15.77051,-15.7649 M 266.8358,235.10165 H 256.381 c -8.6913,0 -15.7677,7.0764 -15.7677,15.7705 v 12.78462 l 0.0336,0.19906 0.88314,0.27476 c 8.29319,2.59057 15.50416,3.4625 21.43668,3.4625 11.59027,0 18.3106,-3.3083 18.72835,-3.51857 l 0.82147,-0.41775 h 0.0841 v -12.78462 c 0,-8.6941 -7.07079,-15.7705 -15.76489,-15.7705 m -5.226,-0.83829 c 6.80165,0 12.31361,-5.51477 12.31361,-12.31642 0,-6.80164 -5.51196,-12.31641 -12.31361,-12.31641 -6.80164,0 -12.32202,5.51477 -12.32202,12.31641 0,6.80165 5.52038,12.31642 12.32202,12.31642 m 8.0745,-25.21879 c 3.87744,2.43636 6.60539,6.55492 7.09883,11.33794 1.58126,0.73455 3.33914,1.16631 5.20357,1.16631 6.80164,0 12.31641,-5.52037 12.31641,-12.32202 0,-6.80164 -5.51477,-12.31361 -12.31641,-12.31361 -6.73716,0 -12.20708,5.41384 -12.3024,12.13138 m -2.26534,-1.20277 c 0.12896,-2.90738 1.13547,-5.60449 2.74476,-7.83058 -1.13267,-0.23551 -2.29899,-0.36167 -3.50175,-0.36167 h -11.34074 c -1.19716,0 -2.36348,0.12616 -3.49054,0.35606 1.72144,2.3831 2.74196,5.29048 2.76159,8.43617 2.08591,-1.14949 4.47462,-1.80274 7.01752,-1.80274 2.06629,0 4.02604,0.43456 5.80916,1.20276 m -19.79935,-22.47402 c 0,-7.382 5.98859,-13.36778 13.37619,-13.36778 7.382,0 13.36778,5.98578 13.36778,13.36778 0,7.382 -5.98578,13.36778 -13.36778,13.36778 -7.3876,0 -13.37619,-5.98578 -13.37619,-13.36778"
       id="Fill-9-6"
       mask="url(#mask-2-2)"
       transform="matrix(0.26458333,0,0,0.26458333,-5.9999414,-8.4739178)"
       inkscape:connector-curvature="0"
       style="fill:#303e51" />
    <path
       d="m 251.05968,232.96246 c -2.78682,-2.67187 -4.55312,-6.39231 -4.67928,-10.51647 -0.3869,-0.028 -0.76539,-0.0561 -1.16351,-0.0561 h -10.44638 c -8.69691,0 -15.77051,7.07079 -15.77051,15.7705 v 12.77902 l 0.0336,0.20186 0.88315,0.27756 c 6.65305,2.0747 12.59678,3.03635 17.7611,3.33354 v -3.85782 c 0,-8.46981 5.64654,-15.63873 13.38179,-17.93212 M 239.9993,221.54882 c 2.40553,0 4.65125,-0.70651 6.55493,-1.90367 0.59998,-3.93632 2.71112,-7.382 5.72504,-9.72024 0.008,-0.2327 0.0336,-0.4626 0.0336,-0.69811 0,-6.80164 -5.51477,-12.31361 -12.31361,-12.31361 -6.80164,0 -12.31641,5.51197 -12.31641,12.31361 0,6.81006 5.51477,12.32202 12.31641,12.32202 m 67.523,-11.55662 h -10.37629 c -0.10654,4.1522 -1.87845,7.88946 -4.67648,10.57254 7.72404,2.3018 13.37619,9.47072 13.37619,17.93492 v 3.93632 c 10.23891,-0.37288 16.14619,-3.27466 16.53029,-3.47091 l 0.82147,-0.41494 H 323.29 V 225.7627 c 0,-8.6913 -7.0764,-15.7705 -15.7677,-15.7705 m -17.5312,-13.34255 c 3.88025,2.43637 6.60539,6.55212 7.09884,11.33794 1.58125,0.74016 3.33914,1.16632 5.20356,1.16632 6.80164,0 12.31641,-5.51477 12.31641,-12.31642 0,-6.80164 -5.51477,-12.31361 -12.31641,-12.31361 -6.73716,0 -12.20427,5.41384 -12.3024,12.12577 m -2.77841,25.74027 H 276.8392 c -0.10934,4.14939 -1.87844,7.88665 -4.67928,10.57254 7.72685,2.29899 13.379,9.46231 13.379,17.93212 v 3.93912 c 10.23891,-0.37849 16.14619,-3.27746 16.53029,-3.47371 l 0.82707,-0.42055 h 0.0869 v -12.78462 c 0,-8.69411 -7.0708,-15.7649 -15.77051,-15.7649 M 266.8358,235.10165 H 256.381 c -8.6913,0 -15.7677,7.0764 -15.7677,15.7705 v 12.78462 l 0.0336,0.19906 0.88314,0.27476 c 8.29319,2.59057 15.50416,3.4625 21.43668,3.4625 11.59027,0 18.3106,-3.3083 18.72835,-3.51857 l 0.82147,-0.41775 h 0.0841 v -12.78462 c 0,-8.6941 -7.07079,-15.7705 -15.76489,-15.7705 m -5.226,-0.83829 c 6.80165,0 12.31361,-5.51477 12.31361,-12.31642 0,-6.80164 -5.51196,-12.31641 -12.31361,-12.31641 -6.80164,0 -12.32202,5.51477 -12.32202,12.31641 0,6.80165 5.52038,12.31642 12.32202,12.31642 m 8.0745,-25.21879 c 3.87744,2.43636 6.60539,6.55492 7.09883,11.33794 1.58126,0.73455 3.33914,1.16631 5.20357,1.16631 6.80164,0 12.31641,-5.52037 12.31641,-12.32202 0,-6.80164 -5.51477,-12.31361 -12.31641,-12.31361 -6.73716,0 -12.20708,5.41384 -12.3024,12.13138 m -2.26534,-1.20277 c 0.12896,-2.90738 1.13547,-5.60449 2.74476,-7.83058 -1.13267,-0.23551 -2.29899,-0.36167 -3.50175,-0.36167 h -11.34074 c -1.19716,0 -2.36348,0.12616 -3.49054,0.35606 1.72144,2.3831 2.74196,5.29048 2.76159,8.43617 2.08591,-1.14949 4.47462,-1.80274 7.01752,-1.80274 2.06629,0 4.02604,0.43456 5.80916,1.20276 m -19.79935,-22.47402 c 0,-7.382 5.98859,-13.36778 13.37619,-13.36778 7.382,0 13.36778,5.98578 13.36778,13.36778 0,7.382 -5.98578,13.36778 -13.36778,13.36778 -7.3876,0 -13.37619,-5.98578 -13.37619,-13.36778"
       id="Fill-9-5"
       mask="url(#mask-2-1)"
       transform="matrix(0.26458333,0,0,0.26458333,-5.9999414,-8.4739178)"
       inkscape:connector-curvature="0"
       style="fill:#303e51" />
    <circle
       style="fill:#000000;fill-opacity:0;stroke:#303e51;stroke-width:3.04271007;stroke-miterlimit:2;stroke-dasharray:none;stroke-opacity:1"
       id="path1638"
       cx="27.78125"
       cy="27.78125"
       r="25.988174" />
    <g
       transform="matrix(0.43201095,0,0,0.43201095,-58.188959,-28.986718)"
       id="g1593">
      <path
         sodipodi:nodetypes="sscscccccccccccccccccccscssscccccccccccccccccccscssscs"
         d="m 232.15006,129.65899 c 0.96396,0 1.74473,0.78077 1.74473,1.74474 0,8.13049 -3.48184,16.85255 -9.31363,23.33317 -6.58312,7.31481 -15.59143,11.34298 -25.36197,11.34298 -6.1164,0 -12.23008,-1.72784 -17.67966,-4.99813 -3.00804,-1.81289 -5.7511,-4.03253 -8.15121,-6.59784 v 0 l 0.21591,6.54277 v 0 l 0.001,0.0376 c 0.0218,0.96342 -0.74261,1.76219 -1.70549,1.78345 -0.96342,0.0217 -1.76218,-0.74206 -1.78399,-1.70603 v 0 l -0.37353,-11.3408 c -0.26934,-0.65155 -0.12049,-1.40016 0.3773,-1.89904 0.49834,-0.49834 1.24749,-0.64883 1.89904,-0.38057 v 0 l 11.34353,0.37402 c 0.96343,0.0322 1.71803,0.83857 1.6864,1.80145 -0.0316,0.96288 -0.83802,1.71802 -1.80089,1.68694 v 0 l -8.19864,-0.27043 c 2.37611,2.74796 5.17315,5.10173 8.28587,6.97514 4.90763,2.94534 10.40029,4.50088 15.88422,4.50088 8.7695,0 16.85473,-3.61815 22.7683,-10.18764 5.2713,-5.85687 8.41782,-13.70711 8.41782,-20.99794 0,-0.96397 0.78078,-1.74474 1.74475,-1.74474 z M 198.78082,96.728126 c 6.1164,0 12.23008,1.728382 17.67966,4.998134 3.00805,1.8118 5.7511,4.03253 8.15121,6.5973 v 0 l -0.2159,-6.54278 v 0 l -0.001,-0.0376 c -0.0218,-0.96288 0.74261,-1.76164 1.70548,-1.78345 0.96342,-0.02126 1.76219,0.74206 1.784,1.70548 v 0 l 0.37348,11.34081 c 0.26935,0.65155 0.12051,1.4007 -0.3773,1.89958 -0.49834,0.49889 -1.24749,0.64883 -1.89904,0.38058 v 0 l -11.34349,-0.37458 c -0.96342,-0.0311 -1.71802,-0.83802 -1.6864,-1.80089 0.0316,-0.96343 0.83802,-1.71857 1.8009,-1.6864 v 0 l 8.19864,0.27043 c -2.37613,-2.74851 -5.17317,-5.10227 -8.28589,-6.97514 -4.90762,-2.94534 -10.40028,-4.50198 -15.88422,-4.50198 -8.76949,0 -16.85472,3.61925 -22.7683,10.18874 -5.27129,5.85632 -8.41782,13.70602 -8.41782,20.99739 0,0.96342 -0.78077,1.74474 -1.74474,1.74474 -0.96397,0 -1.74474,-0.78132 -1.74474,-1.74474 0,-8.12994 3.48184,-16.852 9.31364,-23.33207 6.58311,-7.31482 15.59142,-11.343534 25.36196,-11.343534 z"
         id="Combined-Shape"
         inkscape:connector-curvature="0"
         style="fill:#303e51;fill-opacity:1;fill-rule:evenodd;stroke:none;stroke-width:2.39143991" />
      <path
         sodipodi:nodetypes="cccccccccccccccccccccccccccccccccsssss"
         d="m 201.57557,113.14357 1.48649,4.45658 c 0.98199,0.28843 1.93023,0.68103 2.8283,1.17106 l 4.19999,-2.10096 3.64341,3.64341 -2.10096,4.20096 c 0.49003,0.89614 0.88166,1.84341 1.17106,2.82829 l 4.45658,1.48553 v 5.15113 l -4.45658,1.48553 c -0.2894,0.98488 -0.68103,1.93215 -1.17106,2.82829 l 2.10096,4.20096 -3.64341,3.64244 -4.19999,-2.1 c -0.89807,0.49004 -1.84631,0.88264 -2.8283,1.17106 l -1.48649,4.45659 h -5.15113 l -1.48649,-4.45659 c -0.98296,-0.28842 -1.93022,-0.68102 -2.82829,-1.17106 l -4.2,2.1 -3.64341,-3.64244 2.10097,-4.20096 c -0.49004,-0.89614 -0.88167,-1.84341 -1.17107,-2.82829 l -4.45658,-1.48553 v -5.15113 l 4.45658,-1.48553 c 0.2894,-0.98488 0.68103,-1.93215 1.17107,-2.82829 l -2.10097,-4.20096 3.64341,-3.64341 4.2,2.10096 c 0.89807,-0.49003 1.84533,-0.88263 2.82829,-1.17106 l 1.48649,-4.45658 z m -2.57556,9.73889 c -4.69878,0 -8.52154,3.82277 -8.52154,8.52154 0,4.69878 3.82276,8.52154 8.52154,8.52154 4.69877,0 8.52153,-3.82277 8.52153,-8.52154 0,-4.69877 -3.82276,-8.52154 -8.52153,-8.52154 z"
         id="Combined-Shape-7"
         inkscape:connector-curvature="0"
         style="fill:#303e51;fill-opacity:1;fill-rule:evenodd;stroke:none;stroke-width:3.04340649" />
    </g>
  </g>
</svg>
