<?xml version="1.0" encoding="UTF-8" standalone="no"?>
<svg
   xmlns:dc="http://purl.org/dc/elements/1.1/"
   xmlns:cc="http://creativecommons.org/ns#"
   xmlns:rdf="http://www.w3.org/1999/02/22-rdf-syntax-ns#"
   xmlns:svg="http://www.w3.org/2000/svg"
   xmlns="http://www.w3.org/2000/svg"
   xmlns:sodipodi="http://sodipodi.sourceforge.net/DTD/sodipodi-0.dtd"
   xmlns:inkscape="http://www.inkscape.org/namespaces/inkscape"
   width="210"
   height="210"
   viewBox="0 0 55.562499 55.562501"
   version="1.1"
   id="svg1310"
   inkscape:version="1.0.1 (0767f8302a, 2020-10-17)"
   sodipodi:docname="token-group.svg">
  <defs
     id="defs1304">
    <mask
       id="mask-2"
       fill="#ffffff">
      <polygon
         id="use187"
         points="563,384 563,0 0,0 0,384 "
         transform="scale(0.26458333)" />
    </mask>
    <mask
       id="mask-2-2"
       fill="#ffffff">
      <polygon
         id="use187-0"
         points="563,384 563,0 0,0 0,384 "
         transform="scale(0.26458333)" />
    </mask>
    <mask
       id="mask-2-1"
       fill="#ffffff">
      <polygon
         id="use187-5"
         points="563,384 563,0 0,0 0,384 "
         transform="scale(0.26458333)" />
    </mask>
    <mask
       id="clipmask0"
       maskUnits="objectBoundingBox"
       maskContentUnits="userSpaceOnUse"
       x="-0.1"
       y="-0.1"
       width="1.2"
       height="1.2">
      <defs
         id="defs1373" />
      <g
         id="mask-2-4"
         transform="translate(-157.68,-123.84)"
         fill="none">
        <g
           id="group0"
           fill="none">
          <path
             id="path-1"
             fill="#ffffff"
             stroke="#000000"
             stroke-opacity="0"
             stroke-width="0"
             stroke-linecap="square"
             stroke-linejoin="bevel"
             d="M 0,384 H 563 V 0 H 0 Z" />
        </g>
      </g>
    </mask>
    <mask
       id="clipmask0-6"
       maskUnits="objectBoundingBox"
       maskContentUnits="userSpaceOnUse"
       x="-0.1"
       y="-0.1"
       width="1.2"
       height="1.2">
      <defs
         id="defs1394" />
      <g
         id="mask-2-5"
         transform="translate(-157.68,-123.84)"
         fill="none">
        <g
           id="group0-6"
           fill="none">
          <path
             id="path-1-9"
             fill="#ffffff"
             stroke="#000000"
             stroke-opacity="0"
             stroke-width="0"
             stroke-linecap="square"
             stroke-linejoin="bevel"
             d="M 0,384 H 563 V 0 H 0 Z" />
        </g>
      </g>
    </mask>
    <mask
       id="clipmask0-5"
       maskUnits="objectBoundingBox"
       maskContentUnits="userSpaceOnUse"
       x="-0.1"
       y="-0.1"
       width="1.2"
       height="1.2">
      <defs
         id="defs1435" />
      <g
         id="mask-2-25"
         transform="translate(-47.25072,-43.673328)"
         fill="none">
        <g
           id="group0-4"
           fill="none">
          <path
             id="path-1-7"
             fill="#ffffff"
             stroke="#000000"
             stroke-opacity="0"
             stroke-width="0"
             stroke-linecap="square"
             stroke-linejoin="bevel"
             d="M 0,263.559 H 256.917 V 0 H 0 Z" />
        </g>
      </g>
    </mask>
  </defs>
  <sodipodi:namedview
     id="base"
     pagecolor="#ffffff"
     bordercolor="#666666"
     borderopacity="1.0"
     inkscape:pageopacity="0.0"
     inkscape:pageshadow="2"
     inkscape:zoom="2.11"
     inkscape:cx="85.355322"
     inkscape:cy="146.24034"
     inkscape:document-units="mm"
     inkscape:current-layer="layer1"
     inkscape:document-rotation="0"
     showgrid="false"
     units="px"
     inkscape:window-width="1920"
     inkscape:window-height="1043"
     inkscape:window-x="0"
     inkscape:window-y="0"
     inkscape:window-maximized="1" />
  <metadata
     id="metadata1307">
    <rdf:RDF>
      <cc:Work
         rdf:about="">
        <dc:format>image/svg+xml</dc:format>
        <dc:type
           rdf:resource="http://purl.org/dc/dcmitype/StillImage" />
        <dc:title></dc:title>
      </cc:Work>
    </rdf:RDF>
  </metadata>
  <g
     inkscape:label="Layer 1"
     inkscape:groupmode="layer"
     id="layer1">
    <path
       d="m 251.05968,232.96246 c -2.78682,-2.67187 -4.55312,-6.39231 -4.67928,-10.51647 -0.3869,-0.028 -0.76539,-0.0561 -1.16351,-0.0561 h -10.44638 c -8.69691,0 -15.77051,7.07079 -15.77051,15.7705 v 12.77902 l 0.0336,0.20186 0.88315,0.27756 c 6.65305,2.0747 12.59678,3.03635 17.7611,3.33354 v -3.85782 c 0,-8.46981 5.64654,-15.63873 13.38179,-17.93212 M 239.9993,221.54882 c 2.40553,0 4.65125,-0.70651 6.55493,-1.90367 0.59998,-3.93632 2.71112,-7.382 5.72504,-9.72024 0.008,-0.2327 0.0336,-0.4626 0.0336,-0.69811 0,-6.80164 -5.51477,-12.31361 -12.31361,-12.31361 -6.80164,0 -12.31641,5.51197 -12.31641,12.31361 0,6.81006 5.51477,12.32202 12.31641,12.32202 m 67.523,-11.55662 h -10.37629 c -0.10654,4.1522 -1.87845,7.88946 -4.67648,10.57254 7.72404,2.3018 13.37619,9.47072 13.37619,17.93492 v 3.93632 c 10.23891,-0.37288 16.14619,-3.27466 16.53029,-3.47091 l 0.82147,-0.41494 H 323.29 V 225.7627 c 0,-8.6913 -7.0764,-15.7705 -15.7677,-15.7705 m -17.5312,-13.34255 c 3.88025,2.43637 6.60539,6.55212 7.09884,11.33794 1.58125,0.74016 3.33914,1.16632 5.20356,1.16632 6.80164,0 12.31641,-5.51477 12.31641,-12.31642 0,-6.80164 -5.51477,-12.31361 -12.31641,-12.31361 -6.73716,0 -12.20427,5.41384 -12.3024,12.12577 m -2.77841,25.74027 H 276.8392 c -0.10934,4.14939 -1.87844,7.88665 -4.67928,10.57254 7.72685,2.29899 13.379,9.46231 13.379,17.93212 v 3.93912 c 10.23891,-0.37849 16.14619,-3.27746 16.53029,-3.47371 l 0.82707,-0.42055 h 0.0869 v -12.78462 c 0,-8.69411 -7.0708,-15.7649 -15.77051,-15.7649 M 266.8358,235.10165 H 256.381 c -8.6913,0 -15.7677,7.0764 -15.7677,15.7705 v 12.78462 l 0.0336,0.19906 0.88314,0.27476 c 8.29319,2.59057 15.50416,3.4625 21.43668,3.4625 11.59027,0 18.3106,-3.3083 18.72835,-3.51857 l 0.82147,-0.41775 h 0.0841 v -12.78462 c 0,-8.6941 -7.07079,-15.7705 -15.76489,-15.7705 m -5.226,-0.83829 c 6.80165,0 12.31361,-5.51477 12.31361,-12.31642 0,-6.80164 -5.51196,-12.31641 -12.31361,-12.31641 -6.80164,0 -12.32202,5.51477 -12.32202,12.31641 0,6.80165 5.52038,12.31642 12.32202,12.31642 m 8.0745,-25.21879 c 3.87744,2.43636 6.60539,6.55492 7.09883,11.33794 1.58126,0.73455 3.33914,1.16631 5.20357,1.16631 6.80164,0 12.31641,-5.52037 12.31641,-12.32202 0,-6.80164 -5.51477,-12.31361 -12.31641,-12.31361 -6.73716,0 -12.20708,5.41384 -12.3024,12.13138 m -2.26534,-1.20277 c 0.12896,-2.90738 1.13547,-5.60449 2.74476,-7.83058 -1.13267,-0.23551 -2.29899,-0.36167 -3.50175,-0.36167 h -11.34074 c -1.19716,0 -2.36348,0.12616 -3.49054,0.35606 1.72144,2.3831 2.74196,5.29048 2.76159,8.43617 2.08591,-1.14949 4.47462,-1.80274 7.01752,-1.80274 2.06629,0 4.02604,0.43456 5.80916,1.20276 m -19.79935,-22.47402 c 0,-7.382 5.98859,-13.36778 13.37619,-13.36778 7.382,0 13.36778,5.98578 13.36778,13.36778 0,7.382 -5.98578,13.36778 -13.36778,13.36778 -7.3876,0 -13.37619,-5.98578 -13.37619,-13.36778"
       id="Fill-9"
       fill="#303e51"
       mask="url(#mask-2)"
       transform="matrix(0.26458333,0,0,0.26458333,-5.9999414,-8.4739178)" />
    <path
       d="m 251.05968,232.96246 c -2.78682,-2.67187 -4.55312,-6.39231 -4.67928,-10.51647 -0.3869,-0.028 -0.76539,-0.0561 -1.16351,-0.0561 h -10.44638 c -8.69691,0 -15.77051,7.07079 -15.77051,15.7705 v 12.77902 l 0.0336,0.20186 0.88315,0.27756 c 6.65305,2.0747 12.59678,3.03635 17.7611,3.33354 v -3.85782 c 0,-8.46981 5.64654,-15.63873 13.38179,-17.93212 M 239.9993,221.54882 c 2.40553,0 4.65125,-0.70651 6.55493,-1.90367 0.59998,-3.93632 2.71112,-7.382 5.72504,-9.72024 0.008,-0.2327 0.0336,-0.4626 0.0336,-0.69811 0,-6.80164 -5.51477,-12.31361 -12.31361,-12.31361 -6.80164,0 -12.31641,5.51197 -12.31641,12.31361 0,6.81006 5.51477,12.32202 12.31641,12.32202 m 67.523,-11.55662 h -10.37629 c -0.10654,4.1522 -1.87845,7.88946 -4.67648,10.57254 7.72404,2.3018 13.37619,9.47072 13.37619,17.93492 v 3.93632 c 10.23891,-0.37288 16.14619,-3.27466 16.53029,-3.47091 l 0.82147,-0.41494 H 323.29 V 225.7627 c 0,-8.6913 -7.0764,-15.7705 -15.7677,-15.7705 m -17.5312,-13.34255 c 3.88025,2.43637 6.60539,6.55212 7.09884,11.33794 1.58125,0.74016 3.33914,1.16632 5.20356,1.16632 6.80164,0 12.31641,-5.51477 12.31641,-12.31642 0,-6.80164 -5.51477,-12.31361 -12.31641,-12.31361 -6.73716,0 -12.20427,5.41384 -12.3024,12.12577 m -2.77841,25.74027 H 276.8392 c -0.10934,4.14939 -1.87844,7.88665 -4.67928,10.57254 7.72685,2.29899 13.379,9.46231 13.379,17.93212 v 3.93912 c 10.23891,-0.37849 16.14619,-3.27746 16.53029,-3.47371 l 0.82707,-0.42055 h 0.0869 v -12.78462 c 0,-8.69411 -7.0708,-15.7649 -15.77051,-15.7649 M 266.8358,235.10165 H 256.381 c -8.6913,0 -15.7677,7.0764 -15.7677,15.7705 v 12.78462 l 0.0336,0.19906 0.88314,0.27476 c 8.29319,2.59057 15.50416,3.4625 21.43668,3.4625 11.59027,0 18.3106,-3.3083 18.72835,-3.51857 l 0.82147,-0.41775 h 0.0841 v -12.78462 c 0,-8.6941 -7.07079,-15.7705 -15.76489,-15.7705 m -5.226,-0.83829 c 6.80165,0 12.31361,-5.51477 12.31361,-12.31642 0,-6.80164 -5.51196,-12.31641 -12.31361,-12.31641 -6.80164,0 -12.32202,5.51477 -12.32202,12.31641 0,6.80165 5.52038,12.31642 12.32202,12.31642 m 8.0745,-25.21879 c 3.87744,2.43636 6.60539,6.55492 7.09883,11.33794 1.58126,0.73455 3.33914,1.16631 5.20357,1.16631 6.80164,0 12.31641,-5.52037 12.31641,-12.32202 0,-6.80164 -5.51477,-12.31361 -12.31641,-12.31361 -6.73716,0 -12.20708,5.41384 -12.3024,12.13138 m -2.26534,-1.20277 c 0.12896,-2.90738 1.13547,-5.60449 2.74476,-7.83058 -1.13267,-0.23551 -2.29899,-0.36167 -3.50175,-0.36167 h -11.34074 c -1.19716,0 -2.36348,0.12616 -3.49054,0.35606 1.72144,2.3831 2.74196,5.29048 2.76159,8.43617 2.08591,-1.14949 4.47462,-1.80274 7.01752,-1.80274 2.06629,0 4.02604,0.43456 5.80916,1.20276 m -19.79935,-22.47402 c 0,-7.382 5.98859,-13.36778 13.37619,-13.36778 7.382,0 13.36778,5.98578 13.36778,13.36778 0,7.382 -5.98578,13.36778 -13.36778,13.36778 -7.3876,0 -13.37619,-5.98578 -13.37619,-13.36778"
       id="Fill-9-6"
       fill="#303e51"
       mask="url(#mask-2-2)"
       transform="matrix(0.26458333,0,0,0.26458333,-5.9999414,-8.4739178)" />
    <path
       d="m 251.05968,232.96246 c -2.78682,-2.67187 -4.55312,-6.39231 -4.67928,-10.51647 -0.3869,-0.028 -0.76539,-0.0561 -1.16351,-0.0561 h -10.44638 c -8.69691,0 -15.77051,7.07079 -15.77051,15.7705 v 12.77902 l 0.0336,0.20186 0.88315,0.27756 c 6.65305,2.0747 12.59678,3.03635 17.7611,3.33354 v -3.85782 c 0,-8.46981 5.64654,-15.63873 13.38179,-17.93212 M 239.9993,221.54882 c 2.40553,0 4.65125,-0.70651 6.55493,-1.90367 0.59998,-3.93632 2.71112,-7.382 5.72504,-9.72024 0.008,-0.2327 0.0336,-0.4626 0.0336,-0.69811 0,-6.80164 -5.51477,-12.31361 -12.31361,-12.31361 -6.80164,0 -12.31641,5.51197 -12.31641,12.31361 0,6.81006 5.51477,12.32202 12.31641,12.32202 m 67.523,-11.55662 h -10.37629 c -0.10654,4.1522 -1.87845,7.88946 -4.67648,10.57254 7.72404,2.3018 13.37619,9.47072 13.37619,17.93492 v 3.93632 c 10.23891,-0.37288 16.14619,-3.27466 16.53029,-3.47091 l 0.82147,-0.41494 H 323.29 V 225.7627 c 0,-8.6913 -7.0764,-15.7705 -15.7677,-15.7705 m -17.5312,-13.34255 c 3.88025,2.43637 6.60539,6.55212 7.09884,11.33794 1.58125,0.74016 3.33914,1.16632 5.20356,1.16632 6.80164,0 12.31641,-5.51477 12.31641,-12.31642 0,-6.80164 -5.51477,-12.31361 -12.31641,-12.31361 -6.73716,0 -12.20427,5.41384 -12.3024,12.12577 m -2.77841,25.74027 H 276.8392 c -0.10934,4.14939 -1.87844,7.88665 -4.67928,10.57254 7.72685,2.29899 13.379,9.46231 13.379,17.93212 v 3.93912 c 10.23891,-0.37849 16.14619,-3.27746 16.53029,-3.47371 l 0.82707,-0.42055 h 0.0869 v -12.78462 c 0,-8.69411 -7.0708,-15.7649 -15.77051,-15.7649 M 266.8358,235.10165 H 256.381 c -8.6913,0 -15.7677,7.0764 -15.7677,15.7705 v 12.78462 l 0.0336,0.19906 0.88314,0.27476 c 8.29319,2.59057 15.50416,3.4625 21.43668,3.4625 11.59027,0 18.3106,-3.3083 18.72835,-3.51857 l 0.82147,-0.41775 h 0.0841 v -12.78462 c 0,-8.6941 -7.07079,-15.7705 -15.76489,-15.7705 m -5.226,-0.83829 c 6.80165,0 12.31361,-5.51477 12.31361,-12.31642 0,-6.80164 -5.51196,-12.31641 -12.31361,-12.31641 -6.80164,0 -12.32202,5.51477 -12.32202,12.31641 0,6.80165 5.52038,12.31642 12.32202,12.31642 m 8.0745,-25.21879 c 3.87744,2.43636 6.60539,6.55492 7.09883,11.33794 1.58126,0.73455 3.33914,1.16631 5.20357,1.16631 6.80164,0 12.31641,-5.52037 12.31641,-12.32202 0,-6.80164 -5.51477,-12.31361 -12.31641,-12.31361 -6.73716,0 -12.20708,5.41384 -12.3024,12.13138 m -2.26534,-1.20277 c 0.12896,-2.90738 1.13547,-5.60449 2.74476,-7.83058 -1.13267,-0.23551 -2.29899,-0.36167 -3.50175,-0.36167 h -11.34074 c -1.19716,0 -2.36348,0.12616 -3.49054,0.35606 1.72144,2.3831 2.74196,5.29048 2.76159,8.43617 2.08591,-1.14949 4.47462,-1.80274 7.01752,-1.80274 2.06629,0 4.02604,0.43456 5.80916,1.20276 m -19.79935,-22.47402 c 0,-7.382 5.98859,-13.36778 13.37619,-13.36778 7.382,0 13.36778,5.98578 13.36778,13.36778 0,7.382 -5.98578,13.36778 -13.36778,13.36778 -7.3876,0 -13.37619,-5.98578 -13.37619,-13.36778"
       id="Fill-9-5"
       fill="#303e51"
       mask="url(#mask-2-1)"
       transform="matrix(0.26458333,0,0,0.26458333,-5.9999414,-8.4739178)" />
    <path
       id="Fill-9-7"
       fill="#303e51"
       fill-rule="evenodd"
       stroke="#000000"
       stroke-opacity="0"
       stroke-width="0"
       stroke-linecap="square"
       stroke-linejoin="bevel"
       d="m 19.744373,42.593234 c -1.271402,-1.218964 -2.077221,-2.916295 -2.134776,-4.797821 -0.176519,-0.01276 -0.349211,-0.02551 -0.530833,-0.02551 h -4.765841 c -3.9676973,0 -7.7415093,3.212242 -6.3683483,4.371913 l 0.125022,-0.02318 v 0 l 1.088787,2.117322 c 3.0352533,0.946516 1.225775,-1.530736 4.6349253,4.337512 l 1.986511,-0.05739 c 0,0 1.349665,-4.941554 5.964651,-5.922738 m -5.046053,-5.207225 c 1.097448,0 2.121985,-0.322355 2.990482,-0.86849 0.273743,-1.795824 1.236864,-3.367813 2.611875,-4.434563 0.0038,-0.106153 0.01544,-0.211031 0.01544,-0.31846 0,-3.103041 -2.515948,-5.617706 -5.617706,-5.617706 -3.10304,0 -5.6189883,2.514665 -5.6189883,5.617706 0,3.106874 2.5159483,5.62154 5.6189883,5.62154 M 45.503797,32.113785 H 40.76993 c -0.04834,1.894316 -0.856981,3.599322 -2.1335,4.823402 3.52386,1.050119 6.102479,4.320722 6.102479,8.182251 v 1.795824 c 4.076987,-2.812228 -0.0773,-4.288014 4.694443,-3.57872 v 0 l 1.637538,-1.842331 0.378508,-2.884461 c 0.515895,-3.931434 -1.980349,-6.495939 -5.945488,-6.495939 m -7.998071,-6.087123 c 1.770242,1.111514 3.013505,2.989199 3.238623,5.172587 0.721399,0.337663 1.523384,0.532109 2.373966,0.532109 3.103041,0 5.618989,-2.515947 5.618989,-5.618988 0,-3.10304 -2.515948,-5.617706 -5.618989,-5.617706 -3.073618,0 -5.567818,2.469901 -5.612589,5.532011 m -1.267558,11.743202 h -4.732584 c -0.04969,1.893034 -0.856982,3.598047 -2.134783,4.823402 3.525136,1.048843 6.103755,4.316881 6.103755,8.180976 v 1.7971 c 4.671189,-0.172693 6.326586,-3.036125 6.501816,-3.12566 v 0 l 1.474868,-0.195165 -0.01829,-4.288371 C 43.416143,40.9958 40.207231,37.769932 36.238259,37.769932 m -9.296331,5.799335 h -4.769681 c -3.965138,0 -7.193528,3.22839 -7.193528,7.194811 v 0 0 0 c 3.783509,1.181868 5.916418,2.461481 8.622945,2.461481 5.287703,0 7.61415,0.06628 7.804736,-0.02966 l 2.727803,-0.918159 v 0 -1.513602 c 0,-3.966421 -3.225832,-7.194811 -7.192246,-7.194811 m -2.3842,-0.382447 c 3.103041,0 5.617706,-2.515948 5.617706,-5.618988 0,-3.103041 -2.514665,-5.618982 -5.617706,-5.618982 -3.10304,0 -5.621546,2.515941 -5.621546,5.618982 0,3.10304 2.518506,5.618988 5.621546,5.618988 m 3.683742,-11.5053 c 1.76896,1.111521 3.013505,2.990482 3.238623,5.172587 0.721399,0.335111 1.523377,0.532109 2.373966,0.532109 3.103041,0 5.618982,-2.518499 5.618982,-5.621539 0,-3.103041 -2.515941,-5.617706 -5.618982,-5.617706 -3.073625,0 -5.5691,2.469894 -5.612589,5.534562 m -1.033494,-0.54869 c 0.05909,-1.326407 0.518009,-2.556879 1.252213,-3.572466 -0.516734,-0.107429 -1.048843,-0.16497 -1.597564,-0.16497 h -5.173871 c -0.546143,0 -1.078259,0.05774 -1.592448,0.162419 0.785353,1.087215 1.250937,2.413621 1.259888,3.848746 0.951633,-0.524455 2.041406,-0.82245 3.201532,-0.82245 0.942677,0 1.836755,0.198274 2.650248,0.548761 M 18.175171,20.879866 c 0,-3.367812 2.732108,-6.098638 6.102472,-6.098638 3.367813,0 6.098639,2.730826 6.098639,6.098638 0,3.367807 -2.730826,6.098639 -6.098639,6.098639 -3.370364,0 -6.102472,-2.730832 -6.102472,-6.098639"
       sodipodi:nodetypes="ccsscccccsccccsssccccsccccscccsssccccsccccsccsscccscccsccssscccssscccssccsccsssc" />
    <circle
       style="fill:#000000;fill-opacity:0;stroke:#303e51;stroke-width:3.04271;stroke-miterlimit:2;stroke-dasharray:none;stroke-opacity:1"
       id="path1638"
       cx="27.78125"
       cy="27.78125"
       r="25.988174" />
  </g>
</svg>
