<?xml version="1.0" encoding="UTF-8" standalone="no"?>
<svg
   xmlns:dc="http://purl.org/dc/elements/1.1/"
   xmlns:cc="http://creativecommons.org/ns#"
   xmlns:rdf="http://www.w3.org/1999/02/22-rdf-syntax-ns#"
   xmlns:svg="http://www.w3.org/2000/svg"
   xmlns="http://www.w3.org/2000/svg"
   xmlns:sodipodi="http://sodipodi.sourceforge.net/DTD/sodipodi-0.dtd"
   xmlns:inkscape="http://www.inkscape.org/namespaces/inkscape"
   width="210"
   height="210"
   viewBox="0 0 55.562499 55.562501"
   version="1.1"
   id="svg1310"
   inkscape:version="1.0.1 (0767f8302a, 2020-10-17)"
   sodipodi:docname="token-space.svg">
  <defs
     id="defs1304">
    <mask
       id="mask-2"
       fill="#ffffff">
      <polygon
         id="use187"
         points="563,384 563,0 0,0 0,384 "
         transform="scale(0.26458333)" />
    </mask>
    <mask
       id="mask-2-2"
       fill="#ffffff">
      <polygon
         id="use187-0"
         points="563,384 563,0 0,0 0,384 "
         transform="scale(0.26458333)" />
    </mask>
    <mask
       id="mask-2-1"
       fill="#ffffff">
      <polygon
         id="use187-5"
         points="563,384 563,0 0,0 0,384 "
         transform="scale(0.26458333)" />
    </mask>
    <mask
       id="clipmask0"
       maskUnits="objectBoundingBox"
       maskContentUnits="userSpaceOnUse"
       x="-0.1"
       y="-0.1"
       width="1.2"
       height="1.2">
      <defs
         id="defs1373" />
      <g
         id="mask-2-4"
         transform="translate(-157.68,-123.84)"
         fill="none">
        <g
           id="group0"
           fill="none">
          <path
             id="path-1"
             fill="#ffffff"
             stroke="#000000"
             stroke-opacity="0"
             stroke-width="0"
             stroke-linecap="square"
             stroke-linejoin="bevel"
             d="M 0,384 H 563 V 0 H 0 Z" />
        </g>
      </g>
    </mask>
    <mask
       id="clipmask0-6"
       maskUnits="objectBoundingBox"
       maskContentUnits="userSpaceOnUse"
       x="-0.1"
       y="-0.1"
       width="1.2"
       height="1.2">
      <defs
         id="defs1394" />
      <g
         id="mask-2-5"
         transform="translate(-157.68,-123.84)"
         fill="none">
        <g
           id="group0-6"
           fill="none">
          <path
             id="path-1-9"
             fill="#ffffff"
             stroke="#000000"
             stroke-opacity="0"
             stroke-width="0"
             stroke-linecap="square"
             stroke-linejoin="bevel"
             d="M 0,384 H 563 V 0 H 0 Z" />
        </g>
      </g>
    </mask>
    <mask
       id="clipmask0-5"
       maskUnits="objectBoundingBox"
       maskContentUnits="userSpaceOnUse"
       x="-0.1"
       y="-0.1"
       width="1.2"
       height="1.2">
      <defs
         id="defs1435" />
      <g
         id="mask-2-25"
         transform="translate(-47.25072,-43.673328)"
         fill="none">
        <g
           id="group0-4"
           fill="none">
          <path
             id="path-1-7"
             fill="#ffffff"
             stroke="#000000"
             stroke-opacity="0"
             stroke-width="0"
             stroke-linecap="square"
             stroke-linejoin="bevel"
             d="M 0,263.559 H 256.917 V 0 H 0 Z" />
        </g>
      </g>
    </mask>
  </defs>
  <sodipodi:namedview
     id="base"
     pagecolor="#ffffff"
     bordercolor="#666666"
     borderopacity="1.0"
     inkscape:pageopacity="0.0"
     inkscape:pageshadow="2"
     inkscape:zoom="2.2503732"
     inkscape:cx="39.398986"
     inkscape:cy="168.81142"
     inkscape:document-units="mm"
     inkscape:current-layer="layer1"
     inkscape:document-rotation="0"
     showgrid="false"
     units="px"
     inkscape:window-width="1920"
     inkscape:window-height="1043"
     inkscape:window-x="0"
     inkscape:window-y="0"
     inkscape:window-maximized="1" />
  <metadata
     id="metadata1307">
    <rdf:RDF>
      <cc:Work
         rdf:about="">
        <dc:format>image/svg+xml</dc:format>
        <dc:type
           rdf:resource="http://purl.org/dc/dcmitype/StillImage" />
        <dc:title></dc:title>
      </cc:Work>
    </rdf:RDF>
  </metadata>
  <g
     inkscape:label="Layer 1"
     inkscape:groupmode="layer"
     id="layer1">
    <path
       d="m 251.05968,232.96246 c -2.78682,-2.67187 -4.55312,-6.39231 -4.67928,-10.51647 -0.3869,-0.028 -0.76539,-0.0561 -1.16351,-0.0561 h -10.44638 c -8.69691,0 -15.77051,7.07079 -15.77051,15.7705 v 12.77902 l 0.0336,0.20186 0.88315,0.27756 c 6.65305,2.0747 12.59678,3.03635 17.7611,3.33354 v -3.85782 c 0,-8.46981 5.64654,-15.63873 13.38179,-17.93212 M 239.9993,221.54882 c 2.40553,0 4.65125,-0.70651 6.55493,-1.90367 0.59998,-3.93632 2.71112,-7.382 5.72504,-9.72024 0.008,-0.2327 0.0336,-0.4626 0.0336,-0.69811 0,-6.80164 -5.51477,-12.31361 -12.31361,-12.31361 -6.80164,0 -12.31641,5.51197 -12.31641,12.31361 0,6.81006 5.51477,12.32202 12.31641,12.32202 m 67.523,-11.55662 h -10.37629 c -0.10654,4.1522 -1.87845,7.88946 -4.67648,10.57254 7.72404,2.3018 13.37619,9.47072 13.37619,17.93492 v 3.93632 c 10.23891,-0.37288 16.14619,-3.27466 16.53029,-3.47091 l 0.82147,-0.41494 H 323.29 V 225.7627 c 0,-8.6913 -7.0764,-15.7705 -15.7677,-15.7705 m -17.5312,-13.34255 c 3.88025,2.43637 6.60539,6.55212 7.09884,11.33794 1.58125,0.74016 3.33914,1.16632 5.20356,1.16632 6.80164,0 12.31641,-5.51477 12.31641,-12.31642 0,-6.80164 -5.51477,-12.31361 -12.31641,-12.31361 -6.73716,0 -12.20427,5.41384 -12.3024,12.12577 m -2.77841,25.74027 H 276.8392 c -0.10934,4.14939 -1.87844,7.88665 -4.67928,10.57254 7.72685,2.29899 13.379,9.46231 13.379,17.93212 v 3.93912 c 10.23891,-0.37849 16.14619,-3.27746 16.53029,-3.47371 l 0.82707,-0.42055 h 0.0869 v -12.78462 c 0,-8.69411 -7.0708,-15.7649 -15.77051,-15.7649 M 266.8358,235.10165 H 256.381 c -8.6913,0 -15.7677,7.0764 -15.7677,15.7705 v 12.78462 l 0.0336,0.19906 0.88314,0.27476 c 8.29319,2.59057 15.50416,3.4625 21.43668,3.4625 11.59027,0 18.3106,-3.3083 18.72835,-3.51857 l 0.82147,-0.41775 h 0.0841 v -12.78462 c 0,-8.6941 -7.07079,-15.7705 -15.76489,-15.7705 m -5.226,-0.83829 c 6.80165,0 12.31361,-5.51477 12.31361,-12.31642 0,-6.80164 -5.51196,-12.31641 -12.31361,-12.31641 -6.80164,0 -12.32202,5.51477 -12.32202,12.31641 0,6.80165 5.52038,12.31642 12.32202,12.31642 m 8.0745,-25.21879 c 3.87744,2.43636 6.60539,6.55492 7.09883,11.33794 1.58126,0.73455 3.33914,1.16631 5.20357,1.16631 6.80164,0 12.31641,-5.52037 12.31641,-12.32202 0,-6.80164 -5.51477,-12.31361 -12.31641,-12.31361 -6.73716,0 -12.20708,5.41384 -12.3024,12.13138 m -2.26534,-1.20277 c 0.12896,-2.90738 1.13547,-5.60449 2.74476,-7.83058 -1.13267,-0.23551 -2.29899,-0.36167 -3.50175,-0.36167 h -11.34074 c -1.19716,0 -2.36348,0.12616 -3.49054,0.35606 1.72144,2.3831 2.74196,5.29048 2.76159,8.43617 2.08591,-1.14949 4.47462,-1.80274 7.01752,-1.80274 2.06629,0 4.02604,0.43456 5.80916,1.20276 m -19.79935,-22.47402 c 0,-7.382 5.98859,-13.36778 13.37619,-13.36778 7.382,0 13.36778,5.98578 13.36778,13.36778 0,7.382 -5.98578,13.36778 -13.36778,13.36778 -7.3876,0 -13.37619,-5.98578 -13.37619,-13.36778"
       id="Fill-9"
       fill="#303e51"
       mask="url(#mask-2)"
       transform="matrix(0.26458333,0,0,0.26458333,-5.9999414,-8.4739178)" />
    <path
       d="m 251.05968,232.96246 c -2.78682,-2.67187 -4.55312,-6.39231 -4.67928,-10.51647 -0.3869,-0.028 -0.76539,-0.0561 -1.16351,-0.0561 h -10.44638 c -8.69691,0 -15.77051,7.07079 -15.77051,15.7705 v 12.77902 l 0.0336,0.20186 0.88315,0.27756 c 6.65305,2.0747 12.59678,3.03635 17.7611,3.33354 v -3.85782 c 0,-8.46981 5.64654,-15.63873 13.38179,-17.93212 M 239.9993,221.54882 c 2.40553,0 4.65125,-0.70651 6.55493,-1.90367 0.59998,-3.93632 2.71112,-7.382 5.72504,-9.72024 0.008,-0.2327 0.0336,-0.4626 0.0336,-0.69811 0,-6.80164 -5.51477,-12.31361 -12.31361,-12.31361 -6.80164,0 -12.31641,5.51197 -12.31641,12.31361 0,6.81006 5.51477,12.32202 12.31641,12.32202 m 67.523,-11.55662 h -10.37629 c -0.10654,4.1522 -1.87845,7.88946 -4.67648,10.57254 7.72404,2.3018 13.37619,9.47072 13.37619,17.93492 v 3.93632 c 10.23891,-0.37288 16.14619,-3.27466 16.53029,-3.47091 l 0.82147,-0.41494 H 323.29 V 225.7627 c 0,-8.6913 -7.0764,-15.7705 -15.7677,-15.7705 m -17.5312,-13.34255 c 3.88025,2.43637 6.60539,6.55212 7.09884,11.33794 1.58125,0.74016 3.33914,1.16632 5.20356,1.16632 6.80164,0 12.31641,-5.51477 12.31641,-12.31642 0,-6.80164 -5.51477,-12.31361 -12.31641,-12.31361 -6.73716,0 -12.20427,5.41384 -12.3024,12.12577 m -2.77841,25.74027 H 276.8392 c -0.10934,4.14939 -1.87844,7.88665 -4.67928,10.57254 7.72685,2.29899 13.379,9.46231 13.379,17.93212 v 3.93912 c 10.23891,-0.37849 16.14619,-3.27746 16.53029,-3.47371 l 0.82707,-0.42055 h 0.0869 v -12.78462 c 0,-8.69411 -7.0708,-15.7649 -15.77051,-15.7649 M 266.8358,235.10165 H 256.381 c -8.6913,0 -15.7677,7.0764 -15.7677,15.7705 v 12.78462 l 0.0336,0.19906 0.88314,0.27476 c 8.29319,2.59057 15.50416,3.4625 21.43668,3.4625 11.59027,0 18.3106,-3.3083 18.72835,-3.51857 l 0.82147,-0.41775 h 0.0841 v -12.78462 c 0,-8.6941 -7.07079,-15.7705 -15.76489,-15.7705 m -5.226,-0.83829 c 6.80165,0 12.31361,-5.51477 12.31361,-12.31642 0,-6.80164 -5.51196,-12.31641 -12.31361,-12.31641 -6.80164,0 -12.32202,5.51477 -12.32202,12.31641 0,6.80165 5.52038,12.31642 12.32202,12.31642 m 8.0745,-25.21879 c 3.87744,2.43636 6.60539,6.55492 7.09883,11.33794 1.58126,0.73455 3.33914,1.16631 5.20357,1.16631 6.80164,0 12.31641,-5.52037 12.31641,-12.32202 0,-6.80164 -5.51477,-12.31361 -12.31641,-12.31361 -6.73716,0 -12.20708,5.41384 -12.3024,12.13138 m -2.26534,-1.20277 c 0.12896,-2.90738 1.13547,-5.60449 2.74476,-7.83058 -1.13267,-0.23551 -2.29899,-0.36167 -3.50175,-0.36167 h -11.34074 c -1.19716,0 -2.36348,0.12616 -3.49054,0.35606 1.72144,2.3831 2.74196,5.29048 2.76159,8.43617 2.08591,-1.14949 4.47462,-1.80274 7.01752,-1.80274 2.06629,0 4.02604,0.43456 5.80916,1.20276 m -19.79935,-22.47402 c 0,-7.382 5.98859,-13.36778 13.37619,-13.36778 7.382,0 13.36778,5.98578 13.36778,13.36778 0,7.382 -5.98578,13.36778 -13.36778,13.36778 -7.3876,0 -13.37619,-5.98578 -13.37619,-13.36778"
       id="Fill-9-6"
       fill="#303e51"
       mask="url(#mask-2-2)"
       transform="matrix(0.26458333,0,0,0.26458333,-5.9999414,-8.4739178)" />
    <path
       d="m 251.05968,232.96246 c -2.78682,-2.67187 -4.55312,-6.39231 -4.67928,-10.51647 -0.3869,-0.028 -0.76539,-0.0561 -1.16351,-0.0561 h -10.44638 c -8.69691,0 -15.77051,7.07079 -15.77051,15.7705 v 12.77902 l 0.0336,0.20186 0.88315,0.27756 c 6.65305,2.0747 12.59678,3.03635 17.7611,3.33354 v -3.85782 c 0,-8.46981 5.64654,-15.63873 13.38179,-17.93212 M 239.9993,221.54882 c 2.40553,0 4.65125,-0.70651 6.55493,-1.90367 0.59998,-3.93632 2.71112,-7.382 5.72504,-9.72024 0.008,-0.2327 0.0336,-0.4626 0.0336,-0.69811 0,-6.80164 -5.51477,-12.31361 -12.31361,-12.31361 -6.80164,0 -12.31641,5.51197 -12.31641,12.31361 0,6.81006 5.51477,12.32202 12.31641,12.32202 m 67.523,-11.55662 h -10.37629 c -0.10654,4.1522 -1.87845,7.88946 -4.67648,10.57254 7.72404,2.3018 13.37619,9.47072 13.37619,17.93492 v 3.93632 c 10.23891,-0.37288 16.14619,-3.27466 16.53029,-3.47091 l 0.82147,-0.41494 H 323.29 V 225.7627 c 0,-8.6913 -7.0764,-15.7705 -15.7677,-15.7705 m -17.5312,-13.34255 c 3.88025,2.43637 6.60539,6.55212 7.09884,11.33794 1.58125,0.74016 3.33914,1.16632 5.20356,1.16632 6.80164,0 12.31641,-5.51477 12.31641,-12.31642 0,-6.80164 -5.51477,-12.31361 -12.31641,-12.31361 -6.73716,0 -12.20427,5.41384 -12.3024,12.12577 m -2.77841,25.74027 H 276.8392 c -0.10934,4.14939 -1.87844,7.88665 -4.67928,10.57254 7.72685,2.29899 13.379,9.46231 13.379,17.93212 v 3.93912 c 10.23891,-0.37849 16.14619,-3.27746 16.53029,-3.47371 l 0.82707,-0.42055 h 0.0869 v -12.78462 c 0,-8.69411 -7.0708,-15.7649 -15.77051,-15.7649 M 266.8358,235.10165 H 256.381 c -8.6913,0 -15.7677,7.0764 -15.7677,15.7705 v 12.78462 l 0.0336,0.19906 0.88314,0.27476 c 8.29319,2.59057 15.50416,3.4625 21.43668,3.4625 11.59027,0 18.3106,-3.3083 18.72835,-3.51857 l 0.82147,-0.41775 h 0.0841 v -12.78462 c 0,-8.6941 -7.07079,-15.7705 -15.76489,-15.7705 m -5.226,-0.83829 c 6.80165,0 12.31361,-5.51477 12.31361,-12.31642 0,-6.80164 -5.51196,-12.31641 -12.31361,-12.31641 -6.80164,0 -12.32202,5.51477 -12.32202,12.31641 0,6.80165 5.52038,12.31642 12.32202,12.31642 m 8.0745,-25.21879 c 3.87744,2.43636 6.60539,6.55492 7.09883,11.33794 1.58126,0.73455 3.33914,1.16631 5.20357,1.16631 6.80164,0 12.31641,-5.52037 12.31641,-12.32202 0,-6.80164 -5.51477,-12.31361 -12.31641,-12.31361 -6.73716,0 -12.20708,5.41384 -12.3024,12.13138 m -2.26534,-1.20277 c 0.12896,-2.90738 1.13547,-5.60449 2.74476,-7.83058 -1.13267,-0.23551 -2.29899,-0.36167 -3.50175,-0.36167 h -11.34074 c -1.19716,0 -2.36348,0.12616 -3.49054,0.35606 1.72144,2.3831 2.74196,5.29048 2.76159,8.43617 2.08591,-1.14949 4.47462,-1.80274 7.01752,-1.80274 2.06629,0 4.02604,0.43456 5.80916,1.20276 m -19.79935,-22.47402 c 0,-7.382 5.98859,-13.36778 13.37619,-13.36778 7.382,0 13.36778,5.98578 13.36778,13.36778 0,7.382 -5.98578,13.36778 -13.36778,13.36778 -7.3876,0 -13.37619,-5.98578 -13.37619,-13.36778"
       id="Fill-9-5"
       fill="#303e51"
       mask="url(#mask-2-1)"
       transform="matrix(0.26458333,0,0,0.26458333,-5.9999414,-8.4739178)" />
    <path
       id="Fill-7"
       fill="#303e51"
       fill-rule="evenodd"
       stroke="#000000"
       stroke-opacity="0"
       stroke-width="0"
       stroke-linecap="square"
       stroke-linejoin="bevel"
       d="m 21.076283,24.399509 c -0.909599,0 -1.684112,0.657438 -1.840216,1.564038 l -0.1901,1.145756 -1.075714,0.391282 c -1.562032,0.533351 -2.598718,1.981313 -2.598718,3.609388 0,2.089384 1.699125,3.788509 3.788508,3.788509 h 17.720731 c 1.825208,0 3.310192,-1.483981 3.310192,-3.309188 0,-1.794192 -1.516002,-3.310192 -3.310192,-3.310192 h -2.009331 l 0.100067,-2.008333 -9.99e-4,-0.09408 c 0,-3.061025 -2.451623,-5.512648 -5.465618,-5.512648 -2.103393,0 -4.04368,1.189786 -4.944277,3.031004 l -0.88158,1.76517 -1.757164,-0.878582 C 21.658705,24.464549 21.368503,24.39952 21.076309,24.39952 M 36.928805,37.857433 H 19.160043 c -3.720463,0 -6.74747,-3.027007 -6.74747,-6.74747 0,-2.686777 1.599059,-5.095374 4.033673,-6.156076 0.624414,-2.038348 2.488645,-3.465292 4.630063,-3.465292 0.464298,0 0.892591,0.08105 1.264838,0.189101 1.531013,-2.471637 4.199783,-3.97263 7.163746,-3.97263 2.266497,0 4.392908,0.88759 5.985963,2.501657 1.402928,1.417941 2.229476,3.239146 2.369569,5.189435 2.992979,0.472334 5.289502,3.069035 5.289502,6.193103 0,3.456289 -2.790851,6.268151 -6.221122,6.268151" />
    <circle
       style="fill:#000000;fill-opacity:0;stroke:#303e51;stroke-width:3.04271;stroke-miterlimit:2;stroke-dasharray:none;stroke-opacity:1"
       id="path1638"
       cx="27.78125"
       cy="27.78125"
       r="25.988174" />
    <path
       style="fill:#303e51;fill-opacity:1;stroke:#303e51;stroke-width:1.35209;stroke-miterlimit:2"
       d="m 18.175177,34.679781 c -0.735124,-0.234635 -1.135983,-0.482528 -1.669791,-1.032603 -1.326478,-1.366898 -1.384765,-3.549165 -0.132783,-4.971491 0.526764,-0.598437 0.847751,-0.800542 1.973566,-1.242632 l 0.75886,-0.297992 0.130175,-0.702053 c 0.168878,-0.910783 0.427312,-1.385359 0.92035,-1.690074 0.637704,-0.394123 1.325732,-0.330721 2.428613,0.223798 0.514451,0.258659 0.987124,0.470291 1.050385,0.470291 0.06326,0 0.392536,-0.542305 0.731722,-1.205124 1.256418,-2.455225 3.102541,-3.621905 5.489381,-3.469084 2.105208,0.134789 3.946142,1.482831 4.739037,3.470206 0.234691,0.588246 0.270703,0.893866 0.2804,2.379734 l 0.01111,1.704808 1.520618,0.05879 c 1.388089,0.05366 1.568212,0.08676 2.066698,0.379807 1.076552,0.632865 1.627568,1.584894 1.617495,2.794667 -0.0035,0.420322 -0.06847,0.932685 -0.144385,1.138584 -0.258646,0.701532 -0.842539,1.380857 -1.497248,1.741955 l -0.639517,0.352719 -9.582205,0.02291 c -7.500221,0.01794 -9.68439,-0.0097 -10.0525,-0.127206 z"
       id="path3040" />
  </g>
</svg>
