<?xml version="1.0" encoding="UTF-8" standalone="no"?>
<svg
   xmlns:dc="http://purl.org/dc/elements/1.1/"
   xmlns:cc="http://creativecommons.org/ns#"
   xmlns:rdf="http://www.w3.org/1999/02/22-rdf-syntax-ns#"
   xmlns:svg="http://www.w3.org/2000/svg"
   xmlns="http://www.w3.org/2000/svg"
   xmlns:xlink="http://www.w3.org/1999/xlink"
   xmlns:sodipodi="http://sodipodi.sourceforge.net/DTD/sodipodi-0.dtd"
   xmlns:inkscape="http://www.inkscape.org/namespaces/inkscape"
   width="210"
   height="210"
   viewBox="0 0 55.562499 55.562501"
   version="1.1"
   id="svg1310"
   inkscape:version="1.0.1 (0767f8302a, 2020-10-17)"
   sodipodi:docname="token-user.svg">
  <defs
     id="defs1304">
    <mask
       id="mask-2"
       fill="#ffffff">
      <polygon
         id="use187"
         points="563,384 563,0 0,0 0,384 "
         transform="scale(0.26458333)" />
    </mask>
    <mask
       id="mask-2-2"
       fill="#ffffff">
      <polygon
         id="use187-0"
         points="563,384 563,0 0,0 0,384 "
         transform="scale(0.26458333)" />
    </mask>
    <mask
       id="mask-2-1"
       fill="#ffffff">
      <polygon
         id="use187-5"
         points="563,384 563,0 0,0 0,384 "
         transform="scale(0.26458333)" />
    </mask>
    <mask
       id="clipmask0"
       maskUnits="objectBoundingBox"
       maskContentUnits="userSpaceOnUse"
       x="-0.1"
       y="-0.1"
       width="1.2"
       height="1.2">
      <defs
         id="defs1373" />
      <g
         id="mask-2-4"
         transform="translate(-157.68,-123.84)"
         fill="none">
        <g
           id="group0"
           fill="none">
          <path
             id="path-1"
             fill="#ffffff"
             stroke="#000000"
             stroke-opacity="0"
             stroke-width="0"
             stroke-linecap="square"
             stroke-linejoin="bevel"
             d="M 0,384 H 563 V 0 H 0 Z" />
        </g>
      </g>
    </mask>
    <mask
       id="clipmask0-6"
       maskUnits="objectBoundingBox"
       maskContentUnits="userSpaceOnUse"
       x="-0.1"
       y="-0.1"
       width="1.2"
       height="1.2">
      <defs
         id="defs1394" />
      <g
         id="mask-2-5"
         transform="translate(-157.68,-123.84)"
         fill="none">
        <g
           id="group0-6"
           fill="none">
          <path
             id="path-1-9"
             fill="#ffffff"
             stroke="#000000"
             stroke-opacity="0"
             stroke-width="0"
             stroke-linecap="square"
             stroke-linejoin="bevel"
             d="M 0,384 H 563 V 0 H 0 Z" />
        </g>
      </g>
    </mask>
    <mask
       id="clipmask0-5"
       maskUnits="objectBoundingBox"
       maskContentUnits="userSpaceOnUse"
       x="-0.1"
       y="-0.1"
       width="1.2"
       height="1.2">
      <defs
         id="defs1435" />
      <g
         id="mask-2-25"
         transform="translate(-47.25072,-43.673328)"
         fill="none">
        <g
           id="group0-4"
           fill="none">
          <path
             id="path-1-7"
             fill="#ffffff"
             stroke="#000000"
             stroke-opacity="0"
             stroke-width="0"
             stroke-linecap="square"
             stroke-linejoin="bevel"
             d="M 0,263.559 H 256.917 V 0 H 0 Z" />
        </g>
      </g>
    </mask>
    <mask
       id="mask-2-0"
       fill="#ffffff">
      <use
         xlink:href="#path-1"
         id="use2153"
         x="0"
         y="0"
         width="100%"
         height="100%" />
    </mask>
    <mask
       id="mask-2-8"
       fill="#ffffff">
      <use
         xlink:href="#path-1"
         id="use1771"
         x="0"
         y="0"
         width="100%"
         height="100%" />
    </mask>
    <mask
       id="mask-2-6"
       fill="#ffffff">
      <use
         xlink:href="#path-1"
         id="use1771-8"
         x="0"
         y="0"
         width="100%"
         height="100%" />
    </mask>
    <mask
       id="mask-2-6-2"
       fill="#ffffff">
      <use
         xlink:href="#path-1"
         id="use1771-8-0"
         x="0"
         y="0"
         width="100%"
         height="100%" />
    </mask>
    <clipPath
       clipPathUnits="userSpaceOnUse"
       id="clipPath5443">
      <circle
         style="fill:#d63e51;fill-opacity:0.755077;stroke:#f83e51;stroke-width:0;stroke-miterlimit:2;stroke-dasharray:none;stroke-opacity:0.880415"
         id="circle5445"
         cx="39.6875"
         cy="39.6875"
         r="23.011522" />
    </clipPath>
    <clipPath
       clipPathUnits="userSpaceOnUse"
       id="clipPath5466">
      <ellipse
         style="fill:#d63e51;fill-opacity:0.755077;stroke:#f83e51;stroke-width:0;stroke-miterlimit:2;stroke-dasharray:none;stroke-opacity:0.880415"
         id="ellipse5468"
         cx="39.6875"
         cy="39.6875"
         rx="22.491825"
         ry="22.768328" />
    </clipPath>
    <clipPath
       clipPathUnits="userSpaceOnUse"
       id="clipPath5476">
      <ellipse
         style="fill:#d63e51;fill-opacity:0.755077;stroke:#f83e51;stroke-width:0;stroke-miterlimit:2;stroke-dasharray:none;stroke-opacity:0.880415"
         id="ellipse5478"
         cx="39.70303"
         cy="41.035938"
         rx="22.100998"
         ry="21.303061" />
    </clipPath>
  </defs>
  <sodipodi:namedview
     id="base"
     pagecolor="#ffffff"
     bordercolor="#666666"
     borderopacity="1.0"
     inkscape:pageopacity="0.0"
     inkscape:pageshadow="2"
     inkscape:zoom="3.66"
     inkscape:cx="141.75729"
     inkscape:cy="89.674061"
     inkscape:document-units="mm"
     inkscape:current-layer="layer1"
     inkscape:document-rotation="0"
     showgrid="false"
     units="px"
     inkscape:window-width="1920"
     inkscape:window-height="1043"
     inkscape:window-x="0"
     inkscape:window-y="0"
     inkscape:window-maximized="1" />
  <metadata
     id="metadata1307">
    <rdf:RDF>
      <cc:Work
         rdf:about="">
        <dc:format>image/svg+xml</dc:format>
        <dc:type
           rdf:resource="http://purl.org/dc/dcmitype/StillImage" />
        <dc:title></dc:title>
      </cc:Work>
    </rdf:RDF>
  </metadata>
  <g
     inkscape:label="Layer 1"
     inkscape:groupmode="layer"
     id="layer1">
    <path
       d="m 251.05968,232.96246 c -2.78682,-2.67187 -4.55312,-6.39231 -4.67928,-10.51647 -0.3869,-0.028 -0.76539,-0.0561 -1.16351,-0.0561 h -10.44638 c -8.69691,0 -15.77051,7.07079 -15.77051,15.7705 v 12.77902 l 0.0336,0.20186 0.88315,0.27756 c 6.65305,2.0747 12.59678,3.03635 17.7611,3.33354 v -3.85782 c 0,-8.46981 5.64654,-15.63873 13.38179,-17.93212 M 239.9993,221.54882 c 2.40553,0 4.65125,-0.70651 6.55493,-1.90367 0.59998,-3.93632 2.71112,-7.382 5.72504,-9.72024 0.008,-0.2327 0.0336,-0.4626 0.0336,-0.69811 0,-6.80164 -5.51477,-12.31361 -12.31361,-12.31361 -6.80164,0 -12.31641,5.51197 -12.31641,12.31361 0,6.81006 5.51477,12.32202 12.31641,12.32202 m 67.523,-11.55662 h -10.37629 c -0.10654,4.1522 -1.87845,7.88946 -4.67648,10.57254 7.72404,2.3018 13.37619,9.47072 13.37619,17.93492 v 3.93632 c 10.23891,-0.37288 16.14619,-3.27466 16.53029,-3.47091 l 0.82147,-0.41494 H 323.29 V 225.7627 c 0,-8.6913 -7.0764,-15.7705 -15.7677,-15.7705 m -17.5312,-13.34255 c 3.88025,2.43637 6.60539,6.55212 7.09884,11.33794 1.58125,0.74016 3.33914,1.16632 5.20356,1.16632 6.80164,0 12.31641,-5.51477 12.31641,-12.31642 0,-6.80164 -5.51477,-12.31361 -12.31641,-12.31361 -6.73716,0 -12.20427,5.41384 -12.3024,12.12577 m -2.77841,25.74027 H 276.8392 c -0.10934,4.14939 -1.87844,7.88665 -4.67928,10.57254 7.72685,2.29899 13.379,9.46231 13.379,17.93212 v 3.93912 c 10.23891,-0.37849 16.14619,-3.27746 16.53029,-3.47371 l 0.82707,-0.42055 h 0.0869 v -12.78462 c 0,-8.69411 -7.0708,-15.7649 -15.77051,-15.7649 M 266.8358,235.10165 H 256.381 c -8.6913,0 -15.7677,7.0764 -15.7677,15.7705 v 12.78462 l 0.0336,0.19906 0.88314,0.27476 c 8.29319,2.59057 15.50416,3.4625 21.43668,3.4625 11.59027,0 18.3106,-3.3083 18.72835,-3.51857 l 0.82147,-0.41775 h 0.0841 v -12.78462 c 0,-8.6941 -7.07079,-15.7705 -15.76489,-15.7705 m -5.226,-0.83829 c 6.80165,0 12.31361,-5.51477 12.31361,-12.31642 0,-6.80164 -5.51196,-12.31641 -12.31361,-12.31641 -6.80164,0 -12.32202,5.51477 -12.32202,12.31641 0,6.80165 5.52038,12.31642 12.32202,12.31642 m 8.0745,-25.21879 c 3.87744,2.43636 6.60539,6.55492 7.09883,11.33794 1.58126,0.73455 3.33914,1.16631 5.20357,1.16631 6.80164,0 12.31641,-5.52037 12.31641,-12.32202 0,-6.80164 -5.51477,-12.31361 -12.31641,-12.31361 -6.73716,0 -12.20708,5.41384 -12.3024,12.13138 m -2.26534,-1.20277 c 0.12896,-2.90738 1.13547,-5.60449 2.74476,-7.83058 -1.13267,-0.23551 -2.29899,-0.36167 -3.50175,-0.36167 h -11.34074 c -1.19716,0 -2.36348,0.12616 -3.49054,0.35606 1.72144,2.3831 2.74196,5.29048 2.76159,8.43617 2.08591,-1.14949 4.47462,-1.80274 7.01752,-1.80274 2.06629,0 4.02604,0.43456 5.80916,1.20276 m -19.79935,-22.47402 c 0,-7.382 5.98859,-13.36778 13.37619,-13.36778 7.382,0 13.36778,5.98578 13.36778,13.36778 0,7.382 -5.98578,13.36778 -13.36778,13.36778 -7.3876,0 -13.37619,-5.98578 -13.37619,-13.36778"
       id="Fill-9"
       fill="#303e51"
       mask="url(#mask-2)"
       transform="matrix(0.26458333,0,0,0.26458333,-5.9999414,-8.4739178)" />
    <path
       d="m 251.05968,232.96246 c -2.78682,-2.67187 -4.55312,-6.39231 -4.67928,-10.51647 -0.3869,-0.028 -0.76539,-0.0561 -1.16351,-0.0561 h -10.44638 c -8.69691,0 -15.77051,7.07079 -15.77051,15.7705 v 12.77902 l 0.0336,0.20186 0.88315,0.27756 c 6.65305,2.0747 12.59678,3.03635 17.7611,3.33354 v -3.85782 c 0,-8.46981 5.64654,-15.63873 13.38179,-17.93212 M 239.9993,221.54882 c 2.40553,0 4.65125,-0.70651 6.55493,-1.90367 0.59998,-3.93632 2.71112,-7.382 5.72504,-9.72024 0.008,-0.2327 0.0336,-0.4626 0.0336,-0.69811 0,-6.80164 -5.51477,-12.31361 -12.31361,-12.31361 -6.80164,0 -12.31641,5.51197 -12.31641,12.31361 0,6.81006 5.51477,12.32202 12.31641,12.32202 m 67.523,-11.55662 h -10.37629 c -0.10654,4.1522 -1.87845,7.88946 -4.67648,10.57254 7.72404,2.3018 13.37619,9.47072 13.37619,17.93492 v 3.93632 c 10.23891,-0.37288 16.14619,-3.27466 16.53029,-3.47091 l 0.82147,-0.41494 H 323.29 V 225.7627 c 0,-8.6913 -7.0764,-15.7705 -15.7677,-15.7705 m -17.5312,-13.34255 c 3.88025,2.43637 6.60539,6.55212 7.09884,11.33794 1.58125,0.74016 3.33914,1.16632 5.20356,1.16632 6.80164,0 12.31641,-5.51477 12.31641,-12.31642 0,-6.80164 -5.51477,-12.31361 -12.31641,-12.31361 -6.73716,0 -12.20427,5.41384 -12.3024,12.12577 m -2.77841,25.74027 H 276.8392 c -0.10934,4.14939 -1.87844,7.88665 -4.67928,10.57254 7.72685,2.29899 13.379,9.46231 13.379,17.93212 v 3.93912 c 10.23891,-0.37849 16.14619,-3.27746 16.53029,-3.47371 l 0.82707,-0.42055 h 0.0869 v -12.78462 c 0,-8.69411 -7.0708,-15.7649 -15.77051,-15.7649 M 266.8358,235.10165 H 256.381 c -8.6913,0 -15.7677,7.0764 -15.7677,15.7705 v 12.78462 l 0.0336,0.19906 0.88314,0.27476 c 8.29319,2.59057 15.50416,3.4625 21.43668,3.4625 11.59027,0 18.3106,-3.3083 18.72835,-3.51857 l 0.82147,-0.41775 h 0.0841 v -12.78462 c 0,-8.6941 -7.07079,-15.7705 -15.76489,-15.7705 m -5.226,-0.83829 c 6.80165,0 12.31361,-5.51477 12.31361,-12.31642 0,-6.80164 -5.51196,-12.31641 -12.31361,-12.31641 -6.80164,0 -12.32202,5.51477 -12.32202,12.31641 0,6.80165 5.52038,12.31642 12.32202,12.31642 m 8.0745,-25.21879 c 3.87744,2.43636 6.60539,6.55492 7.09883,11.33794 1.58126,0.73455 3.33914,1.16631 5.20357,1.16631 6.80164,0 12.31641,-5.52037 12.31641,-12.32202 0,-6.80164 -5.51477,-12.31361 -12.31641,-12.31361 -6.73716,0 -12.20708,5.41384 -12.3024,12.13138 m -2.26534,-1.20277 c 0.12896,-2.90738 1.13547,-5.60449 2.74476,-7.83058 -1.13267,-0.23551 -2.29899,-0.36167 -3.50175,-0.36167 h -11.34074 c -1.19716,0 -2.36348,0.12616 -3.49054,0.35606 1.72144,2.3831 2.74196,5.29048 2.76159,8.43617 2.08591,-1.14949 4.47462,-1.80274 7.01752,-1.80274 2.06629,0 4.02604,0.43456 5.80916,1.20276 m -19.79935,-22.47402 c 0,-7.382 5.98859,-13.36778 13.37619,-13.36778 7.382,0 13.36778,5.98578 13.36778,13.36778 0,7.382 -5.98578,13.36778 -13.36778,13.36778 -7.3876,0 -13.37619,-5.98578 -13.37619,-13.36778"
       id="Fill-9-6"
       fill="#303e51"
       mask="url(#mask-2-2)"
       transform="matrix(0.26458333,0,0,0.26458333,-5.9999414,-8.4739178)" />
    <path
       d="m 251.05968,232.96246 c -2.78682,-2.67187 -4.55312,-6.39231 -4.67928,-10.51647 -0.3869,-0.028 -0.76539,-0.0561 -1.16351,-0.0561 h -10.44638 c -8.69691,0 -15.77051,7.07079 -15.77051,15.7705 v 12.77902 l 0.0336,0.20186 0.88315,0.27756 c 6.65305,2.0747 12.59678,3.03635 17.7611,3.33354 v -3.85782 c 0,-8.46981 5.64654,-15.63873 13.38179,-17.93212 M 239.9993,221.54882 c 2.40553,0 4.65125,-0.70651 6.55493,-1.90367 0.59998,-3.93632 2.71112,-7.382 5.72504,-9.72024 0.008,-0.2327 0.0336,-0.4626 0.0336,-0.69811 0,-6.80164 -5.51477,-12.31361 -12.31361,-12.31361 -6.80164,0 -12.31641,5.51197 -12.31641,12.31361 0,6.81006 5.51477,12.32202 12.31641,12.32202 m 67.523,-11.55662 h -10.37629 c -0.10654,4.1522 -1.87845,7.88946 -4.67648,10.57254 7.72404,2.3018 13.37619,9.47072 13.37619,17.93492 v 3.93632 c 10.23891,-0.37288 16.14619,-3.27466 16.53029,-3.47091 l 0.82147,-0.41494 H 323.29 V 225.7627 c 0,-8.6913 -7.0764,-15.7705 -15.7677,-15.7705 m -17.5312,-13.34255 c 3.88025,2.43637 6.60539,6.55212 7.09884,11.33794 1.58125,0.74016 3.33914,1.16632 5.20356,1.16632 6.80164,0 12.31641,-5.51477 12.31641,-12.31642 0,-6.80164 -5.51477,-12.31361 -12.31641,-12.31361 -6.73716,0 -12.20427,5.41384 -12.3024,12.12577 m -2.77841,25.74027 H 276.8392 c -0.10934,4.14939 -1.87844,7.88665 -4.67928,10.57254 7.72685,2.29899 13.379,9.46231 13.379,17.93212 v 3.93912 c 10.23891,-0.37849 16.14619,-3.27746 16.53029,-3.47371 l 0.82707,-0.42055 h 0.0869 v -12.78462 c 0,-8.69411 -7.0708,-15.7649 -15.77051,-15.7649 M 266.8358,235.10165 H 256.381 c -8.6913,0 -15.7677,7.0764 -15.7677,15.7705 v 12.78462 l 0.0336,0.19906 0.88314,0.27476 c 8.29319,2.59057 15.50416,3.4625 21.43668,3.4625 11.59027,0 18.3106,-3.3083 18.72835,-3.51857 l 0.82147,-0.41775 h 0.0841 v -12.78462 c 0,-8.6941 -7.07079,-15.7705 -15.76489,-15.7705 m -5.226,-0.83829 c 6.80165,0 12.31361,-5.51477 12.31361,-12.31642 0,-6.80164 -5.51196,-12.31641 -12.31361,-12.31641 -6.80164,0 -12.32202,5.51477 -12.32202,12.31641 0,6.80165 5.52038,12.31642 12.32202,12.31642 m 8.0745,-25.21879 c 3.87744,2.43636 6.60539,6.55492 7.09883,11.33794 1.58126,0.73455 3.33914,1.16631 5.20357,1.16631 6.80164,0 12.31641,-5.52037 12.31641,-12.32202 0,-6.80164 -5.51477,-12.31361 -12.31641,-12.31361 -6.73716,0 -12.20708,5.41384 -12.3024,12.13138 m -2.26534,-1.20277 c 0.12896,-2.90738 1.13547,-5.60449 2.74476,-7.83058 -1.13267,-0.23551 -2.29899,-0.36167 -3.50175,-0.36167 h -11.34074 c -1.19716,0 -2.36348,0.12616 -3.49054,0.35606 1.72144,2.3831 2.74196,5.29048 2.76159,8.43617 2.08591,-1.14949 4.47462,-1.80274 7.01752,-1.80274 2.06629,0 4.02604,0.43456 5.80916,1.20276 m -19.79935,-22.47402 c 0,-7.382 5.98859,-13.36778 13.37619,-13.36778 7.382,0 13.36778,5.98578 13.36778,13.36778 0,7.382 -5.98578,13.36778 -13.36778,13.36778 -7.3876,0 -13.37619,-5.98578 -13.37619,-13.36778"
       id="Fill-9-5"
       fill="#303e51"
       mask="url(#mask-2-1)"
       transform="matrix(0.26458333,0,0,0.26458333,-5.9999414,-8.4739178)" />
    <circle
       style="fill:#000000;fill-opacity:0;stroke:#303e51;stroke-width:3.04271;stroke-miterlimit:2;stroke-dasharray:none;stroke-opacity:1"
       id="path1638"
       cx="27.78125"
       cy="27.78125"
       r="25.988174" />
    <path
       d="m 30.27835,26.037602 h -4.992869 c -4.15069,0 -7.530169,3.417769 -7.530169,7.61686 v 6.17473 l 0.01615,0.09615 0.421744,0.132709 c 3.960547,1.251196 7.404322,1.672324 10.237475,1.672324 5.53514,0 8.744571,-1.597844 8.944088,-1.699403 l 0.392319,-0.201765 h 0.0401 v -6.174731 c 0,-4.19909 -3.376775,-7.616859 -7.528819,-7.616859 m -2.277166,-0.435924 c 3.249447,0 5.882779,-2.634958 5.882779,-5.884784 0,-3.249826 -2.633332,-5.884784 -5.882779,-5.884784 -3.249447,0 -5.886789,2.634958 -5.886789,5.884784 0,3.249826 2.637342,5.884784 5.886789,5.884784"
       id="Fill-9-3"
       fill="#303e51"
       style="stroke-width:0.435909" />
  </g>
</svg>
